G04 #@! TF.GenerationSoftware,KiCad,Pcbnew,8.0.4*
G04 #@! TF.CreationDate,2024-12-03T14:34:08+01:00*
G04 #@! TF.ProjectId,V2,56322e6b-6963-4616-945f-706362585858,rev?*
G04 #@! TF.SameCoordinates,Original*
G04 #@! TF.FileFunction,AssemblyDrawing,Top*
%FSLAX46Y46*%
G04 Gerber Fmt 4.6, Leading zero omitted, Abs format (unit mm)*
G04 Created by KiCad (PCBNEW 8.0.4) date 2024-12-03 14:34:08*
%MOMM*%
%LPD*%
G01*
G04 APERTURE LIST*
%ADD10C,0.150000*%
%ADD11C,0.080000*%
%ADD12C,0.200000*%
%ADD13C,0.100000*%
G04 APERTURE END LIST*
D10*
X162100952Y-62914819D02*
X161529524Y-62914819D01*
X161815238Y-62914819D02*
X161815238Y-61914819D01*
X161815238Y-61914819D02*
X161720000Y-62057676D01*
X161720000Y-62057676D02*
X161624762Y-62152914D01*
X161624762Y-62152914D02*
X161529524Y-62200533D01*
X162529524Y-62914819D02*
X162529524Y-61914819D01*
X162624762Y-62533866D02*
X162910476Y-62914819D01*
X162910476Y-62248152D02*
X162529524Y-62629104D01*
D11*
X162136666Y-64337149D02*
X161970000Y-64099054D01*
X161850952Y-64337149D02*
X161850952Y-63837149D01*
X161850952Y-63837149D02*
X162041428Y-63837149D01*
X162041428Y-63837149D02*
X162089047Y-63860959D01*
X162089047Y-63860959D02*
X162112857Y-63884768D01*
X162112857Y-63884768D02*
X162136666Y-63932387D01*
X162136666Y-63932387D02*
X162136666Y-64003816D01*
X162136666Y-64003816D02*
X162112857Y-64051435D01*
X162112857Y-64051435D02*
X162089047Y-64075244D01*
X162089047Y-64075244D02*
X162041428Y-64099054D01*
X162041428Y-64099054D02*
X161850952Y-64099054D01*
X162589047Y-63837149D02*
X162350952Y-63837149D01*
X162350952Y-63837149D02*
X162327143Y-64075244D01*
X162327143Y-64075244D02*
X162350952Y-64051435D01*
X162350952Y-64051435D02*
X162398571Y-64027625D01*
X162398571Y-64027625D02*
X162517619Y-64027625D01*
X162517619Y-64027625D02*
X162565238Y-64051435D01*
X162565238Y-64051435D02*
X162589047Y-64075244D01*
X162589047Y-64075244D02*
X162612857Y-64122863D01*
X162612857Y-64122863D02*
X162612857Y-64241911D01*
X162612857Y-64241911D02*
X162589047Y-64289530D01*
X162589047Y-64289530D02*
X162565238Y-64313340D01*
X162565238Y-64313340D02*
X162517619Y-64337149D01*
X162517619Y-64337149D02*
X162398571Y-64337149D01*
X162398571Y-64337149D02*
X162350952Y-64313340D01*
X162350952Y-64313340D02*
X162327143Y-64289530D01*
D10*
X168387143Y-83540057D02*
X168434762Y-83492438D01*
X168434762Y-83492438D02*
X168530000Y-83444819D01*
X168530000Y-83444819D02*
X168768095Y-83444819D01*
X168768095Y-83444819D02*
X168863333Y-83492438D01*
X168863333Y-83492438D02*
X168910952Y-83540057D01*
X168910952Y-83540057D02*
X168958571Y-83635295D01*
X168958571Y-83635295D02*
X168958571Y-83730533D01*
X168958571Y-83730533D02*
X168910952Y-83873390D01*
X168910952Y-83873390D02*
X168339524Y-84444819D01*
X168339524Y-84444819D02*
X168958571Y-84444819D01*
X169339524Y-83540057D02*
X169387143Y-83492438D01*
X169387143Y-83492438D02*
X169482381Y-83444819D01*
X169482381Y-83444819D02*
X169720476Y-83444819D01*
X169720476Y-83444819D02*
X169815714Y-83492438D01*
X169815714Y-83492438D02*
X169863333Y-83540057D01*
X169863333Y-83540057D02*
X169910952Y-83635295D01*
X169910952Y-83635295D02*
X169910952Y-83730533D01*
X169910952Y-83730533D02*
X169863333Y-83873390D01*
X169863333Y-83873390D02*
X169291905Y-84444819D01*
X169291905Y-84444819D02*
X169910952Y-84444819D01*
X170339524Y-83778152D02*
X170339524Y-84778152D01*
X170339524Y-83825771D02*
X170434762Y-83778152D01*
X170434762Y-83778152D02*
X170625238Y-83778152D01*
X170625238Y-83778152D02*
X170720476Y-83825771D01*
X170720476Y-83825771D02*
X170768095Y-83873390D01*
X170768095Y-83873390D02*
X170815714Y-83968628D01*
X170815714Y-83968628D02*
X170815714Y-84254342D01*
X170815714Y-84254342D02*
X170768095Y-84349580D01*
X170768095Y-84349580D02*
X170720476Y-84397200D01*
X170720476Y-84397200D02*
X170625238Y-84444819D01*
X170625238Y-84444819D02*
X170434762Y-84444819D01*
X170434762Y-84444819D02*
X170339524Y-84397200D01*
X171577619Y-83921009D02*
X171244286Y-83921009D01*
X171244286Y-84444819D02*
X171244286Y-83444819D01*
X171244286Y-83444819D02*
X171720476Y-83444819D01*
X169863333Y-88099580D02*
X169815714Y-88147200D01*
X169815714Y-88147200D02*
X169672857Y-88194819D01*
X169672857Y-88194819D02*
X169577619Y-88194819D01*
X169577619Y-88194819D02*
X169434762Y-88147200D01*
X169434762Y-88147200D02*
X169339524Y-88051961D01*
X169339524Y-88051961D02*
X169291905Y-87956723D01*
X169291905Y-87956723D02*
X169244286Y-87766247D01*
X169244286Y-87766247D02*
X169244286Y-87623390D01*
X169244286Y-87623390D02*
X169291905Y-87432914D01*
X169291905Y-87432914D02*
X169339524Y-87337676D01*
X169339524Y-87337676D02*
X169434762Y-87242438D01*
X169434762Y-87242438D02*
X169577619Y-87194819D01*
X169577619Y-87194819D02*
X169672857Y-87194819D01*
X169672857Y-87194819D02*
X169815714Y-87242438D01*
X169815714Y-87242438D02*
X169863333Y-87290057D01*
X170720476Y-87528152D02*
X170720476Y-88194819D01*
X170482381Y-87147200D02*
X170244286Y-87861485D01*
X170244286Y-87861485D02*
X170863333Y-87861485D01*
X165104642Y-56849819D02*
X164628452Y-56849819D01*
X164628452Y-56849819D02*
X164628452Y-55849819D01*
X165437976Y-56326009D02*
X165771309Y-56326009D01*
X165914166Y-56849819D02*
X165437976Y-56849819D01*
X165437976Y-56849819D02*
X165437976Y-55849819D01*
X165437976Y-55849819D02*
X165914166Y-55849819D01*
X166342738Y-56849819D02*
X166342738Y-55849819D01*
X166342738Y-55849819D02*
X166580833Y-55849819D01*
X166580833Y-55849819D02*
X166723690Y-55897438D01*
X166723690Y-55897438D02*
X166818928Y-55992676D01*
X166818928Y-55992676D02*
X166866547Y-56087914D01*
X166866547Y-56087914D02*
X166914166Y-56278390D01*
X166914166Y-56278390D02*
X166914166Y-56421247D01*
X166914166Y-56421247D02*
X166866547Y-56611723D01*
X166866547Y-56611723D02*
X166818928Y-56706961D01*
X166818928Y-56706961D02*
X166723690Y-56802200D01*
X166723690Y-56802200D02*
X166580833Y-56849819D01*
X166580833Y-56849819D02*
X166342738Y-56849819D01*
D11*
X165378452Y-58272149D02*
X165378452Y-57772149D01*
X165378452Y-57772149D02*
X165497500Y-57772149D01*
X165497500Y-57772149D02*
X165568928Y-57795959D01*
X165568928Y-57795959D02*
X165616547Y-57843578D01*
X165616547Y-57843578D02*
X165640357Y-57891197D01*
X165640357Y-57891197D02*
X165664166Y-57986435D01*
X165664166Y-57986435D02*
X165664166Y-58057863D01*
X165664166Y-58057863D02*
X165640357Y-58153101D01*
X165640357Y-58153101D02*
X165616547Y-58200720D01*
X165616547Y-58200720D02*
X165568928Y-58248340D01*
X165568928Y-58248340D02*
X165497500Y-58272149D01*
X165497500Y-58272149D02*
X165378452Y-58272149D01*
X166116547Y-57772149D02*
X165878452Y-57772149D01*
X165878452Y-57772149D02*
X165854643Y-58010244D01*
X165854643Y-58010244D02*
X165878452Y-57986435D01*
X165878452Y-57986435D02*
X165926071Y-57962625D01*
X165926071Y-57962625D02*
X166045119Y-57962625D01*
X166045119Y-57962625D02*
X166092738Y-57986435D01*
X166092738Y-57986435D02*
X166116547Y-58010244D01*
X166116547Y-58010244D02*
X166140357Y-58057863D01*
X166140357Y-58057863D02*
X166140357Y-58176911D01*
X166140357Y-58176911D02*
X166116547Y-58224530D01*
X166116547Y-58224530D02*
X166092738Y-58248340D01*
X166092738Y-58248340D02*
X166045119Y-58272149D01*
X166045119Y-58272149D02*
X165926071Y-58272149D01*
X165926071Y-58272149D02*
X165878452Y-58248340D01*
X165878452Y-58248340D02*
X165854643Y-58224530D01*
D10*
X168467143Y-84410057D02*
X168514762Y-84362438D01*
X168514762Y-84362438D02*
X168610000Y-84314819D01*
X168610000Y-84314819D02*
X168848095Y-84314819D01*
X168848095Y-84314819D02*
X168943333Y-84362438D01*
X168943333Y-84362438D02*
X168990952Y-84410057D01*
X168990952Y-84410057D02*
X169038571Y-84505295D01*
X169038571Y-84505295D02*
X169038571Y-84600533D01*
X169038571Y-84600533D02*
X168990952Y-84743390D01*
X168990952Y-84743390D02*
X168419524Y-85314819D01*
X168419524Y-85314819D02*
X169038571Y-85314819D01*
X169419524Y-84410057D02*
X169467143Y-84362438D01*
X169467143Y-84362438D02*
X169562381Y-84314819D01*
X169562381Y-84314819D02*
X169800476Y-84314819D01*
X169800476Y-84314819D02*
X169895714Y-84362438D01*
X169895714Y-84362438D02*
X169943333Y-84410057D01*
X169943333Y-84410057D02*
X169990952Y-84505295D01*
X169990952Y-84505295D02*
X169990952Y-84600533D01*
X169990952Y-84600533D02*
X169943333Y-84743390D01*
X169943333Y-84743390D02*
X169371905Y-85314819D01*
X169371905Y-85314819D02*
X169990952Y-85314819D01*
X170419524Y-84648152D02*
X170419524Y-85648152D01*
X170419524Y-84695771D02*
X170514762Y-84648152D01*
X170514762Y-84648152D02*
X170705238Y-84648152D01*
X170705238Y-84648152D02*
X170800476Y-84695771D01*
X170800476Y-84695771D02*
X170848095Y-84743390D01*
X170848095Y-84743390D02*
X170895714Y-84838628D01*
X170895714Y-84838628D02*
X170895714Y-85124342D01*
X170895714Y-85124342D02*
X170848095Y-85219580D01*
X170848095Y-85219580D02*
X170800476Y-85267200D01*
X170800476Y-85267200D02*
X170705238Y-85314819D01*
X170705238Y-85314819D02*
X170514762Y-85314819D01*
X170514762Y-85314819D02*
X170419524Y-85267200D01*
X171657619Y-84791009D02*
X171324286Y-84791009D01*
X171324286Y-85314819D02*
X171324286Y-84314819D01*
X171324286Y-84314819D02*
X171800476Y-84314819D01*
X169943333Y-81469580D02*
X169895714Y-81517200D01*
X169895714Y-81517200D02*
X169752857Y-81564819D01*
X169752857Y-81564819D02*
X169657619Y-81564819D01*
X169657619Y-81564819D02*
X169514762Y-81517200D01*
X169514762Y-81517200D02*
X169419524Y-81421961D01*
X169419524Y-81421961D02*
X169371905Y-81326723D01*
X169371905Y-81326723D02*
X169324286Y-81136247D01*
X169324286Y-81136247D02*
X169324286Y-80993390D01*
X169324286Y-80993390D02*
X169371905Y-80802914D01*
X169371905Y-80802914D02*
X169419524Y-80707676D01*
X169419524Y-80707676D02*
X169514762Y-80612438D01*
X169514762Y-80612438D02*
X169657619Y-80564819D01*
X169657619Y-80564819D02*
X169752857Y-80564819D01*
X169752857Y-80564819D02*
X169895714Y-80612438D01*
X169895714Y-80612438D02*
X169943333Y-80660057D01*
X170276667Y-80564819D02*
X170895714Y-80564819D01*
X170895714Y-80564819D02*
X170562381Y-80945771D01*
X170562381Y-80945771D02*
X170705238Y-80945771D01*
X170705238Y-80945771D02*
X170800476Y-80993390D01*
X170800476Y-80993390D02*
X170848095Y-81041009D01*
X170848095Y-81041009D02*
X170895714Y-81136247D01*
X170895714Y-81136247D02*
X170895714Y-81374342D01*
X170895714Y-81374342D02*
X170848095Y-81469580D01*
X170848095Y-81469580D02*
X170800476Y-81517200D01*
X170800476Y-81517200D02*
X170705238Y-81564819D01*
X170705238Y-81564819D02*
X170419524Y-81564819D01*
X170419524Y-81564819D02*
X170324286Y-81517200D01*
X170324286Y-81517200D02*
X170276667Y-81469580D01*
X165104642Y-62929819D02*
X164628452Y-62929819D01*
X164628452Y-62929819D02*
X164628452Y-61929819D01*
X165437976Y-62406009D02*
X165771309Y-62406009D01*
X165914166Y-62929819D02*
X165437976Y-62929819D01*
X165437976Y-62929819D02*
X165437976Y-61929819D01*
X165437976Y-61929819D02*
X165914166Y-61929819D01*
X166342738Y-62929819D02*
X166342738Y-61929819D01*
X166342738Y-61929819D02*
X166580833Y-61929819D01*
X166580833Y-61929819D02*
X166723690Y-61977438D01*
X166723690Y-61977438D02*
X166818928Y-62072676D01*
X166818928Y-62072676D02*
X166866547Y-62167914D01*
X166866547Y-62167914D02*
X166914166Y-62358390D01*
X166914166Y-62358390D02*
X166914166Y-62501247D01*
X166914166Y-62501247D02*
X166866547Y-62691723D01*
X166866547Y-62691723D02*
X166818928Y-62786961D01*
X166818928Y-62786961D02*
X166723690Y-62882200D01*
X166723690Y-62882200D02*
X166580833Y-62929819D01*
X166580833Y-62929819D02*
X166342738Y-62929819D01*
D11*
X165378452Y-64352149D02*
X165378452Y-63852149D01*
X165378452Y-63852149D02*
X165497500Y-63852149D01*
X165497500Y-63852149D02*
X165568928Y-63875959D01*
X165568928Y-63875959D02*
X165616547Y-63923578D01*
X165616547Y-63923578D02*
X165640357Y-63971197D01*
X165640357Y-63971197D02*
X165664166Y-64066435D01*
X165664166Y-64066435D02*
X165664166Y-64137863D01*
X165664166Y-64137863D02*
X165640357Y-64233101D01*
X165640357Y-64233101D02*
X165616547Y-64280720D01*
X165616547Y-64280720D02*
X165568928Y-64328340D01*
X165568928Y-64328340D02*
X165497500Y-64352149D01*
X165497500Y-64352149D02*
X165378452Y-64352149D01*
X165830833Y-63852149D02*
X166140357Y-63852149D01*
X166140357Y-63852149D02*
X165973690Y-64042625D01*
X165973690Y-64042625D02*
X166045119Y-64042625D01*
X166045119Y-64042625D02*
X166092738Y-64066435D01*
X166092738Y-64066435D02*
X166116547Y-64090244D01*
X166116547Y-64090244D02*
X166140357Y-64137863D01*
X166140357Y-64137863D02*
X166140357Y-64256911D01*
X166140357Y-64256911D02*
X166116547Y-64304530D01*
X166116547Y-64304530D02*
X166092738Y-64328340D01*
X166092738Y-64328340D02*
X166045119Y-64352149D01*
X166045119Y-64352149D02*
X165902262Y-64352149D01*
X165902262Y-64352149D02*
X165854643Y-64328340D01*
X165854643Y-64328340D02*
X165830833Y-64304530D01*
D10*
X166381190Y-92024819D02*
X165905000Y-92024819D01*
X165905000Y-92024819D02*
X165905000Y-91024819D01*
X166714524Y-91501009D02*
X167047857Y-91501009D01*
X167190714Y-92024819D02*
X166714524Y-92024819D01*
X166714524Y-92024819D02*
X166714524Y-91024819D01*
X166714524Y-91024819D02*
X167190714Y-91024819D01*
X167619286Y-92024819D02*
X167619286Y-91024819D01*
X167619286Y-91024819D02*
X167857381Y-91024819D01*
X167857381Y-91024819D02*
X168000238Y-91072438D01*
X168000238Y-91072438D02*
X168095476Y-91167676D01*
X168095476Y-91167676D02*
X168143095Y-91262914D01*
X168143095Y-91262914D02*
X168190714Y-91453390D01*
X168190714Y-91453390D02*
X168190714Y-91596247D01*
X168190714Y-91596247D02*
X168143095Y-91786723D01*
X168143095Y-91786723D02*
X168095476Y-91881961D01*
X168095476Y-91881961D02*
X168000238Y-91977200D01*
X168000238Y-91977200D02*
X167857381Y-92024819D01*
X167857381Y-92024819D02*
X167619286Y-92024819D01*
X168381191Y-92120057D02*
X169143095Y-92120057D01*
X169905000Y-91072438D02*
X169809762Y-91024819D01*
X169809762Y-91024819D02*
X169666905Y-91024819D01*
X169666905Y-91024819D02*
X169524048Y-91072438D01*
X169524048Y-91072438D02*
X169428810Y-91167676D01*
X169428810Y-91167676D02*
X169381191Y-91262914D01*
X169381191Y-91262914D02*
X169333572Y-91453390D01*
X169333572Y-91453390D02*
X169333572Y-91596247D01*
X169333572Y-91596247D02*
X169381191Y-91786723D01*
X169381191Y-91786723D02*
X169428810Y-91881961D01*
X169428810Y-91881961D02*
X169524048Y-91977200D01*
X169524048Y-91977200D02*
X169666905Y-92024819D01*
X169666905Y-92024819D02*
X169762143Y-92024819D01*
X169762143Y-92024819D02*
X169905000Y-91977200D01*
X169905000Y-91977200D02*
X169952619Y-91929580D01*
X169952619Y-91929580D02*
X169952619Y-91596247D01*
X169952619Y-91596247D02*
X169762143Y-91596247D01*
D12*
X168214524Y-96999695D02*
X168214524Y-96199695D01*
X168214524Y-96199695D02*
X168405000Y-96199695D01*
X168405000Y-96199695D02*
X168519286Y-96237790D01*
X168519286Y-96237790D02*
X168595476Y-96313980D01*
X168595476Y-96313980D02*
X168633571Y-96390171D01*
X168633571Y-96390171D02*
X168671667Y-96542552D01*
X168671667Y-96542552D02*
X168671667Y-96656838D01*
X168671667Y-96656838D02*
X168633571Y-96809219D01*
X168633571Y-96809219D02*
X168595476Y-96885409D01*
X168595476Y-96885409D02*
X168519286Y-96961600D01*
X168519286Y-96961600D02*
X168405000Y-96999695D01*
X168405000Y-96999695D02*
X168214524Y-96999695D01*
X169433571Y-96999695D02*
X168976428Y-96999695D01*
X169205000Y-96999695D02*
X169205000Y-96199695D01*
X169205000Y-96199695D02*
X169128809Y-96313980D01*
X169128809Y-96313980D02*
X169052619Y-96390171D01*
X169052619Y-96390171D02*
X168976428Y-96428266D01*
D10*
X165554523Y-46934819D02*
X165078333Y-46934819D01*
X165078333Y-46934819D02*
X165030714Y-47411009D01*
X165030714Y-47411009D02*
X165078333Y-47363390D01*
X165078333Y-47363390D02*
X165173571Y-47315771D01*
X165173571Y-47315771D02*
X165411666Y-47315771D01*
X165411666Y-47315771D02*
X165506904Y-47363390D01*
X165506904Y-47363390D02*
X165554523Y-47411009D01*
X165554523Y-47411009D02*
X165602142Y-47506247D01*
X165602142Y-47506247D02*
X165602142Y-47744342D01*
X165602142Y-47744342D02*
X165554523Y-47839580D01*
X165554523Y-47839580D02*
X165506904Y-47887200D01*
X165506904Y-47887200D02*
X165411666Y-47934819D01*
X165411666Y-47934819D02*
X165173571Y-47934819D01*
X165173571Y-47934819D02*
X165078333Y-47887200D01*
X165078333Y-47887200D02*
X165030714Y-47839580D01*
X165887857Y-46934819D02*
X166221190Y-47934819D01*
X166221190Y-47934819D02*
X166554523Y-46934819D01*
X164291666Y-45444819D02*
X164291666Y-46159104D01*
X164291666Y-46159104D02*
X164244047Y-46301961D01*
X164244047Y-46301961D02*
X164148809Y-46397200D01*
X164148809Y-46397200D02*
X164005952Y-46444819D01*
X164005952Y-46444819D02*
X163910714Y-46444819D01*
X165196428Y-45444819D02*
X165005952Y-45444819D01*
X165005952Y-45444819D02*
X164910714Y-45492438D01*
X164910714Y-45492438D02*
X164863095Y-45540057D01*
X164863095Y-45540057D02*
X164767857Y-45682914D01*
X164767857Y-45682914D02*
X164720238Y-45873390D01*
X164720238Y-45873390D02*
X164720238Y-46254342D01*
X164720238Y-46254342D02*
X164767857Y-46349580D01*
X164767857Y-46349580D02*
X164815476Y-46397200D01*
X164815476Y-46397200D02*
X164910714Y-46444819D01*
X164910714Y-46444819D02*
X165101190Y-46444819D01*
X165101190Y-46444819D02*
X165196428Y-46397200D01*
X165196428Y-46397200D02*
X165244047Y-46349580D01*
X165244047Y-46349580D02*
X165291666Y-46254342D01*
X165291666Y-46254342D02*
X165291666Y-46016247D01*
X165291666Y-46016247D02*
X165244047Y-45921009D01*
X165244047Y-45921009D02*
X165196428Y-45873390D01*
X165196428Y-45873390D02*
X165101190Y-45825771D01*
X165101190Y-45825771D02*
X164910714Y-45825771D01*
X164910714Y-45825771D02*
X164815476Y-45873390D01*
X164815476Y-45873390D02*
X164767857Y-45921009D01*
X164767857Y-45921009D02*
X164720238Y-46016247D01*
X183954819Y-76812731D02*
X183954819Y-77384159D01*
X183954819Y-77098445D02*
X182954819Y-77098445D01*
X182954819Y-77098445D02*
X183097676Y-77193683D01*
X183097676Y-77193683D02*
X183192914Y-77288921D01*
X183192914Y-77288921D02*
X183240533Y-77384159D01*
X182954819Y-76193683D02*
X182954819Y-76098445D01*
X182954819Y-76098445D02*
X183002438Y-76003207D01*
X183002438Y-76003207D02*
X183050057Y-75955588D01*
X183050057Y-75955588D02*
X183145295Y-75907969D01*
X183145295Y-75907969D02*
X183335771Y-75860350D01*
X183335771Y-75860350D02*
X183573866Y-75860350D01*
X183573866Y-75860350D02*
X183764342Y-75907969D01*
X183764342Y-75907969D02*
X183859580Y-75955588D01*
X183859580Y-75955588D02*
X183907200Y-76003207D01*
X183907200Y-76003207D02*
X183954819Y-76098445D01*
X183954819Y-76098445D02*
X183954819Y-76193683D01*
X183954819Y-76193683D02*
X183907200Y-76288921D01*
X183907200Y-76288921D02*
X183859580Y-76336540D01*
X183859580Y-76336540D02*
X183764342Y-76384159D01*
X183764342Y-76384159D02*
X183573866Y-76431778D01*
X183573866Y-76431778D02*
X183335771Y-76431778D01*
X183335771Y-76431778D02*
X183145295Y-76384159D01*
X183145295Y-76384159D02*
X183050057Y-76336540D01*
X183050057Y-76336540D02*
X183002438Y-76288921D01*
X183002438Y-76288921D02*
X182954819Y-76193683D01*
X182954819Y-75241302D02*
X182954819Y-75146064D01*
X182954819Y-75146064D02*
X183002438Y-75050826D01*
X183002438Y-75050826D02*
X183050057Y-75003207D01*
X183050057Y-75003207D02*
X183145295Y-74955588D01*
X183145295Y-74955588D02*
X183335771Y-74907969D01*
X183335771Y-74907969D02*
X183573866Y-74907969D01*
X183573866Y-74907969D02*
X183764342Y-74955588D01*
X183764342Y-74955588D02*
X183859580Y-75003207D01*
X183859580Y-75003207D02*
X183907200Y-75050826D01*
X183907200Y-75050826D02*
X183954819Y-75146064D01*
X183954819Y-75146064D02*
X183954819Y-75241302D01*
X183954819Y-75241302D02*
X183907200Y-75336540D01*
X183907200Y-75336540D02*
X183859580Y-75384159D01*
X183859580Y-75384159D02*
X183764342Y-75431778D01*
X183764342Y-75431778D02*
X183573866Y-75479397D01*
X183573866Y-75479397D02*
X183335771Y-75479397D01*
X183335771Y-75479397D02*
X183145295Y-75431778D01*
X183145295Y-75431778D02*
X183050057Y-75384159D01*
X183050057Y-75384159D02*
X183002438Y-75336540D01*
X183002438Y-75336540D02*
X182954819Y-75241302D01*
X183288152Y-74479397D02*
X183954819Y-74479397D01*
X183383390Y-74479397D02*
X183335771Y-74431778D01*
X183335771Y-74431778D02*
X183288152Y-74336540D01*
X183288152Y-74336540D02*
X183288152Y-74193683D01*
X183288152Y-74193683D02*
X183335771Y-74098445D01*
X183335771Y-74098445D02*
X183431009Y-74050826D01*
X183431009Y-74050826D02*
X183954819Y-74050826D01*
X183431009Y-73241302D02*
X183431009Y-73574635D01*
X183954819Y-73574635D02*
X182954819Y-73574635D01*
X182954819Y-73574635D02*
X182954819Y-73098445D01*
X180109580Y-75431778D02*
X180157200Y-75479397D01*
X180157200Y-75479397D02*
X180204819Y-75622254D01*
X180204819Y-75622254D02*
X180204819Y-75717492D01*
X180204819Y-75717492D02*
X180157200Y-75860349D01*
X180157200Y-75860349D02*
X180061961Y-75955587D01*
X180061961Y-75955587D02*
X179966723Y-76003206D01*
X179966723Y-76003206D02*
X179776247Y-76050825D01*
X179776247Y-76050825D02*
X179633390Y-76050825D01*
X179633390Y-76050825D02*
X179442914Y-76003206D01*
X179442914Y-76003206D02*
X179347676Y-75955587D01*
X179347676Y-75955587D02*
X179252438Y-75860349D01*
X179252438Y-75860349D02*
X179204819Y-75717492D01*
X179204819Y-75717492D02*
X179204819Y-75622254D01*
X179204819Y-75622254D02*
X179252438Y-75479397D01*
X179252438Y-75479397D02*
X179300057Y-75431778D01*
X179204819Y-74527016D02*
X179204819Y-75003206D01*
X179204819Y-75003206D02*
X179681009Y-75050825D01*
X179681009Y-75050825D02*
X179633390Y-75003206D01*
X179633390Y-75003206D02*
X179585771Y-74907968D01*
X179585771Y-74907968D02*
X179585771Y-74669873D01*
X179585771Y-74669873D02*
X179633390Y-74574635D01*
X179633390Y-74574635D02*
X179681009Y-74527016D01*
X179681009Y-74527016D02*
X179776247Y-74479397D01*
X179776247Y-74479397D02*
X180014342Y-74479397D01*
X180014342Y-74479397D02*
X180109580Y-74527016D01*
X180109580Y-74527016D02*
X180157200Y-74574635D01*
X180157200Y-74574635D02*
X180204819Y-74669873D01*
X180204819Y-74669873D02*
X180204819Y-74907968D01*
X180204819Y-74907968D02*
X180157200Y-75003206D01*
X180157200Y-75003206D02*
X180109580Y-75050825D01*
X172649819Y-86435000D02*
X172649819Y-87006428D01*
X172649819Y-86720714D02*
X171649819Y-86720714D01*
X171649819Y-86720714D02*
X171792676Y-86815952D01*
X171792676Y-86815952D02*
X171887914Y-86911190D01*
X171887914Y-86911190D02*
X171935533Y-87006428D01*
X171649819Y-85577857D02*
X171649819Y-85768333D01*
X171649819Y-85768333D02*
X171697438Y-85863571D01*
X171697438Y-85863571D02*
X171745057Y-85911190D01*
X171745057Y-85911190D02*
X171887914Y-86006428D01*
X171887914Y-86006428D02*
X172078390Y-86054047D01*
X172078390Y-86054047D02*
X172459342Y-86054047D01*
X172459342Y-86054047D02*
X172554580Y-86006428D01*
X172554580Y-86006428D02*
X172602200Y-85958809D01*
X172602200Y-85958809D02*
X172649819Y-85863571D01*
X172649819Y-85863571D02*
X172649819Y-85673095D01*
X172649819Y-85673095D02*
X172602200Y-85577857D01*
X172602200Y-85577857D02*
X172554580Y-85530238D01*
X172554580Y-85530238D02*
X172459342Y-85482619D01*
X172459342Y-85482619D02*
X172221247Y-85482619D01*
X172221247Y-85482619D02*
X172126009Y-85530238D01*
X172126009Y-85530238D02*
X172078390Y-85577857D01*
X172078390Y-85577857D02*
X172030771Y-85673095D01*
X172030771Y-85673095D02*
X172030771Y-85863571D01*
X172030771Y-85863571D02*
X172078390Y-85958809D01*
X172078390Y-85958809D02*
X172126009Y-86006428D01*
X172126009Y-86006428D02*
X172221247Y-86054047D01*
X172649819Y-84292142D02*
X171649819Y-84292142D01*
X171649819Y-84292142D02*
X172364104Y-83958809D01*
X172364104Y-83958809D02*
X171649819Y-83625476D01*
X171649819Y-83625476D02*
X172649819Y-83625476D01*
X172649819Y-83149285D02*
X171649819Y-83149285D01*
X172649819Y-82720714D02*
X172126009Y-82720714D01*
X172126009Y-82720714D02*
X172030771Y-82768333D01*
X172030771Y-82768333D02*
X171983152Y-82863571D01*
X171983152Y-82863571D02*
X171983152Y-83006428D01*
X171983152Y-83006428D02*
X172030771Y-83101666D01*
X172030771Y-83101666D02*
X172078390Y-83149285D01*
X171983152Y-82339761D02*
X171983152Y-81815952D01*
X171983152Y-81815952D02*
X172649819Y-82339761D01*
X172649819Y-82339761D02*
X172649819Y-81815952D01*
X175698628Y-84911190D02*
X176174819Y-84911190D01*
X175174819Y-85244523D02*
X175698628Y-84911190D01*
X175698628Y-84911190D02*
X175174819Y-84577857D01*
X176174819Y-83720714D02*
X176174819Y-84292142D01*
X176174819Y-84006428D02*
X175174819Y-84006428D01*
X175174819Y-84006428D02*
X175317676Y-84101666D01*
X175317676Y-84101666D02*
X175412914Y-84196904D01*
X175412914Y-84196904D02*
X175460533Y-84292142D01*
X198822438Y-51871904D02*
X198774819Y-51967142D01*
X198774819Y-51967142D02*
X198774819Y-52109999D01*
X198774819Y-52109999D02*
X198822438Y-52252856D01*
X198822438Y-52252856D02*
X198917676Y-52348094D01*
X198917676Y-52348094D02*
X199012914Y-52395713D01*
X199012914Y-52395713D02*
X199203390Y-52443332D01*
X199203390Y-52443332D02*
X199346247Y-52443332D01*
X199346247Y-52443332D02*
X199536723Y-52395713D01*
X199536723Y-52395713D02*
X199631961Y-52348094D01*
X199631961Y-52348094D02*
X199727200Y-52252856D01*
X199727200Y-52252856D02*
X199774819Y-52109999D01*
X199774819Y-52109999D02*
X199774819Y-52014761D01*
X199774819Y-52014761D02*
X199727200Y-51871904D01*
X199727200Y-51871904D02*
X199679580Y-51824285D01*
X199679580Y-51824285D02*
X199346247Y-51824285D01*
X199346247Y-51824285D02*
X199346247Y-52014761D01*
X199774819Y-51395713D02*
X198774819Y-51395713D01*
X198774819Y-51395713D02*
X199774819Y-50824285D01*
X199774819Y-50824285D02*
X198774819Y-50824285D01*
X199774819Y-50348094D02*
X198774819Y-50348094D01*
X198774819Y-50348094D02*
X198774819Y-50109999D01*
X198774819Y-50109999D02*
X198822438Y-49967142D01*
X198822438Y-49967142D02*
X198917676Y-49871904D01*
X198917676Y-49871904D02*
X199012914Y-49824285D01*
X199012914Y-49824285D02*
X199203390Y-49776666D01*
X199203390Y-49776666D02*
X199346247Y-49776666D01*
X199346247Y-49776666D02*
X199536723Y-49824285D01*
X199536723Y-49824285D02*
X199631961Y-49871904D01*
X199631961Y-49871904D02*
X199727200Y-49967142D01*
X199727200Y-49967142D02*
X199774819Y-50109999D01*
X199774819Y-50109999D02*
X199774819Y-50348094D01*
X197374819Y-51403333D02*
X198089104Y-51403333D01*
X198089104Y-51403333D02*
X198231961Y-51450952D01*
X198231961Y-51450952D02*
X198327200Y-51546190D01*
X198327200Y-51546190D02*
X198374819Y-51689047D01*
X198374819Y-51689047D02*
X198374819Y-51784285D01*
X197374819Y-50450952D02*
X197374819Y-50927142D01*
X197374819Y-50927142D02*
X197851009Y-50974761D01*
X197851009Y-50974761D02*
X197803390Y-50927142D01*
X197803390Y-50927142D02*
X197755771Y-50831904D01*
X197755771Y-50831904D02*
X197755771Y-50593809D01*
X197755771Y-50593809D02*
X197803390Y-50498571D01*
X197803390Y-50498571D02*
X197851009Y-50450952D01*
X197851009Y-50450952D02*
X197946247Y-50403333D01*
X197946247Y-50403333D02*
X198184342Y-50403333D01*
X198184342Y-50403333D02*
X198279580Y-50450952D01*
X198279580Y-50450952D02*
X198327200Y-50498571D01*
X198327200Y-50498571D02*
X198374819Y-50593809D01*
X198374819Y-50593809D02*
X198374819Y-50831904D01*
X198374819Y-50831904D02*
X198327200Y-50927142D01*
X198327200Y-50927142D02*
X198279580Y-50974761D01*
X181341428Y-51394819D02*
X181341428Y-50394819D01*
X182389046Y-51394819D02*
X182055713Y-50918628D01*
X181817618Y-51394819D02*
X181817618Y-50394819D01*
X181817618Y-50394819D02*
X182198570Y-50394819D01*
X182198570Y-50394819D02*
X182293808Y-50442438D01*
X182293808Y-50442438D02*
X182341427Y-50490057D01*
X182341427Y-50490057D02*
X182389046Y-50585295D01*
X182389046Y-50585295D02*
X182389046Y-50728152D01*
X182389046Y-50728152D02*
X182341427Y-50823390D01*
X182341427Y-50823390D02*
X182293808Y-50871009D01*
X182293808Y-50871009D02*
X182198570Y-50918628D01*
X182198570Y-50918628D02*
X181817618Y-50918628D01*
X182579523Y-51490057D02*
X183341427Y-51490057D01*
X183531904Y-51347200D02*
X183674761Y-51394819D01*
X183674761Y-51394819D02*
X183912856Y-51394819D01*
X183912856Y-51394819D02*
X184008094Y-51347200D01*
X184008094Y-51347200D02*
X184055713Y-51299580D01*
X184055713Y-51299580D02*
X184103332Y-51204342D01*
X184103332Y-51204342D02*
X184103332Y-51109104D01*
X184103332Y-51109104D02*
X184055713Y-51013866D01*
X184055713Y-51013866D02*
X184008094Y-50966247D01*
X184008094Y-50966247D02*
X183912856Y-50918628D01*
X183912856Y-50918628D02*
X183722380Y-50871009D01*
X183722380Y-50871009D02*
X183627142Y-50823390D01*
X183627142Y-50823390D02*
X183579523Y-50775771D01*
X183579523Y-50775771D02*
X183531904Y-50680533D01*
X183531904Y-50680533D02*
X183531904Y-50585295D01*
X183531904Y-50585295D02*
X183579523Y-50490057D01*
X183579523Y-50490057D02*
X183627142Y-50442438D01*
X183627142Y-50442438D02*
X183722380Y-50394819D01*
X183722380Y-50394819D02*
X183960475Y-50394819D01*
X183960475Y-50394819D02*
X184103332Y-50442438D01*
X184531904Y-50871009D02*
X184865237Y-50871009D01*
X185008094Y-51394819D02*
X184531904Y-51394819D01*
X184531904Y-51394819D02*
X184531904Y-50394819D01*
X184531904Y-50394819D02*
X185008094Y-50394819D01*
X185436666Y-51394819D02*
X185436666Y-50394819D01*
X185436666Y-50394819D02*
X186008094Y-51394819D01*
X186008094Y-51394819D02*
X186008094Y-50394819D01*
X186436666Y-51347200D02*
X186579523Y-51394819D01*
X186579523Y-51394819D02*
X186817618Y-51394819D01*
X186817618Y-51394819D02*
X186912856Y-51347200D01*
X186912856Y-51347200D02*
X186960475Y-51299580D01*
X186960475Y-51299580D02*
X187008094Y-51204342D01*
X187008094Y-51204342D02*
X187008094Y-51109104D01*
X187008094Y-51109104D02*
X186960475Y-51013866D01*
X186960475Y-51013866D02*
X186912856Y-50966247D01*
X186912856Y-50966247D02*
X186817618Y-50918628D01*
X186817618Y-50918628D02*
X186627142Y-50871009D01*
X186627142Y-50871009D02*
X186531904Y-50823390D01*
X186531904Y-50823390D02*
X186484285Y-50775771D01*
X186484285Y-50775771D02*
X186436666Y-50680533D01*
X186436666Y-50680533D02*
X186436666Y-50585295D01*
X186436666Y-50585295D02*
X186484285Y-50490057D01*
X186484285Y-50490057D02*
X186531904Y-50442438D01*
X186531904Y-50442438D02*
X186627142Y-50394819D01*
X186627142Y-50394819D02*
X186865237Y-50394819D01*
X186865237Y-50394819D02*
X187008094Y-50442438D01*
X187627142Y-50394819D02*
X187817618Y-50394819D01*
X187817618Y-50394819D02*
X187912856Y-50442438D01*
X187912856Y-50442438D02*
X188008094Y-50537676D01*
X188008094Y-50537676D02*
X188055713Y-50728152D01*
X188055713Y-50728152D02*
X188055713Y-51061485D01*
X188055713Y-51061485D02*
X188008094Y-51251961D01*
X188008094Y-51251961D02*
X187912856Y-51347200D01*
X187912856Y-51347200D02*
X187817618Y-51394819D01*
X187817618Y-51394819D02*
X187627142Y-51394819D01*
X187627142Y-51394819D02*
X187531904Y-51347200D01*
X187531904Y-51347200D02*
X187436666Y-51251961D01*
X187436666Y-51251961D02*
X187389047Y-51061485D01*
X187389047Y-51061485D02*
X187389047Y-50728152D01*
X187389047Y-50728152D02*
X187436666Y-50537676D01*
X187436666Y-50537676D02*
X187531904Y-50442438D01*
X187531904Y-50442438D02*
X187627142Y-50394819D01*
X189055713Y-51394819D02*
X188722380Y-50918628D01*
X188484285Y-51394819D02*
X188484285Y-50394819D01*
X188484285Y-50394819D02*
X188865237Y-50394819D01*
X188865237Y-50394819D02*
X188960475Y-50442438D01*
X188960475Y-50442438D02*
X189008094Y-50490057D01*
X189008094Y-50490057D02*
X189055713Y-50585295D01*
X189055713Y-50585295D02*
X189055713Y-50728152D01*
X189055713Y-50728152D02*
X189008094Y-50823390D01*
X189008094Y-50823390D02*
X188960475Y-50871009D01*
X188960475Y-50871009D02*
X188865237Y-50918628D01*
X188865237Y-50918628D02*
X188484285Y-50918628D01*
X190246190Y-50728152D02*
X190246190Y-51394819D01*
X190246190Y-50823390D02*
X190293809Y-50775771D01*
X190293809Y-50775771D02*
X190389047Y-50728152D01*
X190389047Y-50728152D02*
X190531904Y-50728152D01*
X190531904Y-50728152D02*
X190627142Y-50775771D01*
X190627142Y-50775771D02*
X190674761Y-50871009D01*
X190674761Y-50871009D02*
X190674761Y-51394819D01*
X191865238Y-51347200D02*
X192008095Y-51394819D01*
X192008095Y-51394819D02*
X192246190Y-51394819D01*
X192246190Y-51394819D02*
X192341428Y-51347200D01*
X192341428Y-51347200D02*
X192389047Y-51299580D01*
X192389047Y-51299580D02*
X192436666Y-51204342D01*
X192436666Y-51204342D02*
X192436666Y-51109104D01*
X192436666Y-51109104D02*
X192389047Y-51013866D01*
X192389047Y-51013866D02*
X192341428Y-50966247D01*
X192341428Y-50966247D02*
X192246190Y-50918628D01*
X192246190Y-50918628D02*
X192055714Y-50871009D01*
X192055714Y-50871009D02*
X191960476Y-50823390D01*
X191960476Y-50823390D02*
X191912857Y-50775771D01*
X191912857Y-50775771D02*
X191865238Y-50680533D01*
X191865238Y-50680533D02*
X191865238Y-50585295D01*
X191865238Y-50585295D02*
X191912857Y-50490057D01*
X191912857Y-50490057D02*
X191960476Y-50442438D01*
X191960476Y-50442438D02*
X192055714Y-50394819D01*
X192055714Y-50394819D02*
X192293809Y-50394819D01*
X192293809Y-50394819D02*
X192436666Y-50442438D01*
X192865238Y-50871009D02*
X193198571Y-50871009D01*
X193341428Y-51394819D02*
X192865238Y-51394819D01*
X192865238Y-51394819D02*
X192865238Y-50394819D01*
X192865238Y-50394819D02*
X193341428Y-50394819D01*
X194341428Y-51394819D02*
X194008095Y-50918628D01*
X193770000Y-51394819D02*
X193770000Y-50394819D01*
X193770000Y-50394819D02*
X194150952Y-50394819D01*
X194150952Y-50394819D02*
X194246190Y-50442438D01*
X194246190Y-50442438D02*
X194293809Y-50490057D01*
X194293809Y-50490057D02*
X194341428Y-50585295D01*
X194341428Y-50585295D02*
X194341428Y-50728152D01*
X194341428Y-50728152D02*
X194293809Y-50823390D01*
X194293809Y-50823390D02*
X194246190Y-50871009D01*
X194246190Y-50871009D02*
X194150952Y-50918628D01*
X194150952Y-50918628D02*
X193770000Y-50918628D01*
X194627143Y-50394819D02*
X194960476Y-51394819D01*
X194960476Y-51394819D02*
X195293809Y-50394819D01*
X195817619Y-50394819D02*
X196008095Y-50394819D01*
X196008095Y-50394819D02*
X196103333Y-50442438D01*
X196103333Y-50442438D02*
X196198571Y-50537676D01*
X196198571Y-50537676D02*
X196246190Y-50728152D01*
X196246190Y-50728152D02*
X196246190Y-51061485D01*
X196246190Y-51061485D02*
X196198571Y-51251961D01*
X196198571Y-51251961D02*
X196103333Y-51347200D01*
X196103333Y-51347200D02*
X196008095Y-51394819D01*
X196008095Y-51394819D02*
X195817619Y-51394819D01*
X195817619Y-51394819D02*
X195722381Y-51347200D01*
X195722381Y-51347200D02*
X195627143Y-51251961D01*
X195627143Y-51251961D02*
X195579524Y-51061485D01*
X195579524Y-51061485D02*
X195579524Y-50728152D01*
X195579524Y-50728152D02*
X195627143Y-50537676D01*
X195627143Y-50537676D02*
X195722381Y-50442438D01*
X195722381Y-50442438D02*
X195817619Y-50394819D01*
X193664819Y-47628333D02*
X194379104Y-47628333D01*
X194379104Y-47628333D02*
X194521961Y-47675952D01*
X194521961Y-47675952D02*
X194617200Y-47771190D01*
X194617200Y-47771190D02*
X194664819Y-47914047D01*
X194664819Y-47914047D02*
X194664819Y-48009285D01*
X193664819Y-47247380D02*
X193664819Y-46628333D01*
X193664819Y-46628333D02*
X194045771Y-46961666D01*
X194045771Y-46961666D02*
X194045771Y-46818809D01*
X194045771Y-46818809D02*
X194093390Y-46723571D01*
X194093390Y-46723571D02*
X194141009Y-46675952D01*
X194141009Y-46675952D02*
X194236247Y-46628333D01*
X194236247Y-46628333D02*
X194474342Y-46628333D01*
X194474342Y-46628333D02*
X194569580Y-46675952D01*
X194569580Y-46675952D02*
X194617200Y-46723571D01*
X194617200Y-46723571D02*
X194664819Y-46818809D01*
X194664819Y-46818809D02*
X194664819Y-47104523D01*
X194664819Y-47104523D02*
X194617200Y-47199761D01*
X194617200Y-47199761D02*
X194569580Y-47247380D01*
X163911904Y-50679580D02*
X163864285Y-50727200D01*
X163864285Y-50727200D02*
X163721428Y-50774819D01*
X163721428Y-50774819D02*
X163626190Y-50774819D01*
X163626190Y-50774819D02*
X163483333Y-50727200D01*
X163483333Y-50727200D02*
X163388095Y-50631961D01*
X163388095Y-50631961D02*
X163340476Y-50536723D01*
X163340476Y-50536723D02*
X163292857Y-50346247D01*
X163292857Y-50346247D02*
X163292857Y-50203390D01*
X163292857Y-50203390D02*
X163340476Y-50012914D01*
X163340476Y-50012914D02*
X163388095Y-49917676D01*
X163388095Y-49917676D02*
X163483333Y-49822438D01*
X163483333Y-49822438D02*
X163626190Y-49774819D01*
X163626190Y-49774819D02*
X163721428Y-49774819D01*
X163721428Y-49774819D02*
X163864285Y-49822438D01*
X163864285Y-49822438D02*
X163911904Y-49870057D01*
X164483333Y-50774819D02*
X164388095Y-50727200D01*
X164388095Y-50727200D02*
X164340476Y-50679580D01*
X164340476Y-50679580D02*
X164292857Y-50584342D01*
X164292857Y-50584342D02*
X164292857Y-50298628D01*
X164292857Y-50298628D02*
X164340476Y-50203390D01*
X164340476Y-50203390D02*
X164388095Y-50155771D01*
X164388095Y-50155771D02*
X164483333Y-50108152D01*
X164483333Y-50108152D02*
X164626190Y-50108152D01*
X164626190Y-50108152D02*
X164721428Y-50155771D01*
X164721428Y-50155771D02*
X164769047Y-50203390D01*
X164769047Y-50203390D02*
X164816666Y-50298628D01*
X164816666Y-50298628D02*
X164816666Y-50584342D01*
X164816666Y-50584342D02*
X164769047Y-50679580D01*
X164769047Y-50679580D02*
X164721428Y-50727200D01*
X164721428Y-50727200D02*
X164626190Y-50774819D01*
X164626190Y-50774819D02*
X164483333Y-50774819D01*
X165245238Y-50108152D02*
X165245238Y-50774819D01*
X165245238Y-50203390D02*
X165292857Y-50155771D01*
X165292857Y-50155771D02*
X165388095Y-50108152D01*
X165388095Y-50108152D02*
X165530952Y-50108152D01*
X165530952Y-50108152D02*
X165626190Y-50155771D01*
X165626190Y-50155771D02*
X165673809Y-50251009D01*
X165673809Y-50251009D02*
X165673809Y-50774819D01*
X166150000Y-50108152D02*
X166150000Y-50774819D01*
X166150000Y-50203390D02*
X166197619Y-50155771D01*
X166197619Y-50155771D02*
X166292857Y-50108152D01*
X166292857Y-50108152D02*
X166435714Y-50108152D01*
X166435714Y-50108152D02*
X166530952Y-50155771D01*
X166530952Y-50155771D02*
X166578571Y-50251009D01*
X166578571Y-50251009D02*
X166578571Y-50774819D01*
X167435714Y-50727200D02*
X167340476Y-50774819D01*
X167340476Y-50774819D02*
X167150000Y-50774819D01*
X167150000Y-50774819D02*
X167054762Y-50727200D01*
X167054762Y-50727200D02*
X167007143Y-50631961D01*
X167007143Y-50631961D02*
X167007143Y-50251009D01*
X167007143Y-50251009D02*
X167054762Y-50155771D01*
X167054762Y-50155771D02*
X167150000Y-50108152D01*
X167150000Y-50108152D02*
X167340476Y-50108152D01*
X167340476Y-50108152D02*
X167435714Y-50155771D01*
X167435714Y-50155771D02*
X167483333Y-50251009D01*
X167483333Y-50251009D02*
X167483333Y-50346247D01*
X167483333Y-50346247D02*
X167007143Y-50441485D01*
X168340476Y-50727200D02*
X168245238Y-50774819D01*
X168245238Y-50774819D02*
X168054762Y-50774819D01*
X168054762Y-50774819D02*
X167959524Y-50727200D01*
X167959524Y-50727200D02*
X167911905Y-50679580D01*
X167911905Y-50679580D02*
X167864286Y-50584342D01*
X167864286Y-50584342D02*
X167864286Y-50298628D01*
X167864286Y-50298628D02*
X167911905Y-50203390D01*
X167911905Y-50203390D02*
X167959524Y-50155771D01*
X167959524Y-50155771D02*
X168054762Y-50108152D01*
X168054762Y-50108152D02*
X168245238Y-50108152D01*
X168245238Y-50108152D02*
X168340476Y-50155771D01*
X168626191Y-50108152D02*
X169007143Y-50108152D01*
X168769048Y-49774819D02*
X168769048Y-50631961D01*
X168769048Y-50631961D02*
X168816667Y-50727200D01*
X168816667Y-50727200D02*
X168911905Y-50774819D01*
X168911905Y-50774819D02*
X169007143Y-50774819D01*
X169340477Y-50774819D02*
X169340477Y-50108152D01*
X169340477Y-49774819D02*
X169292858Y-49822438D01*
X169292858Y-49822438D02*
X169340477Y-49870057D01*
X169340477Y-49870057D02*
X169388096Y-49822438D01*
X169388096Y-49822438D02*
X169340477Y-49774819D01*
X169340477Y-49774819D02*
X169340477Y-49870057D01*
X169959524Y-50774819D02*
X169864286Y-50727200D01*
X169864286Y-50727200D02*
X169816667Y-50679580D01*
X169816667Y-50679580D02*
X169769048Y-50584342D01*
X169769048Y-50584342D02*
X169769048Y-50298628D01*
X169769048Y-50298628D02*
X169816667Y-50203390D01*
X169816667Y-50203390D02*
X169864286Y-50155771D01*
X169864286Y-50155771D02*
X169959524Y-50108152D01*
X169959524Y-50108152D02*
X170102381Y-50108152D01*
X170102381Y-50108152D02*
X170197619Y-50155771D01*
X170197619Y-50155771D02*
X170245238Y-50203390D01*
X170245238Y-50203390D02*
X170292857Y-50298628D01*
X170292857Y-50298628D02*
X170292857Y-50584342D01*
X170292857Y-50584342D02*
X170245238Y-50679580D01*
X170245238Y-50679580D02*
X170197619Y-50727200D01*
X170197619Y-50727200D02*
X170102381Y-50774819D01*
X170102381Y-50774819D02*
X169959524Y-50774819D01*
X170721429Y-50108152D02*
X170721429Y-50774819D01*
X170721429Y-50203390D02*
X170769048Y-50155771D01*
X170769048Y-50155771D02*
X170864286Y-50108152D01*
X170864286Y-50108152D02*
X171007143Y-50108152D01*
X171007143Y-50108152D02*
X171102381Y-50155771D01*
X171102381Y-50155771D02*
X171150000Y-50251009D01*
X171150000Y-50251009D02*
X171150000Y-50774819D01*
X171578572Y-50727200D02*
X171673810Y-50774819D01*
X171673810Y-50774819D02*
X171864286Y-50774819D01*
X171864286Y-50774819D02*
X171959524Y-50727200D01*
X171959524Y-50727200D02*
X172007143Y-50631961D01*
X172007143Y-50631961D02*
X172007143Y-50584342D01*
X172007143Y-50584342D02*
X171959524Y-50489104D01*
X171959524Y-50489104D02*
X171864286Y-50441485D01*
X171864286Y-50441485D02*
X171721429Y-50441485D01*
X171721429Y-50441485D02*
X171626191Y-50393866D01*
X171626191Y-50393866D02*
X171578572Y-50298628D01*
X171578572Y-50298628D02*
X171578572Y-50251009D01*
X171578572Y-50251009D02*
X171626191Y-50155771D01*
X171626191Y-50155771D02*
X171721429Y-50108152D01*
X171721429Y-50108152D02*
X171864286Y-50108152D01*
X171864286Y-50108152D02*
X171959524Y-50155771D01*
X166316666Y-51274819D02*
X166316666Y-51989104D01*
X166316666Y-51989104D02*
X166269047Y-52131961D01*
X166269047Y-52131961D02*
X166173809Y-52227200D01*
X166173809Y-52227200D02*
X166030952Y-52274819D01*
X166030952Y-52274819D02*
X165935714Y-52274819D01*
X166745238Y-51370057D02*
X166792857Y-51322438D01*
X166792857Y-51322438D02*
X166888095Y-51274819D01*
X166888095Y-51274819D02*
X167126190Y-51274819D01*
X167126190Y-51274819D02*
X167221428Y-51322438D01*
X167221428Y-51322438D02*
X167269047Y-51370057D01*
X167269047Y-51370057D02*
X167316666Y-51465295D01*
X167316666Y-51465295D02*
X167316666Y-51560533D01*
X167316666Y-51560533D02*
X167269047Y-51703390D01*
X167269047Y-51703390D02*
X166697619Y-52274819D01*
X166697619Y-52274819D02*
X167316666Y-52274819D01*
X162068452Y-60144819D02*
X161497024Y-60144819D01*
X161782738Y-60144819D02*
X161782738Y-59144819D01*
X161782738Y-59144819D02*
X161687500Y-59287676D01*
X161687500Y-59287676D02*
X161592262Y-59382914D01*
X161592262Y-59382914D02*
X161497024Y-59430533D01*
X162497024Y-60144819D02*
X162497024Y-59144819D01*
X162592262Y-59763866D02*
X162877976Y-60144819D01*
X162877976Y-59478152D02*
X162497024Y-59859104D01*
D11*
X162104166Y-58267149D02*
X161937500Y-58029054D01*
X161818452Y-58267149D02*
X161818452Y-57767149D01*
X161818452Y-57767149D02*
X162008928Y-57767149D01*
X162008928Y-57767149D02*
X162056547Y-57790959D01*
X162056547Y-57790959D02*
X162080357Y-57814768D01*
X162080357Y-57814768D02*
X162104166Y-57862387D01*
X162104166Y-57862387D02*
X162104166Y-57933816D01*
X162104166Y-57933816D02*
X162080357Y-57981435D01*
X162080357Y-57981435D02*
X162056547Y-58005244D01*
X162056547Y-58005244D02*
X162008928Y-58029054D01*
X162008928Y-58029054D02*
X161818452Y-58029054D01*
X162270833Y-57767149D02*
X162604166Y-57767149D01*
X162604166Y-57767149D02*
X162389881Y-58267149D01*
D10*
X176169523Y-93384819D02*
X175598095Y-93384819D01*
X175883809Y-93384819D02*
X175883809Y-92384819D01*
X175883809Y-92384819D02*
X175788571Y-92527676D01*
X175788571Y-92527676D02*
X175693333Y-92622914D01*
X175693333Y-92622914D02*
X175598095Y-92670533D01*
X176788571Y-92384819D02*
X176883809Y-92384819D01*
X176883809Y-92384819D02*
X176979047Y-92432438D01*
X176979047Y-92432438D02*
X177026666Y-92480057D01*
X177026666Y-92480057D02*
X177074285Y-92575295D01*
X177074285Y-92575295D02*
X177121904Y-92765771D01*
X177121904Y-92765771D02*
X177121904Y-93003866D01*
X177121904Y-93003866D02*
X177074285Y-93194342D01*
X177074285Y-93194342D02*
X177026666Y-93289580D01*
X177026666Y-93289580D02*
X176979047Y-93337200D01*
X176979047Y-93337200D02*
X176883809Y-93384819D01*
X176883809Y-93384819D02*
X176788571Y-93384819D01*
X176788571Y-93384819D02*
X176693333Y-93337200D01*
X176693333Y-93337200D02*
X176645714Y-93289580D01*
X176645714Y-93289580D02*
X176598095Y-93194342D01*
X176598095Y-93194342D02*
X176550476Y-93003866D01*
X176550476Y-93003866D02*
X176550476Y-92765771D01*
X176550476Y-92765771D02*
X176598095Y-92575295D01*
X176598095Y-92575295D02*
X176645714Y-92480057D01*
X176645714Y-92480057D02*
X176693333Y-92432438D01*
X176693333Y-92432438D02*
X176788571Y-92384819D01*
X177550476Y-93384819D02*
X177550476Y-92384819D01*
X178121904Y-93384819D02*
X177693333Y-92813390D01*
X178121904Y-92384819D02*
X177550476Y-92956247D01*
X176693333Y-95754819D02*
X176360000Y-95278628D01*
X176121905Y-95754819D02*
X176121905Y-94754819D01*
X176121905Y-94754819D02*
X176502857Y-94754819D01*
X176502857Y-94754819D02*
X176598095Y-94802438D01*
X176598095Y-94802438D02*
X176645714Y-94850057D01*
X176645714Y-94850057D02*
X176693333Y-94945295D01*
X176693333Y-94945295D02*
X176693333Y-95088152D01*
X176693333Y-95088152D02*
X176645714Y-95183390D01*
X176645714Y-95183390D02*
X176598095Y-95231009D01*
X176598095Y-95231009D02*
X176502857Y-95278628D01*
X176502857Y-95278628D02*
X176121905Y-95278628D01*
X177074286Y-94850057D02*
X177121905Y-94802438D01*
X177121905Y-94802438D02*
X177217143Y-94754819D01*
X177217143Y-94754819D02*
X177455238Y-94754819D01*
X177455238Y-94754819D02*
X177550476Y-94802438D01*
X177550476Y-94802438D02*
X177598095Y-94850057D01*
X177598095Y-94850057D02*
X177645714Y-94945295D01*
X177645714Y-94945295D02*
X177645714Y-95040533D01*
X177645714Y-95040533D02*
X177598095Y-95183390D01*
X177598095Y-95183390D02*
X177026667Y-95754819D01*
X177026667Y-95754819D02*
X177645714Y-95754819D01*
X176179523Y-90224819D02*
X175608095Y-90224819D01*
X175893809Y-90224819D02*
X175893809Y-89224819D01*
X175893809Y-89224819D02*
X175798571Y-89367676D01*
X175798571Y-89367676D02*
X175703333Y-89462914D01*
X175703333Y-89462914D02*
X175608095Y-89510533D01*
X176798571Y-89224819D02*
X176893809Y-89224819D01*
X176893809Y-89224819D02*
X176989047Y-89272438D01*
X176989047Y-89272438D02*
X177036666Y-89320057D01*
X177036666Y-89320057D02*
X177084285Y-89415295D01*
X177084285Y-89415295D02*
X177131904Y-89605771D01*
X177131904Y-89605771D02*
X177131904Y-89843866D01*
X177131904Y-89843866D02*
X177084285Y-90034342D01*
X177084285Y-90034342D02*
X177036666Y-90129580D01*
X177036666Y-90129580D02*
X176989047Y-90177200D01*
X176989047Y-90177200D02*
X176893809Y-90224819D01*
X176893809Y-90224819D02*
X176798571Y-90224819D01*
X176798571Y-90224819D02*
X176703333Y-90177200D01*
X176703333Y-90177200D02*
X176655714Y-90129580D01*
X176655714Y-90129580D02*
X176608095Y-90034342D01*
X176608095Y-90034342D02*
X176560476Y-89843866D01*
X176560476Y-89843866D02*
X176560476Y-89605771D01*
X176560476Y-89605771D02*
X176608095Y-89415295D01*
X176608095Y-89415295D02*
X176655714Y-89320057D01*
X176655714Y-89320057D02*
X176703333Y-89272438D01*
X176703333Y-89272438D02*
X176798571Y-89224819D01*
X177560476Y-90224819D02*
X177560476Y-89224819D01*
X178131904Y-90224819D02*
X177703333Y-89653390D01*
X178131904Y-89224819D02*
X177560476Y-89796247D01*
X176703333Y-92594819D02*
X176370000Y-92118628D01*
X176131905Y-92594819D02*
X176131905Y-91594819D01*
X176131905Y-91594819D02*
X176512857Y-91594819D01*
X176512857Y-91594819D02*
X176608095Y-91642438D01*
X176608095Y-91642438D02*
X176655714Y-91690057D01*
X176655714Y-91690057D02*
X176703333Y-91785295D01*
X176703333Y-91785295D02*
X176703333Y-91928152D01*
X176703333Y-91928152D02*
X176655714Y-92023390D01*
X176655714Y-92023390D02*
X176608095Y-92071009D01*
X176608095Y-92071009D02*
X176512857Y-92118628D01*
X176512857Y-92118628D02*
X176131905Y-92118628D01*
X177655714Y-92594819D02*
X177084286Y-92594819D01*
X177370000Y-92594819D02*
X177370000Y-91594819D01*
X177370000Y-91594819D02*
X177274762Y-91737676D01*
X177274762Y-91737676D02*
X177179524Y-91832914D01*
X177179524Y-91832914D02*
X177084286Y-91880533D01*
X192961009Y-58558571D02*
X193008628Y-58415714D01*
X193008628Y-58415714D02*
X193056247Y-58368095D01*
X193056247Y-58368095D02*
X193151485Y-58320476D01*
X193151485Y-58320476D02*
X193294342Y-58320476D01*
X193294342Y-58320476D02*
X193389580Y-58368095D01*
X193389580Y-58368095D02*
X193437200Y-58415714D01*
X193437200Y-58415714D02*
X193484819Y-58510952D01*
X193484819Y-58510952D02*
X193484819Y-58891904D01*
X193484819Y-58891904D02*
X192484819Y-58891904D01*
X192484819Y-58891904D02*
X192484819Y-58558571D01*
X192484819Y-58558571D02*
X192532438Y-58463333D01*
X192532438Y-58463333D02*
X192580057Y-58415714D01*
X192580057Y-58415714D02*
X192675295Y-58368095D01*
X192675295Y-58368095D02*
X192770533Y-58368095D01*
X192770533Y-58368095D02*
X192865771Y-58415714D01*
X192865771Y-58415714D02*
X192913390Y-58463333D01*
X192913390Y-58463333D02*
X192961009Y-58558571D01*
X192961009Y-58558571D02*
X192961009Y-58891904D01*
X192818152Y-57463333D02*
X193484819Y-57463333D01*
X192818152Y-57891904D02*
X193341961Y-57891904D01*
X193341961Y-57891904D02*
X193437200Y-57844285D01*
X193437200Y-57844285D02*
X193484819Y-57749047D01*
X193484819Y-57749047D02*
X193484819Y-57606190D01*
X193484819Y-57606190D02*
X193437200Y-57510952D01*
X193437200Y-57510952D02*
X193389580Y-57463333D01*
X192818152Y-57082380D02*
X192818152Y-56558571D01*
X192818152Y-56558571D02*
X193484819Y-57082380D01*
X193484819Y-57082380D02*
X193484819Y-56558571D01*
X192818152Y-56272856D02*
X192818152Y-55749047D01*
X192818152Y-55749047D02*
X193484819Y-56272856D01*
X193484819Y-56272856D02*
X193484819Y-55749047D01*
X193437200Y-54987142D02*
X193484819Y-55082380D01*
X193484819Y-55082380D02*
X193484819Y-55272856D01*
X193484819Y-55272856D02*
X193437200Y-55368094D01*
X193437200Y-55368094D02*
X193341961Y-55415713D01*
X193341961Y-55415713D02*
X192961009Y-55415713D01*
X192961009Y-55415713D02*
X192865771Y-55368094D01*
X192865771Y-55368094D02*
X192818152Y-55272856D01*
X192818152Y-55272856D02*
X192818152Y-55082380D01*
X192818152Y-55082380D02*
X192865771Y-54987142D01*
X192865771Y-54987142D02*
X192961009Y-54939523D01*
X192961009Y-54939523D02*
X193056247Y-54939523D01*
X193056247Y-54939523D02*
X193151485Y-55415713D01*
X193484819Y-54510951D02*
X192818152Y-54510951D01*
X193008628Y-54510951D02*
X192913390Y-54463332D01*
X192913390Y-54463332D02*
X192865771Y-54415713D01*
X192865771Y-54415713D02*
X192818152Y-54320475D01*
X192818152Y-54320475D02*
X192818152Y-54225237D01*
X190119047Y-60931009D02*
X190261904Y-60978628D01*
X190261904Y-60978628D02*
X190309523Y-61026247D01*
X190309523Y-61026247D02*
X190357142Y-61121485D01*
X190357142Y-61121485D02*
X190357142Y-61264342D01*
X190357142Y-61264342D02*
X190309523Y-61359580D01*
X190309523Y-61359580D02*
X190261904Y-61407200D01*
X190261904Y-61407200D02*
X190166666Y-61454819D01*
X190166666Y-61454819D02*
X189785714Y-61454819D01*
X189785714Y-61454819D02*
X189785714Y-60454819D01*
X189785714Y-60454819D02*
X190119047Y-60454819D01*
X190119047Y-60454819D02*
X190214285Y-60502438D01*
X190214285Y-60502438D02*
X190261904Y-60550057D01*
X190261904Y-60550057D02*
X190309523Y-60645295D01*
X190309523Y-60645295D02*
X190309523Y-60740533D01*
X190309523Y-60740533D02*
X190261904Y-60835771D01*
X190261904Y-60835771D02*
X190214285Y-60883390D01*
X190214285Y-60883390D02*
X190119047Y-60931009D01*
X190119047Y-60931009D02*
X189785714Y-60931009D01*
X190690476Y-60454819D02*
X191357142Y-60454819D01*
X191357142Y-60454819D02*
X190690476Y-61454819D01*
X190690476Y-61454819D02*
X191357142Y-61454819D01*
X192261904Y-61454819D02*
X191690476Y-61454819D01*
X191976190Y-61454819D02*
X191976190Y-60454819D01*
X191976190Y-60454819D02*
X191880952Y-60597676D01*
X191880952Y-60597676D02*
X191785714Y-60692914D01*
X191785714Y-60692914D02*
X191690476Y-60740533D01*
X189573866Y-58810951D02*
X189573866Y-58049047D01*
X189954819Y-58429999D02*
X189192914Y-58429999D01*
X178794819Y-84785714D02*
X178794819Y-85357142D01*
X178794819Y-85071428D02*
X177794819Y-85071428D01*
X177794819Y-85071428D02*
X177937676Y-85166666D01*
X177937676Y-85166666D02*
X178032914Y-85261904D01*
X178032914Y-85261904D02*
X178080533Y-85357142D01*
X178794819Y-84357142D02*
X177794819Y-84357142D01*
X177794819Y-84357142D02*
X178509104Y-84023809D01*
X178509104Y-84023809D02*
X177794819Y-83690476D01*
X177794819Y-83690476D02*
X178794819Y-83690476D01*
X181164819Y-84666666D02*
X180688628Y-84999999D01*
X181164819Y-85238094D02*
X180164819Y-85238094D01*
X180164819Y-85238094D02*
X180164819Y-84857142D01*
X180164819Y-84857142D02*
X180212438Y-84761904D01*
X180212438Y-84761904D02*
X180260057Y-84714285D01*
X180260057Y-84714285D02*
X180355295Y-84666666D01*
X180355295Y-84666666D02*
X180498152Y-84666666D01*
X180498152Y-84666666D02*
X180593390Y-84714285D01*
X180593390Y-84714285D02*
X180641009Y-84761904D01*
X180641009Y-84761904D02*
X180688628Y-84857142D01*
X180688628Y-84857142D02*
X180688628Y-85238094D01*
X180164819Y-84333332D02*
X180164819Y-83714285D01*
X180164819Y-83714285D02*
X180545771Y-84047618D01*
X180545771Y-84047618D02*
X180545771Y-83904761D01*
X180545771Y-83904761D02*
X180593390Y-83809523D01*
X180593390Y-83809523D02*
X180641009Y-83761904D01*
X180641009Y-83761904D02*
X180736247Y-83714285D01*
X180736247Y-83714285D02*
X180974342Y-83714285D01*
X180974342Y-83714285D02*
X181069580Y-83761904D01*
X181069580Y-83761904D02*
X181117200Y-83809523D01*
X181117200Y-83809523D02*
X181164819Y-83904761D01*
X181164819Y-83904761D02*
X181164819Y-84190475D01*
X181164819Y-84190475D02*
X181117200Y-84285713D01*
X181117200Y-84285713D02*
X181069580Y-84333332D01*
X199154819Y-79957619D02*
X199154819Y-80529047D01*
X199154819Y-80243333D02*
X198154819Y-80243333D01*
X198154819Y-80243333D02*
X198297676Y-80338571D01*
X198297676Y-80338571D02*
X198392914Y-80433809D01*
X198392914Y-80433809D02*
X198440533Y-80529047D01*
X198154819Y-79338571D02*
X198154819Y-79243333D01*
X198154819Y-79243333D02*
X198202438Y-79148095D01*
X198202438Y-79148095D02*
X198250057Y-79100476D01*
X198250057Y-79100476D02*
X198345295Y-79052857D01*
X198345295Y-79052857D02*
X198535771Y-79005238D01*
X198535771Y-79005238D02*
X198773866Y-79005238D01*
X198773866Y-79005238D02*
X198964342Y-79052857D01*
X198964342Y-79052857D02*
X199059580Y-79100476D01*
X199059580Y-79100476D02*
X199107200Y-79148095D01*
X199107200Y-79148095D02*
X199154819Y-79243333D01*
X199154819Y-79243333D02*
X199154819Y-79338571D01*
X199154819Y-79338571D02*
X199107200Y-79433809D01*
X199107200Y-79433809D02*
X199059580Y-79481428D01*
X199059580Y-79481428D02*
X198964342Y-79529047D01*
X198964342Y-79529047D02*
X198773866Y-79576666D01*
X198773866Y-79576666D02*
X198535771Y-79576666D01*
X198535771Y-79576666D02*
X198345295Y-79529047D01*
X198345295Y-79529047D02*
X198250057Y-79481428D01*
X198250057Y-79481428D02*
X198202438Y-79433809D01*
X198202438Y-79433809D02*
X198154819Y-79338571D01*
X198154819Y-78386190D02*
X198154819Y-78290952D01*
X198154819Y-78290952D02*
X198202438Y-78195714D01*
X198202438Y-78195714D02*
X198250057Y-78148095D01*
X198250057Y-78148095D02*
X198345295Y-78100476D01*
X198345295Y-78100476D02*
X198535771Y-78052857D01*
X198535771Y-78052857D02*
X198773866Y-78052857D01*
X198773866Y-78052857D02*
X198964342Y-78100476D01*
X198964342Y-78100476D02*
X199059580Y-78148095D01*
X199059580Y-78148095D02*
X199107200Y-78195714D01*
X199107200Y-78195714D02*
X199154819Y-78290952D01*
X199154819Y-78290952D02*
X199154819Y-78386190D01*
X199154819Y-78386190D02*
X199107200Y-78481428D01*
X199107200Y-78481428D02*
X199059580Y-78529047D01*
X199059580Y-78529047D02*
X198964342Y-78576666D01*
X198964342Y-78576666D02*
X198773866Y-78624285D01*
X198773866Y-78624285D02*
X198535771Y-78624285D01*
X198535771Y-78624285D02*
X198345295Y-78576666D01*
X198345295Y-78576666D02*
X198250057Y-78529047D01*
X198250057Y-78529047D02*
X198202438Y-78481428D01*
X198202438Y-78481428D02*
X198154819Y-78386190D01*
X198488152Y-77624285D02*
X199154819Y-77624285D01*
X198583390Y-77624285D02*
X198535771Y-77576666D01*
X198535771Y-77576666D02*
X198488152Y-77481428D01*
X198488152Y-77481428D02*
X198488152Y-77338571D01*
X198488152Y-77338571D02*
X198535771Y-77243333D01*
X198535771Y-77243333D02*
X198631009Y-77195714D01*
X198631009Y-77195714D02*
X199154819Y-77195714D01*
X198631009Y-76386190D02*
X198631009Y-76719523D01*
X199154819Y-76719523D02*
X198154819Y-76719523D01*
X198154819Y-76719523D02*
X198154819Y-76243333D01*
X197199580Y-79526666D02*
X197247200Y-79574285D01*
X197247200Y-79574285D02*
X197294819Y-79717142D01*
X197294819Y-79717142D02*
X197294819Y-79812380D01*
X197294819Y-79812380D02*
X197247200Y-79955237D01*
X197247200Y-79955237D02*
X197151961Y-80050475D01*
X197151961Y-80050475D02*
X197056723Y-80098094D01*
X197056723Y-80098094D02*
X196866247Y-80145713D01*
X196866247Y-80145713D02*
X196723390Y-80145713D01*
X196723390Y-80145713D02*
X196532914Y-80098094D01*
X196532914Y-80098094D02*
X196437676Y-80050475D01*
X196437676Y-80050475D02*
X196342438Y-79955237D01*
X196342438Y-79955237D02*
X196294819Y-79812380D01*
X196294819Y-79812380D02*
X196294819Y-79717142D01*
X196294819Y-79717142D02*
X196342438Y-79574285D01*
X196342438Y-79574285D02*
X196390057Y-79526666D01*
X197294819Y-78574285D02*
X197294819Y-79145713D01*
X197294819Y-78859999D02*
X196294819Y-78859999D01*
X196294819Y-78859999D02*
X196437676Y-78955237D01*
X196437676Y-78955237D02*
X196532914Y-79050475D01*
X196532914Y-79050475D02*
X196580533Y-79145713D01*
X165104642Y-59889819D02*
X164628452Y-59889819D01*
X164628452Y-59889819D02*
X164628452Y-58889819D01*
X165437976Y-59366009D02*
X165771309Y-59366009D01*
X165914166Y-59889819D02*
X165437976Y-59889819D01*
X165437976Y-59889819D02*
X165437976Y-58889819D01*
X165437976Y-58889819D02*
X165914166Y-58889819D01*
X166342738Y-59889819D02*
X166342738Y-58889819D01*
X166342738Y-58889819D02*
X166580833Y-58889819D01*
X166580833Y-58889819D02*
X166723690Y-58937438D01*
X166723690Y-58937438D02*
X166818928Y-59032676D01*
X166818928Y-59032676D02*
X166866547Y-59127914D01*
X166866547Y-59127914D02*
X166914166Y-59318390D01*
X166914166Y-59318390D02*
X166914166Y-59461247D01*
X166914166Y-59461247D02*
X166866547Y-59651723D01*
X166866547Y-59651723D02*
X166818928Y-59746961D01*
X166818928Y-59746961D02*
X166723690Y-59842200D01*
X166723690Y-59842200D02*
X166580833Y-59889819D01*
X166580833Y-59889819D02*
X166342738Y-59889819D01*
D11*
X165378452Y-61312149D02*
X165378452Y-60812149D01*
X165378452Y-60812149D02*
X165497500Y-60812149D01*
X165497500Y-60812149D02*
X165568928Y-60835959D01*
X165568928Y-60835959D02*
X165616547Y-60883578D01*
X165616547Y-60883578D02*
X165640357Y-60931197D01*
X165640357Y-60931197D02*
X165664166Y-61026435D01*
X165664166Y-61026435D02*
X165664166Y-61097863D01*
X165664166Y-61097863D02*
X165640357Y-61193101D01*
X165640357Y-61193101D02*
X165616547Y-61240720D01*
X165616547Y-61240720D02*
X165568928Y-61288340D01*
X165568928Y-61288340D02*
X165497500Y-61312149D01*
X165497500Y-61312149D02*
X165378452Y-61312149D01*
X166092738Y-60978816D02*
X166092738Y-61312149D01*
X165973690Y-60788340D02*
X165854643Y-61145482D01*
X165854643Y-61145482D02*
X166164166Y-61145482D01*
D10*
X181799524Y-94784104D02*
X182275714Y-94784104D01*
X181704286Y-95069819D02*
X182037619Y-94069819D01*
X182037619Y-94069819D02*
X182370952Y-95069819D01*
X182561429Y-94069819D02*
X183132857Y-94069819D01*
X182847143Y-95069819D02*
X182847143Y-94069819D01*
X183466191Y-95069819D02*
X183466191Y-94403152D01*
X183466191Y-94498390D02*
X183513810Y-94450771D01*
X183513810Y-94450771D02*
X183609048Y-94403152D01*
X183609048Y-94403152D02*
X183751905Y-94403152D01*
X183751905Y-94403152D02*
X183847143Y-94450771D01*
X183847143Y-94450771D02*
X183894762Y-94546009D01*
X183894762Y-94546009D02*
X183894762Y-95069819D01*
X183894762Y-94546009D02*
X183942381Y-94450771D01*
X183942381Y-94450771D02*
X184037619Y-94403152D01*
X184037619Y-94403152D02*
X184180476Y-94403152D01*
X184180476Y-94403152D02*
X184275715Y-94450771D01*
X184275715Y-94450771D02*
X184323334Y-94546009D01*
X184323334Y-94546009D02*
X184323334Y-95069819D01*
X185180476Y-95022200D02*
X185085238Y-95069819D01*
X185085238Y-95069819D02*
X184894762Y-95069819D01*
X184894762Y-95069819D02*
X184799524Y-95022200D01*
X184799524Y-95022200D02*
X184751905Y-94926961D01*
X184751905Y-94926961D02*
X184751905Y-94546009D01*
X184751905Y-94546009D02*
X184799524Y-94450771D01*
X184799524Y-94450771D02*
X184894762Y-94403152D01*
X184894762Y-94403152D02*
X185085238Y-94403152D01*
X185085238Y-94403152D02*
X185180476Y-94450771D01*
X185180476Y-94450771D02*
X185228095Y-94546009D01*
X185228095Y-94546009D02*
X185228095Y-94641247D01*
X185228095Y-94641247D02*
X184751905Y-94736485D01*
X186085238Y-94403152D02*
X186085238Y-95212676D01*
X186085238Y-95212676D02*
X186037619Y-95307914D01*
X186037619Y-95307914D02*
X185990000Y-95355533D01*
X185990000Y-95355533D02*
X185894762Y-95403152D01*
X185894762Y-95403152D02*
X185751905Y-95403152D01*
X185751905Y-95403152D02*
X185656667Y-95355533D01*
X186085238Y-95022200D02*
X185990000Y-95069819D01*
X185990000Y-95069819D02*
X185799524Y-95069819D01*
X185799524Y-95069819D02*
X185704286Y-95022200D01*
X185704286Y-95022200D02*
X185656667Y-94974580D01*
X185656667Y-94974580D02*
X185609048Y-94879342D01*
X185609048Y-94879342D02*
X185609048Y-94593628D01*
X185609048Y-94593628D02*
X185656667Y-94498390D01*
X185656667Y-94498390D02*
X185704286Y-94450771D01*
X185704286Y-94450771D02*
X185799524Y-94403152D01*
X185799524Y-94403152D02*
X185990000Y-94403152D01*
X185990000Y-94403152D02*
X186085238Y-94450771D01*
X186990000Y-95069819D02*
X186990000Y-94546009D01*
X186990000Y-94546009D02*
X186942381Y-94450771D01*
X186942381Y-94450771D02*
X186847143Y-94403152D01*
X186847143Y-94403152D02*
X186656667Y-94403152D01*
X186656667Y-94403152D02*
X186561429Y-94450771D01*
X186990000Y-95022200D02*
X186894762Y-95069819D01*
X186894762Y-95069819D02*
X186656667Y-95069819D01*
X186656667Y-95069819D02*
X186561429Y-95022200D01*
X186561429Y-95022200D02*
X186513810Y-94926961D01*
X186513810Y-94926961D02*
X186513810Y-94831723D01*
X186513810Y-94831723D02*
X186561429Y-94736485D01*
X186561429Y-94736485D02*
X186656667Y-94688866D01*
X186656667Y-94688866D02*
X186894762Y-94688866D01*
X186894762Y-94688866D02*
X186990000Y-94641247D01*
X187370953Y-94069819D02*
X187990000Y-94069819D01*
X187990000Y-94069819D02*
X187656667Y-94450771D01*
X187656667Y-94450771D02*
X187799524Y-94450771D01*
X187799524Y-94450771D02*
X187894762Y-94498390D01*
X187894762Y-94498390D02*
X187942381Y-94546009D01*
X187942381Y-94546009D02*
X187990000Y-94641247D01*
X187990000Y-94641247D02*
X187990000Y-94879342D01*
X187990000Y-94879342D02*
X187942381Y-94974580D01*
X187942381Y-94974580D02*
X187894762Y-95022200D01*
X187894762Y-95022200D02*
X187799524Y-95069819D01*
X187799524Y-95069819D02*
X187513810Y-95069819D01*
X187513810Y-95069819D02*
X187418572Y-95022200D01*
X187418572Y-95022200D02*
X187370953Y-94974580D01*
X188370953Y-94165057D02*
X188418572Y-94117438D01*
X188418572Y-94117438D02*
X188513810Y-94069819D01*
X188513810Y-94069819D02*
X188751905Y-94069819D01*
X188751905Y-94069819D02*
X188847143Y-94117438D01*
X188847143Y-94117438D02*
X188894762Y-94165057D01*
X188894762Y-94165057D02*
X188942381Y-94260295D01*
X188942381Y-94260295D02*
X188942381Y-94355533D01*
X188942381Y-94355533D02*
X188894762Y-94498390D01*
X188894762Y-94498390D02*
X188323334Y-95069819D01*
X188323334Y-95069819D02*
X188942381Y-95069819D01*
X189513810Y-94498390D02*
X189418572Y-94450771D01*
X189418572Y-94450771D02*
X189370953Y-94403152D01*
X189370953Y-94403152D02*
X189323334Y-94307914D01*
X189323334Y-94307914D02*
X189323334Y-94260295D01*
X189323334Y-94260295D02*
X189370953Y-94165057D01*
X189370953Y-94165057D02*
X189418572Y-94117438D01*
X189418572Y-94117438D02*
X189513810Y-94069819D01*
X189513810Y-94069819D02*
X189704286Y-94069819D01*
X189704286Y-94069819D02*
X189799524Y-94117438D01*
X189799524Y-94117438D02*
X189847143Y-94165057D01*
X189847143Y-94165057D02*
X189894762Y-94260295D01*
X189894762Y-94260295D02*
X189894762Y-94307914D01*
X189894762Y-94307914D02*
X189847143Y-94403152D01*
X189847143Y-94403152D02*
X189799524Y-94450771D01*
X189799524Y-94450771D02*
X189704286Y-94498390D01*
X189704286Y-94498390D02*
X189513810Y-94498390D01*
X189513810Y-94498390D02*
X189418572Y-94546009D01*
X189418572Y-94546009D02*
X189370953Y-94593628D01*
X189370953Y-94593628D02*
X189323334Y-94688866D01*
X189323334Y-94688866D02*
X189323334Y-94879342D01*
X189323334Y-94879342D02*
X189370953Y-94974580D01*
X189370953Y-94974580D02*
X189418572Y-95022200D01*
X189418572Y-95022200D02*
X189513810Y-95069819D01*
X189513810Y-95069819D02*
X189704286Y-95069819D01*
X189704286Y-95069819D02*
X189799524Y-95022200D01*
X189799524Y-95022200D02*
X189847143Y-94974580D01*
X189847143Y-94974580D02*
X189894762Y-94879342D01*
X189894762Y-94879342D02*
X189894762Y-94688866D01*
X189894762Y-94688866D02*
X189847143Y-94593628D01*
X189847143Y-94593628D02*
X189799524Y-94546009D01*
X189799524Y-94546009D02*
X189704286Y-94498390D01*
X190323334Y-95069819D02*
X190323334Y-94069819D01*
X190323334Y-94069819D02*
X190704286Y-94069819D01*
X190704286Y-94069819D02*
X190799524Y-94117438D01*
X190799524Y-94117438D02*
X190847143Y-94165057D01*
X190847143Y-94165057D02*
X190894762Y-94260295D01*
X190894762Y-94260295D02*
X190894762Y-94403152D01*
X190894762Y-94403152D02*
X190847143Y-94498390D01*
X190847143Y-94498390D02*
X190799524Y-94546009D01*
X190799524Y-94546009D02*
X190704286Y-94593628D01*
X190704286Y-94593628D02*
X190323334Y-94593628D01*
X191323334Y-94688866D02*
X192085239Y-94688866D01*
X192561429Y-95069819D02*
X192561429Y-94069819D01*
X192561429Y-94069819D02*
X192942381Y-94069819D01*
X192942381Y-94069819D02*
X193037619Y-94117438D01*
X193037619Y-94117438D02*
X193085238Y-94165057D01*
X193085238Y-94165057D02*
X193132857Y-94260295D01*
X193132857Y-94260295D02*
X193132857Y-94403152D01*
X193132857Y-94403152D02*
X193085238Y-94498390D01*
X193085238Y-94498390D02*
X193037619Y-94546009D01*
X193037619Y-94546009D02*
X192942381Y-94593628D01*
X192942381Y-94593628D02*
X192561429Y-94593628D01*
X193561429Y-94069819D02*
X193561429Y-94879342D01*
X193561429Y-94879342D02*
X193609048Y-94974580D01*
X193609048Y-94974580D02*
X193656667Y-95022200D01*
X193656667Y-95022200D02*
X193751905Y-95069819D01*
X193751905Y-95069819D02*
X193942381Y-95069819D01*
X193942381Y-95069819D02*
X194037619Y-95022200D01*
X194037619Y-95022200D02*
X194085238Y-94974580D01*
X194085238Y-94974580D02*
X194132857Y-94879342D01*
X194132857Y-94879342D02*
X194132857Y-94069819D01*
X187218095Y-78799819D02*
X187218095Y-79609342D01*
X187218095Y-79609342D02*
X187265714Y-79704580D01*
X187265714Y-79704580D02*
X187313333Y-79752200D01*
X187313333Y-79752200D02*
X187408571Y-79799819D01*
X187408571Y-79799819D02*
X187599047Y-79799819D01*
X187599047Y-79799819D02*
X187694285Y-79752200D01*
X187694285Y-79752200D02*
X187741904Y-79704580D01*
X187741904Y-79704580D02*
X187789523Y-79609342D01*
X187789523Y-79609342D02*
X187789523Y-78799819D01*
X188789523Y-79799819D02*
X188218095Y-79799819D01*
X188503809Y-79799819D02*
X188503809Y-78799819D01*
X188503809Y-78799819D02*
X188408571Y-78942676D01*
X188408571Y-78942676D02*
X188313333Y-79037914D01*
X188313333Y-79037914D02*
X188218095Y-79085533D01*
X175754819Y-70693809D02*
X175754819Y-71169999D01*
X175754819Y-71169999D02*
X174754819Y-71169999D01*
X175231009Y-70360475D02*
X175231009Y-70027142D01*
X175754819Y-69884285D02*
X175754819Y-70360475D01*
X175754819Y-70360475D02*
X174754819Y-70360475D01*
X174754819Y-70360475D02*
X174754819Y-69884285D01*
X175754819Y-69455713D02*
X174754819Y-69455713D01*
X174754819Y-69455713D02*
X174754819Y-69217618D01*
X174754819Y-69217618D02*
X174802438Y-69074761D01*
X174802438Y-69074761D02*
X174897676Y-68979523D01*
X174897676Y-68979523D02*
X174992914Y-68931904D01*
X174992914Y-68931904D02*
X175183390Y-68884285D01*
X175183390Y-68884285D02*
X175326247Y-68884285D01*
X175326247Y-68884285D02*
X175516723Y-68931904D01*
X175516723Y-68931904D02*
X175611961Y-68979523D01*
X175611961Y-68979523D02*
X175707200Y-69074761D01*
X175707200Y-69074761D02*
X175754819Y-69217618D01*
X175754819Y-69217618D02*
X175754819Y-69455713D01*
X175850057Y-68693809D02*
X175850057Y-67931904D01*
X175754819Y-67122380D02*
X175278628Y-67455713D01*
X175754819Y-67693808D02*
X174754819Y-67693808D01*
X174754819Y-67693808D02*
X174754819Y-67312856D01*
X174754819Y-67312856D02*
X174802438Y-67217618D01*
X174802438Y-67217618D02*
X174850057Y-67169999D01*
X174850057Y-67169999D02*
X174945295Y-67122380D01*
X174945295Y-67122380D02*
X175088152Y-67122380D01*
X175088152Y-67122380D02*
X175183390Y-67169999D01*
X175183390Y-67169999D02*
X175231009Y-67217618D01*
X175231009Y-67217618D02*
X175278628Y-67312856D01*
X175278628Y-67312856D02*
X175278628Y-67693808D01*
D12*
X179619695Y-69740475D02*
X178819695Y-69740475D01*
X178819695Y-69740475D02*
X178819695Y-69549999D01*
X178819695Y-69549999D02*
X178857790Y-69435713D01*
X178857790Y-69435713D02*
X178933980Y-69359523D01*
X178933980Y-69359523D02*
X179010171Y-69321428D01*
X179010171Y-69321428D02*
X179162552Y-69283332D01*
X179162552Y-69283332D02*
X179276838Y-69283332D01*
X179276838Y-69283332D02*
X179429219Y-69321428D01*
X179429219Y-69321428D02*
X179505409Y-69359523D01*
X179505409Y-69359523D02*
X179581600Y-69435713D01*
X179581600Y-69435713D02*
X179619695Y-69549999D01*
X179619695Y-69549999D02*
X179619695Y-69740475D01*
X178895885Y-68978571D02*
X178857790Y-68940475D01*
X178857790Y-68940475D02*
X178819695Y-68864285D01*
X178819695Y-68864285D02*
X178819695Y-68673809D01*
X178819695Y-68673809D02*
X178857790Y-68597618D01*
X178857790Y-68597618D02*
X178895885Y-68559523D01*
X178895885Y-68559523D02*
X178972076Y-68521428D01*
X178972076Y-68521428D02*
X179048266Y-68521428D01*
X179048266Y-68521428D02*
X179162552Y-68559523D01*
X179162552Y-68559523D02*
X179619695Y-69016666D01*
X179619695Y-69016666D02*
X179619695Y-68521428D01*
D10*
X162078452Y-63184819D02*
X161507024Y-63184819D01*
X161792738Y-63184819D02*
X161792738Y-62184819D01*
X161792738Y-62184819D02*
X161697500Y-62327676D01*
X161697500Y-62327676D02*
X161602262Y-62422914D01*
X161602262Y-62422914D02*
X161507024Y-62470533D01*
X162507024Y-63184819D02*
X162507024Y-62184819D01*
X162602262Y-62803866D02*
X162887976Y-63184819D01*
X162887976Y-62518152D02*
X162507024Y-62899104D01*
D11*
X162114166Y-61307149D02*
X161947500Y-61069054D01*
X161828452Y-61307149D02*
X161828452Y-60807149D01*
X161828452Y-60807149D02*
X162018928Y-60807149D01*
X162018928Y-60807149D02*
X162066547Y-60830959D01*
X162066547Y-60830959D02*
X162090357Y-60854768D01*
X162090357Y-60854768D02*
X162114166Y-60902387D01*
X162114166Y-60902387D02*
X162114166Y-60973816D01*
X162114166Y-60973816D02*
X162090357Y-61021435D01*
X162090357Y-61021435D02*
X162066547Y-61045244D01*
X162066547Y-61045244D02*
X162018928Y-61069054D01*
X162018928Y-61069054D02*
X161828452Y-61069054D01*
X162542738Y-60807149D02*
X162447500Y-60807149D01*
X162447500Y-60807149D02*
X162399881Y-60830959D01*
X162399881Y-60830959D02*
X162376071Y-60854768D01*
X162376071Y-60854768D02*
X162328452Y-60926197D01*
X162328452Y-60926197D02*
X162304643Y-61021435D01*
X162304643Y-61021435D02*
X162304643Y-61211911D01*
X162304643Y-61211911D02*
X162328452Y-61259530D01*
X162328452Y-61259530D02*
X162352262Y-61283340D01*
X162352262Y-61283340D02*
X162399881Y-61307149D01*
X162399881Y-61307149D02*
X162495119Y-61307149D01*
X162495119Y-61307149D02*
X162542738Y-61283340D01*
X162542738Y-61283340D02*
X162566547Y-61259530D01*
X162566547Y-61259530D02*
X162590357Y-61211911D01*
X162590357Y-61211911D02*
X162590357Y-61092863D01*
X162590357Y-61092863D02*
X162566547Y-61045244D01*
X162566547Y-61045244D02*
X162542738Y-61021435D01*
X162542738Y-61021435D02*
X162495119Y-60997625D01*
X162495119Y-60997625D02*
X162399881Y-60997625D01*
X162399881Y-60997625D02*
X162352262Y-61021435D01*
X162352262Y-61021435D02*
X162328452Y-61045244D01*
X162328452Y-61045244D02*
X162304643Y-61092863D01*
D10*
X181354761Y-46384819D02*
X181021428Y-45908628D01*
X180783333Y-46384819D02*
X180783333Y-45384819D01*
X180783333Y-45384819D02*
X181164285Y-45384819D01*
X181164285Y-45384819D02*
X181259523Y-45432438D01*
X181259523Y-45432438D02*
X181307142Y-45480057D01*
X181307142Y-45480057D02*
X181354761Y-45575295D01*
X181354761Y-45575295D02*
X181354761Y-45718152D01*
X181354761Y-45718152D02*
X181307142Y-45813390D01*
X181307142Y-45813390D02*
X181259523Y-45861009D01*
X181259523Y-45861009D02*
X181164285Y-45908628D01*
X181164285Y-45908628D02*
X180783333Y-45908628D01*
X182116666Y-45861009D02*
X181783333Y-45861009D01*
X181783333Y-46384819D02*
X181783333Y-45384819D01*
X181783333Y-45384819D02*
X182259523Y-45384819D01*
X182640476Y-46384819D02*
X182640476Y-45384819D01*
X183116666Y-46384819D02*
X183116666Y-45384819D01*
X183116666Y-45384819D02*
X183354761Y-45384819D01*
X183354761Y-45384819D02*
X183497618Y-45432438D01*
X183497618Y-45432438D02*
X183592856Y-45527676D01*
X183592856Y-45527676D02*
X183640475Y-45622914D01*
X183640475Y-45622914D02*
X183688094Y-45813390D01*
X183688094Y-45813390D02*
X183688094Y-45956247D01*
X183688094Y-45956247D02*
X183640475Y-46146723D01*
X183640475Y-46146723D02*
X183592856Y-46241961D01*
X183592856Y-46241961D02*
X183497618Y-46337200D01*
X183497618Y-46337200D02*
X183354761Y-46384819D01*
X183354761Y-46384819D02*
X183116666Y-46384819D01*
X183878571Y-46480057D02*
X184640475Y-46480057D01*
X185449999Y-46289580D02*
X185402380Y-46337200D01*
X185402380Y-46337200D02*
X185259523Y-46384819D01*
X185259523Y-46384819D02*
X185164285Y-46384819D01*
X185164285Y-46384819D02*
X185021428Y-46337200D01*
X185021428Y-46337200D02*
X184926190Y-46241961D01*
X184926190Y-46241961D02*
X184878571Y-46146723D01*
X184878571Y-46146723D02*
X184830952Y-45956247D01*
X184830952Y-45956247D02*
X184830952Y-45813390D01*
X184830952Y-45813390D02*
X184878571Y-45622914D01*
X184878571Y-45622914D02*
X184926190Y-45527676D01*
X184926190Y-45527676D02*
X185021428Y-45432438D01*
X185021428Y-45432438D02*
X185164285Y-45384819D01*
X185164285Y-45384819D02*
X185259523Y-45384819D01*
X185259523Y-45384819D02*
X185402380Y-45432438D01*
X185402380Y-45432438D02*
X185449999Y-45480057D01*
X186021428Y-46384819D02*
X185926190Y-46337200D01*
X185926190Y-46337200D02*
X185878571Y-46289580D01*
X185878571Y-46289580D02*
X185830952Y-46194342D01*
X185830952Y-46194342D02*
X185830952Y-45908628D01*
X185830952Y-45908628D02*
X185878571Y-45813390D01*
X185878571Y-45813390D02*
X185926190Y-45765771D01*
X185926190Y-45765771D02*
X186021428Y-45718152D01*
X186021428Y-45718152D02*
X186164285Y-45718152D01*
X186164285Y-45718152D02*
X186259523Y-45765771D01*
X186259523Y-45765771D02*
X186307142Y-45813390D01*
X186307142Y-45813390D02*
X186354761Y-45908628D01*
X186354761Y-45908628D02*
X186354761Y-46194342D01*
X186354761Y-46194342D02*
X186307142Y-46289580D01*
X186307142Y-46289580D02*
X186259523Y-46337200D01*
X186259523Y-46337200D02*
X186164285Y-46384819D01*
X186164285Y-46384819D02*
X186021428Y-46384819D01*
X186783333Y-45718152D02*
X186783333Y-46384819D01*
X186783333Y-45813390D02*
X186830952Y-45765771D01*
X186830952Y-45765771D02*
X186926190Y-45718152D01*
X186926190Y-45718152D02*
X187069047Y-45718152D01*
X187069047Y-45718152D02*
X187164285Y-45765771D01*
X187164285Y-45765771D02*
X187211904Y-45861009D01*
X187211904Y-45861009D02*
X187211904Y-46384819D01*
X187688095Y-45718152D02*
X187688095Y-46384819D01*
X187688095Y-45813390D02*
X187735714Y-45765771D01*
X187735714Y-45765771D02*
X187830952Y-45718152D01*
X187830952Y-45718152D02*
X187973809Y-45718152D01*
X187973809Y-45718152D02*
X188069047Y-45765771D01*
X188069047Y-45765771D02*
X188116666Y-45861009D01*
X188116666Y-45861009D02*
X188116666Y-46384819D01*
X180036666Y-45374819D02*
X180036666Y-46089104D01*
X180036666Y-46089104D02*
X179989047Y-46231961D01*
X179989047Y-46231961D02*
X179893809Y-46327200D01*
X179893809Y-46327200D02*
X179750952Y-46374819D01*
X179750952Y-46374819D02*
X179655714Y-46374819D01*
X181036666Y-46374819D02*
X180465238Y-46374819D01*
X180750952Y-46374819D02*
X180750952Y-45374819D01*
X180750952Y-45374819D02*
X180655714Y-45517676D01*
X180655714Y-45517676D02*
X180560476Y-45612914D01*
X180560476Y-45612914D02*
X180465238Y-45660533D01*
X193014819Y-71734285D02*
X193014819Y-72305713D01*
X193014819Y-72019999D02*
X192014819Y-72019999D01*
X192014819Y-72019999D02*
X192157676Y-72115237D01*
X192157676Y-72115237D02*
X192252914Y-72210475D01*
X192252914Y-72210475D02*
X192300533Y-72305713D01*
X193014819Y-71305713D02*
X192014819Y-71305713D01*
X193014819Y-70734285D02*
X192443390Y-71162856D01*
X192014819Y-70734285D02*
X192586247Y-71305713D01*
X195384819Y-71686666D02*
X194908628Y-72019999D01*
X195384819Y-72258094D02*
X194384819Y-72258094D01*
X194384819Y-72258094D02*
X194384819Y-71877142D01*
X194384819Y-71877142D02*
X194432438Y-71781904D01*
X194432438Y-71781904D02*
X194480057Y-71734285D01*
X194480057Y-71734285D02*
X194575295Y-71686666D01*
X194575295Y-71686666D02*
X194718152Y-71686666D01*
X194718152Y-71686666D02*
X194813390Y-71734285D01*
X194813390Y-71734285D02*
X194861009Y-71781904D01*
X194861009Y-71781904D02*
X194908628Y-71877142D01*
X194908628Y-71877142D02*
X194908628Y-72258094D01*
X194718152Y-70829523D02*
X195384819Y-70829523D01*
X194337200Y-71067618D02*
X195051485Y-71305713D01*
X195051485Y-71305713D02*
X195051485Y-70686666D01*
X196406667Y-67564819D02*
X196406667Y-66564819D01*
X196406667Y-66564819D02*
X196787619Y-66564819D01*
X196787619Y-66564819D02*
X196882857Y-66612438D01*
X196882857Y-66612438D02*
X196930476Y-66660057D01*
X196930476Y-66660057D02*
X196978095Y-66755295D01*
X196978095Y-66755295D02*
X196978095Y-66898152D01*
X196978095Y-66898152D02*
X196930476Y-66993390D01*
X196930476Y-66993390D02*
X196882857Y-67041009D01*
X196882857Y-67041009D02*
X196787619Y-67088628D01*
X196787619Y-67088628D02*
X196406667Y-67088628D01*
X197311429Y-66564819D02*
X197549524Y-67564819D01*
X197549524Y-67564819D02*
X197740000Y-66850533D01*
X197740000Y-66850533D02*
X197930476Y-67564819D01*
X197930476Y-67564819D02*
X198168572Y-66564819D01*
X199120952Y-67564819D02*
X198787619Y-67088628D01*
X198549524Y-67564819D02*
X198549524Y-66564819D01*
X198549524Y-66564819D02*
X198930476Y-66564819D01*
X198930476Y-66564819D02*
X199025714Y-66612438D01*
X199025714Y-66612438D02*
X199073333Y-66660057D01*
X199073333Y-66660057D02*
X199120952Y-66755295D01*
X199120952Y-66755295D02*
X199120952Y-66898152D01*
X199120952Y-66898152D02*
X199073333Y-66993390D01*
X199073333Y-66993390D02*
X199025714Y-67041009D01*
X199025714Y-67041009D02*
X198930476Y-67088628D01*
X198930476Y-67088628D02*
X198549524Y-67088628D01*
X197194819Y-63843333D02*
X197909104Y-63843333D01*
X197909104Y-63843333D02*
X198051961Y-63890952D01*
X198051961Y-63890952D02*
X198147200Y-63986190D01*
X198147200Y-63986190D02*
X198194819Y-64129047D01*
X198194819Y-64129047D02*
X198194819Y-64224285D01*
X197194819Y-63462380D02*
X197194819Y-62795714D01*
X197194819Y-62795714D02*
X198194819Y-63224285D01*
X195167200Y-75517618D02*
X195214819Y-75374761D01*
X195214819Y-75374761D02*
X195214819Y-75136666D01*
X195214819Y-75136666D02*
X195167200Y-75041428D01*
X195167200Y-75041428D02*
X195119580Y-74993809D01*
X195119580Y-74993809D02*
X195024342Y-74946190D01*
X195024342Y-74946190D02*
X194929104Y-74946190D01*
X194929104Y-74946190D02*
X194833866Y-74993809D01*
X194833866Y-74993809D02*
X194786247Y-75041428D01*
X194786247Y-75041428D02*
X194738628Y-75136666D01*
X194738628Y-75136666D02*
X194691009Y-75327142D01*
X194691009Y-75327142D02*
X194643390Y-75422380D01*
X194643390Y-75422380D02*
X194595771Y-75469999D01*
X194595771Y-75469999D02*
X194500533Y-75517618D01*
X194500533Y-75517618D02*
X194405295Y-75517618D01*
X194405295Y-75517618D02*
X194310057Y-75469999D01*
X194310057Y-75469999D02*
X194262438Y-75422380D01*
X194262438Y-75422380D02*
X194214819Y-75327142D01*
X194214819Y-75327142D02*
X194214819Y-75089047D01*
X194214819Y-75089047D02*
X194262438Y-74946190D01*
X194214819Y-74612856D02*
X195214819Y-74374761D01*
X195214819Y-74374761D02*
X194500533Y-74184285D01*
X194500533Y-74184285D02*
X195214819Y-73993809D01*
X195214819Y-73993809D02*
X194214819Y-73755714D01*
X195310057Y-73612857D02*
X195310057Y-72850952D01*
X195214819Y-72612856D02*
X194214819Y-72612856D01*
X194214819Y-72612856D02*
X194214819Y-72231904D01*
X194214819Y-72231904D02*
X194262438Y-72136666D01*
X194262438Y-72136666D02*
X194310057Y-72089047D01*
X194310057Y-72089047D02*
X194405295Y-72041428D01*
X194405295Y-72041428D02*
X194548152Y-72041428D01*
X194548152Y-72041428D02*
X194643390Y-72089047D01*
X194643390Y-72089047D02*
X194691009Y-72136666D01*
X194691009Y-72136666D02*
X194738628Y-72231904D01*
X194738628Y-72231904D02*
X194738628Y-72612856D01*
X194548152Y-71184285D02*
X195214819Y-71184285D01*
X194548152Y-71612856D02*
X195071961Y-71612856D01*
X195071961Y-71612856D02*
X195167200Y-71565237D01*
X195167200Y-71565237D02*
X195214819Y-71469999D01*
X195214819Y-71469999D02*
X195214819Y-71327142D01*
X195214819Y-71327142D02*
X195167200Y-71231904D01*
X195167200Y-71231904D02*
X195119580Y-71184285D01*
X195167200Y-70755713D02*
X195214819Y-70660475D01*
X195214819Y-70660475D02*
X195214819Y-70469999D01*
X195214819Y-70469999D02*
X195167200Y-70374761D01*
X195167200Y-70374761D02*
X195071961Y-70327142D01*
X195071961Y-70327142D02*
X195024342Y-70327142D01*
X195024342Y-70327142D02*
X194929104Y-70374761D01*
X194929104Y-70374761D02*
X194881485Y-70469999D01*
X194881485Y-70469999D02*
X194881485Y-70612856D01*
X194881485Y-70612856D02*
X194833866Y-70708094D01*
X194833866Y-70708094D02*
X194738628Y-70755713D01*
X194738628Y-70755713D02*
X194691009Y-70755713D01*
X194691009Y-70755713D02*
X194595771Y-70708094D01*
X194595771Y-70708094D02*
X194548152Y-70612856D01*
X194548152Y-70612856D02*
X194548152Y-70469999D01*
X194548152Y-70469999D02*
X194595771Y-70374761D01*
X195214819Y-69898570D02*
X194214819Y-69898570D01*
X195214819Y-69469999D02*
X194691009Y-69469999D01*
X194691009Y-69469999D02*
X194595771Y-69517618D01*
X194595771Y-69517618D02*
X194548152Y-69612856D01*
X194548152Y-69612856D02*
X194548152Y-69755713D01*
X194548152Y-69755713D02*
X194595771Y-69850951D01*
X194595771Y-69850951D02*
X194643390Y-69898570D01*
X198877200Y-73503332D02*
X198924819Y-73360475D01*
X198924819Y-73360475D02*
X198924819Y-73122380D01*
X198924819Y-73122380D02*
X198877200Y-73027142D01*
X198877200Y-73027142D02*
X198829580Y-72979523D01*
X198829580Y-72979523D02*
X198734342Y-72931904D01*
X198734342Y-72931904D02*
X198639104Y-72931904D01*
X198639104Y-72931904D02*
X198543866Y-72979523D01*
X198543866Y-72979523D02*
X198496247Y-73027142D01*
X198496247Y-73027142D02*
X198448628Y-73122380D01*
X198448628Y-73122380D02*
X198401009Y-73312856D01*
X198401009Y-73312856D02*
X198353390Y-73408094D01*
X198353390Y-73408094D02*
X198305771Y-73455713D01*
X198305771Y-73455713D02*
X198210533Y-73503332D01*
X198210533Y-73503332D02*
X198115295Y-73503332D01*
X198115295Y-73503332D02*
X198020057Y-73455713D01*
X198020057Y-73455713D02*
X197972438Y-73408094D01*
X197972438Y-73408094D02*
X197924819Y-73312856D01*
X197924819Y-73312856D02*
X197924819Y-73074761D01*
X197924819Y-73074761D02*
X197972438Y-72931904D01*
X197924819Y-72598570D02*
X198924819Y-72360475D01*
X198924819Y-72360475D02*
X198210533Y-72169999D01*
X198210533Y-72169999D02*
X198924819Y-71979523D01*
X198924819Y-71979523D02*
X197924819Y-71741428D01*
X198924819Y-70836666D02*
X198924819Y-71408094D01*
X198924819Y-71122380D02*
X197924819Y-71122380D01*
X197924819Y-71122380D02*
X198067676Y-71217618D01*
X198067676Y-71217618D02*
X198162914Y-71312856D01*
X198162914Y-71312856D02*
X198210533Y-71408094D01*
X194174819Y-86227619D02*
X194174819Y-86799047D01*
X194174819Y-86513333D02*
X193174819Y-86513333D01*
X193174819Y-86513333D02*
X193317676Y-86608571D01*
X193317676Y-86608571D02*
X193412914Y-86703809D01*
X193412914Y-86703809D02*
X193460533Y-86799047D01*
X193174819Y-85608571D02*
X193174819Y-85513333D01*
X193174819Y-85513333D02*
X193222438Y-85418095D01*
X193222438Y-85418095D02*
X193270057Y-85370476D01*
X193270057Y-85370476D02*
X193365295Y-85322857D01*
X193365295Y-85322857D02*
X193555771Y-85275238D01*
X193555771Y-85275238D02*
X193793866Y-85275238D01*
X193793866Y-85275238D02*
X193984342Y-85322857D01*
X193984342Y-85322857D02*
X194079580Y-85370476D01*
X194079580Y-85370476D02*
X194127200Y-85418095D01*
X194127200Y-85418095D02*
X194174819Y-85513333D01*
X194174819Y-85513333D02*
X194174819Y-85608571D01*
X194174819Y-85608571D02*
X194127200Y-85703809D01*
X194127200Y-85703809D02*
X194079580Y-85751428D01*
X194079580Y-85751428D02*
X193984342Y-85799047D01*
X193984342Y-85799047D02*
X193793866Y-85846666D01*
X193793866Y-85846666D02*
X193555771Y-85846666D01*
X193555771Y-85846666D02*
X193365295Y-85799047D01*
X193365295Y-85799047D02*
X193270057Y-85751428D01*
X193270057Y-85751428D02*
X193222438Y-85703809D01*
X193222438Y-85703809D02*
X193174819Y-85608571D01*
X193174819Y-84656190D02*
X193174819Y-84560952D01*
X193174819Y-84560952D02*
X193222438Y-84465714D01*
X193222438Y-84465714D02*
X193270057Y-84418095D01*
X193270057Y-84418095D02*
X193365295Y-84370476D01*
X193365295Y-84370476D02*
X193555771Y-84322857D01*
X193555771Y-84322857D02*
X193793866Y-84322857D01*
X193793866Y-84322857D02*
X193984342Y-84370476D01*
X193984342Y-84370476D02*
X194079580Y-84418095D01*
X194079580Y-84418095D02*
X194127200Y-84465714D01*
X194127200Y-84465714D02*
X194174819Y-84560952D01*
X194174819Y-84560952D02*
X194174819Y-84656190D01*
X194174819Y-84656190D02*
X194127200Y-84751428D01*
X194127200Y-84751428D02*
X194079580Y-84799047D01*
X194079580Y-84799047D02*
X193984342Y-84846666D01*
X193984342Y-84846666D02*
X193793866Y-84894285D01*
X193793866Y-84894285D02*
X193555771Y-84894285D01*
X193555771Y-84894285D02*
X193365295Y-84846666D01*
X193365295Y-84846666D02*
X193270057Y-84799047D01*
X193270057Y-84799047D02*
X193222438Y-84751428D01*
X193222438Y-84751428D02*
X193174819Y-84656190D01*
X193508152Y-83894285D02*
X194174819Y-83894285D01*
X193603390Y-83894285D02*
X193555771Y-83846666D01*
X193555771Y-83846666D02*
X193508152Y-83751428D01*
X193508152Y-83751428D02*
X193508152Y-83608571D01*
X193508152Y-83608571D02*
X193555771Y-83513333D01*
X193555771Y-83513333D02*
X193651009Y-83465714D01*
X193651009Y-83465714D02*
X194174819Y-83465714D01*
X193651009Y-82656190D02*
X193651009Y-82989523D01*
X194174819Y-82989523D02*
X193174819Y-82989523D01*
X193174819Y-82989523D02*
X193174819Y-82513333D01*
X197179580Y-85086666D02*
X197227200Y-85134285D01*
X197227200Y-85134285D02*
X197274819Y-85277142D01*
X197274819Y-85277142D02*
X197274819Y-85372380D01*
X197274819Y-85372380D02*
X197227200Y-85515237D01*
X197227200Y-85515237D02*
X197131961Y-85610475D01*
X197131961Y-85610475D02*
X197036723Y-85658094D01*
X197036723Y-85658094D02*
X196846247Y-85705713D01*
X196846247Y-85705713D02*
X196703390Y-85705713D01*
X196703390Y-85705713D02*
X196512914Y-85658094D01*
X196512914Y-85658094D02*
X196417676Y-85610475D01*
X196417676Y-85610475D02*
X196322438Y-85515237D01*
X196322438Y-85515237D02*
X196274819Y-85372380D01*
X196274819Y-85372380D02*
X196274819Y-85277142D01*
X196274819Y-85277142D02*
X196322438Y-85134285D01*
X196322438Y-85134285D02*
X196370057Y-85086666D01*
X196370057Y-84705713D02*
X196322438Y-84658094D01*
X196322438Y-84658094D02*
X196274819Y-84562856D01*
X196274819Y-84562856D02*
X196274819Y-84324761D01*
X196274819Y-84324761D02*
X196322438Y-84229523D01*
X196322438Y-84229523D02*
X196370057Y-84181904D01*
X196370057Y-84181904D02*
X196465295Y-84134285D01*
X196465295Y-84134285D02*
X196560533Y-84134285D01*
X196560533Y-84134285D02*
X196703390Y-84181904D01*
X196703390Y-84181904D02*
X197274819Y-84753332D01*
X197274819Y-84753332D02*
X197274819Y-84134285D01*
D13*
G04 #@! TO.C,R5*
X161220000Y-63485000D02*
X163220000Y-63485000D01*
X161220000Y-64735000D02*
X161220000Y-63485000D01*
X163220000Y-63485000D02*
X163220000Y-64735000D01*
X163220000Y-64735000D02*
X161220000Y-64735000D01*
G04 #@! TO.C,C4*
X171913605Y-89077500D02*
X171913605Y-88577500D01*
X172163605Y-88827500D02*
X171663605Y-88827500D01*
X172530000Y-87740000D02*
G75*
G02*
X167530000Y-87740000I-2500000J0D01*
G01*
X167530000Y-87740000D02*
G75*
G02*
X172530000Y-87740000I2500000J0D01*
G01*
G04 #@! TO.C,D5*
X164747500Y-57445000D02*
X164747500Y-58645000D01*
X164747500Y-58645000D02*
X166447500Y-58645000D01*
X166447500Y-58645000D02*
X166747500Y-58345000D01*
X166747500Y-57445000D02*
X164747500Y-57445000D01*
X166747500Y-58345000D02*
X166747500Y-57445000D01*
G04 #@! TO.C,C3*
X167976395Y-80022500D02*
X168476395Y-80022500D01*
X168226395Y-79772500D02*
X168226395Y-80272500D01*
X172610000Y-81110000D02*
G75*
G02*
X167610000Y-81110000I-2500000J0D01*
G01*
X167610000Y-81110000D02*
G75*
G02*
X172610000Y-81110000I2500000J0D01*
G01*
G04 #@! TO.C,D3*
X164747500Y-63525000D02*
X164747500Y-64725000D01*
X164747500Y-64725000D02*
X166447500Y-64725000D01*
X166447500Y-64725000D02*
X166747500Y-64425000D01*
X166747500Y-63525000D02*
X164747500Y-63525000D01*
X166747500Y-64425000D02*
X166747500Y-63525000D01*
G04 #@! TO.C,D1*
X165665000Y-93480306D02*
X165665000Y-96419694D01*
X165665000Y-93480306D02*
G75*
G02*
X165664984Y-96419666I2500000J-1469694D01*
G01*
X170665000Y-94950000D02*
G75*
G02*
X165665000Y-94950000I-2500000J0D01*
G01*
X165665000Y-94950000D02*
G75*
G02*
X170665000Y-94950000I2500000J0D01*
G01*
G04 #@! TO.C,J6*
X160815000Y-44720000D02*
X168435000Y-44720000D01*
X160815000Y-46625000D02*
X160815000Y-44720000D01*
X161450000Y-47260000D02*
X160815000Y-46625000D01*
X168435000Y-44720000D02*
X168435000Y-47260000D01*
X168435000Y-47260000D02*
X161450000Y-47260000D01*
G04 #@! TO.C,C5*
X178412500Y-77148717D02*
X178912500Y-77148717D01*
X178662500Y-77398717D02*
X178662500Y-76898717D01*
X182250000Y-75265112D02*
G75*
G02*
X177250000Y-75265112I-2500000J0D01*
G01*
X177250000Y-75265112D02*
G75*
G02*
X182250000Y-75265112I2500000J0D01*
G01*
G04 #@! TO.C,Y1*
X173395000Y-81235000D02*
X173395000Y-87635000D01*
X173720000Y-81435000D02*
X173720000Y-87435000D01*
X177720000Y-81435000D02*
X177720000Y-87435000D01*
X178045000Y-81235000D02*
X178045000Y-87635000D01*
X173395000Y-81235000D02*
G75*
G02*
X178045000Y-81235000I2325000J0D01*
G01*
X173720000Y-81435000D02*
G75*
G02*
X177720000Y-81435000I2000000J0D01*
G01*
X177720000Y-87435000D02*
G75*
G02*
X173720000Y-87435000I-2000000J0D01*
G01*
X178045000Y-87635000D02*
G75*
G02*
X173395000Y-87635000I-2325000J0D01*
G01*
G04 #@! TO.C,J5*
X196650000Y-44720000D02*
X199190000Y-44720000D01*
X196650000Y-57420000D02*
X196650000Y-44720000D01*
X198555000Y-57420000D02*
X196650000Y-57420000D01*
X199190000Y-44720000D02*
X199190000Y-56785000D01*
X199190000Y-56785000D02*
X198555000Y-57420000D01*
G04 #@! TO.C,J3*
X192940000Y-45390000D02*
X193575000Y-44755000D01*
X192940000Y-49835000D02*
X192940000Y-45390000D01*
X193575000Y-44755000D02*
X195480000Y-44755000D01*
X195480000Y-44755000D02*
X195480000Y-49835000D01*
X195480000Y-49835000D02*
X192940000Y-49835000D01*
G04 #@! TO.C,J2*
X161570000Y-50550000D02*
X171730000Y-50550000D01*
X161570000Y-52455000D02*
X161570000Y-50550000D01*
X162205000Y-53090000D02*
X161570000Y-52455000D01*
X171730000Y-50550000D02*
X171730000Y-53090000D01*
X171730000Y-53090000D02*
X162205000Y-53090000D01*
G04 #@! TO.C,R7*
X161187500Y-57415000D02*
X163187500Y-57415000D01*
X161187500Y-58665000D02*
X161187500Y-57415000D01*
X163187500Y-57415000D02*
X163187500Y-58665000D01*
X163187500Y-58665000D02*
X161187500Y-58665000D01*
G04 #@! TO.C,R2*
X173050000Y-95300000D02*
X173710000Y-95300000D01*
X173710000Y-94050000D02*
X173710000Y-96550000D01*
X173710000Y-96550000D02*
X180010000Y-96550000D01*
X180010000Y-94050000D02*
X173710000Y-94050000D01*
X180010000Y-96550000D02*
X180010000Y-94050000D01*
X180670000Y-95300000D02*
X180010000Y-95300000D01*
G04 #@! TO.C,R1*
X173060000Y-92140000D02*
X173720000Y-92140000D01*
X173720000Y-90890000D02*
X173720000Y-93390000D01*
X173720000Y-93390000D02*
X180020000Y-93390000D01*
X180020000Y-90890000D02*
X173720000Y-90890000D01*
X180020000Y-93390000D02*
X180020000Y-90890000D01*
X180680000Y-92140000D02*
X180020000Y-92140000D01*
G04 #@! TO.C,BZ1*
X194400000Y-56830000D02*
G75*
G02*
X187800000Y-56830000I-3300000J0D01*
G01*
X187800000Y-56830000D02*
G75*
G02*
X194400000Y-56830000I3300000J0D01*
G01*
X191900000Y-56830000D02*
G75*
G02*
X190300000Y-56830000I-800000J0D01*
G01*
X190300000Y-56830000D02*
G75*
G02*
X191900000Y-56830000I800000J0D01*
G01*
G04 #@! TO.C,R3*
X179460000Y-81350000D02*
X179460000Y-87650000D01*
X179460000Y-87650000D02*
X181960000Y-87650000D01*
X180710000Y-80690000D02*
X180710000Y-81350000D01*
X180710000Y-88310000D02*
X180710000Y-87650000D01*
X181960000Y-81350000D02*
X179460000Y-81350000D01*
X181960000Y-87650000D02*
X181960000Y-81350000D01*
G04 #@! TO.C,C1*
X195502500Y-81243605D02*
X196002500Y-81243605D01*
X195752500Y-81493605D02*
X195752500Y-80993605D01*
X199340000Y-79360000D02*
G75*
G02*
X194340000Y-79360000I-2500000J0D01*
G01*
X194340000Y-79360000D02*
G75*
G02*
X199340000Y-79360000I2500000J0D01*
G01*
G04 #@! TO.C,D4*
X164747500Y-60485000D02*
X164747500Y-61685000D01*
X164747500Y-61685000D02*
X166447500Y-61685000D01*
X166447500Y-61685000D02*
X166747500Y-61385000D01*
X166747500Y-60485000D02*
X164747500Y-60485000D01*
X166747500Y-61385000D02*
X166747500Y-60485000D01*
G04 #@! TO.C,U1*
X182900000Y-61505000D02*
X182900000Y-97185000D01*
X182900000Y-97185000D02*
X193060000Y-97185000D01*
X184805000Y-62565000D02*
X185805000Y-61565000D01*
X184805000Y-97125000D02*
X184805000Y-62565000D01*
X185805000Y-61565000D02*
X191155000Y-61565000D01*
X191155000Y-61565000D02*
X191155000Y-97125000D01*
X191155000Y-97125000D02*
X184805000Y-97125000D01*
X193060000Y-61505000D02*
X182900000Y-61505000D01*
X193060000Y-97185000D02*
X193060000Y-61505000D01*
G04 #@! TO.C,D2*
X180729694Y-66670000D02*
X177790306Y-66670000D01*
X180729694Y-66670000D02*
G75*
G02*
X177790334Y-66669984I-1469694J-2500000D01*
G01*
X181760000Y-69170000D02*
G75*
G02*
X176760000Y-69170000I-2500000J0D01*
G01*
X176760000Y-69170000D02*
G75*
G02*
X181760000Y-69170000I2500000J0D01*
G01*
G04 #@! TO.C,R6*
X161197500Y-60455000D02*
X163197500Y-60455000D01*
X161197500Y-61705000D02*
X161197500Y-60455000D01*
X163197500Y-60455000D02*
X163197500Y-61705000D01*
X163197500Y-61705000D02*
X161197500Y-61705000D01*
G04 #@! TO.C,J1*
X170120000Y-45145000D02*
X170755000Y-44510000D01*
X170120000Y-47050000D02*
X170120000Y-45145000D01*
X170755000Y-44510000D02*
X190440000Y-44510000D01*
X190440000Y-44510000D02*
X190440000Y-47050000D01*
X190440000Y-47050000D02*
X170120000Y-47050000D01*
G04 #@! TO.C,R4*
X193680000Y-68370000D02*
X193680000Y-74670000D01*
X193680000Y-74670000D02*
X196180000Y-74670000D01*
X194930000Y-67710000D02*
X194930000Y-68370000D01*
X194930000Y-75330000D02*
X194930000Y-74670000D01*
X196180000Y-68370000D02*
X193680000Y-68370000D01*
X196180000Y-74670000D02*
X196180000Y-68370000D01*
G04 #@! TO.C,J7*
X196470000Y-61605000D02*
X197105000Y-60970000D01*
X196470000Y-66050000D02*
X196470000Y-61605000D01*
X197105000Y-60970000D02*
X199010000Y-60970000D01*
X199010000Y-60970000D02*
X199010000Y-66050000D01*
X199010000Y-66050000D02*
X196470000Y-66050000D01*
G04 #@! TO.C,SW1*
X196940000Y-70580000D02*
X199440000Y-70580000D01*
X196940000Y-73580000D02*
X196940000Y-70580000D01*
X199440000Y-70580000D02*
X199440000Y-73580000D01*
X199440000Y-73580000D02*
X196940000Y-73580000D01*
X198940000Y-72080000D02*
G75*
G02*
X197440000Y-72080000I-750000J0D01*
G01*
X197440000Y-72080000D02*
G75*
G02*
X198940000Y-72080000I750000J0D01*
G01*
G04 #@! TO.C,C2*
X197907500Y-82786395D02*
X197907500Y-83286395D01*
X198157500Y-83036395D02*
X197657500Y-83036395D01*
X199320000Y-84920000D02*
G75*
G02*
X194320000Y-84920000I-2500000J0D01*
G01*
X194320000Y-84920000D02*
G75*
G02*
X199320000Y-84920000I2500000J0D01*
G01*
G04 #@! TD*
M02*
