G04 #@! TF.GenerationSoftware,KiCad,Pcbnew,8.0.4*
G04 #@! TF.CreationDate,2024-12-03T14:34:08+01:00*
G04 #@! TF.ProjectId,V2,56322e6b-6963-4616-945f-706362585858,rev?*
G04 #@! TF.SameCoordinates,Original*
G04 #@! TF.FileFunction,Copper,L1,Top*
G04 #@! TF.FilePolarity,Positive*
%FSLAX46Y46*%
G04 Gerber Fmt 4.6, Leading zero omitted, Abs format (unit mm)*
G04 Created by KiCad (PCBNEW 8.0.4) date 2024-12-03 14:34:08*
%MOMM*%
%LPD*%
G01*
G04 APERTURE LIST*
G04 Aperture macros list*
%AMRoundRect*
0 Rectangle with rounded corners*
0 $1 Rounding radius*
0 $2 $3 $4 $5 $6 $7 $8 $9 X,Y pos of 4 corners*
0 Add a 4 corners polygon primitive as box body*
4,1,4,$2,$3,$4,$5,$6,$7,$8,$9,$2,$3,0*
0 Add four circle primitives for the rounded corners*
1,1,$1+$1,$2,$3*
1,1,$1+$1,$4,$5*
1,1,$1+$1,$6,$7*
1,1,$1+$1,$8,$9*
0 Add four rect primitives between the rounded corners*
20,1,$1+$1,$2,$3,$4,$5,0*
20,1,$1+$1,$4,$5,$6,$7,0*
20,1,$1+$1,$6,$7,$8,$9,0*
20,1,$1+$1,$8,$9,$2,$3,0*%
G04 Aperture macros list end*
%ADD10C,0.150000*%
G04 #@! TA.AperFunction,NonConductor*
%ADD11C,0.150000*%
G04 #@! TD*
G04 #@! TA.AperFunction,NonConductor*
%ADD12C,0.050000*%
G04 #@! TD*
G04 #@! TA.AperFunction,SMDPad,CuDef*
%ADD13RoundRect,0.250000X0.262500X0.450000X-0.262500X0.450000X-0.262500X-0.450000X0.262500X-0.450000X0*%
G04 #@! TD*
G04 #@! TA.AperFunction,ComponentPad*
%ADD14R,1.600000X1.600000*%
G04 #@! TD*
G04 #@! TA.AperFunction,ComponentPad*
%ADD15C,1.600000*%
G04 #@! TD*
G04 #@! TA.AperFunction,SMDPad,CuDef*
%ADD16RoundRect,0.243750X0.243750X0.456250X-0.243750X0.456250X-0.243750X-0.456250X0.243750X-0.456250X0*%
G04 #@! TD*
G04 #@! TA.AperFunction,ComponentPad*
%ADD17R,1.800000X1.800000*%
G04 #@! TD*
G04 #@! TA.AperFunction,ComponentPad*
%ADD18C,1.800000*%
G04 #@! TD*
G04 #@! TA.AperFunction,ComponentPad*
%ADD19R,1.700000X1.700000*%
G04 #@! TD*
G04 #@! TA.AperFunction,ComponentPad*
%ADD20O,1.700000X1.700000*%
G04 #@! TD*
G04 #@! TA.AperFunction,ComponentPad*
%ADD21C,1.500000*%
G04 #@! TD*
G04 #@! TA.AperFunction,SMDPad,CuDef*
%ADD22RoundRect,0.250000X-0.262500X-0.450000X0.262500X-0.450000X0.262500X0.450000X-0.262500X0.450000X0*%
G04 #@! TD*
G04 #@! TA.AperFunction,ComponentPad*
%ADD23O,1.600000X1.600000*%
G04 #@! TD*
G04 #@! TA.AperFunction,ComponentPad*
%ADD24R,2.400000X1.600000*%
G04 #@! TD*
G04 #@! TA.AperFunction,ComponentPad*
%ADD25O,2.400000X1.600000*%
G04 #@! TD*
G04 #@! TA.AperFunction,SMDPad,CuDef*
%ADD26R,1.700000X0.900000*%
G04 #@! TD*
G04 #@! TA.AperFunction,ViaPad*
%ADD27C,0.600000*%
G04 #@! TD*
G04 #@! TA.AperFunction,Conductor*
%ADD28C,0.700000*%
G04 #@! TD*
G04 #@! TA.AperFunction,Conductor*
%ADD29C,0.200000*%
G04 #@! TD*
G04 #@! TA.AperFunction,Conductor*
%ADD30C,0.400000*%
G04 #@! TD*
G04 APERTURE END LIST*
D10*
D11*
X144729630Y-77884414D02*
X144727718Y-78360600D01*
X144727718Y-78360600D02*
X145203713Y-78410131D01*
X145203713Y-78410131D02*
X145156286Y-78362321D01*
X145156286Y-78362321D02*
X145109050Y-78266893D01*
X145109050Y-78266893D02*
X145110006Y-78028799D01*
X145110006Y-78028799D02*
X145158007Y-77933753D01*
X145158007Y-77933753D02*
X145205817Y-77886326D01*
X145205817Y-77886326D02*
X145301245Y-77839090D01*
X145301245Y-77839090D02*
X145539339Y-77840046D01*
X145539339Y-77840046D02*
X145634385Y-77888047D01*
X145634385Y-77888047D02*
X145681812Y-77935856D01*
X145681812Y-77935856D02*
X145729048Y-78031285D01*
X145729048Y-78031285D02*
X145728092Y-78269378D01*
X145728092Y-78269378D02*
X145680091Y-78364424D01*
X145680091Y-78364424D02*
X145632281Y-78411852D01*
X145731725Y-77364624D02*
X145732490Y-77174149D01*
X145732490Y-77174149D02*
X145685254Y-77078720D01*
X145685254Y-77078720D02*
X145637826Y-77030911D01*
X145637826Y-77030911D02*
X145495353Y-76935100D01*
X145495353Y-76935100D02*
X145305069Y-76886716D01*
X145305069Y-76886716D02*
X144924120Y-76885187D01*
X144924120Y-76885187D02*
X144828692Y-76932423D01*
X144828692Y-76932423D02*
X144780882Y-76979850D01*
X144780882Y-76979850D02*
X144732881Y-77074896D01*
X144732881Y-77074896D02*
X144732116Y-77265371D01*
X144732116Y-77265371D02*
X144779352Y-77360800D01*
X144779352Y-77360800D02*
X144826779Y-77408609D01*
X144826779Y-77408609D02*
X144921826Y-77456610D01*
X144921826Y-77456610D02*
X145159919Y-77457567D01*
X145159919Y-77457567D02*
X145255347Y-77410330D01*
X145255347Y-77410330D02*
X145303157Y-77362903D01*
X145303157Y-77362903D02*
X145351158Y-77267857D01*
X145351158Y-77267857D02*
X145351923Y-77077382D01*
X145351923Y-77077382D02*
X145304687Y-76981954D01*
X145304687Y-76981954D02*
X145257260Y-76934144D01*
X145257260Y-76934144D02*
X145162213Y-76886143D01*
X145640121Y-76459487D02*
X145687931Y-76412059D01*
X145687931Y-76412059D02*
X145735358Y-76459869D01*
X145735358Y-76459869D02*
X145687548Y-76507296D01*
X145687548Y-76507296D02*
X145640121Y-76459487D01*
X145640121Y-76459487D02*
X145735358Y-76459869D01*
X144736896Y-76074905D02*
X144739573Y-75408244D01*
X144739573Y-75408244D02*
X145737844Y-75840827D01*
X144740720Y-75122532D02*
X144743397Y-74455870D01*
X144743397Y-74455870D02*
X145741668Y-74888454D01*
X144745692Y-73884446D02*
X144746074Y-73789209D01*
X144746074Y-73789209D02*
X144794075Y-73694163D01*
X144794075Y-73694163D02*
X144841885Y-73646735D01*
X144841885Y-73646735D02*
X144937313Y-73599499D01*
X144937313Y-73599499D02*
X145127979Y-73552645D01*
X145127979Y-73552645D02*
X145366073Y-73553601D01*
X145366073Y-73553601D02*
X145556356Y-73601985D01*
X145556356Y-73601985D02*
X145651402Y-73649986D01*
X145651402Y-73649986D02*
X145698830Y-73697796D01*
X145698830Y-73697796D02*
X145746066Y-73793224D01*
X145746066Y-73793224D02*
X145745683Y-73888462D01*
X145745683Y-73888462D02*
X145697682Y-73983508D01*
X145697682Y-73983508D02*
X145649873Y-74030935D01*
X145649873Y-74030935D02*
X145554444Y-74078171D01*
X145554444Y-74078171D02*
X145363778Y-74125025D01*
X145363778Y-74125025D02*
X145125685Y-74124069D01*
X145125685Y-74124069D02*
X144935401Y-74075686D01*
X144935401Y-74075686D02*
X144840355Y-74027685D01*
X144840355Y-74027685D02*
X144792928Y-73979875D01*
X144792928Y-73979875D02*
X144745692Y-73884446D01*
X144750663Y-72646361D02*
X144748751Y-73122548D01*
X144748751Y-73122548D02*
X145224746Y-73172078D01*
X145224746Y-73172078D02*
X145177319Y-73124268D01*
X145177319Y-73124268D02*
X145130083Y-73028840D01*
X145130083Y-73028840D02*
X145131039Y-72790747D01*
X145131039Y-72790747D02*
X145179040Y-72695700D01*
X145179040Y-72695700D02*
X145226850Y-72648273D01*
X145226850Y-72648273D02*
X145322278Y-72601037D01*
X145322278Y-72601037D02*
X145560371Y-72601993D01*
X145560371Y-72601993D02*
X145655418Y-72649994D01*
X145655418Y-72649994D02*
X145702845Y-72697804D01*
X145702845Y-72697804D02*
X145750081Y-72793232D01*
X145750081Y-72793232D02*
X145749125Y-73031326D01*
X145749125Y-73031326D02*
X145701124Y-73126372D01*
X145701124Y-73126372D02*
X145653314Y-73173799D01*
X145755626Y-71412291D02*
X145088965Y-71409614D01*
X145184202Y-71409996D02*
X145136775Y-71362186D01*
X145136775Y-71362186D02*
X145089539Y-71266758D01*
X145089539Y-71266758D02*
X145090112Y-71123902D01*
X145090112Y-71123902D02*
X145138113Y-71028856D01*
X145138113Y-71028856D02*
X145233542Y-70981619D01*
X145233542Y-70981619D02*
X145757347Y-70983723D01*
X145233542Y-70981619D02*
X145138496Y-70933618D01*
X145138496Y-70933618D02*
X145091259Y-70838190D01*
X145091259Y-70838190D02*
X145091833Y-70695334D01*
X145091833Y-70695334D02*
X145139834Y-70600288D01*
X145139834Y-70600288D02*
X145235263Y-70553051D01*
X145235263Y-70553051D02*
X145759068Y-70555155D01*
X145760980Y-70078968D02*
X145094319Y-70076292D01*
X145189556Y-70076674D02*
X145142129Y-70028864D01*
X145142129Y-70028864D02*
X145094892Y-69933436D01*
X145094892Y-69933436D02*
X145095466Y-69790580D01*
X145095466Y-69790580D02*
X145143467Y-69695533D01*
X145143467Y-69695533D02*
X145238896Y-69648297D01*
X145238896Y-69648297D02*
X145762701Y-69650400D01*
X145238896Y-69648297D02*
X145143850Y-69600296D01*
X145143850Y-69600296D02*
X145096613Y-69504868D01*
X145096613Y-69504868D02*
X145097187Y-69362012D01*
X145097187Y-69362012D02*
X145145188Y-69266965D01*
X145145188Y-69266965D02*
X145240617Y-69219729D01*
X145240617Y-69219729D02*
X145764422Y-69221833D01*
D12*
X158260004Y-43957992D02*
X145974827Y-43908662D01*
X158020004Y-103727992D02*
X145734827Y-103678662D01*
X146561242Y-43911017D02*
X146321242Y-103681017D01*
X146561242Y-43911017D02*
X146321242Y-103681017D01*
X146561242Y-43911017D02*
X147143135Y-45039866D01*
X146561242Y-43911017D02*
X145970303Y-45035157D01*
X146321242Y-103681017D02*
X145739349Y-102552168D01*
X146321242Y-103681017D02*
X146912181Y-102556877D01*
D10*
D11*
X160993078Y-40435772D02*
X160421650Y-40435200D01*
X160707364Y-40435486D02*
X160708364Y-39435486D01*
X160708364Y-39435486D02*
X160612983Y-39578248D01*
X160612983Y-39578248D02*
X160517650Y-39673391D01*
X160517650Y-39673391D02*
X160422364Y-39720915D01*
X161613126Y-39436391D02*
X161708364Y-39436486D01*
X161708364Y-39436486D02*
X161803554Y-39484201D01*
X161803554Y-39484201D02*
X161851126Y-39531867D01*
X161851126Y-39531867D02*
X161898649Y-39627153D01*
X161898649Y-39627153D02*
X161946078Y-39817677D01*
X161946078Y-39817677D02*
X161945840Y-40055772D01*
X161945840Y-40055772D02*
X161898030Y-40246200D01*
X161898030Y-40246200D02*
X161850316Y-40341391D01*
X161850316Y-40341391D02*
X161802650Y-40388962D01*
X161802650Y-40388962D02*
X161707364Y-40436486D01*
X161707364Y-40436486D02*
X161612126Y-40436391D01*
X161612126Y-40436391D02*
X161516935Y-40388676D01*
X161516935Y-40388676D02*
X161469364Y-40341010D01*
X161469364Y-40341010D02*
X161421840Y-40245724D01*
X161421840Y-40245724D02*
X161374412Y-40055200D01*
X161374412Y-40055200D02*
X161374650Y-39817105D01*
X161374650Y-39817105D02*
X161422459Y-39626677D01*
X161422459Y-39626677D02*
X161470174Y-39531486D01*
X161470174Y-39531486D02*
X161517840Y-39483915D01*
X161517840Y-39483915D02*
X161613126Y-39436391D01*
X162374125Y-40341915D02*
X162421697Y-40389581D01*
X162421697Y-40389581D02*
X162374030Y-40437153D01*
X162374030Y-40437153D02*
X162326459Y-40389486D01*
X162326459Y-40389486D02*
X162374125Y-40341915D01*
X162374125Y-40341915D02*
X162374030Y-40437153D01*
X163041696Y-39437820D02*
X163136934Y-39437915D01*
X163136934Y-39437915D02*
X163232125Y-39485629D01*
X163232125Y-39485629D02*
X163279696Y-39533296D01*
X163279696Y-39533296D02*
X163327220Y-39628582D01*
X163327220Y-39628582D02*
X163374648Y-39819105D01*
X163374648Y-39819105D02*
X163374410Y-40057200D01*
X163374410Y-40057200D02*
X163326601Y-40247629D01*
X163326601Y-40247629D02*
X163278886Y-40342819D01*
X163278886Y-40342819D02*
X163231220Y-40390391D01*
X163231220Y-40390391D02*
X163135934Y-40437915D01*
X163135934Y-40437915D02*
X163040696Y-40437819D01*
X163040696Y-40437819D02*
X162945506Y-40390105D01*
X162945506Y-40390105D02*
X162897934Y-40342438D01*
X162897934Y-40342438D02*
X162850410Y-40247153D01*
X162850410Y-40247153D02*
X162802982Y-40056629D01*
X162802982Y-40056629D02*
X162803220Y-39818534D01*
X162803220Y-39818534D02*
X162851030Y-39628105D01*
X162851030Y-39628105D02*
X162898744Y-39532915D01*
X162898744Y-39532915D02*
X162946410Y-39485344D01*
X162946410Y-39485344D02*
X163041696Y-39437820D01*
X163994077Y-39438772D02*
X164089315Y-39438867D01*
X164089315Y-39438867D02*
X164184505Y-39486582D01*
X164184505Y-39486582D02*
X164232077Y-39534248D01*
X164232077Y-39534248D02*
X164279600Y-39629534D01*
X164279600Y-39629534D02*
X164327029Y-39820058D01*
X164327029Y-39820058D02*
X164326791Y-40058153D01*
X164326791Y-40058153D02*
X164278981Y-40248581D01*
X164278981Y-40248581D02*
X164231267Y-40343772D01*
X164231267Y-40343772D02*
X164183600Y-40391343D01*
X164183600Y-40391343D02*
X164088315Y-40438867D01*
X164088315Y-40438867D02*
X163993077Y-40438772D01*
X163993077Y-40438772D02*
X163897886Y-40391057D01*
X163897886Y-40391057D02*
X163850315Y-40343391D01*
X163850315Y-40343391D02*
X163802791Y-40248105D01*
X163802791Y-40248105D02*
X163755362Y-40057581D01*
X163755362Y-40057581D02*
X163755601Y-39819486D01*
X163755601Y-39819486D02*
X163803410Y-39629058D01*
X163803410Y-39629058D02*
X163851124Y-39533867D01*
X163851124Y-39533867D02*
X163898791Y-39486296D01*
X163898791Y-39486296D02*
X163994077Y-39438772D01*
X164946457Y-39439725D02*
X165041695Y-39439820D01*
X165041695Y-39439820D02*
X165136886Y-39487534D01*
X165136886Y-39487534D02*
X165184457Y-39535201D01*
X165184457Y-39535201D02*
X165231981Y-39630486D01*
X165231981Y-39630486D02*
X165279409Y-39821010D01*
X165279409Y-39821010D02*
X165279171Y-40059105D01*
X165279171Y-40059105D02*
X165231362Y-40249534D01*
X165231362Y-40249534D02*
X165183648Y-40344724D01*
X165183648Y-40344724D02*
X165135981Y-40392296D01*
X165135981Y-40392296D02*
X165040695Y-40439819D01*
X165040695Y-40439819D02*
X164945457Y-40439724D01*
X164945457Y-40439724D02*
X164850267Y-40392010D01*
X164850267Y-40392010D02*
X164802695Y-40344343D01*
X164802695Y-40344343D02*
X164755172Y-40249058D01*
X164755172Y-40249058D02*
X164707743Y-40058534D01*
X164707743Y-40058534D02*
X164707981Y-39820439D01*
X164707981Y-39820439D02*
X164755791Y-39630010D01*
X164755791Y-39630010D02*
X164803505Y-39534820D01*
X164803505Y-39534820D02*
X164851171Y-39487248D01*
X164851171Y-39487248D02*
X164946457Y-39439725D01*
X165898838Y-39440677D02*
X165994076Y-39440772D01*
X165994076Y-39440772D02*
X166089266Y-39488486D01*
X166089266Y-39488486D02*
X166136838Y-39536153D01*
X166136838Y-39536153D02*
X166184361Y-39631439D01*
X166184361Y-39631439D02*
X166231790Y-39821962D01*
X166231790Y-39821962D02*
X166231552Y-40060058D01*
X166231552Y-40060058D02*
X166183742Y-40250486D01*
X166183742Y-40250486D02*
X166136028Y-40345677D01*
X166136028Y-40345677D02*
X166088361Y-40393248D01*
X166088361Y-40393248D02*
X165993076Y-40440772D01*
X165993076Y-40440772D02*
X165897838Y-40440676D01*
X165897838Y-40440676D02*
X165802647Y-40392962D01*
X165802647Y-40392962D02*
X165755076Y-40345296D01*
X165755076Y-40345296D02*
X165707552Y-40250010D01*
X165707552Y-40250010D02*
X165660124Y-40059486D01*
X165660124Y-40059486D02*
X165660362Y-39821391D01*
X165660362Y-39821391D02*
X165708171Y-39630963D01*
X165708171Y-39630963D02*
X165755885Y-39535772D01*
X165755885Y-39535772D02*
X165803552Y-39488201D01*
X165803552Y-39488201D02*
X165898838Y-39440677D01*
X167421647Y-40442200D02*
X167422313Y-39775534D01*
X167422218Y-39870772D02*
X167469885Y-39823201D01*
X167469885Y-39823201D02*
X167565170Y-39775677D01*
X167565170Y-39775677D02*
X167708028Y-39775820D01*
X167708028Y-39775820D02*
X167803218Y-39823534D01*
X167803218Y-39823534D02*
X167850742Y-39918820D01*
X167850742Y-39918820D02*
X167850218Y-40442629D01*
X167850742Y-39918820D02*
X167898456Y-39823629D01*
X167898456Y-39823629D02*
X167993742Y-39776105D01*
X167993742Y-39776105D02*
X168136599Y-39776248D01*
X168136599Y-39776248D02*
X168231789Y-39823962D01*
X168231789Y-39823962D02*
X168279313Y-39919248D01*
X168279313Y-39919248D02*
X168278789Y-40443057D01*
X168754979Y-40443534D02*
X168755646Y-39776867D01*
X168755550Y-39872105D02*
X168803217Y-39824534D01*
X168803217Y-39824534D02*
X168898503Y-39777010D01*
X168898503Y-39777010D02*
X169041360Y-39777153D01*
X169041360Y-39777153D02*
X169136550Y-39824867D01*
X169136550Y-39824867D02*
X169184074Y-39920153D01*
X169184074Y-39920153D02*
X169183550Y-40443962D01*
X169184074Y-39920153D02*
X169231788Y-39824962D01*
X169231788Y-39824962D02*
X169327074Y-39777439D01*
X169327074Y-39777439D02*
X169469931Y-39777582D01*
X169469931Y-39777582D02*
X169565122Y-39825296D01*
X169565122Y-39825296D02*
X169612645Y-39920581D01*
X169612645Y-39920581D02*
X169612121Y-40444391D01*
D12*
X160038304Y-42825626D02*
X160040586Y-40543580D01*
X170038304Y-42835626D02*
X170040586Y-40553580D01*
X160040000Y-41130000D02*
X170040000Y-41140000D01*
X160040000Y-41130000D02*
X170040000Y-41140000D01*
X160040000Y-41130000D02*
X161167090Y-40544706D01*
X160040000Y-41130000D02*
X161165917Y-41717547D01*
X170040000Y-41140000D02*
X168912910Y-41725294D01*
X170040000Y-41140000D02*
X168914083Y-40552453D01*
D10*
D11*
X175897143Y-36628152D02*
X175897143Y-37294819D01*
X175659048Y-36247200D02*
X175420953Y-36961485D01*
X175420953Y-36961485D02*
X176040000Y-36961485D01*
X176611429Y-36294819D02*
X176706667Y-36294819D01*
X176706667Y-36294819D02*
X176801905Y-36342438D01*
X176801905Y-36342438D02*
X176849524Y-36390057D01*
X176849524Y-36390057D02*
X176897143Y-36485295D01*
X176897143Y-36485295D02*
X176944762Y-36675771D01*
X176944762Y-36675771D02*
X176944762Y-36913866D01*
X176944762Y-36913866D02*
X176897143Y-37104342D01*
X176897143Y-37104342D02*
X176849524Y-37199580D01*
X176849524Y-37199580D02*
X176801905Y-37247200D01*
X176801905Y-37247200D02*
X176706667Y-37294819D01*
X176706667Y-37294819D02*
X176611429Y-37294819D01*
X176611429Y-37294819D02*
X176516191Y-37247200D01*
X176516191Y-37247200D02*
X176468572Y-37199580D01*
X176468572Y-37199580D02*
X176420953Y-37104342D01*
X176420953Y-37104342D02*
X176373334Y-36913866D01*
X176373334Y-36913866D02*
X176373334Y-36675771D01*
X176373334Y-36675771D02*
X176420953Y-36485295D01*
X176420953Y-36485295D02*
X176468572Y-36390057D01*
X176468572Y-36390057D02*
X176516191Y-36342438D01*
X176516191Y-36342438D02*
X176611429Y-36294819D01*
X177373334Y-37199580D02*
X177420953Y-37247200D01*
X177420953Y-37247200D02*
X177373334Y-37294819D01*
X177373334Y-37294819D02*
X177325715Y-37247200D01*
X177325715Y-37247200D02*
X177373334Y-37199580D01*
X177373334Y-37199580D02*
X177373334Y-37294819D01*
X178040000Y-36294819D02*
X178135238Y-36294819D01*
X178135238Y-36294819D02*
X178230476Y-36342438D01*
X178230476Y-36342438D02*
X178278095Y-36390057D01*
X178278095Y-36390057D02*
X178325714Y-36485295D01*
X178325714Y-36485295D02*
X178373333Y-36675771D01*
X178373333Y-36675771D02*
X178373333Y-36913866D01*
X178373333Y-36913866D02*
X178325714Y-37104342D01*
X178325714Y-37104342D02*
X178278095Y-37199580D01*
X178278095Y-37199580D02*
X178230476Y-37247200D01*
X178230476Y-37247200D02*
X178135238Y-37294819D01*
X178135238Y-37294819D02*
X178040000Y-37294819D01*
X178040000Y-37294819D02*
X177944762Y-37247200D01*
X177944762Y-37247200D02*
X177897143Y-37199580D01*
X177897143Y-37199580D02*
X177849524Y-37104342D01*
X177849524Y-37104342D02*
X177801905Y-36913866D01*
X177801905Y-36913866D02*
X177801905Y-36675771D01*
X177801905Y-36675771D02*
X177849524Y-36485295D01*
X177849524Y-36485295D02*
X177897143Y-36390057D01*
X177897143Y-36390057D02*
X177944762Y-36342438D01*
X177944762Y-36342438D02*
X178040000Y-36294819D01*
X178992381Y-36294819D02*
X179087619Y-36294819D01*
X179087619Y-36294819D02*
X179182857Y-36342438D01*
X179182857Y-36342438D02*
X179230476Y-36390057D01*
X179230476Y-36390057D02*
X179278095Y-36485295D01*
X179278095Y-36485295D02*
X179325714Y-36675771D01*
X179325714Y-36675771D02*
X179325714Y-36913866D01*
X179325714Y-36913866D02*
X179278095Y-37104342D01*
X179278095Y-37104342D02*
X179230476Y-37199580D01*
X179230476Y-37199580D02*
X179182857Y-37247200D01*
X179182857Y-37247200D02*
X179087619Y-37294819D01*
X179087619Y-37294819D02*
X178992381Y-37294819D01*
X178992381Y-37294819D02*
X178897143Y-37247200D01*
X178897143Y-37247200D02*
X178849524Y-37199580D01*
X178849524Y-37199580D02*
X178801905Y-37104342D01*
X178801905Y-37104342D02*
X178754286Y-36913866D01*
X178754286Y-36913866D02*
X178754286Y-36675771D01*
X178754286Y-36675771D02*
X178801905Y-36485295D01*
X178801905Y-36485295D02*
X178849524Y-36390057D01*
X178849524Y-36390057D02*
X178897143Y-36342438D01*
X178897143Y-36342438D02*
X178992381Y-36294819D01*
X179944762Y-36294819D02*
X180040000Y-36294819D01*
X180040000Y-36294819D02*
X180135238Y-36342438D01*
X180135238Y-36342438D02*
X180182857Y-36390057D01*
X180182857Y-36390057D02*
X180230476Y-36485295D01*
X180230476Y-36485295D02*
X180278095Y-36675771D01*
X180278095Y-36675771D02*
X180278095Y-36913866D01*
X180278095Y-36913866D02*
X180230476Y-37104342D01*
X180230476Y-37104342D02*
X180182857Y-37199580D01*
X180182857Y-37199580D02*
X180135238Y-37247200D01*
X180135238Y-37247200D02*
X180040000Y-37294819D01*
X180040000Y-37294819D02*
X179944762Y-37294819D01*
X179944762Y-37294819D02*
X179849524Y-37247200D01*
X179849524Y-37247200D02*
X179801905Y-37199580D01*
X179801905Y-37199580D02*
X179754286Y-37104342D01*
X179754286Y-37104342D02*
X179706667Y-36913866D01*
X179706667Y-36913866D02*
X179706667Y-36675771D01*
X179706667Y-36675771D02*
X179754286Y-36485295D01*
X179754286Y-36485295D02*
X179801905Y-36390057D01*
X179801905Y-36390057D02*
X179849524Y-36342438D01*
X179849524Y-36342438D02*
X179944762Y-36294819D01*
X180897143Y-36294819D02*
X180992381Y-36294819D01*
X180992381Y-36294819D02*
X181087619Y-36342438D01*
X181087619Y-36342438D02*
X181135238Y-36390057D01*
X181135238Y-36390057D02*
X181182857Y-36485295D01*
X181182857Y-36485295D02*
X181230476Y-36675771D01*
X181230476Y-36675771D02*
X181230476Y-36913866D01*
X181230476Y-36913866D02*
X181182857Y-37104342D01*
X181182857Y-37104342D02*
X181135238Y-37199580D01*
X181135238Y-37199580D02*
X181087619Y-37247200D01*
X181087619Y-37247200D02*
X180992381Y-37294819D01*
X180992381Y-37294819D02*
X180897143Y-37294819D01*
X180897143Y-37294819D02*
X180801905Y-37247200D01*
X180801905Y-37247200D02*
X180754286Y-37199580D01*
X180754286Y-37199580D02*
X180706667Y-37104342D01*
X180706667Y-37104342D02*
X180659048Y-36913866D01*
X180659048Y-36913866D02*
X180659048Y-36675771D01*
X180659048Y-36675771D02*
X180706667Y-36485295D01*
X180706667Y-36485295D02*
X180754286Y-36390057D01*
X180754286Y-36390057D02*
X180801905Y-36342438D01*
X180801905Y-36342438D02*
X180897143Y-36294819D01*
X182420953Y-37294819D02*
X182420953Y-36628152D01*
X182420953Y-36723390D02*
X182468572Y-36675771D01*
X182468572Y-36675771D02*
X182563810Y-36628152D01*
X182563810Y-36628152D02*
X182706667Y-36628152D01*
X182706667Y-36628152D02*
X182801905Y-36675771D01*
X182801905Y-36675771D02*
X182849524Y-36771009D01*
X182849524Y-36771009D02*
X182849524Y-37294819D01*
X182849524Y-36771009D02*
X182897143Y-36675771D01*
X182897143Y-36675771D02*
X182992381Y-36628152D01*
X182992381Y-36628152D02*
X183135238Y-36628152D01*
X183135238Y-36628152D02*
X183230477Y-36675771D01*
X183230477Y-36675771D02*
X183278096Y-36771009D01*
X183278096Y-36771009D02*
X183278096Y-37294819D01*
X183754286Y-37294819D02*
X183754286Y-36628152D01*
X183754286Y-36723390D02*
X183801905Y-36675771D01*
X183801905Y-36675771D02*
X183897143Y-36628152D01*
X183897143Y-36628152D02*
X184040000Y-36628152D01*
X184040000Y-36628152D02*
X184135238Y-36675771D01*
X184135238Y-36675771D02*
X184182857Y-36771009D01*
X184182857Y-36771009D02*
X184182857Y-37294819D01*
X184182857Y-36771009D02*
X184230476Y-36675771D01*
X184230476Y-36675771D02*
X184325714Y-36628152D01*
X184325714Y-36628152D02*
X184468571Y-36628152D01*
X184468571Y-36628152D02*
X184563810Y-36675771D01*
X184563810Y-36675771D02*
X184611429Y-36771009D01*
X184611429Y-36771009D02*
X184611429Y-37294819D01*
D12*
X200040000Y-41620000D02*
X200040000Y-37403580D01*
X160040000Y-41620000D02*
X160040000Y-37403580D01*
X200040000Y-37990000D02*
X160040000Y-37990000D01*
X200040000Y-37990000D02*
X160040000Y-37990000D01*
X200040000Y-37990000D02*
X198913496Y-38576421D01*
X200040000Y-37990000D02*
X198913496Y-37403579D01*
X160040000Y-37990000D02*
X161166504Y-37403579D01*
X160040000Y-37990000D02*
X161166504Y-38576421D01*
D13*
G04 #@! TO.P,R5,1*
G04 #@! TO.N,Net-(D3-A)*
X163132500Y-64110000D03*
G04 #@! TO.P,R5,2*
G04 #@! TO.N,5V*
X161307500Y-64110000D03*
G04 #@! TD*
D14*
G04 #@! TO.P,C4,1*
G04 #@! TO.N,Net-(U1-XTAL2{slash}PB7)*
X171280000Y-87740000D03*
D15*
G04 #@! TO.P,C4,2*
G04 #@! TO.N,GND*
X168780000Y-87740000D03*
G04 #@! TD*
D16*
G04 #@! TO.P,D5,1,K*
G04 #@! TO.N,GND*
X166685000Y-58045000D03*
G04 #@! TO.P,D5,2,A*
G04 #@! TO.N,Net-(D5-A)*
X164810000Y-58045000D03*
G04 #@! TD*
D14*
G04 #@! TO.P,C3,1*
G04 #@! TO.N,GND*
X168860000Y-81110000D03*
D15*
G04 #@! TO.P,C3,2*
G04 #@! TO.N,Net-(U1-XTAL1{slash}PB6)*
X171360000Y-81110000D03*
G04 #@! TD*
D16*
G04 #@! TO.P,D3,1,K*
G04 #@! TO.N,/D1*
X166685000Y-64125000D03*
G04 #@! TO.P,D3,2,A*
G04 #@! TO.N,Net-(D3-A)*
X164810000Y-64125000D03*
G04 #@! TD*
D17*
G04 #@! TO.P,D1,1,K*
G04 #@! TO.N,GND*
X166895000Y-94950000D03*
D18*
G04 #@! TO.P,D1,2,A*
G04 #@! TO.N,Green_LED*
X169435000Y-94950000D03*
G04 #@! TD*
D19*
G04 #@! TO.P,J6,1,Pin_1*
G04 #@! TO.N,5V*
X162085000Y-45990000D03*
D20*
G04 #@! TO.P,J6,2,Pin_2*
X164625000Y-45990000D03*
G04 #@! TO.P,J6,3,Pin_3*
X167165000Y-45990000D03*
G04 #@! TD*
D14*
G04 #@! TO.P,C5,1*
G04 #@! TO.N,5V*
X179750000Y-76515112D03*
D15*
G04 #@! TO.P,C5,2*
G04 #@! TO.N,GND*
X179750000Y-74015112D03*
G04 #@! TD*
D21*
G04 #@! TO.P,Y1,1,1*
G04 #@! TO.N,Net-(U1-XTAL1{slash}PB6)*
X175720000Y-81995000D03*
G04 #@! TO.P,Y1,2,2*
G04 #@! TO.N,Net-(U1-XTAL2{slash}PB7)*
X175720000Y-86875000D03*
G04 #@! TD*
D19*
G04 #@! TO.P,J5,1,Pin_1*
G04 #@! TO.N,GND*
X197920000Y-56150000D03*
D20*
G04 #@! TO.P,J5,2,Pin_2*
X197920000Y-53610000D03*
G04 #@! TO.P,J5,3,Pin_3*
X197920000Y-51070000D03*
G04 #@! TO.P,J5,4,Pin_4*
X197920000Y-48530000D03*
G04 #@! TO.P,J5,5,Pin_5*
X197920000Y-45990000D03*
G04 #@! TD*
D19*
G04 #@! TO.P,J3,1,Pin_1*
G04 #@! TO.N,IR_SENSOR*
X194210000Y-46025000D03*
D20*
G04 #@! TO.P,J3,2,Pin_2*
G04 #@! TO.N,SERVO_PIN*
X194210000Y-48565000D03*
G04 #@! TD*
D19*
G04 #@! TO.P,J2,1,Pin_1*
G04 #@! TO.N,KEY_PIN*
X162840000Y-51820000D03*
D20*
G04 #@! TO.P,J2,2,Pin_2*
G04 #@! TO.N,LCK_EXTENDED*
X165380000Y-51820000D03*
G04 #@! TO.P,J2,3,Pin_3*
G04 #@! TO.N,LCK_RETRACTED*
X167920000Y-51820000D03*
G04 #@! TO.P,J2,4,Pin_4*
G04 #@! TO.N,EXT_ALARM*
X170460000Y-51820000D03*
G04 #@! TD*
D22*
G04 #@! TO.P,R7,1*
G04 #@! TO.N,5V*
X161275000Y-58040000D03*
G04 #@! TO.P,R7,2*
G04 #@! TO.N,Net-(D5-A)*
X163100000Y-58040000D03*
G04 #@! TD*
D15*
G04 #@! TO.P,R2,1*
G04 #@! TO.N,KEY_PIN*
X180670000Y-95300000D03*
D23*
G04 #@! TO.P,R2,2*
G04 #@! TO.N,GND*
X173050000Y-95300000D03*
G04 #@! TD*
D15*
G04 #@! TO.P,R1,1*
G04 #@! TO.N,IR_SENSOR*
X180680000Y-92140000D03*
D23*
G04 #@! TO.P,R1,2*
G04 #@! TO.N,5V*
X173060000Y-92140000D03*
G04 #@! TD*
D14*
G04 #@! TO.P,BZ1,1,+*
G04 #@! TO.N,BUZZER_PIN*
X191100000Y-58430000D03*
D15*
G04 #@! TO.P,BZ1,2,-*
G04 #@! TO.N,GND*
X191100000Y-55230000D03*
G04 #@! TD*
G04 #@! TO.P,R3,1*
G04 #@! TO.N,Net-(U1-XTAL1{slash}PB6)*
X180710000Y-80690000D03*
D23*
G04 #@! TO.P,R3,2*
G04 #@! TO.N,Net-(U1-XTAL2{slash}PB7)*
X180710000Y-88310000D03*
G04 #@! TD*
D14*
G04 #@! TO.P,C1,1*
G04 #@! TO.N,/AREF*
X196840000Y-80610000D03*
D15*
G04 #@! TO.P,C1,2*
G04 #@! TO.N,GND*
X196840000Y-78110000D03*
G04 #@! TD*
D16*
G04 #@! TO.P,D4,1,K*
G04 #@! TO.N,/D0*
X166685000Y-61085000D03*
G04 #@! TO.P,D4,2,A*
G04 #@! TO.N,Net-(D4-A)*
X164810000Y-61085000D03*
G04 #@! TD*
D24*
G04 #@! TO.P,U1,1,~{RESET}/PC6*
G04 #@! TO.N,/DTR*
X184170000Y-62835000D03*
D25*
G04 #@! TO.P,U1,2,PD0*
G04 #@! TO.N,/D0*
X184170000Y-65375000D03*
G04 #@! TO.P,U1,3,PD1*
G04 #@! TO.N,/D1*
X184170000Y-67915000D03*
G04 #@! TO.P,U1,4,PD2*
G04 #@! TO.N,Red_LED*
X184170000Y-70455000D03*
G04 #@! TO.P,U1,5,PD3*
G04 #@! TO.N,SERVO_PIN*
X184170000Y-72995000D03*
G04 #@! TO.P,U1,6,PD4*
G04 #@! TO.N,LCK_EXTENDED*
X184170000Y-75535000D03*
G04 #@! TO.P,U1,7,VCC*
G04 #@! TO.N,5V*
X184170000Y-78075000D03*
G04 #@! TO.P,U1,8,GND*
G04 #@! TO.N,GND*
X184170000Y-80615000D03*
G04 #@! TO.P,U1,9,XTAL1/PB6*
G04 #@! TO.N,Net-(U1-XTAL1{slash}PB6)*
X184170000Y-83155000D03*
G04 #@! TO.P,U1,10,XTAL2/PB7*
G04 #@! TO.N,Net-(U1-XTAL2{slash}PB7)*
X184170000Y-85695000D03*
G04 #@! TO.P,U1,11,PD5*
G04 #@! TO.N,LCK_RETRACTED*
X184170000Y-88235000D03*
G04 #@! TO.P,U1,12,PD6*
G04 #@! TO.N,IR_SENSOR*
X184170000Y-90775000D03*
G04 #@! TO.P,U1,13,PD7*
G04 #@! TO.N,KEY_PIN*
X184170000Y-93315000D03*
G04 #@! TO.P,U1,14,PB0*
G04 #@! TO.N,Green_LED*
X184170000Y-95855000D03*
G04 #@! TO.P,U1,15,PB1*
G04 #@! TO.N,RFID_RST*
X191790000Y-95855000D03*
G04 #@! TO.P,U1,16,PB2*
G04 #@! TO.N,RFID_SDA(SS)*
X191790000Y-93315000D03*
G04 #@! TO.P,U1,17,PB3*
G04 #@! TO.N,RFID_MOSI*
X191790000Y-90775000D03*
G04 #@! TO.P,U1,18,PB4*
G04 #@! TO.N,RFID_MISO*
X191790000Y-88235000D03*
G04 #@! TO.P,U1,19,PB5*
G04 #@! TO.N,RFID_SCK*
X191790000Y-85695000D03*
G04 #@! TO.P,U1,20,AVCC*
G04 #@! TO.N,5V*
X191790000Y-83155000D03*
G04 #@! TO.P,U1,21,AREF*
G04 #@! TO.N,/AREF*
X191790000Y-80615000D03*
G04 #@! TO.P,U1,22,GND*
G04 #@! TO.N,GND*
X191790000Y-78075000D03*
G04 #@! TO.P,U1,23,PC0*
G04 #@! TO.N,/A0*
X191790000Y-75535000D03*
G04 #@! TO.P,U1,24,PC1*
G04 #@! TO.N,/A1*
X191790000Y-72995000D03*
G04 #@! TO.P,U1,25,PC2*
G04 #@! TO.N,/A2*
X191790000Y-70455000D03*
G04 #@! TO.P,U1,26,PC3*
G04 #@! TO.N,EXT_ALARM*
X191790000Y-67915000D03*
G04 #@! TO.P,U1,27,PC4*
G04 #@! TO.N,/A4*
X191790000Y-65375000D03*
G04 #@! TO.P,U1,28,PC5*
G04 #@! TO.N,BUZZER_PIN*
X191790000Y-62835000D03*
G04 #@! TD*
D17*
G04 #@! TO.P,D2,1,K*
G04 #@! TO.N,GND*
X179260000Y-67900000D03*
D18*
G04 #@! TO.P,D2,2,A*
G04 #@! TO.N,Red_LED*
X179260000Y-70440000D03*
G04 #@! TD*
D22*
G04 #@! TO.P,R6,1*
G04 #@! TO.N,5V*
X161285000Y-61080000D03*
G04 #@! TO.P,R6,2*
G04 #@! TO.N,Net-(D4-A)*
X163110000Y-61080000D03*
G04 #@! TD*
D19*
G04 #@! TO.P,J1,1,Pin_1*
G04 #@! TO.N,RFID_SDA(SS)*
X171390000Y-45780000D03*
D20*
G04 #@! TO.P,J1,2,Pin_2*
G04 #@! TO.N,RFID_SCK*
X173930000Y-45780000D03*
G04 #@! TO.P,J1,3,Pin_3*
G04 #@! TO.N,RFID_MOSI*
X176470000Y-45780000D03*
G04 #@! TO.P,J1,4,Pin_4*
G04 #@! TO.N,RFID_MISO*
X179010000Y-45780000D03*
G04 #@! TO.P,J1,5,Pin_5*
G04 #@! TO.N,unconnected-(J1-Pin_5-Pad5)*
X181550000Y-45780000D03*
G04 #@! TO.P,J1,6,Pin_6*
G04 #@! TO.N,GND*
X184090000Y-45780000D03*
G04 #@! TO.P,J1,7,Pin_7*
G04 #@! TO.N,RFID_RST*
X186630000Y-45780000D03*
G04 #@! TO.P,J1,8,Pin_8*
G04 #@! TO.N,5V*
X189170000Y-45780000D03*
G04 #@! TD*
D15*
G04 #@! TO.P,R4,1*
G04 #@! TO.N,/DTR*
X194930000Y-67710000D03*
D23*
G04 #@! TO.P,R4,2*
G04 #@! TO.N,5V*
X194930000Y-75330000D03*
G04 #@! TD*
D19*
G04 #@! TO.P,J7,1,Pin_1*
G04 #@! TO.N,5V*
X197740000Y-62240000D03*
D20*
G04 #@! TO.P,J7,2,Pin_2*
G04 #@! TO.N,GND*
X197740000Y-64780000D03*
G04 #@! TD*
D26*
G04 #@! TO.P,SW1,1,1*
G04 #@! TO.N,GND*
X198190000Y-73780000D03*
G04 #@! TO.P,SW1,2,2*
G04 #@! TO.N,/DTR*
X198190000Y-70380000D03*
G04 #@! TD*
D14*
G04 #@! TO.P,C2,1*
G04 #@! TO.N,5V*
X196820000Y-83670000D03*
D15*
G04 #@! TO.P,C2,2*
G04 #@! TO.N,GND*
X196820000Y-86170000D03*
G04 #@! TD*
D27*
G04 #@! TO.N,RFID_MISO*
X176220000Y-66560000D03*
G04 #@! TO.N,IR_SENSOR*
X186770000Y-74010000D03*
X186440000Y-77590000D03*
G04 #@! TO.N,RFID_RST*
X184880000Y-58650000D03*
X171020000Y-72570000D03*
G04 #@! TO.N,RFID_SCK*
X173700000Y-67020000D03*
G04 #@! TO.N,RFID_SDA(SS)*
X169760000Y-71180000D03*
G04 #@! TO.N,RFID_MOSI*
X172551497Y-69449164D03*
G04 #@! TO.N,EXT_ALARM*
X184980000Y-53250000D03*
G04 #@! TO.N,LCK_RETRACTED*
X168780000Y-90660000D03*
G04 #@! TO.N,SERVO_PIN*
X187940000Y-70560000D03*
G04 #@! TO.N,GND*
X166700000Y-56570000D03*
X184080000Y-47710000D03*
X181960000Y-79230000D03*
G04 #@! TO.N,/DTR*
X198190000Y-69340000D03*
X189850000Y-65640000D03*
G04 #@! TD*
D28*
G04 #@! TO.N,GND*
X197740000Y-68560000D02*
X197740000Y-64780000D01*
X196520000Y-69780000D02*
X197740000Y-68560000D01*
X196520000Y-76110000D02*
X196520000Y-69780000D01*
D29*
G04 #@! TO.N,5V*
X194930000Y-75770000D02*
X194930000Y-75330000D01*
X190710000Y-76720000D02*
X193980000Y-76720000D01*
X189910000Y-75920000D02*
X190710000Y-76720000D01*
X189910000Y-74435000D02*
X189910000Y-75920000D01*
X188860000Y-73385000D02*
X189910000Y-74435000D01*
X193980000Y-76720000D02*
X194930000Y-75770000D01*
D30*
G04 #@! TO.N,Red_LED*
X184155000Y-70440000D02*
X184170000Y-70455000D01*
X179260000Y-70440000D02*
X184155000Y-70440000D01*
G04 #@! TO.N,RFID_MISO*
X166470000Y-68340000D02*
X173419338Y-68340000D01*
X165550000Y-102000000D02*
X162750000Y-99200000D01*
X192190000Y-102000000D02*
X165550000Y-102000000D01*
X195930000Y-98260000D02*
X192190000Y-102000000D01*
X194605000Y-88235000D02*
X195930000Y-89560000D01*
X195930000Y-89560000D02*
X195930000Y-98260000D01*
X191790000Y-88235000D02*
X194605000Y-88235000D01*
X174440000Y-68340000D02*
X176220000Y-66560000D01*
X173419338Y-68340000D02*
X174440000Y-68340000D01*
X162750000Y-72060000D02*
X166470000Y-68340000D01*
X162750000Y-99200000D02*
X162750000Y-72060000D01*
G04 #@! TO.N,Net-(U1-XTAL1{slash}PB6)*
X175720000Y-81995000D02*
X179405000Y-81995000D01*
X175720000Y-81995000D02*
X172245000Y-81995000D01*
X184170000Y-83155000D02*
X183175000Y-83155000D01*
X172245000Y-81995000D02*
X171360000Y-81110000D01*
X179405000Y-81995000D02*
X180710000Y-80690000D01*
X183175000Y-83155000D02*
X180710000Y-80690000D01*
G04 #@! TO.N,LCK_EXTENDED*
X172070000Y-60300000D02*
X185280000Y-60300000D01*
X165380000Y-51820000D02*
X165380000Y-53610000D01*
X186120000Y-73585000D02*
X184170000Y-75535000D01*
X165380000Y-53610000D02*
X172070000Y-60300000D01*
X186120000Y-61140000D02*
X186120000Y-73585000D01*
X185280000Y-60300000D02*
X186120000Y-61140000D01*
G04 #@! TO.N,Net-(U1-XTAL2{slash}PB7)*
X179275000Y-86875000D02*
X180710000Y-88310000D01*
X184170000Y-85695000D02*
X183325000Y-85695000D01*
X172145000Y-86875000D02*
X171280000Y-87740000D01*
X175720000Y-86875000D02*
X172145000Y-86875000D01*
X175720000Y-86875000D02*
X179275000Y-86875000D01*
X183325000Y-85695000D02*
X180710000Y-88310000D01*
G04 #@! TO.N,IR_SENSOR*
X186440000Y-88505000D02*
X184170000Y-90775000D01*
X194210000Y-46025000D02*
X192925000Y-46025000D01*
X192100000Y-48840000D02*
X186770000Y-54170000D01*
X184170000Y-90775000D02*
X182045000Y-90775000D01*
X192925000Y-46025000D02*
X192100000Y-46850000D01*
X182045000Y-90775000D02*
X180680000Y-92140000D01*
X186440000Y-77590000D02*
X186440000Y-88505000D01*
X194210000Y-46797233D02*
X194210000Y-46025000D01*
X186770000Y-54170000D02*
X186770000Y-74010000D01*
X192100000Y-46850000D02*
X192100000Y-48840000D01*
G04 #@! TO.N,RFID_RST*
X191790000Y-95855000D02*
X193185000Y-95855000D01*
X193790000Y-97310000D02*
X193340000Y-97760000D01*
X164810000Y-97650000D02*
X164810000Y-74585750D01*
X165910000Y-73480000D02*
X166820000Y-72570000D01*
X190320000Y-99940000D02*
X166510000Y-99940000D01*
X186630000Y-53180000D02*
X185750000Y-54060000D01*
X191160000Y-99940000D02*
X190320000Y-99940000D01*
X193790000Y-96460000D02*
X193790000Y-97150000D01*
X164810000Y-98240000D02*
X164810000Y-97650000D01*
X193790000Y-97150000D02*
X193790000Y-97310000D01*
X186630000Y-45780000D02*
X186630000Y-53180000D01*
X166510000Y-99940000D02*
X165990000Y-99420000D01*
X193750000Y-96420000D02*
X193790000Y-96460000D01*
X166820000Y-72570000D02*
X171020000Y-72570000D01*
X185750000Y-54060000D02*
X185750000Y-57780000D01*
X193340000Y-97760000D02*
X191160000Y-99940000D01*
X164810000Y-74585750D02*
X164810000Y-74580000D01*
X193185000Y-95855000D02*
X193750000Y-96420000D01*
X165990000Y-99420000D02*
X164810000Y-98240000D01*
X185750000Y-57780000D02*
X184880000Y-58650000D01*
X164810000Y-74580000D02*
X165910000Y-73480000D01*
G04 #@! TO.N,/D1*
X184170000Y-67915000D02*
X180380000Y-64125000D01*
X180380000Y-64125000D02*
X166685000Y-64125000D01*
D28*
G04 #@! TO.N,5V*
X194500000Y-60900000D02*
X189880000Y-60900000D01*
X188860000Y-61920000D02*
X188860000Y-73385000D01*
D30*
X190175000Y-44775000D02*
X195460000Y-44775000D01*
D28*
X161307500Y-56627500D02*
X161307500Y-64110000D01*
X162085000Y-46355000D02*
X160890000Y-47550000D01*
X160890000Y-47550000D02*
X160890000Y-56210000D01*
D30*
X195460000Y-44775000D02*
X196140000Y-45455000D01*
D28*
X197740000Y-62240000D02*
X195840000Y-62240000D01*
D30*
X189170000Y-45780000D02*
X190175000Y-44775000D01*
D28*
X196820000Y-83670000D02*
X192305000Y-83670000D01*
X195840000Y-62240000D02*
X194500000Y-60900000D01*
X192305000Y-83670000D02*
X191790000Y-83155000D01*
X162085000Y-45990000D02*
X162085000Y-46355000D01*
X188860000Y-73385000D02*
X184170000Y-78075000D01*
D30*
X196140000Y-45455000D02*
X196140000Y-59260000D01*
D28*
X189880000Y-60900000D02*
X188860000Y-61920000D01*
D30*
X196140000Y-59260000D02*
X194500000Y-60900000D01*
D28*
X160890000Y-56210000D02*
X161307500Y-56627500D01*
D30*
G04 #@! TO.N,Net-(D3-A)*
X163147500Y-64125000D02*
X163132500Y-64110000D01*
X164810000Y-64125000D02*
X163147500Y-64125000D01*
G04 #@! TO.N,RFID_SCK*
X193275000Y-85695000D02*
X196800000Y-89220000D01*
X173280000Y-67440000D02*
X173700000Y-67020000D01*
X161940000Y-99540000D02*
X161940000Y-71110000D01*
X196800000Y-89220000D02*
X196800000Y-98540000D01*
X165130000Y-102730000D02*
X161940000Y-99540000D01*
X191790000Y-85695000D02*
X193275000Y-85695000D01*
X161940000Y-71110000D02*
X165610000Y-67440000D01*
X165610000Y-67440000D02*
X173280000Y-67440000D01*
X192610000Y-102730000D02*
X165130000Y-102730000D01*
X196800000Y-98540000D02*
X192610000Y-102730000D01*
G04 #@! TO.N,RFID_SDA(SS)*
X164140000Y-74230000D02*
X167190000Y-71180000D01*
X194470000Y-95560000D02*
X194470000Y-97580000D01*
X191450000Y-100600000D02*
X166220000Y-100600000D01*
X194470000Y-97580000D02*
X191450000Y-100600000D01*
X191790000Y-93315000D02*
X192225000Y-93315000D01*
X166220000Y-100600000D02*
X164140000Y-98520000D01*
X192225000Y-93315000D02*
X194470000Y-95560000D01*
X167190000Y-71180000D02*
X169760000Y-71180000D01*
X164140000Y-98520000D02*
X164140000Y-74230000D01*
G04 #@! TO.N,Green_LED*
X182060000Y-98480000D02*
X171700000Y-98480000D01*
X184170000Y-96370000D02*
X182060000Y-98480000D01*
X171700000Y-98480000D02*
X169435000Y-96215000D01*
X184170000Y-95855000D02*
X184170000Y-96370000D01*
X169435000Y-96215000D02*
X169435000Y-94950000D01*
G04 #@! TO.N,RFID_MOSI*
X191820000Y-101280000D02*
X165870000Y-101280000D01*
X195190000Y-97910000D02*
X191820000Y-101280000D01*
X165870000Y-101280000D02*
X163460000Y-98870000D01*
X193915000Y-90775000D02*
X195220000Y-92080000D01*
X163460000Y-98870000D02*
X163460000Y-73140000D01*
X163460000Y-73140000D02*
X167150836Y-69449164D01*
X191790000Y-90775000D02*
X193915000Y-90775000D01*
X195220000Y-92080000D02*
X195210000Y-92090000D01*
X167150836Y-69449164D02*
X172551497Y-69449164D01*
X195210000Y-92090000D02*
X195210000Y-97910000D01*
X195210000Y-97910000D02*
X195190000Y-97910000D01*
G04 #@! TO.N,EXT_ALARM*
X171890000Y-53250000D02*
X184980000Y-53250000D01*
X170460000Y-51820000D02*
X171890000Y-53250000D01*
G04 #@! TO.N,LCK_RETRACTED*
X183510000Y-88461472D02*
X183736472Y-88235000D01*
X183736472Y-88235000D02*
X184170000Y-88235000D01*
X180910000Y-90660000D02*
X183100000Y-88470000D01*
X168780000Y-90660000D02*
X180910000Y-90660000D01*
X183510000Y-88470000D02*
X183510000Y-88461472D01*
X183100000Y-88470000D02*
X183510000Y-88470000D01*
G04 #@! TO.N,Net-(D4-A)*
X164805000Y-61080000D02*
X164810000Y-61085000D01*
X163110000Y-61080000D02*
X164805000Y-61080000D01*
G04 #@! TO.N,SERVO_PIN*
X187940000Y-70560000D02*
X187940000Y-54835000D01*
X187940000Y-54835000D02*
X194210000Y-48565000D01*
G04 #@! TO.N,/D0*
X166685000Y-61085000D02*
X179480000Y-61085000D01*
X179480000Y-61085000D02*
X183770000Y-65375000D01*
X183770000Y-65375000D02*
X184170000Y-65375000D01*
D28*
G04 #@! TO.N,GND*
X195950000Y-76680000D02*
X196520000Y-76110000D01*
D30*
X183345000Y-80615000D02*
X181960000Y-79230000D01*
D28*
X196520000Y-77790000D02*
X196840000Y-78110000D01*
D30*
X184090000Y-45780000D02*
X184090000Y-47700000D01*
D28*
X195510000Y-77120000D02*
X195950000Y-76680000D01*
X196520000Y-77065000D02*
X196520000Y-77790000D01*
D30*
X184170000Y-80615000D02*
X183345000Y-80615000D01*
D28*
X195510000Y-78075000D02*
X196805000Y-78075000D01*
X197840000Y-78110000D02*
X196840000Y-78110000D01*
X196520000Y-77065000D02*
X195510000Y-78075000D01*
X196520000Y-76110000D02*
X196520000Y-77065000D01*
X191790000Y-78075000D02*
X196805000Y-78075000D01*
D30*
X166685000Y-58045000D02*
X166685000Y-56585000D01*
D28*
X194555000Y-78075000D02*
X195950000Y-76680000D01*
X195510000Y-78075000D02*
X195510000Y-77120000D01*
D30*
X166685000Y-56585000D02*
X166700000Y-56570000D01*
D28*
X198190000Y-73780000D02*
X198190000Y-77760000D01*
X198190000Y-77760000D02*
X197840000Y-78110000D01*
X197920000Y-45990000D02*
X197920000Y-56150000D01*
X191790000Y-78075000D02*
X194555000Y-78075000D01*
D30*
X184090000Y-47700000D02*
X184080000Y-47710000D01*
D28*
X196805000Y-78075000D02*
X196840000Y-78110000D01*
D30*
G04 #@! TO.N,Net-(D5-A)*
X164810000Y-58045000D02*
X163105000Y-58045000D01*
X163105000Y-58045000D02*
X163100000Y-58040000D01*
G04 #@! TO.N,/DTR*
X190925000Y-66715000D02*
X189850000Y-65640000D01*
X194930000Y-67710000D02*
X193935000Y-66715000D01*
X198190000Y-70380000D02*
X197600000Y-70380000D01*
X193935000Y-66715000D02*
X190925000Y-66715000D01*
X198190000Y-70380000D02*
X198190000Y-69340000D01*
G04 #@! TD*
G04 #@! TA.AperFunction,Conductor*
G04 #@! TO.N,5V*
G36*
X170085579Y-44480185D02*
G01*
X170131334Y-44532989D01*
X170141278Y-44602147D01*
X170117807Y-44658811D01*
X170096204Y-44687668D01*
X170096202Y-44687671D01*
X170045908Y-44822517D01*
X170039501Y-44882116D01*
X170039500Y-44882135D01*
X170039500Y-46677870D01*
X170039501Y-46677876D01*
X170045908Y-46737483D01*
X170096202Y-46872328D01*
X170096206Y-46872335D01*
X170182452Y-46987544D01*
X170182455Y-46987547D01*
X170297664Y-47073793D01*
X170297671Y-47073797D01*
X170432517Y-47124091D01*
X170432516Y-47124091D01*
X170439444Y-47124835D01*
X170492127Y-47130500D01*
X172287872Y-47130499D01*
X172347483Y-47124091D01*
X172482331Y-47073796D01*
X172597546Y-46987546D01*
X172683796Y-46872331D01*
X172732810Y-46740916D01*
X172774681Y-46684984D01*
X172840145Y-46660566D01*
X172908418Y-46675417D01*
X172936673Y-46696569D01*
X173058599Y-46818495D01*
X173152882Y-46884513D01*
X173252165Y-46954032D01*
X173252167Y-46954033D01*
X173252170Y-46954035D01*
X173466337Y-47053903D01*
X173694592Y-47115063D01*
X173871034Y-47130500D01*
X173929999Y-47135659D01*
X173930000Y-47135659D01*
X173930001Y-47135659D01*
X173988966Y-47130500D01*
X174165408Y-47115063D01*
X174393663Y-47053903D01*
X174607830Y-46954035D01*
X174801401Y-46818495D01*
X174968495Y-46651401D01*
X175098425Y-46465842D01*
X175153002Y-46422217D01*
X175222500Y-46415023D01*
X175284855Y-46446546D01*
X175301575Y-46465842D01*
X175431281Y-46651082D01*
X175431505Y-46651401D01*
X175598599Y-46818495D01*
X175692882Y-46884513D01*
X175792165Y-46954032D01*
X175792167Y-46954033D01*
X175792170Y-46954035D01*
X176006337Y-47053903D01*
X176234592Y-47115063D01*
X176411034Y-47130500D01*
X176469999Y-47135659D01*
X176470000Y-47135659D01*
X176470001Y-47135659D01*
X176528966Y-47130500D01*
X176705408Y-47115063D01*
X176933663Y-47053903D01*
X177147830Y-46954035D01*
X177341401Y-46818495D01*
X177508495Y-46651401D01*
X177638425Y-46465842D01*
X177693002Y-46422217D01*
X177762500Y-46415023D01*
X177824855Y-46446546D01*
X177841575Y-46465842D01*
X177971281Y-46651082D01*
X177971505Y-46651401D01*
X178138599Y-46818495D01*
X178232882Y-46884513D01*
X178332165Y-46954032D01*
X178332167Y-46954033D01*
X178332170Y-46954035D01*
X178546337Y-47053903D01*
X178774592Y-47115063D01*
X178951034Y-47130500D01*
X179009999Y-47135659D01*
X179010000Y-47135659D01*
X179010001Y-47135659D01*
X179068966Y-47130500D01*
X179245408Y-47115063D01*
X179473663Y-47053903D01*
X179687830Y-46954035D01*
X179881401Y-46818495D01*
X180048495Y-46651401D01*
X180178425Y-46465842D01*
X180233002Y-46422217D01*
X180302500Y-46415023D01*
X180364855Y-46446546D01*
X180381575Y-46465842D01*
X180511281Y-46651082D01*
X180511505Y-46651401D01*
X180678599Y-46818495D01*
X180772882Y-46884513D01*
X180872165Y-46954032D01*
X180872167Y-46954033D01*
X180872170Y-46954035D01*
X181086337Y-47053903D01*
X181314592Y-47115063D01*
X181491034Y-47130500D01*
X181549999Y-47135659D01*
X181550000Y-47135659D01*
X181550001Y-47135659D01*
X181608966Y-47130500D01*
X181785408Y-47115063D01*
X182013663Y-47053903D01*
X182227830Y-46954035D01*
X182421401Y-46818495D01*
X182588495Y-46651401D01*
X182718425Y-46465842D01*
X182773002Y-46422217D01*
X182842500Y-46415023D01*
X182904855Y-46446546D01*
X182921575Y-46465842D01*
X183051501Y-46651396D01*
X183051506Y-46651402D01*
X183218597Y-46818494D01*
X183336623Y-46901136D01*
X183380248Y-46955713D01*
X183389500Y-47002711D01*
X183389500Y-47268592D01*
X183370494Y-47334562D01*
X183367079Y-47339999D01*
X183354209Y-47360481D01*
X183294633Y-47530737D01*
X183294630Y-47530750D01*
X183274435Y-47709996D01*
X183274435Y-47710003D01*
X183294630Y-47889249D01*
X183294631Y-47889254D01*
X183354211Y-48059523D01*
X183450184Y-48212262D01*
X183577738Y-48339816D01*
X183730478Y-48435789D01*
X183900745Y-48495368D01*
X183900750Y-48495369D01*
X184079996Y-48515565D01*
X184080000Y-48515565D01*
X184080004Y-48515565D01*
X184259249Y-48495369D01*
X184259252Y-48495368D01*
X184259255Y-48495368D01*
X184429522Y-48435789D01*
X184582262Y-48339816D01*
X184709816Y-48212262D01*
X184805789Y-48059522D01*
X184865368Y-47889255D01*
X184865603Y-47887169D01*
X184885565Y-47710003D01*
X184885565Y-47709996D01*
X184865369Y-47530750D01*
X184865366Y-47530737D01*
X184805790Y-47360481D01*
X184802779Y-47354227D01*
X184790500Y-47300427D01*
X184790500Y-47002711D01*
X184810185Y-46935672D01*
X184843377Y-46901136D01*
X184961401Y-46818495D01*
X185128495Y-46651401D01*
X185258425Y-46465842D01*
X185313002Y-46422217D01*
X185382500Y-46415023D01*
X185444855Y-46446546D01*
X185461575Y-46465842D01*
X185591501Y-46651396D01*
X185591506Y-46651402D01*
X185758597Y-46818494D01*
X185876623Y-46901136D01*
X185920248Y-46955713D01*
X185929500Y-47002711D01*
X185929500Y-52826097D01*
X185909815Y-52893136D01*
X185857011Y-52938891D01*
X185787853Y-52948835D01*
X185724297Y-52919810D01*
X185700507Y-52892070D01*
X185609817Y-52747739D01*
X185482262Y-52620184D01*
X185329523Y-52524211D01*
X185159254Y-52464631D01*
X185159249Y-52464630D01*
X184980004Y-52444435D01*
X184979996Y-52444435D01*
X184800750Y-52464630D01*
X184800745Y-52464631D01*
X184630474Y-52524212D01*
X184620477Y-52530494D01*
X184554506Y-52549500D01*
X172231518Y-52549500D01*
X172164479Y-52529815D01*
X172143837Y-52513181D01*
X172024447Y-52393791D01*
X171822649Y-52191993D01*
X171789166Y-52130672D01*
X171790557Y-52072221D01*
X171795063Y-52055408D01*
X171815659Y-51820000D01*
X171795063Y-51584592D01*
X171733903Y-51356337D01*
X171634035Y-51142171D01*
X171628425Y-51134158D01*
X171498494Y-50948597D01*
X171331402Y-50781506D01*
X171331395Y-50781501D01*
X171137834Y-50645967D01*
X171137830Y-50645965D01*
X171137828Y-50645964D01*
X170923663Y-50546097D01*
X170923659Y-50546096D01*
X170923655Y-50546094D01*
X170695413Y-50484938D01*
X170695403Y-50484936D01*
X170460001Y-50464341D01*
X170459999Y-50464341D01*
X170224596Y-50484936D01*
X170224586Y-50484938D01*
X169996344Y-50546094D01*
X169996335Y-50546098D01*
X169782171Y-50645964D01*
X169782169Y-50645965D01*
X169588597Y-50781505D01*
X169421505Y-50948597D01*
X169291575Y-51134158D01*
X169236998Y-51177783D01*
X169167500Y-51184977D01*
X169105145Y-51153454D01*
X169088425Y-51134158D01*
X168958494Y-50948597D01*
X168791402Y-50781506D01*
X168791395Y-50781501D01*
X168597834Y-50645967D01*
X168597830Y-50645965D01*
X168597828Y-50645964D01*
X168383663Y-50546097D01*
X168383659Y-50546096D01*
X168383655Y-50546094D01*
X168155413Y-50484938D01*
X168155403Y-50484936D01*
X167920001Y-50464341D01*
X167919999Y-50464341D01*
X167684596Y-50484936D01*
X167684586Y-50484938D01*
X167456344Y-50546094D01*
X167456335Y-50546098D01*
X167242171Y-50645964D01*
X167242169Y-50645965D01*
X167048597Y-50781505D01*
X166881505Y-50948597D01*
X166751575Y-51134158D01*
X166696998Y-51177783D01*
X166627500Y-51184977D01*
X166565145Y-51153454D01*
X166548425Y-51134158D01*
X166418494Y-50948597D01*
X166251402Y-50781506D01*
X166251395Y-50781501D01*
X166057834Y-50645967D01*
X166057830Y-50645965D01*
X166057828Y-50645964D01*
X165843663Y-50546097D01*
X165843659Y-50546096D01*
X165843655Y-50546094D01*
X165615413Y-50484938D01*
X165615403Y-50484936D01*
X165380001Y-50464341D01*
X165379999Y-50464341D01*
X165144596Y-50484936D01*
X165144586Y-50484938D01*
X164916344Y-50546094D01*
X164916335Y-50546098D01*
X164702171Y-50645964D01*
X164702169Y-50645965D01*
X164508600Y-50781503D01*
X164386673Y-50903430D01*
X164325350Y-50936914D01*
X164255658Y-50931930D01*
X164199725Y-50890058D01*
X164182810Y-50859081D01*
X164133797Y-50727671D01*
X164133793Y-50727664D01*
X164047547Y-50612455D01*
X164047544Y-50612452D01*
X163932335Y-50526206D01*
X163932328Y-50526202D01*
X163797482Y-50475908D01*
X163797483Y-50475908D01*
X163737883Y-50469501D01*
X163737881Y-50469500D01*
X163737873Y-50469500D01*
X163737864Y-50469500D01*
X161942129Y-50469500D01*
X161942123Y-50469501D01*
X161882516Y-50475908D01*
X161747671Y-50526202D01*
X161747664Y-50526206D01*
X161632455Y-50612452D01*
X161632452Y-50612455D01*
X161546206Y-50727664D01*
X161546202Y-50727671D01*
X161495908Y-50862517D01*
X161489501Y-50922116D01*
X161489500Y-50922135D01*
X161489500Y-52717870D01*
X161489501Y-52717876D01*
X161495908Y-52777483D01*
X161546202Y-52912328D01*
X161546206Y-52912335D01*
X161632452Y-53027544D01*
X161632455Y-53027547D01*
X161747664Y-53113793D01*
X161747671Y-53113797D01*
X161882517Y-53164091D01*
X161882516Y-53164091D01*
X161889444Y-53164835D01*
X161942127Y-53170500D01*
X163737872Y-53170499D01*
X163797483Y-53164091D01*
X163932331Y-53113796D01*
X164047546Y-53027546D01*
X164133796Y-52912331D01*
X164182810Y-52780916D01*
X164224681Y-52724984D01*
X164290145Y-52700566D01*
X164358418Y-52715417D01*
X164386670Y-52736566D01*
X164476201Y-52826097D01*
X164508600Y-52858496D01*
X164568557Y-52900478D01*
X164613819Y-52932171D01*
X164626623Y-52941136D01*
X164670248Y-52995713D01*
X164679500Y-53042711D01*
X164679500Y-53541006D01*
X164679500Y-53678994D01*
X164679500Y-53678996D01*
X164679499Y-53678996D01*
X164706418Y-53814322D01*
X164706421Y-53814332D01*
X164759222Y-53941807D01*
X164835887Y-54056545D01*
X164835888Y-54056546D01*
X166413225Y-55633882D01*
X166446710Y-55695205D01*
X166441726Y-55764897D01*
X166399854Y-55820830D01*
X166366499Y-55838605D01*
X166350477Y-55844211D01*
X166197737Y-55940184D01*
X166070184Y-56067737D01*
X165974211Y-56220476D01*
X165914631Y-56390745D01*
X165914630Y-56390750D01*
X165894435Y-56569996D01*
X165894435Y-56570003D01*
X165914630Y-56749249D01*
X165914633Y-56749262D01*
X165970183Y-56908011D01*
X165973745Y-56977790D01*
X165940824Y-57036647D01*
X165853471Y-57124000D01*
X165853038Y-57124703D01*
X165852614Y-57125083D01*
X165848993Y-57129664D01*
X165848210Y-57129045D01*
X165801090Y-57171428D01*
X165732128Y-57182649D01*
X165668046Y-57154806D01*
X165646157Y-57129544D01*
X165646007Y-57129664D01*
X165643359Y-57126315D01*
X165641962Y-57124703D01*
X165641528Y-57124000D01*
X165641525Y-57123996D01*
X165518503Y-57000974D01*
X165518499Y-57000971D01*
X165370433Y-56909642D01*
X165370427Y-56909639D01*
X165370425Y-56909638D01*
X165348238Y-56902286D01*
X165205276Y-56854913D01*
X165103355Y-56844500D01*
X165103348Y-56844500D01*
X164516652Y-56844500D01*
X164516644Y-56844500D01*
X164414723Y-56854913D01*
X164249577Y-56909637D01*
X164249566Y-56909642D01*
X164101500Y-57000971D01*
X164101496Y-57000974D01*
X164055849Y-57046621D01*
X163994526Y-57080105D01*
X163924834Y-57075120D01*
X163880488Y-57046620D01*
X163831157Y-56997289D01*
X163831156Y-56997288D01*
X163708034Y-56921346D01*
X163681836Y-56905187D01*
X163681831Y-56905185D01*
X163673082Y-56902286D01*
X163515297Y-56850001D01*
X163515295Y-56850000D01*
X163412510Y-56839500D01*
X162787498Y-56839500D01*
X162787480Y-56839501D01*
X162684703Y-56850000D01*
X162684700Y-56850001D01*
X162518168Y-56905185D01*
X162518163Y-56905187D01*
X162368845Y-56997287D01*
X162274827Y-57091305D01*
X162213503Y-57124789D01*
X162143812Y-57119805D01*
X162099465Y-57091304D01*
X162005845Y-56997684D01*
X161856624Y-56905643D01*
X161856619Y-56905641D01*
X161690197Y-56850494D01*
X161690190Y-56850493D01*
X161587486Y-56840000D01*
X161525000Y-56840000D01*
X161525000Y-59239999D01*
X161587472Y-59239999D01*
X161587486Y-59239998D01*
X161690197Y-59229505D01*
X161856619Y-59174358D01*
X161856624Y-59174356D01*
X162005842Y-59082317D01*
X162099464Y-58988695D01*
X162160787Y-58955210D01*
X162230479Y-58960194D01*
X162274827Y-58988695D01*
X162368844Y-59082712D01*
X162518166Y-59174814D01*
X162684703Y-59229999D01*
X162787491Y-59240500D01*
X163412508Y-59240499D01*
X163412516Y-59240498D01*
X163412519Y-59240498D01*
X163468802Y-59234748D01*
X163515297Y-59229999D01*
X163681834Y-59174814D01*
X163831156Y-59082712D01*
X163875489Y-59038378D01*
X163936810Y-59004894D01*
X164006501Y-59009878D01*
X164050850Y-59038379D01*
X164101496Y-59089025D01*
X164101500Y-59089028D01*
X164249566Y-59180357D01*
X164249569Y-59180358D01*
X164249575Y-59180362D01*
X164414725Y-59235087D01*
X164516652Y-59245500D01*
X164516657Y-59245500D01*
X165103343Y-59245500D01*
X165103348Y-59245500D01*
X165205275Y-59235087D01*
X165370425Y-59180362D01*
X165518503Y-59089026D01*
X165641526Y-58966003D01*
X165641958Y-58965301D01*
X165642381Y-58964921D01*
X165646007Y-58960336D01*
X165646790Y-58960955D01*
X165693902Y-58918575D01*
X165762864Y-58907349D01*
X165826948Y-58935188D01*
X165848842Y-58960455D01*
X165848993Y-58960336D01*
X165851643Y-58963687D01*
X165853040Y-58965299D01*
X165853472Y-58965999D01*
X165853475Y-58966004D01*
X165976496Y-59089025D01*
X165976500Y-59089028D01*
X166124566Y-59180357D01*
X166124569Y-59180358D01*
X166124575Y-59180362D01*
X166289725Y-59235087D01*
X166391652Y-59245500D01*
X166391657Y-59245500D01*
X166978343Y-59245500D01*
X166978348Y-59245500D01*
X167080275Y-59235087D01*
X167245425Y-59180362D01*
X167393503Y-59089026D01*
X167516526Y-58966003D01*
X167607862Y-58817925D01*
X167662587Y-58652775D01*
X167673000Y-58550848D01*
X167673000Y-57539152D01*
X167662587Y-57437225D01*
X167607862Y-57272075D01*
X167607858Y-57272069D01*
X167607857Y-57272066D01*
X167516528Y-57124000D01*
X167516527Y-57123999D01*
X167516526Y-57123997D01*
X167451032Y-57058503D01*
X167417548Y-56997179D01*
X167422533Y-56927488D01*
X167425150Y-56921346D01*
X167425787Y-56919524D01*
X167425789Y-56919522D01*
X167431393Y-56903504D01*
X167472111Y-56846728D01*
X167537062Y-56820978D01*
X167605625Y-56834430D01*
X167636117Y-56856774D01*
X170952162Y-60172819D01*
X170985647Y-60234142D01*
X170980663Y-60303834D01*
X170938791Y-60359767D01*
X170873327Y-60384184D01*
X170864481Y-60384500D01*
X167720631Y-60384500D01*
X167653592Y-60364815D01*
X167612459Y-60317724D01*
X167611654Y-60318222D01*
X167608673Y-60313390D01*
X167608249Y-60312904D01*
X167607862Y-60312074D01*
X167516528Y-60164000D01*
X167516525Y-60163996D01*
X167393503Y-60040974D01*
X167393499Y-60040971D01*
X167245433Y-59949642D01*
X167245427Y-59949639D01*
X167245425Y-59949638D01*
X167231987Y-59945185D01*
X167080276Y-59894913D01*
X166978355Y-59884500D01*
X166978348Y-59884500D01*
X166391652Y-59884500D01*
X166391644Y-59884500D01*
X166289723Y-59894913D01*
X166124577Y-59949637D01*
X166124566Y-59949642D01*
X165976500Y-60040971D01*
X165976496Y-60040974D01*
X165853474Y-60163996D01*
X165853471Y-60164000D01*
X165853038Y-60164703D01*
X165852614Y-60165083D01*
X165848993Y-60169664D01*
X165848210Y-60169045D01*
X165801090Y-60211428D01*
X165732128Y-60222649D01*
X165668046Y-60194806D01*
X165646157Y-60169544D01*
X165646007Y-60169664D01*
X165643359Y-60166315D01*
X165641962Y-60164703D01*
X165641528Y-60164000D01*
X165641525Y-60163996D01*
X165518503Y-60040974D01*
X165518499Y-60040971D01*
X165370433Y-59949642D01*
X165370427Y-59949639D01*
X165370425Y-59949638D01*
X165356987Y-59945185D01*
X165205276Y-59894913D01*
X165103355Y-59884500D01*
X165103348Y-59884500D01*
X164516652Y-59884500D01*
X164516644Y-59884500D01*
X164414723Y-59894913D01*
X164249577Y-59949637D01*
X164249566Y-59949642D01*
X164101500Y-60040971D01*
X164101496Y-60040974D01*
X164060849Y-60081621D01*
X163999526Y-60115105D01*
X163929834Y-60110120D01*
X163885488Y-60081620D01*
X163841157Y-60037289D01*
X163841156Y-60037288D01*
X163748388Y-59980069D01*
X163691836Y-59945187D01*
X163691831Y-59945185D01*
X163690362Y-59944698D01*
X163525297Y-59890001D01*
X163525295Y-59890000D01*
X163422510Y-59879500D01*
X162797498Y-59879500D01*
X162797480Y-59879501D01*
X162694703Y-59890000D01*
X162694700Y-59890001D01*
X162528168Y-59945185D01*
X162528163Y-59945187D01*
X162378845Y-60037287D01*
X162284827Y-60131305D01*
X162223503Y-60164789D01*
X162153812Y-60159805D01*
X162109465Y-60131304D01*
X162015845Y-60037684D01*
X161866624Y-59945643D01*
X161866619Y-59945641D01*
X161700197Y-59890494D01*
X161700190Y-59890493D01*
X161597486Y-59880000D01*
X161535000Y-59880000D01*
X161535000Y-62279999D01*
X161597472Y-62279999D01*
X161597486Y-62279998D01*
X161700197Y-62269505D01*
X161866619Y-62214358D01*
X161866624Y-62214356D01*
X162015842Y-62122317D01*
X162109464Y-62028695D01*
X162170787Y-61995210D01*
X162240479Y-62000194D01*
X162284827Y-62028695D01*
X162378844Y-62122712D01*
X162528166Y-62214814D01*
X162694703Y-62269999D01*
X162797491Y-62280500D01*
X163422508Y-62280499D01*
X163422516Y-62280498D01*
X163422519Y-62280498D01*
X163478802Y-62274748D01*
X163525297Y-62269999D01*
X163691834Y-62214814D01*
X163841156Y-62122712D01*
X163880489Y-62083378D01*
X163941810Y-62049894D01*
X164011501Y-62054878D01*
X164055850Y-62083379D01*
X164101496Y-62129025D01*
X164101500Y-62129028D01*
X164249566Y-62220357D01*
X164249569Y-62220358D01*
X164249575Y-62220362D01*
X164414725Y-62275087D01*
X164516652Y-62285500D01*
X164516657Y-62285500D01*
X165103343Y-62285500D01*
X165103348Y-62285500D01*
X165205275Y-62275087D01*
X165370425Y-62220362D01*
X165518503Y-62129026D01*
X165641526Y-62006003D01*
X165641958Y-62005301D01*
X165642381Y-62004921D01*
X165646007Y-62000336D01*
X165646790Y-62000955D01*
X165693902Y-61958575D01*
X165762864Y-61947349D01*
X165826948Y-61975188D01*
X165848842Y-62000455D01*
X165848993Y-62000336D01*
X165851643Y-62003687D01*
X165853040Y-62005299D01*
X165853472Y-62005999D01*
X165853475Y-62006004D01*
X165976496Y-62129025D01*
X165976500Y-62129028D01*
X166124566Y-62220357D01*
X166124569Y-62220358D01*
X166124575Y-62220362D01*
X166289725Y-62275087D01*
X166391652Y-62285500D01*
X166391657Y-62285500D01*
X166978343Y-62285500D01*
X166978348Y-62285500D01*
X167080275Y-62275087D01*
X167245425Y-62220362D01*
X167393503Y-62129026D01*
X167516526Y-62006003D01*
X167607862Y-61857925D01*
X167608249Y-61857096D01*
X167608665Y-61856622D01*
X167611654Y-61851778D01*
X167612481Y-61852288D01*
X167654421Y-61804656D01*
X167720631Y-61785500D01*
X179138481Y-61785500D01*
X179205520Y-61805185D01*
X179226162Y-61821819D01*
X180634114Y-63229771D01*
X180667599Y-63291094D01*
X180662615Y-63360786D01*
X180620743Y-63416719D01*
X180555279Y-63441136D01*
X180522242Y-63439069D01*
X180448998Y-63424500D01*
X180448994Y-63424500D01*
X180448993Y-63424500D01*
X167720631Y-63424500D01*
X167653592Y-63404815D01*
X167612459Y-63357724D01*
X167611654Y-63358222D01*
X167608673Y-63353390D01*
X167608249Y-63352904D01*
X167607862Y-63352074D01*
X167516528Y-63204000D01*
X167516525Y-63203996D01*
X167393503Y-63080974D01*
X167393499Y-63080971D01*
X167245433Y-62989642D01*
X167245427Y-62989639D01*
X167245425Y-62989638D01*
X167201809Y-62975185D01*
X167080276Y-62934913D01*
X166978355Y-62924500D01*
X166978348Y-62924500D01*
X166391652Y-62924500D01*
X166391644Y-62924500D01*
X166289723Y-62934913D01*
X166124577Y-62989637D01*
X166124566Y-62989642D01*
X165976500Y-63080971D01*
X165976496Y-63080974D01*
X165853474Y-63203996D01*
X165853471Y-63204000D01*
X165853038Y-63204703D01*
X165852614Y-63205083D01*
X165848993Y-63209664D01*
X165848210Y-63209045D01*
X165801090Y-63251428D01*
X165732128Y-63262649D01*
X165668046Y-63234806D01*
X165646157Y-63209544D01*
X165646007Y-63209664D01*
X165643359Y-63206315D01*
X165641962Y-63204703D01*
X165641528Y-63204000D01*
X165641525Y-63203996D01*
X165518503Y-63080974D01*
X165518499Y-63080971D01*
X165370433Y-62989642D01*
X165370427Y-62989639D01*
X165370425Y-62989638D01*
X165326809Y-62975185D01*
X165205276Y-62934913D01*
X165103355Y-62924500D01*
X165103348Y-62924500D01*
X164516652Y-62924500D01*
X164516644Y-62924500D01*
X164414723Y-62934913D01*
X164249577Y-62989637D01*
X164249566Y-62989642D01*
X164101500Y-63080971D01*
X164077099Y-63105372D01*
X164015775Y-63138856D01*
X163946083Y-63133870D01*
X163901738Y-63105370D01*
X163863657Y-63067289D01*
X163863656Y-63067288D01*
X163720025Y-62978696D01*
X163714336Y-62975187D01*
X163714331Y-62975185D01*
X163701258Y-62970853D01*
X163547797Y-62920001D01*
X163547795Y-62920000D01*
X163445010Y-62909500D01*
X162819998Y-62909500D01*
X162819980Y-62909501D01*
X162717203Y-62920000D01*
X162717200Y-62920001D01*
X162550668Y-62975185D01*
X162550663Y-62975187D01*
X162401345Y-63067287D01*
X162307327Y-63161305D01*
X162246003Y-63194789D01*
X162176312Y-63189805D01*
X162131965Y-63161304D01*
X162038345Y-63067684D01*
X161889124Y-62975643D01*
X161889119Y-62975641D01*
X161722697Y-62920494D01*
X161722690Y-62920493D01*
X161619986Y-62910000D01*
X161557500Y-62910000D01*
X161557500Y-65309999D01*
X161619972Y-65309999D01*
X161619986Y-65309998D01*
X161722697Y-65299505D01*
X161889119Y-65244358D01*
X161889124Y-65244356D01*
X162038342Y-65152317D01*
X162131964Y-65058695D01*
X162193287Y-65025210D01*
X162262979Y-65030194D01*
X162307327Y-65058695D01*
X162401344Y-65152712D01*
X162550666Y-65244814D01*
X162717203Y-65299999D01*
X162819991Y-65310500D01*
X163445008Y-65310499D01*
X163445016Y-65310498D01*
X163445019Y-65310498D01*
X163501302Y-65304748D01*
X163547797Y-65299999D01*
X163714334Y-65244814D01*
X163863656Y-65152712D01*
X163886737Y-65129630D01*
X163948059Y-65096145D01*
X164017750Y-65101128D01*
X164062099Y-65129629D01*
X164101496Y-65169025D01*
X164101500Y-65169028D01*
X164249566Y-65260357D01*
X164249569Y-65260358D01*
X164249575Y-65260362D01*
X164414725Y-65315087D01*
X164516652Y-65325500D01*
X164516657Y-65325500D01*
X165103343Y-65325500D01*
X165103348Y-65325500D01*
X165205275Y-65315087D01*
X165370425Y-65260362D01*
X165518503Y-65169026D01*
X165641526Y-65046003D01*
X165641958Y-65045301D01*
X165642381Y-65044921D01*
X165646007Y-65040336D01*
X165646790Y-65040955D01*
X165693902Y-64998575D01*
X165762864Y-64987349D01*
X165826948Y-65015188D01*
X165848842Y-65040455D01*
X165848993Y-65040336D01*
X165851643Y-65043687D01*
X165853040Y-65045299D01*
X165853472Y-65045999D01*
X165853475Y-65046004D01*
X165976496Y-65169025D01*
X165976500Y-65169028D01*
X166124566Y-65260357D01*
X166124569Y-65260358D01*
X166124575Y-65260362D01*
X166289725Y-65315087D01*
X166391652Y-65325500D01*
X166391657Y-65325500D01*
X166978343Y-65325500D01*
X166978348Y-65325500D01*
X167080275Y-65315087D01*
X167245425Y-65260362D01*
X167393503Y-65169026D01*
X167516526Y-65046003D01*
X167607862Y-64897925D01*
X167608249Y-64897096D01*
X167608665Y-64896622D01*
X167611654Y-64891778D01*
X167612481Y-64892288D01*
X167654421Y-64844656D01*
X167720631Y-64825500D01*
X180038481Y-64825500D01*
X180105520Y-64845185D01*
X180126162Y-64861819D01*
X182540009Y-67275665D01*
X182573494Y-67336988D01*
X182568510Y-67406680D01*
X182566513Y-67411229D01*
X182566643Y-67411283D01*
X182564779Y-67415782D01*
X182501523Y-67610461D01*
X182501523Y-67610464D01*
X182469500Y-67812648D01*
X182469500Y-68017351D01*
X182501522Y-68219534D01*
X182564781Y-68414223D01*
X182628691Y-68539653D01*
X182648082Y-68577709D01*
X182657715Y-68596613D01*
X182778028Y-68762213D01*
X182922786Y-68906971D01*
X183044824Y-68995635D01*
X183088390Y-69027287D01*
X183179840Y-69073883D01*
X183181080Y-69074515D01*
X183231876Y-69122490D01*
X183248671Y-69190311D01*
X183226134Y-69256446D01*
X183181080Y-69295485D01*
X183088386Y-69342715D01*
X182922786Y-69463028D01*
X182778030Y-69607784D01*
X182719473Y-69688384D01*
X182664143Y-69731051D01*
X182619154Y-69739500D01*
X180542351Y-69739500D01*
X180475312Y-69719815D01*
X180438542Y-69683321D01*
X180368983Y-69576852D01*
X180368980Y-69576849D01*
X180368979Y-69576847D01*
X180274195Y-69473884D01*
X180243275Y-69411232D01*
X180251135Y-69341806D01*
X180295283Y-69287651D01*
X180322095Y-69273722D01*
X180402326Y-69243798D01*
X180402326Y-69243797D01*
X180402331Y-69243796D01*
X180517546Y-69157546D01*
X180603796Y-69042331D01*
X180654091Y-68907483D01*
X180660500Y-68847873D01*
X180660499Y-66952128D01*
X180654091Y-66892517D01*
X180634781Y-66840745D01*
X180603797Y-66757671D01*
X180603793Y-66757664D01*
X180517547Y-66642455D01*
X180517544Y-66642452D01*
X180402335Y-66556206D01*
X180402328Y-66556202D01*
X180267482Y-66505908D01*
X180267483Y-66505908D01*
X180207883Y-66499501D01*
X180207881Y-66499500D01*
X180207873Y-66499500D01*
X180207864Y-66499500D01*
X178312129Y-66499500D01*
X178312123Y-66499501D01*
X178252516Y-66505908D01*
X178117671Y-66556202D01*
X178117664Y-66556206D01*
X178002455Y-66642452D01*
X178002452Y-66642455D01*
X177916206Y-66757664D01*
X177916202Y-66757671D01*
X177865908Y-66892517D01*
X177859501Y-66952116D01*
X177859501Y-66952123D01*
X177859500Y-66952135D01*
X177859500Y-68847870D01*
X177859501Y-68847876D01*
X177865908Y-68907483D01*
X177916202Y-69042328D01*
X177916206Y-69042335D01*
X178002452Y-69157544D01*
X178002455Y-69157547D01*
X178117664Y-69243793D01*
X178117673Y-69243798D01*
X178197904Y-69273722D01*
X178253838Y-69315593D01*
X178278256Y-69381057D01*
X178263405Y-69449330D01*
X178245802Y-69473886D01*
X178151019Y-69576849D01*
X178024075Y-69771151D01*
X177930842Y-69983699D01*
X177873866Y-70208691D01*
X177873864Y-70208702D01*
X177854700Y-70439993D01*
X177854700Y-70440006D01*
X177873864Y-70671297D01*
X177873866Y-70671308D01*
X177930842Y-70896300D01*
X178024075Y-71108848D01*
X178151016Y-71303147D01*
X178151019Y-71303151D01*
X178151021Y-71303153D01*
X178308216Y-71473913D01*
X178308219Y-71473915D01*
X178308222Y-71473918D01*
X178491365Y-71616464D01*
X178491371Y-71616468D01*
X178491374Y-71616470D01*
X178581654Y-71665327D01*
X178691919Y-71725000D01*
X178695497Y-71726936D01*
X178804728Y-71764435D01*
X178915015Y-71802297D01*
X178915017Y-71802297D01*
X178915019Y-71802298D01*
X179143951Y-71840500D01*
X179143952Y-71840500D01*
X179376048Y-71840500D01*
X179376049Y-71840500D01*
X179604981Y-71802298D01*
X179824503Y-71726936D01*
X180028626Y-71616470D01*
X180082262Y-71574724D01*
X180173725Y-71503535D01*
X180211784Y-71473913D01*
X180368979Y-71303153D01*
X180373763Y-71295831D01*
X180438542Y-71196679D01*
X180491688Y-71151322D01*
X180542351Y-71140500D01*
X182597358Y-71140500D01*
X182664397Y-71160185D01*
X182697677Y-71191616D01*
X182778030Y-71302215D01*
X182922786Y-71446971D01*
X183075058Y-71557601D01*
X183088390Y-71567287D01*
X183179840Y-71613883D01*
X183181080Y-71614515D01*
X183231876Y-71662490D01*
X183248671Y-71730311D01*
X183226134Y-71796446D01*
X183181080Y-71835485D01*
X183088386Y-71882715D01*
X182922786Y-72003028D01*
X182778028Y-72147786D01*
X182657715Y-72313386D01*
X182564781Y-72495776D01*
X182501522Y-72690465D01*
X182469500Y-72892648D01*
X182469500Y-73097351D01*
X182501522Y-73299534D01*
X182564781Y-73494223D01*
X182610784Y-73584507D01*
X182649493Y-73660478D01*
X182657715Y-73676613D01*
X182778028Y-73842213D01*
X182922786Y-73986971D01*
X183077749Y-74099556D01*
X183088390Y-74107287D01*
X183179840Y-74153883D01*
X183181080Y-74154515D01*
X183231876Y-74202490D01*
X183248671Y-74270311D01*
X183226134Y-74336446D01*
X183181080Y-74375485D01*
X183088386Y-74422715D01*
X182922786Y-74543028D01*
X182778028Y-74687786D01*
X182657715Y-74853386D01*
X182564781Y-75035776D01*
X182501522Y-75230465D01*
X182469500Y-75432648D01*
X182469500Y-75637351D01*
X182501522Y-75839534D01*
X182564781Y-76034223D01*
X182605997Y-76115112D01*
X182646718Y-76195032D01*
X182657715Y-76216613D01*
X182778028Y-76382213D01*
X182922786Y-76526971D01*
X183077749Y-76639556D01*
X183088390Y-76647287D01*
X183155986Y-76681729D01*
X183181629Y-76694795D01*
X183232425Y-76742770D01*
X183249220Y-76810591D01*
X183226682Y-76876726D01*
X183181629Y-76915765D01*
X183088650Y-76963140D01*
X182923105Y-77083417D01*
X182923104Y-77083417D01*
X182778417Y-77228104D01*
X182778417Y-77228105D01*
X182658140Y-77393650D01*
X182565244Y-77575970D01*
X182502009Y-77770586D01*
X182493391Y-77825000D01*
X183854314Y-77825000D01*
X183849920Y-77829394D01*
X183797259Y-77920606D01*
X183770000Y-78022339D01*
X183770000Y-78127661D01*
X183797259Y-78229394D01*
X183849920Y-78320606D01*
X183854314Y-78325000D01*
X182493391Y-78325000D01*
X182502527Y-78382684D01*
X182493573Y-78451977D01*
X182448576Y-78505429D01*
X182381825Y-78526069D01*
X182314511Y-78507344D01*
X182314082Y-78507076D01*
X182309522Y-78504211D01*
X182139254Y-78444631D01*
X182139249Y-78444630D01*
X181960004Y-78424435D01*
X181959996Y-78424435D01*
X181780750Y-78444630D01*
X181780745Y-78444631D01*
X181610476Y-78504211D01*
X181457737Y-78600184D01*
X181330184Y-78727737D01*
X181234211Y-78880476D01*
X181174631Y-79050745D01*
X181174630Y-79050750D01*
X181154435Y-79229996D01*
X181154435Y-79230003D01*
X181161107Y-79289222D01*
X181149052Y-79358044D01*
X181101703Y-79409423D01*
X181034093Y-79427047D01*
X181005795Y-79422880D01*
X180936700Y-79404367D01*
X180936697Y-79404366D01*
X180936692Y-79404365D01*
X180936689Y-79404364D01*
X180936686Y-79404364D01*
X180710002Y-79384532D01*
X180709998Y-79384532D01*
X180483313Y-79404364D01*
X180483302Y-79404366D01*
X180263511Y-79463258D01*
X180263502Y-79463261D01*
X180057267Y-79559431D01*
X180057265Y-79559432D01*
X179870858Y-79689954D01*
X179709954Y-79850858D01*
X179579432Y-80037265D01*
X179579431Y-80037267D01*
X179483261Y-80243502D01*
X179483258Y-80243511D01*
X179424366Y-80463302D01*
X179424364Y-80463313D01*
X179404532Y-80689998D01*
X179404532Y-80690001D01*
X179424819Y-80921881D01*
X179411052Y-80990381D01*
X179388972Y-81020369D01*
X179151160Y-81258182D01*
X179089840Y-81291666D01*
X179063481Y-81294500D01*
X176820634Y-81294500D01*
X176753595Y-81274815D01*
X176719059Y-81241623D01*
X176681601Y-81188127D01*
X176681596Y-81188121D01*
X176526881Y-81033406D01*
X176526877Y-81033402D01*
X176347639Y-80907898D01*
X176347640Y-80907898D01*
X176347638Y-80907897D01*
X176248484Y-80861661D01*
X176149330Y-80815425D01*
X176149326Y-80815424D01*
X176149322Y-80815422D01*
X175937977Y-80758793D01*
X175720002Y-80739723D01*
X175719998Y-80739723D01*
X175574682Y-80752436D01*
X175502023Y-80758793D01*
X175502020Y-80758793D01*
X175290677Y-80815422D01*
X175290668Y-80815426D01*
X175092361Y-80907898D01*
X175092357Y-80907900D01*
X174913124Y-81033400D01*
X174758398Y-81188127D01*
X174720941Y-81241623D01*
X174666365Y-81285248D01*
X174619366Y-81294500D01*
X172784648Y-81294500D01*
X172717609Y-81274815D01*
X172671854Y-81222011D01*
X172661120Y-81159692D01*
X172665468Y-81110000D01*
X172645635Y-80883308D01*
X172586739Y-80663504D01*
X172490568Y-80457266D01*
X172360047Y-80270861D01*
X172360045Y-80270858D01*
X172199141Y-80109954D01*
X172012734Y-79979432D01*
X172012732Y-79979431D01*
X171806497Y-79883261D01*
X171806488Y-79883258D01*
X171586697Y-79824366D01*
X171586693Y-79824365D01*
X171586692Y-79824365D01*
X171586691Y-79824364D01*
X171586686Y-79824364D01*
X171360002Y-79804532D01*
X171359998Y-79804532D01*
X171133313Y-79824364D01*
X171133302Y-79824366D01*
X170913511Y-79883258D01*
X170913502Y-79883261D01*
X170707267Y-79979431D01*
X170707265Y-79979432D01*
X170520862Y-80109951D01*
X170363726Y-80267087D01*
X170302403Y-80300571D01*
X170232711Y-80295587D01*
X170176778Y-80253715D01*
X170155369Y-80207923D01*
X170154091Y-80202518D01*
X170103797Y-80067671D01*
X170103793Y-80067664D01*
X170017547Y-79952455D01*
X170017544Y-79952452D01*
X169902335Y-79866206D01*
X169902328Y-79866202D01*
X169767482Y-79815908D01*
X169767483Y-79815908D01*
X169707883Y-79809501D01*
X169707881Y-79809500D01*
X169707873Y-79809500D01*
X169707864Y-79809500D01*
X168012129Y-79809500D01*
X168012123Y-79809501D01*
X167952516Y-79815908D01*
X167817671Y-79866202D01*
X167817664Y-79866206D01*
X167702455Y-79952452D01*
X167702452Y-79952455D01*
X167616206Y-80067664D01*
X167616202Y-80067671D01*
X167565908Y-80202517D01*
X167559501Y-80262116D01*
X167559500Y-80262135D01*
X167559500Y-81957870D01*
X167559501Y-81957876D01*
X167565908Y-82017483D01*
X167616202Y-82152328D01*
X167616206Y-82152335D01*
X167702452Y-82267544D01*
X167702455Y-82267547D01*
X167817664Y-82353793D01*
X167817671Y-82353797D01*
X167952517Y-82404091D01*
X167952516Y-82404091D01*
X167959444Y-82404835D01*
X168012127Y-82410500D01*
X169707872Y-82410499D01*
X169767483Y-82404091D01*
X169902331Y-82353796D01*
X170017546Y-82267546D01*
X170103796Y-82152331D01*
X170154091Y-82017483D01*
X170154092Y-82017472D01*
X170155365Y-82012088D01*
X170189933Y-81951369D01*
X170251841Y-81918978D01*
X170321433Y-81925199D01*
X170363725Y-81952912D01*
X170520858Y-82110045D01*
X170520861Y-82110047D01*
X170707266Y-82240568D01*
X170913504Y-82336739D01*
X171133308Y-82395635D01*
X171295230Y-82409801D01*
X171359998Y-82415468D01*
X171360000Y-82415468D01*
X171360001Y-82415468D01*
X171378304Y-82413866D01*
X171586692Y-82395635D01*
X171586697Y-82395633D01*
X171591881Y-82395180D01*
X171660381Y-82408946D01*
X171690367Y-82431024D01*
X171798457Y-82539114D01*
X171913189Y-82615775D01*
X171913192Y-82615777D01*
X172040667Y-82668578D01*
X172040672Y-82668580D01*
X172040676Y-82668580D01*
X172040677Y-82668581D01*
X172176003Y-82695500D01*
X172176006Y-82695500D01*
X172176007Y-82695500D01*
X174619366Y-82695500D01*
X174686405Y-82715185D01*
X174720940Y-82748376D01*
X174758402Y-82801877D01*
X174913123Y-82956598D01*
X175092361Y-83082102D01*
X175290670Y-83174575D01*
X175502023Y-83231207D01*
X175684926Y-83247208D01*
X175719998Y-83250277D01*
X175720000Y-83250277D01*
X175720002Y-83250277D01*
X175748254Y-83247805D01*
X175937977Y-83231207D01*
X176149330Y-83174575D01*
X176347639Y-83082102D01*
X176526877Y-82956598D01*
X176681598Y-82801877D01*
X176719059Y-82748376D01*
X176773635Y-82704752D01*
X176820634Y-82695500D01*
X179473996Y-82695500D01*
X179565040Y-82677389D01*
X179609328Y-82668580D01*
X179673069Y-82642177D01*
X179736807Y-82615777D01*
X179736808Y-82615776D01*
X179736811Y-82615775D01*
X179851543Y-82539114D01*
X180379630Y-82011025D01*
X180440951Y-81977542D01*
X180478117Y-81975180D01*
X180483303Y-81975633D01*
X180483308Y-81975635D01*
X180688263Y-81993566D01*
X180709999Y-81995468D01*
X180710000Y-81995468D01*
X180710001Y-81995468D01*
X180728304Y-81993866D01*
X180936692Y-81975635D01*
X180936697Y-81975633D01*
X180941881Y-81975180D01*
X181010381Y-81988946D01*
X181040370Y-82011027D01*
X182486558Y-83457214D01*
X182516808Y-83506577D01*
X182564718Y-83654029D01*
X182564781Y-83654221D01*
X182657715Y-83836613D01*
X182778028Y-84002213D01*
X182922786Y-84146971D01*
X183077749Y-84259556D01*
X183088390Y-84267287D01*
X183179840Y-84313883D01*
X183181080Y-84314515D01*
X183231876Y-84362490D01*
X183248671Y-84430311D01*
X183226134Y-84496446D01*
X183181080Y-84535485D01*
X183088386Y-84582715D01*
X182922786Y-84703028D01*
X182778028Y-84847786D01*
X182657715Y-85013386D01*
X182564781Y-85195778D01*
X182501522Y-85390468D01*
X182481975Y-85513877D01*
X182452045Y-85577012D01*
X182447183Y-85582159D01*
X181040369Y-86988972D01*
X180979046Y-87022457D01*
X180941881Y-87024819D01*
X180710002Y-87004532D01*
X180709998Y-87004532D01*
X180478117Y-87024819D01*
X180409617Y-87011052D01*
X180379629Y-86988972D01*
X179721546Y-86330888D01*
X179721545Y-86330887D01*
X179606807Y-86254222D01*
X179479332Y-86201421D01*
X179479322Y-86201418D01*
X179343996Y-86174500D01*
X179343994Y-86174500D01*
X179343993Y-86174500D01*
X176820634Y-86174500D01*
X176753595Y-86154815D01*
X176719059Y-86121623D01*
X176681601Y-86068127D01*
X176681596Y-86068121D01*
X176526881Y-85913406D01*
X176526877Y-85913402D01*
X176361141Y-85797352D01*
X176347638Y-85787897D01*
X176248484Y-85741661D01*
X176149330Y-85695425D01*
X176149326Y-85695424D01*
X176149322Y-85695422D01*
X175937977Y-85638793D01*
X175720002Y-85619723D01*
X175719998Y-85619723D01*
X175574682Y-85632436D01*
X175502023Y-85638793D01*
X175502020Y-85638793D01*
X175290677Y-85695422D01*
X175290668Y-85695426D01*
X175092361Y-85787898D01*
X175092357Y-85787900D01*
X174913124Y-85913400D01*
X174758398Y-86068127D01*
X174720941Y-86121623D01*
X174666365Y-86165248D01*
X174619366Y-86174500D01*
X172076004Y-86174500D01*
X171940677Y-86201418D01*
X171940667Y-86201421D01*
X171813191Y-86254223D01*
X171698457Y-86330885D01*
X171698453Y-86330889D01*
X171626159Y-86403182D01*
X171564836Y-86436667D01*
X171538479Y-86439500D01*
X170432129Y-86439500D01*
X170432123Y-86439501D01*
X170372516Y-86445908D01*
X170237671Y-86496202D01*
X170237664Y-86496206D01*
X170122455Y-86582452D01*
X170122452Y-86582455D01*
X170036206Y-86697664D01*
X170036202Y-86697671D01*
X169985909Y-86832513D01*
X169984632Y-86837922D01*
X169950058Y-86898638D01*
X169888147Y-86931023D01*
X169818556Y-86924796D01*
X169776274Y-86897087D01*
X169619141Y-86739954D01*
X169432734Y-86609432D01*
X169432732Y-86609431D01*
X169226497Y-86513261D01*
X169226488Y-86513258D01*
X169006697Y-86454366D01*
X169006693Y-86454365D01*
X169006692Y-86454365D01*
X169006691Y-86454364D01*
X169006686Y-86454364D01*
X168780002Y-86434532D01*
X168779998Y-86434532D01*
X168553313Y-86454364D01*
X168553302Y-86454366D01*
X168333511Y-86513258D01*
X168333502Y-86513261D01*
X168127267Y-86609431D01*
X168127265Y-86609432D01*
X167940858Y-86739954D01*
X167779954Y-86900858D01*
X167649432Y-87087265D01*
X167649431Y-87087267D01*
X167553261Y-87293502D01*
X167553258Y-87293511D01*
X167494366Y-87513302D01*
X167494364Y-87513313D01*
X167474532Y-87739998D01*
X167474532Y-87740001D01*
X167494364Y-87966686D01*
X167494366Y-87966697D01*
X167553258Y-88186488D01*
X167553261Y-88186497D01*
X167649431Y-88392732D01*
X167649432Y-88392734D01*
X167779954Y-88579141D01*
X167940858Y-88740045D01*
X167940861Y-88740047D01*
X168127266Y-88870568D01*
X168333504Y-88966739D01*
X168553308Y-89025635D01*
X168715230Y-89039801D01*
X168779998Y-89045468D01*
X168780000Y-89045468D01*
X168780002Y-89045468D01*
X168836807Y-89040498D01*
X169006692Y-89025635D01*
X169226496Y-88966739D01*
X169432734Y-88870568D01*
X169619139Y-88740047D01*
X169776274Y-88582911D01*
X169837596Y-88549428D01*
X169907287Y-88554412D01*
X169963221Y-88596283D01*
X169984629Y-88642070D01*
X169985908Y-88647480D01*
X170036202Y-88782328D01*
X170036206Y-88782335D01*
X170122452Y-88897544D01*
X170122455Y-88897547D01*
X170237664Y-88983793D01*
X170237671Y-88983797D01*
X170372517Y-89034091D01*
X170372516Y-89034091D01*
X170379444Y-89034835D01*
X170432127Y-89040500D01*
X172127872Y-89040499D01*
X172187483Y-89034091D01*
X172322331Y-88983796D01*
X172437546Y-88897546D01*
X172523796Y-88782331D01*
X172574091Y-88647483D01*
X172580500Y-88587873D01*
X172580499Y-87699499D01*
X172600183Y-87632461D01*
X172652987Y-87586706D01*
X172704499Y-87575500D01*
X174619366Y-87575500D01*
X174686405Y-87595185D01*
X174720940Y-87628376D01*
X174758402Y-87681877D01*
X174913123Y-87836598D01*
X175092361Y-87962102D01*
X175290670Y-88054575D01*
X175502023Y-88111207D01*
X175684926Y-88127208D01*
X175719998Y-88130277D01*
X175720000Y-88130277D01*
X175720002Y-88130277D01*
X175748254Y-88127805D01*
X175937977Y-88111207D01*
X176149330Y-88054575D01*
X176347639Y-87962102D01*
X176526877Y-87836598D01*
X176681598Y-87681877D01*
X176719059Y-87628376D01*
X176773635Y-87584752D01*
X176820634Y-87575500D01*
X178933481Y-87575500D01*
X179000520Y-87595185D01*
X179021162Y-87611819D01*
X179388972Y-87979629D01*
X179422457Y-88040952D01*
X179424819Y-88078117D01*
X179404532Y-88309998D01*
X179404532Y-88310001D01*
X179424364Y-88536686D01*
X179424366Y-88536697D01*
X179483258Y-88756488D01*
X179483261Y-88756497D01*
X179579431Y-88962732D01*
X179579432Y-88962734D01*
X179709954Y-89149141D01*
X179870858Y-89310045D01*
X179870861Y-89310047D01*
X180057266Y-89440568D01*
X180263504Y-89536739D01*
X180483308Y-89595635D01*
X180632854Y-89608718D01*
X180678543Y-89612716D01*
X180743612Y-89638168D01*
X180784591Y-89694759D01*
X180788469Y-89764521D01*
X180755418Y-89823924D01*
X180656160Y-89923182D01*
X180594840Y-89956666D01*
X180568481Y-89959500D01*
X169205494Y-89959500D01*
X169139523Y-89940494D01*
X169129525Y-89934212D01*
X168959254Y-89874631D01*
X168959249Y-89874630D01*
X168780004Y-89854435D01*
X168779996Y-89854435D01*
X168600750Y-89874630D01*
X168600745Y-89874631D01*
X168430476Y-89934211D01*
X168277737Y-90030184D01*
X168150184Y-90157737D01*
X168054211Y-90310476D01*
X167994631Y-90480745D01*
X167994630Y-90480750D01*
X167974435Y-90659996D01*
X167974435Y-90660003D01*
X167994630Y-90839249D01*
X167994631Y-90839254D01*
X168054211Y-91009523D01*
X168098202Y-91079534D01*
X168150184Y-91162262D01*
X168277738Y-91289816D01*
X168368080Y-91346582D01*
X168430474Y-91385787D01*
X168430478Y-91385789D01*
X168565368Y-91432989D01*
X168600745Y-91445368D01*
X168600750Y-91445369D01*
X168779996Y-91465565D01*
X168780000Y-91465565D01*
X168780004Y-91465565D01*
X168959249Y-91445369D01*
X168959252Y-91445368D01*
X168959255Y-91445368D01*
X169129522Y-91385789D01*
X169130488Y-91385181D01*
X169139523Y-91379506D01*
X169205494Y-91360500D01*
X171794454Y-91360500D01*
X171861493Y-91380185D01*
X171907248Y-91432989D01*
X171917192Y-91502147D01*
X171906836Y-91536905D01*
X171833734Y-91693673D01*
X171833730Y-91693682D01*
X171781127Y-91889999D01*
X171781128Y-91890000D01*
X172744314Y-91890000D01*
X172739920Y-91894394D01*
X172687259Y-91985606D01*
X172660000Y-92087339D01*
X172660000Y-92192661D01*
X172687259Y-92294394D01*
X172739920Y-92385606D01*
X172744314Y-92390000D01*
X171781128Y-92390000D01*
X171833730Y-92586317D01*
X171833734Y-92586326D01*
X171929865Y-92792482D01*
X172060342Y-92978820D01*
X172221179Y-93139657D01*
X172407517Y-93270134D01*
X172613673Y-93366265D01*
X172613682Y-93366269D01*
X172809999Y-93418872D01*
X172810000Y-93418871D01*
X172810000Y-92455686D01*
X172814394Y-92460080D01*
X172905606Y-92512741D01*
X173007339Y-92540000D01*
X173112661Y-92540000D01*
X173214394Y-92512741D01*
X173305606Y-92460080D01*
X173310000Y-92455686D01*
X173310000Y-93418872D01*
X173506317Y-93366269D01*
X173506326Y-93366265D01*
X173712482Y-93270134D01*
X173898820Y-93139657D01*
X174059657Y-92978820D01*
X174190134Y-92792482D01*
X174286265Y-92586326D01*
X174286269Y-92586317D01*
X174338872Y-92390000D01*
X173375686Y-92390000D01*
X173380080Y-92385606D01*
X173432741Y-92294394D01*
X173460000Y-92192661D01*
X173460000Y-92087339D01*
X173432741Y-91985606D01*
X173380080Y-91894394D01*
X173375686Y-91890000D01*
X174338872Y-91890000D01*
X174338872Y-91889999D01*
X174286269Y-91693682D01*
X174286265Y-91693673D01*
X174213164Y-91536905D01*
X174202672Y-91467827D01*
X174231192Y-91404043D01*
X174289669Y-91365804D01*
X174325546Y-91360500D01*
X179413903Y-91360500D01*
X179480942Y-91380185D01*
X179526697Y-91432989D01*
X179536641Y-91502147D01*
X179526285Y-91536905D01*
X179453262Y-91693502D01*
X179453258Y-91693511D01*
X179394366Y-91913302D01*
X179394364Y-91913313D01*
X179374532Y-92139998D01*
X179374532Y-92140001D01*
X179394364Y-92366686D01*
X179394366Y-92366697D01*
X179453258Y-92586488D01*
X179453261Y-92586497D01*
X179549431Y-92792732D01*
X179549432Y-92792734D01*
X179679954Y-92979141D01*
X179840858Y-93140045D01*
X179840861Y-93140047D01*
X180027266Y-93270568D01*
X180233504Y-93366739D01*
X180453308Y-93425635D01*
X180615230Y-93439801D01*
X180679998Y-93445468D01*
X180680000Y-93445468D01*
X180680002Y-93445468D01*
X180736673Y-93440509D01*
X180906692Y-93425635D01*
X181126496Y-93366739D01*
X181332734Y-93270568D01*
X181519139Y-93140047D01*
X181680047Y-92979139D01*
X181810568Y-92792734D01*
X181906739Y-92586496D01*
X181965635Y-92366692D01*
X181985468Y-92140000D01*
X181965635Y-91913308D01*
X181965633Y-91913303D01*
X181965180Y-91908117D01*
X181978946Y-91839617D01*
X182001021Y-91809635D01*
X182298839Y-91511816D01*
X182360161Y-91478334D01*
X182386519Y-91475500D01*
X182608256Y-91475500D01*
X182675295Y-91495185D01*
X182708575Y-91526616D01*
X182778030Y-91622215D01*
X182922786Y-91766971D01*
X183022777Y-91839617D01*
X183088390Y-91887287D01*
X183179840Y-91933883D01*
X183181080Y-91934515D01*
X183231876Y-91982490D01*
X183248671Y-92050311D01*
X183226134Y-92116446D01*
X183181080Y-92155485D01*
X183088386Y-92202715D01*
X182922786Y-92323028D01*
X182778028Y-92467786D01*
X182657715Y-92633386D01*
X182564781Y-92815776D01*
X182501522Y-93010465D01*
X182469500Y-93212648D01*
X182469500Y-93417351D01*
X182501522Y-93619534D01*
X182564781Y-93814223D01*
X182621306Y-93925158D01*
X182656654Y-93994532D01*
X182657715Y-93996613D01*
X182778028Y-94162213D01*
X182922786Y-94306971D01*
X183077749Y-94419556D01*
X183088390Y-94427287D01*
X183154277Y-94460858D01*
X183181080Y-94474515D01*
X183231876Y-94522490D01*
X183248671Y-94590311D01*
X183226134Y-94656446D01*
X183181080Y-94695485D01*
X183088386Y-94742715D01*
X182922786Y-94863028D01*
X182778028Y-95007786D01*
X182657715Y-95173386D01*
X182564781Y-95355776D01*
X182501522Y-95550465D01*
X182469500Y-95752648D01*
X182469500Y-95957351D01*
X182501522Y-96159534D01*
X182564781Y-96354223D01*
X182657712Y-96536609D01*
X182744858Y-96656556D01*
X182768337Y-96722363D01*
X182752511Y-96790417D01*
X182732220Y-96817122D01*
X181806162Y-97743181D01*
X181744839Y-97776666D01*
X181718481Y-97779500D01*
X172041519Y-97779500D01*
X171974480Y-97759815D01*
X171953838Y-97743181D01*
X170377986Y-96167329D01*
X170344501Y-96106006D01*
X170349485Y-96036314D01*
X170384343Y-95988827D01*
X170383013Y-95987383D01*
X170386768Y-95983924D01*
X170386784Y-95983913D01*
X170543979Y-95813153D01*
X170670924Y-95618849D01*
X170764157Y-95406300D01*
X170791077Y-95299998D01*
X171744532Y-95299998D01*
X171744532Y-95300001D01*
X171764364Y-95526686D01*
X171764366Y-95526697D01*
X171823258Y-95746488D01*
X171823261Y-95746497D01*
X171919431Y-95952732D01*
X171919432Y-95952734D01*
X172049954Y-96139141D01*
X172210858Y-96300045D01*
X172210861Y-96300047D01*
X172397266Y-96430568D01*
X172603504Y-96526739D01*
X172603509Y-96526740D01*
X172603511Y-96526741D01*
X172640343Y-96536610D01*
X172823308Y-96585635D01*
X172985230Y-96599801D01*
X173049998Y-96605468D01*
X173050000Y-96605468D01*
X173050002Y-96605468D01*
X173106673Y-96600509D01*
X173276692Y-96585635D01*
X173496496Y-96526739D01*
X173702734Y-96430568D01*
X173889139Y-96300047D01*
X174050047Y-96139139D01*
X174180568Y-95952734D01*
X174276739Y-95746496D01*
X174335635Y-95526692D01*
X174355468Y-95300000D01*
X174355468Y-95299998D01*
X179364532Y-95299998D01*
X179364532Y-95300001D01*
X179384364Y-95526686D01*
X179384366Y-95526697D01*
X179443258Y-95746488D01*
X179443261Y-95746497D01*
X179539431Y-95952732D01*
X179539432Y-95952734D01*
X179669954Y-96139141D01*
X179830858Y-96300045D01*
X179830861Y-96300047D01*
X180017266Y-96430568D01*
X180223504Y-96526739D01*
X180223509Y-96526740D01*
X180223511Y-96526741D01*
X180260343Y-96536610D01*
X180443308Y-96585635D01*
X180605230Y-96599801D01*
X180669998Y-96605468D01*
X180670000Y-96605468D01*
X180670002Y-96605468D01*
X180726673Y-96600509D01*
X180896692Y-96585635D01*
X181116496Y-96526739D01*
X181322734Y-96430568D01*
X181509139Y-96300047D01*
X181670047Y-96139139D01*
X181800568Y-95952734D01*
X181896739Y-95746496D01*
X181955635Y-95526692D01*
X181975468Y-95300000D01*
X181955635Y-95073308D01*
X181896739Y-94853504D01*
X181800568Y-94647266D01*
X181670047Y-94460861D01*
X181670045Y-94460858D01*
X181509141Y-94299954D01*
X181322734Y-94169432D01*
X181322732Y-94169431D01*
X181116497Y-94073261D01*
X181116488Y-94073258D01*
X180896697Y-94014366D01*
X180896693Y-94014365D01*
X180896692Y-94014365D01*
X180896691Y-94014364D01*
X180896686Y-94014364D01*
X180670002Y-93994532D01*
X180669998Y-93994532D01*
X180443313Y-94014364D01*
X180443302Y-94014366D01*
X180223511Y-94073258D01*
X180223502Y-94073261D01*
X180017267Y-94169431D01*
X180017265Y-94169432D01*
X179830858Y-94299954D01*
X179669954Y-94460858D01*
X179539432Y-94647265D01*
X179539431Y-94647267D01*
X179443261Y-94853502D01*
X179443258Y-94853511D01*
X179384366Y-95073302D01*
X179384364Y-95073313D01*
X179364532Y-95299998D01*
X174355468Y-95299998D01*
X174335635Y-95073308D01*
X174276739Y-94853504D01*
X174180568Y-94647266D01*
X174050047Y-94460861D01*
X174050045Y-94460858D01*
X173889141Y-94299954D01*
X173702734Y-94169432D01*
X173702732Y-94169431D01*
X173496497Y-94073261D01*
X173496488Y-94073258D01*
X173276697Y-94014366D01*
X173276693Y-94014365D01*
X173276692Y-94014365D01*
X173276691Y-94014364D01*
X173276686Y-94014364D01*
X173050002Y-93994532D01*
X173049998Y-93994532D01*
X172823313Y-94014364D01*
X172823302Y-94014366D01*
X172603511Y-94073258D01*
X172603502Y-94073261D01*
X172397267Y-94169431D01*
X172397265Y-94169432D01*
X172210858Y-94299954D01*
X172049954Y-94460858D01*
X171919432Y-94647265D01*
X171919431Y-94647267D01*
X171823261Y-94853502D01*
X171823258Y-94853511D01*
X171764366Y-95073302D01*
X171764364Y-95073313D01*
X171744532Y-95299998D01*
X170791077Y-95299998D01*
X170821134Y-95181305D01*
X170821790Y-95173390D01*
X170840300Y-94950006D01*
X170840300Y-94949993D01*
X170821135Y-94718702D01*
X170821133Y-94718691D01*
X170764157Y-94493699D01*
X170670924Y-94281151D01*
X170543983Y-94086852D01*
X170543980Y-94086849D01*
X170543979Y-94086847D01*
X170386784Y-93916087D01*
X170386779Y-93916083D01*
X170386777Y-93916081D01*
X170203634Y-93773535D01*
X170203628Y-93773531D01*
X169999504Y-93663064D01*
X169999495Y-93663061D01*
X169779984Y-93587702D01*
X169589450Y-93555908D01*
X169551049Y-93549500D01*
X169318951Y-93549500D01*
X169280550Y-93555908D01*
X169090015Y-93587702D01*
X168870504Y-93663061D01*
X168870495Y-93663064D01*
X168666371Y-93773531D01*
X168666365Y-93773535D01*
X168483222Y-93916081D01*
X168483218Y-93916085D01*
X168474866Y-93925158D01*
X168414979Y-93961148D01*
X168345141Y-93959047D01*
X168287525Y-93919522D01*
X168267455Y-93884507D01*
X168238797Y-93807671D01*
X168238793Y-93807664D01*
X168152547Y-93692455D01*
X168152544Y-93692452D01*
X168037335Y-93606206D01*
X168037328Y-93606202D01*
X167902482Y-93555908D01*
X167902483Y-93555908D01*
X167842883Y-93549501D01*
X167842881Y-93549500D01*
X167842873Y-93549500D01*
X167842864Y-93549500D01*
X165947129Y-93549500D01*
X165947123Y-93549501D01*
X165887516Y-93555908D01*
X165752671Y-93606202D01*
X165752668Y-93606204D01*
X165708811Y-93639036D01*
X165643347Y-93663453D01*
X165575074Y-93648601D01*
X165525668Y-93599196D01*
X165510500Y-93539769D01*
X165510500Y-74921519D01*
X165530185Y-74854480D01*
X165546819Y-74833838D01*
X166005172Y-74375485D01*
X166365547Y-74015110D01*
X178444532Y-74015110D01*
X178444532Y-74015113D01*
X178464364Y-74241798D01*
X178464366Y-74241809D01*
X178523258Y-74461600D01*
X178523261Y-74461609D01*
X178619431Y-74667844D01*
X178619432Y-74667846D01*
X178749954Y-74854253D01*
X178907506Y-75011805D01*
X178940991Y-75073128D01*
X178936007Y-75142820D01*
X178894135Y-75198753D01*
X178848343Y-75220162D01*
X178842626Y-75221513D01*
X178707913Y-75271757D01*
X178707906Y-75271761D01*
X178592812Y-75357921D01*
X178592809Y-75357924D01*
X178506649Y-75473018D01*
X178506645Y-75473025D01*
X178456403Y-75607732D01*
X178456401Y-75607739D01*
X178450000Y-75667267D01*
X178450000Y-76265112D01*
X179434314Y-76265112D01*
X179429920Y-76269506D01*
X179377259Y-76360718D01*
X179350000Y-76462451D01*
X179350000Y-76567773D01*
X179377259Y-76669506D01*
X179429920Y-76760718D01*
X179434314Y-76765112D01*
X178450000Y-76765112D01*
X178450000Y-77362956D01*
X178456401Y-77422484D01*
X178456403Y-77422491D01*
X178506645Y-77557198D01*
X178506649Y-77557205D01*
X178592809Y-77672299D01*
X178592812Y-77672302D01*
X178707906Y-77758462D01*
X178707913Y-77758466D01*
X178842620Y-77808708D01*
X178842627Y-77808710D01*
X178902155Y-77815111D01*
X178902172Y-77815112D01*
X179500000Y-77815112D01*
X179500000Y-76830798D01*
X179504394Y-76835192D01*
X179595606Y-76887853D01*
X179697339Y-76915112D01*
X179802661Y-76915112D01*
X179904394Y-76887853D01*
X179995606Y-76835192D01*
X180000000Y-76830798D01*
X180000000Y-77815112D01*
X180597828Y-77815112D01*
X180597844Y-77815111D01*
X180657372Y-77808710D01*
X180657379Y-77808708D01*
X180792086Y-77758466D01*
X180792093Y-77758462D01*
X180907187Y-77672302D01*
X180907190Y-77672299D01*
X180993350Y-77557205D01*
X180993354Y-77557198D01*
X181043596Y-77422491D01*
X181043598Y-77422484D01*
X181049999Y-77362956D01*
X181050000Y-77362939D01*
X181050000Y-76765112D01*
X180065686Y-76765112D01*
X180070080Y-76760718D01*
X180122741Y-76669506D01*
X180150000Y-76567773D01*
X180150000Y-76462451D01*
X180122741Y-76360718D01*
X180070080Y-76269506D01*
X180065686Y-76265112D01*
X181050000Y-76265112D01*
X181050000Y-75667284D01*
X181049999Y-75667267D01*
X181043598Y-75607739D01*
X181043596Y-75607732D01*
X180993354Y-75473025D01*
X180993350Y-75473018D01*
X180907190Y-75357924D01*
X180907187Y-75357921D01*
X180792093Y-75271761D01*
X180792086Y-75271757D01*
X180657378Y-75221514D01*
X180651658Y-75220163D01*
X180590942Y-75185589D01*
X180558557Y-75123678D01*
X180564784Y-75054086D01*
X180592491Y-75011806D01*
X180750047Y-74854251D01*
X180880568Y-74667846D01*
X180976739Y-74461608D01*
X181035635Y-74241804D01*
X181055468Y-74015112D01*
X181055020Y-74009996D01*
X181035635Y-73788425D01*
X181035635Y-73788420D01*
X180976739Y-73568616D01*
X180880568Y-73362378D01*
X180750047Y-73175973D01*
X180750045Y-73175970D01*
X180589141Y-73015066D01*
X180402734Y-72884544D01*
X180402732Y-72884543D01*
X180196497Y-72788373D01*
X180196488Y-72788370D01*
X179976697Y-72729478D01*
X179976693Y-72729477D01*
X179976692Y-72729477D01*
X179976691Y-72729476D01*
X179976686Y-72729476D01*
X179750002Y-72709644D01*
X179749998Y-72709644D01*
X179523313Y-72729476D01*
X179523302Y-72729478D01*
X179303511Y-72788370D01*
X179303502Y-72788373D01*
X179097267Y-72884543D01*
X179097265Y-72884544D01*
X178910858Y-73015066D01*
X178749954Y-73175970D01*
X178619432Y-73362377D01*
X178619431Y-73362379D01*
X178523261Y-73568614D01*
X178523258Y-73568623D01*
X178464366Y-73788414D01*
X178464364Y-73788425D01*
X178444532Y-74015110D01*
X166365547Y-74015110D01*
X166454114Y-73926543D01*
X166454114Y-73926542D01*
X167073837Y-73306819D01*
X167135160Y-73273334D01*
X167161518Y-73270500D01*
X170594506Y-73270500D01*
X170660477Y-73289506D01*
X170670474Y-73295787D01*
X170670475Y-73295787D01*
X170670478Y-73295789D01*
X170840745Y-73355368D01*
X170840750Y-73355369D01*
X171019996Y-73375565D01*
X171020000Y-73375565D01*
X171020004Y-73375565D01*
X171199249Y-73355369D01*
X171199252Y-73355368D01*
X171199255Y-73355368D01*
X171369522Y-73295789D01*
X171522262Y-73199816D01*
X171649816Y-73072262D01*
X171745789Y-72919522D01*
X171805368Y-72749255D01*
X171807481Y-72730500D01*
X171825565Y-72570003D01*
X171825565Y-72569996D01*
X171805369Y-72390750D01*
X171805368Y-72390745D01*
X171745788Y-72220476D01*
X171649815Y-72067737D01*
X171522262Y-71940184D01*
X171369523Y-71844211D01*
X171199254Y-71784631D01*
X171199249Y-71784630D01*
X171020004Y-71764435D01*
X171019996Y-71764435D01*
X170840750Y-71784630D01*
X170840745Y-71784631D01*
X170670474Y-71844212D01*
X170660477Y-71850494D01*
X170594506Y-71869500D01*
X170496528Y-71869500D01*
X170429489Y-71849815D01*
X170383734Y-71797011D01*
X170373790Y-71727853D01*
X170391534Y-71679528D01*
X170432384Y-71614515D01*
X170485789Y-71529522D01*
X170545368Y-71359255D01*
X170545369Y-71359249D01*
X170565565Y-71180003D01*
X170565565Y-71179996D01*
X170545369Y-71000750D01*
X170545368Y-71000745D01*
X170512103Y-70905679D01*
X170485789Y-70830478D01*
X170452935Y-70778192D01*
X170389815Y-70677737D01*
X170262262Y-70550184D01*
X170109523Y-70454211D01*
X169939253Y-70394631D01*
X169938923Y-70394556D01*
X169938731Y-70394448D01*
X169932682Y-70392332D01*
X169933052Y-70391272D01*
X169877944Y-70360449D01*
X169845084Y-70298789D01*
X169850777Y-70229151D01*
X169893215Y-70173646D01*
X169958924Y-70149896D01*
X169966512Y-70149664D01*
X172126003Y-70149664D01*
X172191974Y-70168670D01*
X172201971Y-70174951D01*
X172201972Y-70174951D01*
X172201975Y-70174953D01*
X172336865Y-70222153D01*
X172372242Y-70234532D01*
X172372247Y-70234533D01*
X172551493Y-70254729D01*
X172551497Y-70254729D01*
X172551501Y-70254729D01*
X172730746Y-70234533D01*
X172730749Y-70234532D01*
X172730752Y-70234532D01*
X172901019Y-70174953D01*
X173053759Y-70078980D01*
X173181313Y-69951426D01*
X173277286Y-69798686D01*
X173336865Y-69628419D01*
X173339191Y-69607781D01*
X173357062Y-69449164D01*
X173357062Y-69449160D01*
X173336866Y-69269914D01*
X173336863Y-69269901D01*
X173314312Y-69205455D01*
X173310749Y-69135677D01*
X173345478Y-69075049D01*
X173407471Y-69042822D01*
X173431353Y-69040500D01*
X174508996Y-69040500D01*
X174600040Y-69022389D01*
X174644328Y-69013580D01*
X174708069Y-68987177D01*
X174771807Y-68960777D01*
X174771808Y-68960776D01*
X174771811Y-68960775D01*
X174886543Y-68884114D01*
X176419290Y-67351365D01*
X176466013Y-67322007D01*
X176569522Y-67285789D01*
X176722262Y-67189816D01*
X176849816Y-67062262D01*
X176945789Y-66909522D01*
X177005368Y-66739255D01*
X177007407Y-66721161D01*
X177025565Y-66560003D01*
X177025565Y-66559996D01*
X177005369Y-66380750D01*
X177005368Y-66380745D01*
X176945789Y-66210478D01*
X176849816Y-66057738D01*
X176722262Y-65930184D01*
X176659516Y-65890758D01*
X176569523Y-65834211D01*
X176399254Y-65774631D01*
X176399249Y-65774630D01*
X176220004Y-65754435D01*
X176219996Y-65754435D01*
X176040750Y-65774630D01*
X176040745Y-65774631D01*
X175870476Y-65834211D01*
X175717737Y-65930184D01*
X175590184Y-66057737D01*
X175494212Y-66210475D01*
X175494211Y-66210476D01*
X175457992Y-66313984D01*
X175428632Y-66360709D01*
X174714347Y-67074994D01*
X174653024Y-67108479D01*
X174583332Y-67103495D01*
X174527399Y-67061623D01*
X174503446Y-67001196D01*
X174497918Y-66952135D01*
X174494640Y-66923034D01*
X174485369Y-66840749D01*
X174485368Y-66840745D01*
X174459361Y-66766421D01*
X174425789Y-66670478D01*
X174329816Y-66517738D01*
X174202262Y-66390184D01*
X174080991Y-66313984D01*
X174049523Y-66294211D01*
X173879254Y-66234631D01*
X173879249Y-66234630D01*
X173700004Y-66214435D01*
X173699996Y-66214435D01*
X173520750Y-66234630D01*
X173520745Y-66234631D01*
X173350476Y-66294211D01*
X173197737Y-66390184D01*
X173070184Y-66517737D01*
X172970506Y-66676374D01*
X172969156Y-66675526D01*
X172927956Y-66721161D01*
X172863057Y-66739500D01*
X165541004Y-66739500D01*
X165405677Y-66766418D01*
X165405667Y-66766421D01*
X165278192Y-66819222D01*
X165163454Y-66895887D01*
X161395887Y-70663454D01*
X161319222Y-70778192D01*
X161266421Y-70905667D01*
X161266418Y-70905679D01*
X161243046Y-71023179D01*
X161243046Y-71023182D01*
X161239500Y-71041007D01*
X161239500Y-99471006D01*
X161239500Y-99608994D01*
X161239500Y-99608996D01*
X161239499Y-99608996D01*
X161266418Y-99744322D01*
X161266421Y-99744332D01*
X161319222Y-99871807D01*
X161395887Y-99986545D01*
X164657161Y-103247819D01*
X164690646Y-103309142D01*
X164685662Y-103378834D01*
X164643790Y-103434767D01*
X164578326Y-103459184D01*
X164569480Y-103459500D01*
X160664500Y-103459500D01*
X160597461Y-103439815D01*
X160551706Y-103387011D01*
X160540500Y-103335500D01*
X160540500Y-65352190D01*
X160560185Y-65285151D01*
X160612989Y-65239396D01*
X160682147Y-65229452D01*
X160718680Y-65242696D01*
X160719330Y-65241304D01*
X160725880Y-65244358D01*
X160892302Y-65299505D01*
X160892309Y-65299506D01*
X160995019Y-65309999D01*
X161057499Y-65309998D01*
X161057500Y-65309998D01*
X161057500Y-62910000D01*
X161057499Y-62909999D01*
X160995028Y-62910000D01*
X160995011Y-62910001D01*
X160892302Y-62920494D01*
X160725880Y-62975641D01*
X160719330Y-62978696D01*
X160718281Y-62976447D01*
X160662182Y-62991787D01*
X160595522Y-62970853D01*
X160550762Y-62917203D01*
X160540500Y-62867809D01*
X160540500Y-62332105D01*
X160560185Y-62265066D01*
X160612989Y-62219311D01*
X160682147Y-62209367D01*
X160703504Y-62214399D01*
X160869802Y-62269505D01*
X160869809Y-62269506D01*
X160972519Y-62279999D01*
X161034999Y-62279998D01*
X161035000Y-62279998D01*
X161035000Y-59880000D01*
X161034999Y-59879999D01*
X160972528Y-59880000D01*
X160972511Y-59880001D01*
X160869802Y-59890494D01*
X160703504Y-59945600D01*
X160633675Y-59948002D01*
X160573634Y-59912270D01*
X160542441Y-59849750D01*
X160540500Y-59827894D01*
X160540500Y-59295418D01*
X160560185Y-59228379D01*
X160612989Y-59182624D01*
X160682147Y-59172680D01*
X160703505Y-59177712D01*
X160859805Y-59229505D01*
X160859809Y-59229506D01*
X160962519Y-59239999D01*
X161024999Y-59239998D01*
X161025000Y-59239998D01*
X161025000Y-56840000D01*
X161024999Y-56839999D01*
X160962528Y-56840000D01*
X160962511Y-56840001D01*
X160859802Y-56850494D01*
X160703504Y-56902286D01*
X160633675Y-56904688D01*
X160573634Y-56868956D01*
X160542441Y-56806435D01*
X160540500Y-56784580D01*
X160540500Y-47096024D01*
X160560185Y-47028985D01*
X160612989Y-46983230D01*
X160682147Y-46973286D01*
X160745703Y-47002311D01*
X160780682Y-47052691D01*
X160791645Y-47082086D01*
X160791649Y-47082093D01*
X160877809Y-47197187D01*
X160877812Y-47197190D01*
X160992906Y-47283350D01*
X160992913Y-47283354D01*
X161127620Y-47333596D01*
X161127627Y-47333598D01*
X161187155Y-47339999D01*
X161187172Y-47340000D01*
X161835000Y-47340000D01*
X161835000Y-46423012D01*
X161892007Y-46455925D01*
X162019174Y-46490000D01*
X162150826Y-46490000D01*
X162277993Y-46455925D01*
X162335000Y-46423012D01*
X162335000Y-47340000D01*
X162982828Y-47340000D01*
X162982844Y-47339999D01*
X163042372Y-47333598D01*
X163042379Y-47333596D01*
X163177086Y-47283354D01*
X163177093Y-47283350D01*
X163292187Y-47197190D01*
X163292190Y-47197187D01*
X163378350Y-47082093D01*
X163378354Y-47082086D01*
X163427614Y-46950013D01*
X163469485Y-46894079D01*
X163534949Y-46869662D01*
X163603222Y-46884513D01*
X163631477Y-46905665D01*
X163753917Y-47028105D01*
X163947421Y-47163600D01*
X164161507Y-47263429D01*
X164161516Y-47263433D01*
X164375000Y-47320634D01*
X164375000Y-46423012D01*
X164432007Y-46455925D01*
X164559174Y-46490000D01*
X164690826Y-46490000D01*
X164817993Y-46455925D01*
X164875000Y-46423012D01*
X164875000Y-47320633D01*
X165088483Y-47263433D01*
X165088492Y-47263429D01*
X165302578Y-47163600D01*
X165496082Y-47028105D01*
X165663105Y-46861082D01*
X165793425Y-46674968D01*
X165848002Y-46631344D01*
X165917501Y-46624151D01*
X165979855Y-46655673D01*
X165996575Y-46674968D01*
X166126894Y-46861082D01*
X166293917Y-47028105D01*
X166487421Y-47163600D01*
X166701507Y-47263429D01*
X166701516Y-47263433D01*
X166915000Y-47320634D01*
X166915000Y-46423012D01*
X166972007Y-46455925D01*
X167099174Y-46490000D01*
X167230826Y-46490000D01*
X167357993Y-46455925D01*
X167415000Y-46423012D01*
X167415000Y-47320633D01*
X167628483Y-47263433D01*
X167628492Y-47263429D01*
X167842578Y-47163600D01*
X168036082Y-47028105D01*
X168203105Y-46861082D01*
X168338600Y-46667578D01*
X168438429Y-46453492D01*
X168438432Y-46453486D01*
X168495636Y-46240000D01*
X167598012Y-46240000D01*
X167630925Y-46182993D01*
X167665000Y-46055826D01*
X167665000Y-45924174D01*
X167630925Y-45797007D01*
X167598012Y-45740000D01*
X168495636Y-45740000D01*
X168495635Y-45739999D01*
X168438432Y-45526513D01*
X168438429Y-45526507D01*
X168338600Y-45312422D01*
X168338599Y-45312420D01*
X168203113Y-45118926D01*
X168203108Y-45118920D01*
X168036082Y-44951894D01*
X167842578Y-44816399D01*
X167628492Y-44716570D01*
X167628483Y-44716566D01*
X167582610Y-44704275D01*
X167522949Y-44667910D01*
X167492420Y-44605063D01*
X167500715Y-44535688D01*
X167545200Y-44481810D01*
X167611752Y-44460535D01*
X167614703Y-44460500D01*
X170018540Y-44460500D01*
X170085579Y-44480185D01*
G37*
G04 #@! TD.AperFunction*
G04 #@! TA.AperFunction,Conductor*
G36*
X199474925Y-74620168D02*
G01*
X199524331Y-74669573D01*
X199539500Y-74729001D01*
X199539500Y-103335500D01*
X199519815Y-103402539D01*
X199467011Y-103448294D01*
X199415500Y-103459500D01*
X193170520Y-103459500D01*
X193103481Y-103439815D01*
X193057726Y-103387011D01*
X193047782Y-103317853D01*
X193076807Y-103254297D01*
X193082839Y-103247819D01*
X197344111Y-98986546D01*
X197344112Y-98986545D01*
X197344114Y-98986543D01*
X197420775Y-98871811D01*
X197473580Y-98744328D01*
X197500500Y-98608994D01*
X197500500Y-98471006D01*
X197500500Y-89151007D01*
X197500129Y-89149141D01*
X197500128Y-89149138D01*
X197500123Y-89149112D01*
X197479507Y-89045468D01*
X197473580Y-89015672D01*
X197460377Y-88983796D01*
X197420777Y-88888192D01*
X197344112Y-88773454D01*
X196109828Y-87539170D01*
X196076343Y-87477847D01*
X196081327Y-87408155D01*
X196123199Y-87352222D01*
X196188663Y-87327805D01*
X196249911Y-87339106D01*
X196373504Y-87396739D01*
X196593308Y-87455635D01*
X196755230Y-87469801D01*
X196819998Y-87475468D01*
X196820000Y-87475468D01*
X196820002Y-87475468D01*
X196876673Y-87470509D01*
X197046692Y-87455635D01*
X197266496Y-87396739D01*
X197472734Y-87300568D01*
X197659139Y-87170047D01*
X197820047Y-87009139D01*
X197950568Y-86822734D01*
X198046739Y-86616496D01*
X198105635Y-86396692D01*
X198125468Y-86170000D01*
X198124139Y-86154815D01*
X198105635Y-85943313D01*
X198105635Y-85943308D01*
X198046739Y-85723504D01*
X197950568Y-85517266D01*
X197820047Y-85330861D01*
X197820045Y-85330858D01*
X197662493Y-85173306D01*
X197629008Y-85111983D01*
X197633992Y-85042291D01*
X197675864Y-84986358D01*
X197721667Y-84964946D01*
X197727381Y-84963595D01*
X197862086Y-84913354D01*
X197862093Y-84913350D01*
X197977187Y-84827190D01*
X197977190Y-84827187D01*
X198063350Y-84712093D01*
X198063354Y-84712086D01*
X198113596Y-84577379D01*
X198113598Y-84577372D01*
X198119999Y-84517844D01*
X198120000Y-84517827D01*
X198120000Y-83920000D01*
X197135686Y-83920000D01*
X197140080Y-83915606D01*
X197192741Y-83824394D01*
X197220000Y-83722661D01*
X197220000Y-83617339D01*
X197192741Y-83515606D01*
X197140080Y-83424394D01*
X197135686Y-83420000D01*
X198120000Y-83420000D01*
X198120000Y-82822172D01*
X198119999Y-82822155D01*
X198113598Y-82762627D01*
X198113596Y-82762620D01*
X198063354Y-82627913D01*
X198063350Y-82627906D01*
X197977190Y-82512812D01*
X197977187Y-82512809D01*
X197862093Y-82426649D01*
X197862086Y-82426645D01*
X197727379Y-82376403D01*
X197727372Y-82376401D01*
X197667844Y-82370000D01*
X197070000Y-82370000D01*
X197070000Y-83354314D01*
X197065606Y-83349920D01*
X196974394Y-83297259D01*
X196872661Y-83270000D01*
X196767339Y-83270000D01*
X196665606Y-83297259D01*
X196574394Y-83349920D01*
X196570000Y-83354314D01*
X196570000Y-82370000D01*
X195972155Y-82370000D01*
X195912627Y-82376401D01*
X195912620Y-82376403D01*
X195777913Y-82426645D01*
X195777906Y-82426649D01*
X195662812Y-82512809D01*
X195662809Y-82512812D01*
X195576649Y-82627906D01*
X195576645Y-82627913D01*
X195526403Y-82762620D01*
X195526401Y-82762627D01*
X195520000Y-82822155D01*
X195520000Y-83420000D01*
X196504314Y-83420000D01*
X196499920Y-83424394D01*
X196447259Y-83515606D01*
X196420000Y-83617339D01*
X196420000Y-83722661D01*
X196447259Y-83824394D01*
X196499920Y-83915606D01*
X196504314Y-83920000D01*
X195520000Y-83920000D01*
X195520000Y-84517844D01*
X195526401Y-84577372D01*
X195526403Y-84577379D01*
X195576645Y-84712086D01*
X195576649Y-84712093D01*
X195662809Y-84827187D01*
X195662812Y-84827190D01*
X195777906Y-84913350D01*
X195777913Y-84913354D01*
X195912622Y-84963597D01*
X195918334Y-84964947D01*
X195979052Y-84999517D01*
X196011441Y-85061427D01*
X196005218Y-85131018D01*
X195977507Y-85173306D01*
X195819951Y-85330862D01*
X195689432Y-85517265D01*
X195689431Y-85517267D01*
X195593261Y-85723502D01*
X195593258Y-85723511D01*
X195534366Y-85943302D01*
X195534364Y-85943313D01*
X195514532Y-86169998D01*
X195514532Y-86170001D01*
X195534364Y-86396686D01*
X195534366Y-86396697D01*
X195593258Y-86616488D01*
X195593260Y-86616492D01*
X195593261Y-86616496D01*
X195631111Y-86697664D01*
X195650892Y-86740085D01*
X195661384Y-86809163D01*
X195632864Y-86872947D01*
X195574388Y-86911186D01*
X195504520Y-86911741D01*
X195450829Y-86880171D01*
X193721545Y-85150887D01*
X193606807Y-85074222D01*
X193479332Y-85021421D01*
X193479322Y-85021418D01*
X193343991Y-84994498D01*
X193339710Y-84994077D01*
X193274924Y-84967912D01*
X193251554Y-84943560D01*
X193181971Y-84847787D01*
X193181967Y-84847782D01*
X193037213Y-84703028D01*
X192871611Y-84582713D01*
X192778369Y-84535203D01*
X192727574Y-84487229D01*
X192710779Y-84419407D01*
X192733317Y-84353273D01*
X192778371Y-84314234D01*
X192871347Y-84266861D01*
X193036894Y-84146582D01*
X193036895Y-84146582D01*
X193181582Y-84001895D01*
X193181582Y-84001894D01*
X193301859Y-83836349D01*
X193394755Y-83654029D01*
X193457990Y-83459413D01*
X193466609Y-83405000D01*
X192105686Y-83405000D01*
X192110080Y-83400606D01*
X192162741Y-83309394D01*
X192190000Y-83207661D01*
X192190000Y-83102339D01*
X192162741Y-83000606D01*
X192110080Y-82909394D01*
X192105686Y-82905000D01*
X193466609Y-82905000D01*
X193457990Y-82850586D01*
X193394755Y-82655970D01*
X193301859Y-82473650D01*
X193181582Y-82308105D01*
X193181582Y-82308104D01*
X193036895Y-82163417D01*
X192871349Y-82043140D01*
X192778370Y-81995765D01*
X192727574Y-81947790D01*
X192710779Y-81879969D01*
X192733316Y-81813835D01*
X192778370Y-81774795D01*
X192802041Y-81762734D01*
X192871610Y-81727287D01*
X192892770Y-81711913D01*
X193037213Y-81606971D01*
X193037215Y-81606968D01*
X193037219Y-81606966D01*
X193181966Y-81462219D01*
X193181968Y-81462215D01*
X193181971Y-81462213D01*
X193297291Y-81303486D01*
X193302287Y-81296610D01*
X193395220Y-81114219D01*
X193458477Y-80919534D01*
X193490500Y-80717352D01*
X193490500Y-80512648D01*
X193458477Y-80310466D01*
X193440037Y-80253715D01*
X193395218Y-80115776D01*
X193355215Y-80037267D01*
X193302287Y-79933390D01*
X193294556Y-79922749D01*
X193181971Y-79767786D01*
X193037213Y-79623028D01*
X192871614Y-79502715D01*
X192865006Y-79499348D01*
X192778917Y-79455483D01*
X192728123Y-79407511D01*
X192711328Y-79339690D01*
X192733865Y-79273555D01*
X192778917Y-79234516D01*
X192871610Y-79187287D01*
X192898713Y-79167596D01*
X193037213Y-79066971D01*
X193037215Y-79066968D01*
X193037219Y-79066966D01*
X193142366Y-78961819D01*
X193203689Y-78928334D01*
X193230047Y-78925500D01*
X194471233Y-78925500D01*
X194638767Y-78925500D01*
X195426233Y-78925500D01*
X195593767Y-78925500D01*
X195764951Y-78925500D01*
X195831990Y-78945185D01*
X195852632Y-78961819D01*
X195997086Y-79106273D01*
X196030571Y-79167596D01*
X196025587Y-79237288D01*
X195983715Y-79293221D01*
X195937932Y-79314628D01*
X195932522Y-79315906D01*
X195797671Y-79366202D01*
X195797664Y-79366206D01*
X195682455Y-79452452D01*
X195682452Y-79452455D01*
X195596206Y-79567664D01*
X195596202Y-79567671D01*
X195545908Y-79702517D01*
X195539863Y-79758747D01*
X195539501Y-79762123D01*
X195539500Y-79762135D01*
X195539500Y-81457870D01*
X195539501Y-81457876D01*
X195545908Y-81517483D01*
X195596202Y-81652328D01*
X195596206Y-81652335D01*
X195682452Y-81767544D01*
X195682455Y-81767547D01*
X195797664Y-81853793D01*
X195797671Y-81853797D01*
X195932517Y-81904091D01*
X195932516Y-81904091D01*
X195939444Y-81904835D01*
X195992127Y-81910500D01*
X197687872Y-81910499D01*
X197747483Y-81904091D01*
X197882331Y-81853796D01*
X197997546Y-81767546D01*
X198083796Y-81652331D01*
X198134091Y-81517483D01*
X198140500Y-81457873D01*
X198140499Y-79762128D01*
X198134091Y-79702517D01*
X198129405Y-79689954D01*
X198083797Y-79567671D01*
X198083793Y-79567664D01*
X197997547Y-79452455D01*
X197997544Y-79452452D01*
X197882335Y-79366206D01*
X197882328Y-79366202D01*
X197747483Y-79315908D01*
X197742079Y-79314632D01*
X197681363Y-79280060D01*
X197648976Y-79218149D01*
X197655202Y-79148558D01*
X197682912Y-79106274D01*
X197792367Y-78996819D01*
X197853690Y-78963334D01*
X197880048Y-78960500D01*
X197923768Y-78960500D01*
X197923769Y-78960499D01*
X198088082Y-78927816D01*
X198135890Y-78908013D01*
X198242863Y-78863704D01*
X198382162Y-78770627D01*
X198850627Y-78302162D01*
X198943704Y-78162863D01*
X198995390Y-78038081D01*
X199007816Y-78008082D01*
X199040500Y-77843767D01*
X199040500Y-74846976D01*
X199060185Y-74779937D01*
X199112989Y-74734182D01*
X199140135Y-74726736D01*
X199139932Y-74725876D01*
X199147479Y-74724092D01*
X199147481Y-74724091D01*
X199147483Y-74724091D01*
X199282331Y-74673796D01*
X199341189Y-74629734D01*
X199406652Y-74605317D01*
X199474925Y-74620168D01*
G37*
G04 #@! TD.AperFunction*
G04 #@! TA.AperFunction,Conductor*
G36*
X197535403Y-44480185D02*
G01*
X197581158Y-44532989D01*
X197591102Y-44602147D01*
X197562077Y-44665703D01*
X197503299Y-44703477D01*
X197500457Y-44704275D01*
X197456344Y-44716094D01*
X197456335Y-44716098D01*
X197242171Y-44815964D01*
X197242169Y-44815965D01*
X197048597Y-44951505D01*
X196881505Y-45118597D01*
X196745965Y-45312169D01*
X196745964Y-45312171D01*
X196646098Y-45526335D01*
X196646094Y-45526344D01*
X196584938Y-45754586D01*
X196584936Y-45754596D01*
X196564341Y-45989999D01*
X196564341Y-45990000D01*
X196584936Y-46225403D01*
X196584938Y-46225413D01*
X196646094Y-46453655D01*
X196646096Y-46453659D01*
X196646097Y-46453663D01*
X196740296Y-46655673D01*
X196745965Y-46667830D01*
X196745967Y-46667834D01*
X196881501Y-46861395D01*
X196881506Y-46861402D01*
X197033181Y-47013077D01*
X197066666Y-47074400D01*
X197069500Y-47100758D01*
X197069500Y-47419241D01*
X197049815Y-47486280D01*
X197033181Y-47506922D01*
X196881505Y-47658597D01*
X196745965Y-47852169D01*
X196745964Y-47852171D01*
X196646098Y-48066335D01*
X196646094Y-48066344D01*
X196584938Y-48294586D01*
X196584936Y-48294596D01*
X196564341Y-48529999D01*
X196564341Y-48530000D01*
X196584936Y-48765403D01*
X196584938Y-48765413D01*
X196646094Y-48993655D01*
X196646096Y-48993659D01*
X196646097Y-48993663D01*
X196745965Y-49207830D01*
X196745967Y-49207834D01*
X196881501Y-49401395D01*
X196881506Y-49401402D01*
X197033181Y-49553077D01*
X197066666Y-49614400D01*
X197069500Y-49640758D01*
X197069500Y-49959241D01*
X197049815Y-50026280D01*
X197033181Y-50046922D01*
X196881505Y-50198597D01*
X196745965Y-50392169D01*
X196745964Y-50392171D01*
X196646098Y-50606335D01*
X196646094Y-50606344D01*
X196584938Y-50834586D01*
X196584936Y-50834596D01*
X196564341Y-51069999D01*
X196564341Y-51070000D01*
X196584936Y-51305403D01*
X196584938Y-51305413D01*
X196646094Y-51533655D01*
X196646096Y-51533659D01*
X196646097Y-51533663D01*
X196669843Y-51584586D01*
X196745965Y-51747830D01*
X196745967Y-51747834D01*
X196881501Y-51941395D01*
X196881506Y-51941402D01*
X197033181Y-52093077D01*
X197066666Y-52154400D01*
X197069500Y-52180758D01*
X197069500Y-52499241D01*
X197049815Y-52566280D01*
X197033181Y-52586922D01*
X196881505Y-52738597D01*
X196745965Y-52932169D01*
X196745964Y-52932171D01*
X196646098Y-53146335D01*
X196646094Y-53146344D01*
X196584938Y-53374586D01*
X196584936Y-53374596D01*
X196564341Y-53609999D01*
X196564341Y-53610000D01*
X196584936Y-53845403D01*
X196584938Y-53845413D01*
X196646094Y-54073655D01*
X196646096Y-54073659D01*
X196646097Y-54073663D01*
X196718977Y-54229954D01*
X196745965Y-54287830D01*
X196745967Y-54287834D01*
X196818106Y-54390858D01*
X196881501Y-54481396D01*
X196881506Y-54481402D01*
X197003430Y-54603326D01*
X197036915Y-54664649D01*
X197031931Y-54734341D01*
X196990059Y-54790274D01*
X196959083Y-54807189D01*
X196827669Y-54856203D01*
X196827664Y-54856206D01*
X196712455Y-54942452D01*
X196712452Y-54942455D01*
X196626206Y-55057664D01*
X196626202Y-55057671D01*
X196575908Y-55192517D01*
X196569501Y-55252116D01*
X196569501Y-55252123D01*
X196569500Y-55252135D01*
X196569500Y-57047870D01*
X196569501Y-57047876D01*
X196575908Y-57107483D01*
X196626202Y-57242328D01*
X196626206Y-57242335D01*
X196712452Y-57357544D01*
X196712455Y-57357547D01*
X196827664Y-57443793D01*
X196827671Y-57443797D01*
X196962517Y-57494091D01*
X196962516Y-57494091D01*
X196969444Y-57494835D01*
X197022127Y-57500500D01*
X198817872Y-57500499D01*
X198877483Y-57494091D01*
X199012331Y-57443796D01*
X199127546Y-57357546D01*
X199213796Y-57242331D01*
X199264091Y-57107483D01*
X199270500Y-57047873D01*
X199270499Y-55252128D01*
X199264091Y-55192517D01*
X199238967Y-55125157D01*
X199213797Y-55057671D01*
X199213793Y-55057664D01*
X199127547Y-54942455D01*
X199127544Y-54942452D01*
X199012335Y-54856206D01*
X199012328Y-54856202D01*
X198880917Y-54807189D01*
X198824983Y-54765318D01*
X198800566Y-54699853D01*
X198815418Y-54631580D01*
X198836563Y-54603332D01*
X198958495Y-54481401D01*
X199094035Y-54287830D01*
X199193903Y-54073663D01*
X199255063Y-53845408D01*
X199275659Y-53610000D01*
X199255063Y-53374592D01*
X199193903Y-53146337D01*
X199094035Y-52932171D01*
X199071844Y-52900478D01*
X198958494Y-52738597D01*
X198806819Y-52586922D01*
X198773334Y-52525599D01*
X198770500Y-52499241D01*
X198770500Y-52180758D01*
X198790185Y-52113719D01*
X198806819Y-52093077D01*
X198844493Y-52055403D01*
X198958495Y-51941401D01*
X199094035Y-51747830D01*
X199193903Y-51533663D01*
X199255063Y-51305408D01*
X199275659Y-51070000D01*
X199255063Y-50834592D01*
X199195542Y-50612454D01*
X199193905Y-50606344D01*
X199193904Y-50606343D01*
X199193903Y-50606337D01*
X199094035Y-50392171D01*
X198958495Y-50198599D01*
X198958494Y-50198597D01*
X198806819Y-50046922D01*
X198773334Y-49985599D01*
X198770500Y-49959241D01*
X198770500Y-49640758D01*
X198790185Y-49573719D01*
X198806819Y-49553077D01*
X198958495Y-49401401D01*
X199094035Y-49207830D01*
X199193903Y-48993663D01*
X199255063Y-48765408D01*
X199275659Y-48530000D01*
X199255063Y-48294592D01*
X199193903Y-48066337D01*
X199094035Y-47852171D01*
X198994489Y-47710003D01*
X198958494Y-47658597D01*
X198806819Y-47506922D01*
X198773334Y-47445599D01*
X198770500Y-47419241D01*
X198770500Y-47100758D01*
X198790185Y-47033719D01*
X198806819Y-47013077D01*
X198881735Y-46938161D01*
X198958495Y-46861401D01*
X199094035Y-46667830D01*
X199193903Y-46453663D01*
X199255063Y-46225408D01*
X199275659Y-45990000D01*
X199255063Y-45754592D01*
X199195553Y-45532494D01*
X199193905Y-45526344D01*
X199193904Y-45526343D01*
X199193903Y-45526337D01*
X199094035Y-45312171D01*
X199091092Y-45307967D01*
X198958494Y-45118597D01*
X198791402Y-44951506D01*
X198791395Y-44951501D01*
X198597834Y-44815967D01*
X198597830Y-44815965D01*
X198526727Y-44782809D01*
X198383663Y-44716097D01*
X198383659Y-44716096D01*
X198383655Y-44716094D01*
X198339543Y-44704275D01*
X198279882Y-44667910D01*
X198249353Y-44605064D01*
X198257647Y-44535688D01*
X198302132Y-44481810D01*
X198368684Y-44460535D01*
X198371636Y-44460500D01*
X199415500Y-44460500D01*
X199482539Y-44480185D01*
X199528294Y-44532989D01*
X199539500Y-44584500D01*
X199539500Y-69430998D01*
X199519815Y-69498037D01*
X199467011Y-69543792D01*
X199397853Y-69553736D01*
X199341189Y-69530265D01*
X199282331Y-69486204D01*
X199282328Y-69486202D01*
X199147482Y-69435908D01*
X199147483Y-69435908D01*
X199103475Y-69431177D01*
X199038924Y-69404439D01*
X198999076Y-69347046D01*
X198993511Y-69321771D01*
X198975369Y-69160750D01*
X198975368Y-69160745D01*
X198961188Y-69120220D01*
X198915789Y-68990478D01*
X198819816Y-68837738D01*
X198692262Y-68710184D01*
X198692260Y-68710182D01*
X198692258Y-68710181D01*
X198648527Y-68682702D01*
X198602236Y-68630367D01*
X198590500Y-68577709D01*
X198590500Y-65890758D01*
X198610185Y-65823719D01*
X198626819Y-65803077D01*
X198675461Y-65754435D01*
X198778495Y-65651401D01*
X198914035Y-65457830D01*
X199013903Y-65243663D01*
X199075063Y-65015408D01*
X199095659Y-64780000D01*
X199075063Y-64544592D01*
X199013903Y-64316337D01*
X198914035Y-64102171D01*
X198805582Y-63947284D01*
X198778496Y-63908600D01*
X198778495Y-63908599D01*
X198656179Y-63786283D01*
X198622696Y-63724963D01*
X198627680Y-63655271D01*
X198669551Y-63599337D01*
X198700529Y-63582422D01*
X198832086Y-63533354D01*
X198832093Y-63533350D01*
X198947187Y-63447190D01*
X198947190Y-63447187D01*
X199033350Y-63332093D01*
X199033354Y-63332086D01*
X199083596Y-63197379D01*
X199083598Y-63197372D01*
X199089999Y-63137844D01*
X199090000Y-63137827D01*
X199090000Y-62490000D01*
X198173012Y-62490000D01*
X198205925Y-62432993D01*
X198240000Y-62305826D01*
X198240000Y-62174174D01*
X198205925Y-62047007D01*
X198173012Y-61990000D01*
X199090000Y-61990000D01*
X199090000Y-61342172D01*
X199089999Y-61342155D01*
X199083598Y-61282627D01*
X199083596Y-61282620D01*
X199033354Y-61147913D01*
X199033350Y-61147906D01*
X198947190Y-61032812D01*
X198947187Y-61032809D01*
X198832093Y-60946649D01*
X198832086Y-60946645D01*
X198697379Y-60896403D01*
X198697372Y-60896401D01*
X198637844Y-60890000D01*
X197990000Y-60890000D01*
X197990000Y-61806988D01*
X197932993Y-61774075D01*
X197805826Y-61740000D01*
X197674174Y-61740000D01*
X197547007Y-61774075D01*
X197490000Y-61806988D01*
X197490000Y-60890000D01*
X196842155Y-60890000D01*
X196782627Y-60896401D01*
X196782620Y-60896403D01*
X196647913Y-60946645D01*
X196647906Y-60946649D01*
X196532812Y-61032809D01*
X196532809Y-61032812D01*
X196446649Y-61147906D01*
X196446645Y-61147913D01*
X196396403Y-61282620D01*
X196396401Y-61282627D01*
X196390000Y-61342155D01*
X196390000Y-61990000D01*
X197306988Y-61990000D01*
X197274075Y-62047007D01*
X197240000Y-62174174D01*
X197240000Y-62305826D01*
X197274075Y-62432993D01*
X197306988Y-62490000D01*
X196390000Y-62490000D01*
X196390000Y-63137844D01*
X196396401Y-63197372D01*
X196396403Y-63197379D01*
X196446645Y-63332086D01*
X196446649Y-63332093D01*
X196532809Y-63447187D01*
X196532812Y-63447190D01*
X196647906Y-63533350D01*
X196647913Y-63533354D01*
X196779470Y-63582421D01*
X196835403Y-63624292D01*
X196859821Y-63689756D01*
X196844970Y-63758029D01*
X196823819Y-63786284D01*
X196701503Y-63908600D01*
X196565965Y-64102169D01*
X196565964Y-64102171D01*
X196466098Y-64316335D01*
X196466094Y-64316344D01*
X196404938Y-64544586D01*
X196404936Y-64544596D01*
X196384341Y-64779999D01*
X196384341Y-64780000D01*
X196404936Y-65015403D01*
X196404938Y-65015413D01*
X196466094Y-65243655D01*
X196466096Y-65243659D01*
X196466097Y-65243663D01*
X196516704Y-65352190D01*
X196565965Y-65457830D01*
X196565967Y-65457834D01*
X196701501Y-65651395D01*
X196701506Y-65651402D01*
X196853181Y-65803077D01*
X196886666Y-65864400D01*
X196889500Y-65890758D01*
X196889500Y-68156348D01*
X196869815Y-68223387D01*
X196853181Y-68244029D01*
X195859375Y-69237834D01*
X195859372Y-69237838D01*
X195766297Y-69377133D01*
X195766296Y-69377136D01*
X195736462Y-69449163D01*
X195736462Y-69449164D01*
X195702184Y-69531917D01*
X195702182Y-69531925D01*
X195669500Y-69696228D01*
X195669500Y-74045801D01*
X195649815Y-74112840D01*
X195597011Y-74158595D01*
X195527853Y-74168539D01*
X195493096Y-74158183D01*
X195376330Y-74103735D01*
X195180000Y-74051127D01*
X195180000Y-75014314D01*
X195175606Y-75009920D01*
X195084394Y-74957259D01*
X194982661Y-74930000D01*
X194877339Y-74930000D01*
X194775606Y-74957259D01*
X194684394Y-75009920D01*
X194680000Y-75014314D01*
X194680000Y-74051127D01*
X194483671Y-74103734D01*
X194277517Y-74199865D01*
X194091179Y-74330342D01*
X193930342Y-74491179D01*
X193799865Y-74677517D01*
X193703734Y-74883673D01*
X193703731Y-74883679D01*
X193650309Y-75083056D01*
X193613944Y-75142716D01*
X193551097Y-75173245D01*
X193481721Y-75164950D01*
X193427844Y-75120465D01*
X193412603Y-75089281D01*
X193411015Y-75084394D01*
X193395220Y-75035781D01*
X193395218Y-75035778D01*
X193395218Y-75035776D01*
X193355211Y-74957259D01*
X193302287Y-74853390D01*
X193248921Y-74779937D01*
X193181971Y-74687786D01*
X193037213Y-74543028D01*
X192871614Y-74422715D01*
X192865006Y-74419348D01*
X192778917Y-74375483D01*
X192728123Y-74327511D01*
X192711328Y-74259690D01*
X192733865Y-74193555D01*
X192778917Y-74154516D01*
X192871610Y-74107287D01*
X192892770Y-74091913D01*
X193037213Y-73986971D01*
X193037215Y-73986968D01*
X193037219Y-73986966D01*
X193181966Y-73842219D01*
X193181968Y-73842215D01*
X193181971Y-73842213D01*
X193234732Y-73769590D01*
X193302287Y-73676610D01*
X193395220Y-73494219D01*
X193458477Y-73299534D01*
X193490500Y-73097352D01*
X193490500Y-72892648D01*
X193469017Y-72757011D01*
X193458477Y-72690465D01*
X193395218Y-72495776D01*
X193341701Y-72390745D01*
X193302287Y-72313390D01*
X193270577Y-72269744D01*
X193181971Y-72147786D01*
X193037213Y-72003028D01*
X192871614Y-71882715D01*
X192825347Y-71859141D01*
X192778917Y-71835483D01*
X192728123Y-71787511D01*
X192711328Y-71719690D01*
X192733865Y-71653555D01*
X192778917Y-71614516D01*
X192871610Y-71567287D01*
X192892770Y-71551913D01*
X193037213Y-71446971D01*
X193037215Y-71446968D01*
X193037219Y-71446966D01*
X193181966Y-71302219D01*
X193181968Y-71302215D01*
X193181971Y-71302213D01*
X193252369Y-71205317D01*
X193302287Y-71136610D01*
X193395220Y-70954219D01*
X193458477Y-70759534D01*
X193490500Y-70557352D01*
X193490500Y-70352648D01*
X193466398Y-70200478D01*
X193458477Y-70150465D01*
X193395218Y-69955776D01*
X193315176Y-69798687D01*
X193302287Y-69773390D01*
X193246230Y-69696233D01*
X193181971Y-69607786D01*
X193037213Y-69463028D01*
X192871614Y-69342715D01*
X192788760Y-69300499D01*
X192778917Y-69295483D01*
X192728123Y-69247511D01*
X192711328Y-69179690D01*
X192733865Y-69113555D01*
X192778917Y-69074516D01*
X192871610Y-69027287D01*
X192922274Y-68990478D01*
X193037213Y-68906971D01*
X193037215Y-68906968D01*
X193037219Y-68906966D01*
X193181966Y-68762219D01*
X193181968Y-68762215D01*
X193181971Y-68762213D01*
X193266427Y-68645967D01*
X193302287Y-68596610D01*
X193395220Y-68414219D01*
X193458477Y-68219534D01*
X193464650Y-68180559D01*
X193494577Y-68117429D01*
X193553888Y-68080497D01*
X193623750Y-68081493D01*
X193681984Y-68120102D01*
X193700363Y-68151873D01*
X193700973Y-68151589D01*
X193703260Y-68156495D01*
X193703261Y-68156496D01*
X193714484Y-68180564D01*
X193799431Y-68362732D01*
X193799432Y-68362734D01*
X193929954Y-68549141D01*
X194090858Y-68710045D01*
X194090861Y-68710047D01*
X194277266Y-68840568D01*
X194483504Y-68936739D01*
X194703308Y-68995635D01*
X194865230Y-69009801D01*
X194929998Y-69015468D01*
X194930000Y-69015468D01*
X194930002Y-69015468D01*
X194986673Y-69010509D01*
X195156692Y-68995635D01*
X195376496Y-68936739D01*
X195582734Y-68840568D01*
X195769139Y-68710047D01*
X195930047Y-68549139D01*
X196060568Y-68362734D01*
X196156739Y-68156496D01*
X196215635Y-67936692D01*
X196235468Y-67710000D01*
X196215635Y-67483308D01*
X196156739Y-67263504D01*
X196060568Y-67057266D01*
X195930047Y-66870861D01*
X195930045Y-66870858D01*
X195769141Y-66709954D01*
X195582734Y-66579432D01*
X195582732Y-66579431D01*
X195376497Y-66483261D01*
X195376488Y-66483258D01*
X195156697Y-66424366D01*
X195156693Y-66424365D01*
X195156692Y-66424365D01*
X195156691Y-66424364D01*
X195156686Y-66424364D01*
X194930002Y-66404532D01*
X194929998Y-66404532D01*
X194698117Y-66424819D01*
X194629617Y-66411052D01*
X194599629Y-66388972D01*
X194381546Y-66170888D01*
X194381545Y-66170887D01*
X194266807Y-66094222D01*
X194139332Y-66041421D01*
X194139322Y-66041418D01*
X194003996Y-66014500D01*
X194003994Y-66014500D01*
X194003993Y-66014500D01*
X193520311Y-66014500D01*
X193453272Y-65994815D01*
X193407517Y-65942011D01*
X193397573Y-65872853D01*
X193402378Y-65852187D01*
X193458477Y-65679534D01*
X193490500Y-65477352D01*
X193490500Y-65272648D01*
X193474088Y-65169026D01*
X193458477Y-65070465D01*
X193429127Y-64980137D01*
X193395220Y-64875781D01*
X193395218Y-64875778D01*
X193395218Y-64875776D01*
X193346417Y-64780000D01*
X193302287Y-64693390D01*
X193294556Y-64682749D01*
X193181971Y-64527786D01*
X193037213Y-64383028D01*
X192871614Y-64262715D01*
X192865006Y-64259348D01*
X192778917Y-64215483D01*
X192728123Y-64167511D01*
X192711328Y-64099690D01*
X192733865Y-64033555D01*
X192778917Y-63994516D01*
X192871610Y-63947287D01*
X192924860Y-63908599D01*
X193037213Y-63826971D01*
X193037215Y-63826968D01*
X193037219Y-63826966D01*
X193181966Y-63682219D01*
X193181968Y-63682215D01*
X193181971Y-63682213D01*
X193255588Y-63580886D01*
X193302287Y-63516610D01*
X193395220Y-63334219D01*
X193458477Y-63139534D01*
X193490500Y-62937352D01*
X193490500Y-62732648D01*
X193486267Y-62705925D01*
X193458477Y-62530465D01*
X193395218Y-62335776D01*
X193333583Y-62214812D01*
X193302287Y-62153390D01*
X193279997Y-62122710D01*
X193181971Y-61987786D01*
X193037213Y-61843028D01*
X192871613Y-61722715D01*
X192871612Y-61722714D01*
X192871610Y-61722713D01*
X192793271Y-61682797D01*
X192689223Y-61629781D01*
X192494534Y-61566522D01*
X192319995Y-61538878D01*
X192292352Y-61534500D01*
X191287648Y-61534500D01*
X191263329Y-61538351D01*
X191085465Y-61566522D01*
X190890776Y-61629781D01*
X190708386Y-61722715D01*
X190542786Y-61843028D01*
X190398028Y-61987786D01*
X190277715Y-62153386D01*
X190184781Y-62335776D01*
X190121522Y-62530465D01*
X190089500Y-62732648D01*
X190089500Y-62937351D01*
X190121522Y-63139534D01*
X190184781Y-63334223D01*
X190238204Y-63439069D01*
X190272356Y-63506097D01*
X190277715Y-63516613D01*
X190398028Y-63682213D01*
X190542786Y-63826971D01*
X190655140Y-63908599D01*
X190708390Y-63947287D01*
X190799840Y-63993883D01*
X190801080Y-63994515D01*
X190851876Y-64042490D01*
X190868671Y-64110311D01*
X190846134Y-64176446D01*
X190801080Y-64215485D01*
X190708386Y-64262715D01*
X190542786Y-64383028D01*
X190398028Y-64527786D01*
X190277715Y-64693386D01*
X190219576Y-64807490D01*
X190171601Y-64858286D01*
X190103780Y-64875081D01*
X190068137Y-64868237D01*
X190029252Y-64854631D01*
X189850004Y-64834435D01*
X189849996Y-64834435D01*
X189670750Y-64854630D01*
X189670745Y-64854631D01*
X189500476Y-64914211D01*
X189347737Y-65010184D01*
X189220184Y-65137737D01*
X189124211Y-65290476D01*
X189064631Y-65460745D01*
X189064630Y-65460750D01*
X189044435Y-65639996D01*
X189044435Y-65640003D01*
X189064630Y-65819249D01*
X189064631Y-65819254D01*
X189124211Y-65989523D01*
X189156821Y-66041421D01*
X189220184Y-66142262D01*
X189347738Y-66269816D01*
X189500478Y-66365789D01*
X189603984Y-66402007D01*
X189650710Y-66431367D01*
X190276475Y-67057132D01*
X190309960Y-67118455D01*
X190304976Y-67188147D01*
X190289117Y-67217692D01*
X190277713Y-67233390D01*
X190277712Y-67233391D01*
X190184781Y-67415776D01*
X190121522Y-67610465D01*
X190089500Y-67812648D01*
X190089500Y-68017351D01*
X190121522Y-68219534D01*
X190184781Y-68414223D01*
X190248691Y-68539653D01*
X190268082Y-68577709D01*
X190277715Y-68596613D01*
X190398028Y-68762213D01*
X190542786Y-68906971D01*
X190664824Y-68995635D01*
X190708390Y-69027287D01*
X190799840Y-69073883D01*
X190801080Y-69074515D01*
X190851876Y-69122490D01*
X190868671Y-69190311D01*
X190846134Y-69256446D01*
X190801080Y-69295485D01*
X190708386Y-69342715D01*
X190542786Y-69463028D01*
X190398028Y-69607786D01*
X190277715Y-69773386D01*
X190184781Y-69955776D01*
X190121522Y-70150465D01*
X190091843Y-70337853D01*
X190089500Y-70352648D01*
X190089500Y-70557352D01*
X190089920Y-70560003D01*
X190121522Y-70759534D01*
X190184781Y-70954223D01*
X190277715Y-71136613D01*
X190398028Y-71302213D01*
X190542786Y-71446971D01*
X190695058Y-71557601D01*
X190708390Y-71567287D01*
X190799840Y-71613883D01*
X190801080Y-71614515D01*
X190851876Y-71662490D01*
X190868671Y-71730311D01*
X190846134Y-71796446D01*
X190801080Y-71835485D01*
X190708386Y-71882715D01*
X190542786Y-72003028D01*
X190398028Y-72147786D01*
X190277715Y-72313386D01*
X190184781Y-72495776D01*
X190121522Y-72690465D01*
X190089500Y-72892648D01*
X190089500Y-73097351D01*
X190121522Y-73299534D01*
X190184781Y-73494223D01*
X190230784Y-73584507D01*
X190269493Y-73660478D01*
X190277715Y-73676613D01*
X190398028Y-73842213D01*
X190542786Y-73986971D01*
X190697749Y-74099556D01*
X190708390Y-74107287D01*
X190799840Y-74153883D01*
X190801080Y-74154515D01*
X190851876Y-74202490D01*
X190868671Y-74270311D01*
X190846134Y-74336446D01*
X190801080Y-74375485D01*
X190708386Y-74422715D01*
X190542786Y-74543028D01*
X190398028Y-74687786D01*
X190277715Y-74853386D01*
X190184781Y-75035776D01*
X190121522Y-75230465D01*
X190089500Y-75432648D01*
X190089500Y-75637351D01*
X190121522Y-75839534D01*
X190184781Y-76034223D01*
X190225997Y-76115112D01*
X190266718Y-76195032D01*
X190277715Y-76216613D01*
X190398028Y-76382213D01*
X190542786Y-76526971D01*
X190697749Y-76639556D01*
X190708390Y-76647287D01*
X190799840Y-76693883D01*
X190801080Y-76694515D01*
X190851876Y-76742490D01*
X190868671Y-76810311D01*
X190846134Y-76876446D01*
X190801080Y-76915485D01*
X190708386Y-76962715D01*
X190542786Y-77083028D01*
X190398028Y-77227786D01*
X190277715Y-77393386D01*
X190184781Y-77575776D01*
X190121522Y-77770465D01*
X190089500Y-77972648D01*
X190089500Y-78177351D01*
X190121522Y-78379534D01*
X190184781Y-78574223D01*
X190248691Y-78699653D01*
X190263001Y-78727737D01*
X190277715Y-78756613D01*
X190398028Y-78922213D01*
X190542786Y-79066971D01*
X190681287Y-79167596D01*
X190708390Y-79187287D01*
X190792211Y-79229996D01*
X190801080Y-79234515D01*
X190851876Y-79282490D01*
X190868671Y-79350311D01*
X190846134Y-79416446D01*
X190801080Y-79455485D01*
X190708386Y-79502715D01*
X190542786Y-79623028D01*
X190398028Y-79767786D01*
X190277715Y-79933386D01*
X190184781Y-80115776D01*
X190121522Y-80310465D01*
X190089500Y-80512648D01*
X190089500Y-80717351D01*
X190121522Y-80919534D01*
X190184781Y-81114223D01*
X190222435Y-81188121D01*
X190258132Y-81258181D01*
X190277715Y-81296613D01*
X190398028Y-81462213D01*
X190542786Y-81606971D01*
X190697749Y-81719556D01*
X190708390Y-81727287D01*
X190777959Y-81762734D01*
X190801629Y-81774795D01*
X190852425Y-81822770D01*
X190869220Y-81890591D01*
X190846682Y-81956726D01*
X190801629Y-81995765D01*
X190708650Y-82043140D01*
X190543105Y-82163417D01*
X190543104Y-82163417D01*
X190398417Y-82308104D01*
X190398417Y-82308105D01*
X190278140Y-82473650D01*
X190185244Y-82655970D01*
X190122009Y-82850586D01*
X190113391Y-82905000D01*
X191474314Y-82905000D01*
X191469920Y-82909394D01*
X191417259Y-83000606D01*
X191390000Y-83102339D01*
X191390000Y-83207661D01*
X191417259Y-83309394D01*
X191469920Y-83400606D01*
X191474314Y-83405000D01*
X190113391Y-83405000D01*
X190122009Y-83459413D01*
X190185244Y-83654029D01*
X190278140Y-83836349D01*
X190398417Y-84001894D01*
X190398417Y-84001895D01*
X190543104Y-84146582D01*
X190708652Y-84266861D01*
X190801628Y-84314234D01*
X190852425Y-84362208D01*
X190869220Y-84430029D01*
X190846683Y-84496164D01*
X190801630Y-84535203D01*
X190708388Y-84582713D01*
X190542786Y-84703028D01*
X190398028Y-84847786D01*
X190277715Y-85013386D01*
X190184781Y-85195776D01*
X190121522Y-85390465D01*
X190089500Y-85592648D01*
X190089500Y-85797351D01*
X190121522Y-85999534D01*
X190184781Y-86194223D01*
X190248691Y-86319653D01*
X190254416Y-86330888D01*
X190277715Y-86376613D01*
X190398028Y-86542213D01*
X190542786Y-86686971D01*
X190697749Y-86799556D01*
X190708390Y-86807287D01*
X190784559Y-86846097D01*
X190801080Y-86854515D01*
X190851876Y-86902490D01*
X190868671Y-86970311D01*
X190846134Y-87036446D01*
X190801080Y-87075485D01*
X190708386Y-87122715D01*
X190542786Y-87243028D01*
X190398028Y-87387786D01*
X190277715Y-87553386D01*
X190184781Y-87735776D01*
X190121522Y-87930465D01*
X190098137Y-88078116D01*
X190089500Y-88132648D01*
X190089500Y-88337352D01*
X190092361Y-88355417D01*
X190121522Y-88539534D01*
X190184781Y-88734223D01*
X190209294Y-88782331D01*
X190267999Y-88897546D01*
X190277715Y-88916613D01*
X190398028Y-89082213D01*
X190542786Y-89226971D01*
X190657130Y-89310045D01*
X190708390Y-89347287D01*
X190791183Y-89389472D01*
X190801080Y-89394515D01*
X190851876Y-89442490D01*
X190868671Y-89510311D01*
X190846134Y-89576446D01*
X190801080Y-89615485D01*
X190708386Y-89662715D01*
X190542786Y-89783028D01*
X190398028Y-89927786D01*
X190277715Y-90093386D01*
X190184781Y-90275776D01*
X190121522Y-90470465D01*
X190089500Y-90672648D01*
X190089500Y-90877351D01*
X190121522Y-91079534D01*
X190184781Y-91274223D01*
X190228742Y-91360500D01*
X190271985Y-91445369D01*
X190277715Y-91456613D01*
X190398028Y-91622213D01*
X190542786Y-91766971D01*
X190642777Y-91839617D01*
X190708390Y-91887287D01*
X190799840Y-91933883D01*
X190801080Y-91934515D01*
X190851876Y-91982490D01*
X190868671Y-92050311D01*
X190846134Y-92116446D01*
X190801080Y-92155485D01*
X190708386Y-92202715D01*
X190542786Y-92323028D01*
X190398028Y-92467786D01*
X190277715Y-92633386D01*
X190184781Y-92815776D01*
X190121522Y-93010465D01*
X190089500Y-93212648D01*
X190089500Y-93417351D01*
X190121522Y-93619534D01*
X190184781Y-93814223D01*
X190241306Y-93925158D01*
X190276654Y-93994532D01*
X190277715Y-93996613D01*
X190398028Y-94162213D01*
X190542786Y-94306971D01*
X190697749Y-94419556D01*
X190708390Y-94427287D01*
X190774277Y-94460858D01*
X190801080Y-94474515D01*
X190851876Y-94522490D01*
X190868671Y-94590311D01*
X190846134Y-94656446D01*
X190801080Y-94695485D01*
X190708386Y-94742715D01*
X190542786Y-94863028D01*
X190398028Y-95007786D01*
X190277715Y-95173386D01*
X190184781Y-95355776D01*
X190121522Y-95550465D01*
X190089500Y-95752648D01*
X190089500Y-95957351D01*
X190121522Y-96159534D01*
X190184781Y-96354223D01*
X190248691Y-96479653D01*
X190277712Y-96536609D01*
X190277715Y-96536613D01*
X190398028Y-96702213D01*
X190542786Y-96846971D01*
X190697749Y-96959556D01*
X190708390Y-96967287D01*
X190811537Y-97019843D01*
X190890776Y-97060218D01*
X190890778Y-97060218D01*
X190890781Y-97060220D01*
X190995137Y-97094127D01*
X191085465Y-97123477D01*
X191186557Y-97139488D01*
X191287648Y-97155500D01*
X191287649Y-97155500D01*
X192292351Y-97155500D01*
X192292352Y-97155500D01*
X192494534Y-97123477D01*
X192689219Y-97060220D01*
X192725431Y-97041768D01*
X192794100Y-97028872D01*
X192858840Y-97055147D01*
X192899098Y-97112253D01*
X192902092Y-97182059D01*
X192869408Y-97239934D01*
X190906162Y-99203181D01*
X190844839Y-99236666D01*
X190818481Y-99239500D01*
X182590520Y-99239500D01*
X182523481Y-99219815D01*
X182477726Y-99167011D01*
X182467782Y-99097853D01*
X182496807Y-99034297D01*
X182502839Y-99027819D01*
X184338838Y-97191819D01*
X184400161Y-97158334D01*
X184426519Y-97155500D01*
X184672351Y-97155500D01*
X184672352Y-97155500D01*
X184874534Y-97123477D01*
X185069219Y-97060220D01*
X185251610Y-96967287D01*
X185344590Y-96899732D01*
X185417213Y-96846971D01*
X185417215Y-96846968D01*
X185417219Y-96846966D01*
X185561966Y-96702219D01*
X185561968Y-96702215D01*
X185561971Y-96702213D01*
X185632259Y-96605468D01*
X185682287Y-96536610D01*
X185775220Y-96354219D01*
X185838477Y-96159534D01*
X185870500Y-95957352D01*
X185870500Y-95752648D01*
X185838477Y-95550466D01*
X185830752Y-95526692D01*
X185809127Y-95460137D01*
X185775220Y-95355781D01*
X185775218Y-95355778D01*
X185775218Y-95355776D01*
X185686321Y-95181308D01*
X185682287Y-95173390D01*
X185674556Y-95162749D01*
X185561971Y-95007786D01*
X185417213Y-94863028D01*
X185251614Y-94742715D01*
X185245006Y-94739348D01*
X185158917Y-94695483D01*
X185108123Y-94647511D01*
X185091328Y-94579690D01*
X185113865Y-94513555D01*
X185158917Y-94474516D01*
X185251610Y-94427287D01*
X185272770Y-94411913D01*
X185417213Y-94306971D01*
X185417215Y-94306968D01*
X185417219Y-94306966D01*
X185561966Y-94162219D01*
X185561968Y-94162215D01*
X185561971Y-94162213D01*
X185616723Y-94086852D01*
X185682287Y-93996610D01*
X185775220Y-93814219D01*
X185838477Y-93619534D01*
X185870500Y-93417352D01*
X185870500Y-93212648D01*
X185838477Y-93010466D01*
X185775220Y-92815781D01*
X185775218Y-92815778D01*
X185775218Y-92815776D01*
X185741503Y-92749607D01*
X185682287Y-92633390D01*
X185648211Y-92586488D01*
X185561971Y-92467786D01*
X185417213Y-92323028D01*
X185251614Y-92202715D01*
X185231882Y-92192661D01*
X185158917Y-92155483D01*
X185108123Y-92107511D01*
X185091328Y-92039690D01*
X185113865Y-91973555D01*
X185158917Y-91934516D01*
X185251610Y-91887287D01*
X185317223Y-91839617D01*
X185417213Y-91766971D01*
X185417215Y-91766968D01*
X185417219Y-91766966D01*
X185561966Y-91622219D01*
X185561968Y-91622215D01*
X185561971Y-91622213D01*
X185631425Y-91526616D01*
X185682287Y-91456610D01*
X185775220Y-91274219D01*
X185838477Y-91079534D01*
X185870500Y-90877352D01*
X185870500Y-90672648D01*
X185838477Y-90470466D01*
X185775220Y-90275781D01*
X185775218Y-90275777D01*
X185773356Y-90271282D01*
X185775450Y-90270414D01*
X185764292Y-90210955D01*
X185790577Y-90146218D01*
X185799981Y-90135674D01*
X186984114Y-88951543D01*
X187060775Y-88836811D01*
X187113580Y-88709328D01*
X187135145Y-88600916D01*
X187140500Y-88573996D01*
X187140500Y-78015493D01*
X187159508Y-77949519D01*
X187165787Y-77939525D01*
X187165786Y-77939525D01*
X187165789Y-77939522D01*
X187225368Y-77769255D01*
X187236292Y-77672302D01*
X187245565Y-77590003D01*
X187245565Y-77589996D01*
X187225369Y-77410750D01*
X187225368Y-77410745D01*
X187165788Y-77240476D01*
X187069815Y-77087737D01*
X186942262Y-76960184D01*
X186789523Y-76864211D01*
X186619254Y-76804631D01*
X186619249Y-76804630D01*
X186440004Y-76784435D01*
X186439996Y-76784435D01*
X186260750Y-76804630D01*
X186260745Y-76804631D01*
X186090476Y-76864211D01*
X185937737Y-76960184D01*
X185810184Y-77087737D01*
X185810182Y-77087740D01*
X185742814Y-77194954D01*
X185690479Y-77241245D01*
X185621425Y-77251892D01*
X185557577Y-77223516D01*
X185550140Y-77216662D01*
X185416895Y-77083417D01*
X185251349Y-76963140D01*
X185158370Y-76915765D01*
X185107574Y-76867790D01*
X185090779Y-76799969D01*
X185113316Y-76733835D01*
X185158370Y-76694795D01*
X185158920Y-76694515D01*
X185251610Y-76647287D01*
X185272770Y-76631913D01*
X185417213Y-76526971D01*
X185417215Y-76526968D01*
X185417219Y-76526966D01*
X185561966Y-76382219D01*
X185561968Y-76382215D01*
X185561971Y-76382213D01*
X185643856Y-76269506D01*
X185682287Y-76216610D01*
X185775220Y-76034219D01*
X185838477Y-75839534D01*
X185870500Y-75637352D01*
X185870500Y-75432648D01*
X185838477Y-75230466D01*
X185835568Y-75221514D01*
X185826736Y-75194332D01*
X185775220Y-75035781D01*
X185775216Y-75035773D01*
X185775215Y-75035770D01*
X185773353Y-75031272D01*
X185775467Y-75030396D01*
X185764282Y-74971054D01*
X185790515Y-74906296D01*
X185799980Y-74895674D01*
X186074110Y-74621544D01*
X186135430Y-74588062D01*
X186205122Y-74593046D01*
X186249469Y-74621547D01*
X186267738Y-74639816D01*
X186327739Y-74677517D01*
X186404701Y-74725876D01*
X186420478Y-74735789D01*
X186546646Y-74779937D01*
X186590745Y-74795368D01*
X186590750Y-74795369D01*
X186769996Y-74815565D01*
X186770000Y-74815565D01*
X186770004Y-74815565D01*
X186949249Y-74795369D01*
X186949252Y-74795368D01*
X186949255Y-74795368D01*
X187119522Y-74735789D01*
X187272262Y-74639816D01*
X187399816Y-74512262D01*
X187495789Y-74359522D01*
X187555368Y-74189255D01*
X187558869Y-74158183D01*
X187575565Y-74010003D01*
X187575565Y-74009996D01*
X187555369Y-73830750D01*
X187555366Y-73830737D01*
X187495790Y-73660479D01*
X187489506Y-73650478D01*
X187470500Y-73584507D01*
X187470500Y-71418569D01*
X187490185Y-71351530D01*
X187542989Y-71305775D01*
X187612147Y-71295831D01*
X187635455Y-71301528D01*
X187760737Y-71345366D01*
X187760743Y-71345367D01*
X187760745Y-71345368D01*
X187760746Y-71345368D01*
X187760750Y-71345369D01*
X187939996Y-71365565D01*
X187940000Y-71365565D01*
X187940004Y-71365565D01*
X188119249Y-71345369D01*
X188119252Y-71345368D01*
X188119255Y-71345368D01*
X188289522Y-71285789D01*
X188442262Y-71189816D01*
X188569816Y-71062262D01*
X188665789Y-70909522D01*
X188725368Y-70739255D01*
X188725369Y-70739249D01*
X188745565Y-70560003D01*
X188745565Y-70559996D01*
X188725369Y-70380750D01*
X188725366Y-70380737D01*
X188665790Y-70210479D01*
X188659506Y-70200478D01*
X188640500Y-70134507D01*
X188640500Y-57582135D01*
X189799500Y-57582135D01*
X189799500Y-59277870D01*
X189799501Y-59277876D01*
X189805908Y-59337483D01*
X189856202Y-59472328D01*
X189856206Y-59472335D01*
X189942452Y-59587544D01*
X189942455Y-59587547D01*
X190057664Y-59673793D01*
X190057671Y-59673797D01*
X190192517Y-59724091D01*
X190192516Y-59724091D01*
X190199444Y-59724835D01*
X190252127Y-59730500D01*
X191947872Y-59730499D01*
X192007483Y-59724091D01*
X192142331Y-59673796D01*
X192257546Y-59587546D01*
X192343796Y-59472331D01*
X192394091Y-59337483D01*
X192400500Y-59277873D01*
X192400499Y-57582128D01*
X192394091Y-57522517D01*
X192387751Y-57505519D01*
X192343797Y-57387671D01*
X192343793Y-57387664D01*
X192257547Y-57272455D01*
X192257544Y-57272452D01*
X192142335Y-57186206D01*
X192142328Y-57186202D01*
X192007482Y-57135908D01*
X192007483Y-57135908D01*
X191947883Y-57129501D01*
X191947881Y-57129500D01*
X191947873Y-57129500D01*
X191947864Y-57129500D01*
X190252129Y-57129500D01*
X190252123Y-57129501D01*
X190192516Y-57135908D01*
X190057671Y-57186202D01*
X190057664Y-57186206D01*
X189942455Y-57272452D01*
X189942452Y-57272455D01*
X189856206Y-57387664D01*
X189856202Y-57387671D01*
X189805908Y-57522517D01*
X189804030Y-57539991D01*
X189799501Y-57582123D01*
X189799500Y-57582135D01*
X188640500Y-57582135D01*
X188640500Y-55229998D01*
X189794532Y-55229998D01*
X189794532Y-55230001D01*
X189814364Y-55456686D01*
X189814366Y-55456697D01*
X189873258Y-55676488D01*
X189873261Y-55676497D01*
X189969431Y-55882732D01*
X189969432Y-55882734D01*
X190099954Y-56069141D01*
X190260858Y-56230045D01*
X190260861Y-56230047D01*
X190447266Y-56360568D01*
X190653504Y-56456739D01*
X190873308Y-56515635D01*
X191035230Y-56529801D01*
X191099998Y-56535468D01*
X191100000Y-56535468D01*
X191100002Y-56535468D01*
X191156673Y-56530509D01*
X191326692Y-56515635D01*
X191546496Y-56456739D01*
X191752734Y-56360568D01*
X191939139Y-56230047D01*
X192100047Y-56069139D01*
X192230568Y-55882734D01*
X192326739Y-55676496D01*
X192385635Y-55456692D01*
X192403532Y-55252127D01*
X192405468Y-55230001D01*
X192405468Y-55229998D01*
X192390391Y-55057669D01*
X192385635Y-55003308D01*
X192326739Y-54783504D01*
X192230568Y-54577266D01*
X192100047Y-54390861D01*
X192100045Y-54390858D01*
X191939141Y-54229954D01*
X191752734Y-54099432D01*
X191752732Y-54099431D01*
X191546497Y-54003261D01*
X191546488Y-54003258D01*
X191326697Y-53944366D01*
X191326693Y-53944365D01*
X191326692Y-53944365D01*
X191326691Y-53944364D01*
X191326686Y-53944364D01*
X191100002Y-53924532D01*
X191099998Y-53924532D01*
X190873313Y-53944364D01*
X190873302Y-53944366D01*
X190653511Y-54003258D01*
X190653502Y-54003261D01*
X190447267Y-54099431D01*
X190447265Y-54099432D01*
X190260858Y-54229954D01*
X190099954Y-54390858D01*
X189969432Y-54577265D01*
X189969431Y-54577267D01*
X189873261Y-54783502D01*
X189873258Y-54783511D01*
X189814366Y-55003302D01*
X189814364Y-55003313D01*
X189794532Y-55229998D01*
X188640500Y-55229998D01*
X188640500Y-55176518D01*
X188660185Y-55109479D01*
X188676814Y-55088842D01*
X193838006Y-49927649D01*
X193899327Y-49894166D01*
X193957778Y-49895557D01*
X193974592Y-49900063D01*
X194162918Y-49916539D01*
X194209999Y-49920659D01*
X194210000Y-49920659D01*
X194210001Y-49920659D01*
X194249234Y-49917226D01*
X194445408Y-49900063D01*
X194673663Y-49838903D01*
X194887830Y-49739035D01*
X195081401Y-49603495D01*
X195248495Y-49436401D01*
X195384035Y-49242830D01*
X195483903Y-49028663D01*
X195545063Y-48800408D01*
X195565659Y-48565000D01*
X195545063Y-48329592D01*
X195483903Y-48101337D01*
X195384035Y-47887171D01*
X195359526Y-47852169D01*
X195248496Y-47693600D01*
X195213493Y-47658597D01*
X195126567Y-47571671D01*
X195093084Y-47510351D01*
X195098068Y-47440659D01*
X195139939Y-47384725D01*
X195170915Y-47367810D01*
X195302331Y-47318796D01*
X195417546Y-47232546D01*
X195503796Y-47117331D01*
X195554091Y-46982483D01*
X195560500Y-46922873D01*
X195560499Y-45127128D01*
X195554091Y-45067517D01*
X195531765Y-45007659D01*
X195503797Y-44932671D01*
X195503793Y-44932664D01*
X195417547Y-44817455D01*
X195417544Y-44817452D01*
X195302335Y-44731206D01*
X195302328Y-44731202D01*
X195220498Y-44700682D01*
X195164564Y-44658811D01*
X195140147Y-44593347D01*
X195154998Y-44525074D01*
X195204403Y-44475668D01*
X195263831Y-44460500D01*
X197468364Y-44460500D01*
X197535403Y-44480185D01*
G37*
G04 #@! TD.AperFunction*
G04 #@! TA.AperFunction,Conductor*
G36*
X193623912Y-75700470D02*
G01*
X193682146Y-75739079D01*
X193700979Y-75771635D01*
X193701445Y-75771418D01*
X193799865Y-75982482D01*
X193930342Y-76168820D01*
X194091179Y-76329657D01*
X194277517Y-76460134D01*
X194483673Y-76556265D01*
X194483682Y-76556269D01*
X194581647Y-76582518D01*
X194641307Y-76618882D01*
X194671837Y-76681729D01*
X194663543Y-76751105D01*
X194637235Y-76789974D01*
X194239030Y-77188181D01*
X194177707Y-77221666D01*
X194151349Y-77224500D01*
X193230047Y-77224500D01*
X193163008Y-77204815D01*
X193142366Y-77188181D01*
X193037213Y-77083028D01*
X192871614Y-76962715D01*
X192865006Y-76959348D01*
X192778917Y-76915483D01*
X192728123Y-76867511D01*
X192711328Y-76799690D01*
X192733865Y-76733555D01*
X192778917Y-76694516D01*
X192871610Y-76647287D01*
X192892770Y-76631913D01*
X193037213Y-76526971D01*
X193037215Y-76526968D01*
X193037219Y-76526966D01*
X193181966Y-76382219D01*
X193181968Y-76382215D01*
X193181971Y-76382213D01*
X193263856Y-76269506D01*
X193302287Y-76216610D01*
X193395220Y-76034219D01*
X193458477Y-75839534D01*
X193464812Y-75799536D01*
X193494739Y-75736406D01*
X193554050Y-75699474D01*
X193623912Y-75700470D01*
G37*
G04 #@! TD.AperFunction*
G04 #@! TA.AperFunction,Conductor*
G36*
X193223208Y-44480185D02*
G01*
X193268963Y-44532989D01*
X193278907Y-44602147D01*
X193249882Y-44665703D01*
X193199502Y-44700682D01*
X193117671Y-44731202D01*
X193117664Y-44731206D01*
X193002455Y-44817452D01*
X193002452Y-44817455D01*
X192916206Y-44932664D01*
X192916202Y-44932671D01*
X192865908Y-45067517D01*
X192859718Y-45125100D01*
X192859501Y-45127123D01*
X192859500Y-45127135D01*
X192859500Y-45222041D01*
X192839815Y-45289080D01*
X192787011Y-45334835D01*
X192759692Y-45343658D01*
X192720676Y-45351418D01*
X192720668Y-45351421D01*
X192593190Y-45404224D01*
X192478454Y-45480887D01*
X191555887Y-46403454D01*
X191479222Y-46518192D01*
X191426421Y-46645667D01*
X191426418Y-46645679D01*
X191402259Y-46767135D01*
X191399500Y-46781005D01*
X191399500Y-48498481D01*
X191379815Y-48565520D01*
X191363181Y-48586162D01*
X187542181Y-52407162D01*
X187480858Y-52440647D01*
X187411166Y-52435663D01*
X187355233Y-52393791D01*
X187330816Y-52328327D01*
X187330500Y-52319481D01*
X187330500Y-47002711D01*
X187350185Y-46935672D01*
X187383377Y-46901136D01*
X187501401Y-46818495D01*
X187668495Y-46651401D01*
X187798730Y-46465405D01*
X187853307Y-46421781D01*
X187922805Y-46414587D01*
X187985160Y-46446110D01*
X188001879Y-46465405D01*
X188131890Y-46651078D01*
X188298917Y-46818105D01*
X188492421Y-46953600D01*
X188706507Y-47053429D01*
X188706516Y-47053433D01*
X188920000Y-47110634D01*
X188920000Y-46213012D01*
X188977007Y-46245925D01*
X189104174Y-46280000D01*
X189235826Y-46280000D01*
X189362993Y-46245925D01*
X189420000Y-46213012D01*
X189420000Y-47110633D01*
X189633483Y-47053433D01*
X189633492Y-47053429D01*
X189847578Y-46953600D01*
X190041082Y-46818105D01*
X190208105Y-46651082D01*
X190343600Y-46457578D01*
X190443429Y-46243492D01*
X190443432Y-46243486D01*
X190500636Y-46030000D01*
X189603012Y-46030000D01*
X189635925Y-45972993D01*
X189670000Y-45845826D01*
X189670000Y-45714174D01*
X189635925Y-45587007D01*
X189603012Y-45530000D01*
X190500636Y-45530000D01*
X190500635Y-45529999D01*
X190443432Y-45316513D01*
X190443429Y-45316507D01*
X190343600Y-45102422D01*
X190343599Y-45102420D01*
X190208113Y-44908926D01*
X190208108Y-44908920D01*
X190041078Y-44741890D01*
X189961365Y-44686074D01*
X189917740Y-44631497D01*
X189910548Y-44561999D01*
X189942070Y-44499644D01*
X190002300Y-44464231D01*
X190032489Y-44460500D01*
X193156169Y-44460500D01*
X193223208Y-44480185D01*
G37*
G04 #@! TD.AperFunction*
G04 #@! TA.AperFunction,Conductor*
G36*
X164159075Y-45797007D02*
G01*
X164125000Y-45924174D01*
X164125000Y-46055826D01*
X164159075Y-46182993D01*
X164191988Y-46240000D01*
X162518012Y-46240000D01*
X162550925Y-46182993D01*
X162585000Y-46055826D01*
X162585000Y-45924174D01*
X162550925Y-45797007D01*
X162518012Y-45740000D01*
X164191988Y-45740000D01*
X164159075Y-45797007D01*
G37*
G04 #@! TD.AperFunction*
G04 #@! TA.AperFunction,Conductor*
G36*
X166699075Y-45797007D02*
G01*
X166665000Y-45924174D01*
X166665000Y-46055826D01*
X166699075Y-46182993D01*
X166731988Y-46240000D01*
X165058012Y-46240000D01*
X165090925Y-46182993D01*
X165125000Y-46055826D01*
X165125000Y-45924174D01*
X165090925Y-45797007D01*
X165058012Y-45740000D01*
X166731988Y-45740000D01*
X166699075Y-45797007D01*
G37*
G04 #@! TD.AperFunction*
G04 #@! TD*
M02*
