G04 #@! TF.GenerationSoftware,KiCad,Pcbnew,8.0.4*
G04 #@! TF.CreationDate,2024-12-03T14:34:08+01:00*
G04 #@! TF.ProjectId,V2,56322e6b-6963-4616-945f-706362585858,rev?*
G04 #@! TF.SameCoordinates,Original*
G04 #@! TF.FileFunction,Legend,Top*
G04 #@! TF.FilePolarity,Positive*
%FSLAX46Y46*%
G04 Gerber Fmt 4.6, Leading zero omitted, Abs format (unit mm)*
G04 Created by KiCad (PCBNEW 8.0.4) date 2024-12-03 14:34:08*
%MOMM*%
%LPD*%
G01*
G04 APERTURE LIST*
G04 Aperture macros list*
%AMRoundRect*
0 Rectangle with rounded corners*
0 $1 Rounding radius*
0 $2 $3 $4 $5 $6 $7 $8 $9 X,Y pos of 4 corners*
0 Add a 4 corners polygon primitive as box body*
4,1,4,$2,$3,$4,$5,$6,$7,$8,$9,$2,$3,0*
0 Add four circle primitives for the rounded corners*
1,1,$1+$1,$2,$3*
1,1,$1+$1,$4,$5*
1,1,$1+$1,$6,$7*
1,1,$1+$1,$8,$9*
0 Add four rect primitives between the rounded corners*
20,1,$1+$1,$2,$3,$4,$5,0*
20,1,$1+$1,$4,$5,$6,$7,0*
20,1,$1+$1,$6,$7,$8,$9,0*
20,1,$1+$1,$8,$9,$2,$3,0*%
G04 Aperture macros list end*
%ADD10C,0.150000*%
%ADD11C,0.000000*%
%ADD12C,0.120000*%
%ADD13RoundRect,0.250000X0.262500X0.450000X-0.262500X0.450000X-0.262500X-0.450000X0.262500X-0.450000X0*%
%ADD14R,1.600000X1.600000*%
%ADD15C,1.600000*%
%ADD16RoundRect,0.243750X0.243750X0.456250X-0.243750X0.456250X-0.243750X-0.456250X0.243750X-0.456250X0*%
%ADD17R,1.800000X1.800000*%
%ADD18C,1.800000*%
%ADD19R,1.700000X1.700000*%
%ADD20O,1.700000X1.700000*%
%ADD21C,1.500000*%
%ADD22RoundRect,0.250000X-0.262500X-0.450000X0.262500X-0.450000X0.262500X0.450000X-0.262500X0.450000X0*%
%ADD23O,1.600000X1.600000*%
%ADD24R,2.400000X1.600000*%
%ADD25O,2.400000X1.600000*%
%ADD26C,0.800000*%
%ADD27R,1.700000X0.900000*%
G04 APERTURE END LIST*
D10*
X189573866Y-58810951D02*
X189573866Y-58049047D01*
X189954819Y-58429999D02*
X189192914Y-58429999D01*
D11*
G04 #@! TO.C,kibuzzard-674B20BC*
G36*
X166289224Y-54574155D02*
G01*
X166003836Y-54574155D01*
X165799726Y-54574155D01*
X165328493Y-54574155D01*
X164595616Y-54574155D01*
X164116164Y-54574155D01*
X163830776Y-54574155D01*
X163462283Y-54574155D01*
X163496530Y-54460000D01*
X164116164Y-54460000D01*
X164595616Y-54460000D01*
X164746301Y-54460000D01*
X164907945Y-54460000D01*
X165032603Y-54060000D01*
X165035342Y-54060000D01*
X165161370Y-54460000D01*
X165328493Y-54460000D01*
X165133973Y-53950411D01*
X165279147Y-53579178D01*
X165442192Y-53579178D01*
X165646301Y-53579178D01*
X165646301Y-54460000D01*
X165799726Y-54460000D01*
X165799726Y-53579178D01*
X166003836Y-53579178D01*
X166003836Y-53460000D01*
X165442192Y-53460000D01*
X165442192Y-53579178D01*
X165279147Y-53579178D01*
X165325753Y-53460000D01*
X165166849Y-53460000D01*
X165040822Y-53843562D01*
X165038082Y-53843562D01*
X164913425Y-53460000D01*
X164750411Y-53460000D01*
X164942192Y-53950411D01*
X164746301Y-54460000D01*
X164595616Y-54460000D01*
X164595616Y-54340822D01*
X164269589Y-54340822D01*
X164269589Y-53980548D01*
X164581918Y-53980548D01*
X164581918Y-53864110D01*
X164269589Y-53864110D01*
X164269589Y-53579178D01*
X164595616Y-53579178D01*
X164595616Y-53460000D01*
X164116164Y-53460000D01*
X164116164Y-54460000D01*
X163496530Y-54460000D01*
X163830776Y-53345845D01*
X164116164Y-53345845D01*
X166003836Y-53345845D01*
X166289224Y-53345845D01*
X166657717Y-53345845D01*
X166289224Y-54574155D01*
G37*
D12*
G04 #@! TO.C,R5*
X162447064Y-63375000D02*
X161992936Y-63375000D01*
X162447064Y-64845000D02*
X161992936Y-64845000D01*
G04 #@! TO.C,C4*
X167429000Y-88024000D02*
X167429000Y-87456000D01*
X167469000Y-88258000D02*
X167469000Y-87222000D01*
X167509000Y-88417000D02*
X167509000Y-87063000D01*
X167549000Y-88545000D02*
X167549000Y-86935000D01*
X167589000Y-88655000D02*
X167589000Y-86825000D01*
X167629000Y-88751000D02*
X167629000Y-86729000D01*
X167669000Y-88838000D02*
X167669000Y-86642000D01*
X167709000Y-88918000D02*
X167709000Y-86562000D01*
X167749000Y-86700000D02*
X167749000Y-86489000D01*
X167749000Y-88991000D02*
X167749000Y-88780000D01*
X167789000Y-86700000D02*
X167789000Y-86421000D01*
X167789000Y-89059000D02*
X167789000Y-88780000D01*
X167829000Y-86700000D02*
X167829000Y-86357000D01*
X167829000Y-89123000D02*
X167829000Y-88780000D01*
X167869000Y-86700000D02*
X167869000Y-86297000D01*
X167869000Y-89183000D02*
X167869000Y-88780000D01*
X167909000Y-86700000D02*
X167909000Y-86240000D01*
X167909000Y-89240000D02*
X167909000Y-88780000D01*
X167949000Y-86700000D02*
X167949000Y-86186000D01*
X167949000Y-89294000D02*
X167949000Y-88780000D01*
X167989000Y-86700000D02*
X167989000Y-86135000D01*
X167989000Y-89345000D02*
X167989000Y-88780000D01*
X168029000Y-86700000D02*
X168029000Y-86087000D01*
X168029000Y-89393000D02*
X168029000Y-88780000D01*
X168069000Y-86700000D02*
X168069000Y-86041000D01*
X168069000Y-89439000D02*
X168069000Y-88780000D01*
X168109000Y-86700000D02*
X168109000Y-85997000D01*
X168109000Y-89483000D02*
X168109000Y-88780000D01*
X168149000Y-86700000D02*
X168149000Y-85955000D01*
X168149000Y-89525000D02*
X168149000Y-88780000D01*
X168189000Y-86700000D02*
X168189000Y-85914000D01*
X168189000Y-89566000D02*
X168189000Y-88780000D01*
X168229000Y-86700000D02*
X168229000Y-85876000D01*
X168229000Y-89604000D02*
X168229000Y-88780000D01*
X168269000Y-86700000D02*
X168269000Y-85839000D01*
X168269000Y-89641000D02*
X168269000Y-88780000D01*
X168309000Y-86700000D02*
X168309000Y-85803000D01*
X168309000Y-89677000D02*
X168309000Y-88780000D01*
X168349000Y-86700000D02*
X168349000Y-85769000D01*
X168349000Y-89711000D02*
X168349000Y-88780000D01*
X168389000Y-86700000D02*
X168389000Y-85736000D01*
X168389000Y-89744000D02*
X168389000Y-88780000D01*
X168429000Y-86700000D02*
X168429000Y-85705000D01*
X168429000Y-89775000D02*
X168429000Y-88780000D01*
X168469000Y-86700000D02*
X168469000Y-85675000D01*
X168469000Y-89805000D02*
X168469000Y-88780000D01*
X168509000Y-86700000D02*
X168509000Y-85645000D01*
X168509000Y-89835000D02*
X168509000Y-88780000D01*
X168549000Y-86700000D02*
X168549000Y-85618000D01*
X168549000Y-89862000D02*
X168549000Y-88780000D01*
X168589000Y-86700000D02*
X168589000Y-85591000D01*
X168589000Y-89889000D02*
X168589000Y-88780000D01*
X168629000Y-86700000D02*
X168629000Y-85565000D01*
X168629000Y-89915000D02*
X168629000Y-88780000D01*
X168669000Y-86700000D02*
X168669000Y-85540000D01*
X168669000Y-89940000D02*
X168669000Y-88780000D01*
X168709000Y-86700000D02*
X168709000Y-85516000D01*
X168709000Y-89964000D02*
X168709000Y-88780000D01*
X168749000Y-86700000D02*
X168749000Y-85493000D01*
X168749000Y-89987000D02*
X168749000Y-88780000D01*
X168789000Y-86700000D02*
X168789000Y-85472000D01*
X168789000Y-90008000D02*
X168789000Y-88780000D01*
X168829000Y-86700000D02*
X168829000Y-85450000D01*
X168829000Y-90030000D02*
X168829000Y-88780000D01*
X168869000Y-86700000D02*
X168869000Y-85430000D01*
X168869000Y-90050000D02*
X168869000Y-88780000D01*
X168909000Y-86700000D02*
X168909000Y-85411000D01*
X168909000Y-90069000D02*
X168909000Y-88780000D01*
X168949000Y-86700000D02*
X168949000Y-85392000D01*
X168949000Y-90088000D02*
X168949000Y-88780000D01*
X168989000Y-86700000D02*
X168989000Y-85375000D01*
X168989000Y-90105000D02*
X168989000Y-88780000D01*
X169029000Y-86700000D02*
X169029000Y-85358000D01*
X169029000Y-90122000D02*
X169029000Y-88780000D01*
X169069000Y-86700000D02*
X169069000Y-85342000D01*
X169069000Y-90138000D02*
X169069000Y-88780000D01*
X169109000Y-86700000D02*
X169109000Y-85326000D01*
X169109000Y-90154000D02*
X169109000Y-88780000D01*
X169149000Y-86700000D02*
X169149000Y-85312000D01*
X169149000Y-90168000D02*
X169149000Y-88780000D01*
X169189000Y-86700000D02*
X169189000Y-85298000D01*
X169189000Y-90182000D02*
X169189000Y-88780000D01*
X169229000Y-86700000D02*
X169229000Y-85285000D01*
X169229000Y-90195000D02*
X169229000Y-88780000D01*
X169269000Y-86700000D02*
X169269000Y-85272000D01*
X169269000Y-90208000D02*
X169269000Y-88780000D01*
X169309000Y-86700000D02*
X169309000Y-85260000D01*
X169309000Y-90220000D02*
X169309000Y-88780000D01*
X169350000Y-86700000D02*
X169350000Y-85249000D01*
X169350000Y-90231000D02*
X169350000Y-88780000D01*
X169390000Y-86700000D02*
X169390000Y-85239000D01*
X169390000Y-90241000D02*
X169390000Y-88780000D01*
X169430000Y-86700000D02*
X169430000Y-85229000D01*
X169430000Y-90251000D02*
X169430000Y-88780000D01*
X169470000Y-86700000D02*
X169470000Y-85220000D01*
X169470000Y-90260000D02*
X169470000Y-88780000D01*
X169510000Y-86700000D02*
X169510000Y-85212000D01*
X169510000Y-90268000D02*
X169510000Y-88780000D01*
X169550000Y-86700000D02*
X169550000Y-85204000D01*
X169550000Y-90276000D02*
X169550000Y-88780000D01*
X169590000Y-86700000D02*
X169590000Y-85197000D01*
X169590000Y-90283000D02*
X169590000Y-88780000D01*
X169630000Y-86700000D02*
X169630000Y-85190000D01*
X169630000Y-90290000D02*
X169630000Y-88780000D01*
X169670000Y-86700000D02*
X169670000Y-85184000D01*
X169670000Y-90296000D02*
X169670000Y-88780000D01*
X169710000Y-86700000D02*
X169710000Y-85179000D01*
X169710000Y-90301000D02*
X169710000Y-88780000D01*
X169750000Y-86700000D02*
X169750000Y-85175000D01*
X169750000Y-90305000D02*
X169750000Y-88780000D01*
X169790000Y-86700000D02*
X169790000Y-85171000D01*
X169790000Y-90309000D02*
X169790000Y-88780000D01*
X169830000Y-90313000D02*
X169830000Y-85167000D01*
X169870000Y-90316000D02*
X169870000Y-85164000D01*
X169910000Y-90318000D02*
X169910000Y-85162000D01*
X169950000Y-90319000D02*
X169950000Y-85161000D01*
X169990000Y-90320000D02*
X169990000Y-85160000D01*
X170030000Y-90320000D02*
X170030000Y-85160000D01*
X172584775Y-89465000D02*
X172584775Y-88965000D01*
X172834775Y-89215000D02*
X172334775Y-89215000D01*
X172650000Y-87740000D02*
G75*
G02*
X167410000Y-87740000I-2620000J0D01*
G01*
X167410000Y-87740000D02*
G75*
G02*
X172650000Y-87740000I2620000J0D01*
G01*
G04 #@! TO.C,D5*
X164747500Y-59005000D02*
X167432500Y-59005000D01*
X167432500Y-57085000D02*
X164747500Y-57085000D01*
X167432500Y-59005000D02*
X167432500Y-57085000D01*
G04 #@! TO.C,C3*
X167305225Y-79635000D02*
X167805225Y-79635000D01*
X167555225Y-79385000D02*
X167555225Y-79885000D01*
X170110000Y-78530000D02*
X170110000Y-83690000D01*
X170150000Y-78530000D02*
X170150000Y-83690000D01*
X170190000Y-78531000D02*
X170190000Y-83689000D01*
X170230000Y-78532000D02*
X170230000Y-83688000D01*
X170270000Y-78534000D02*
X170270000Y-83686000D01*
X170310000Y-78537000D02*
X170310000Y-83683000D01*
X170350000Y-78541000D02*
X170350000Y-80070000D01*
X170350000Y-82150000D02*
X170350000Y-83679000D01*
X170390000Y-78545000D02*
X170390000Y-80070000D01*
X170390000Y-82150000D02*
X170390000Y-83675000D01*
X170430000Y-78549000D02*
X170430000Y-80070000D01*
X170430000Y-82150000D02*
X170430000Y-83671000D01*
X170470000Y-78554000D02*
X170470000Y-80070000D01*
X170470000Y-82150000D02*
X170470000Y-83666000D01*
X170510000Y-78560000D02*
X170510000Y-80070000D01*
X170510000Y-82150000D02*
X170510000Y-83660000D01*
X170550000Y-78567000D02*
X170550000Y-80070000D01*
X170550000Y-82150000D02*
X170550000Y-83653000D01*
X170590000Y-78574000D02*
X170590000Y-80070000D01*
X170590000Y-82150000D02*
X170590000Y-83646000D01*
X170630000Y-78582000D02*
X170630000Y-80070000D01*
X170630000Y-82150000D02*
X170630000Y-83638000D01*
X170670000Y-78590000D02*
X170670000Y-80070000D01*
X170670000Y-82150000D02*
X170670000Y-83630000D01*
X170710000Y-78599000D02*
X170710000Y-80070000D01*
X170710000Y-82150000D02*
X170710000Y-83621000D01*
X170750000Y-78609000D02*
X170750000Y-80070000D01*
X170750000Y-82150000D02*
X170750000Y-83611000D01*
X170790000Y-78619000D02*
X170790000Y-80070000D01*
X170790000Y-82150000D02*
X170790000Y-83601000D01*
X170831000Y-78630000D02*
X170831000Y-80070000D01*
X170831000Y-82150000D02*
X170831000Y-83590000D01*
X170871000Y-78642000D02*
X170871000Y-80070000D01*
X170871000Y-82150000D02*
X170871000Y-83578000D01*
X170911000Y-78655000D02*
X170911000Y-80070000D01*
X170911000Y-82150000D02*
X170911000Y-83565000D01*
X170951000Y-78668000D02*
X170951000Y-80070000D01*
X170951000Y-82150000D02*
X170951000Y-83552000D01*
X170991000Y-78682000D02*
X170991000Y-80070000D01*
X170991000Y-82150000D02*
X170991000Y-83538000D01*
X171031000Y-78696000D02*
X171031000Y-80070000D01*
X171031000Y-82150000D02*
X171031000Y-83524000D01*
X171071000Y-78712000D02*
X171071000Y-80070000D01*
X171071000Y-82150000D02*
X171071000Y-83508000D01*
X171111000Y-78728000D02*
X171111000Y-80070000D01*
X171111000Y-82150000D02*
X171111000Y-83492000D01*
X171151000Y-78745000D02*
X171151000Y-80070000D01*
X171151000Y-82150000D02*
X171151000Y-83475000D01*
X171191000Y-78762000D02*
X171191000Y-80070000D01*
X171191000Y-82150000D02*
X171191000Y-83458000D01*
X171231000Y-78781000D02*
X171231000Y-80070000D01*
X171231000Y-82150000D02*
X171231000Y-83439000D01*
X171271000Y-78800000D02*
X171271000Y-80070000D01*
X171271000Y-82150000D02*
X171271000Y-83420000D01*
X171311000Y-78820000D02*
X171311000Y-80070000D01*
X171311000Y-82150000D02*
X171311000Y-83400000D01*
X171351000Y-78842000D02*
X171351000Y-80070000D01*
X171351000Y-82150000D02*
X171351000Y-83378000D01*
X171391000Y-78863000D02*
X171391000Y-80070000D01*
X171391000Y-82150000D02*
X171391000Y-83357000D01*
X171431000Y-78886000D02*
X171431000Y-80070000D01*
X171431000Y-82150000D02*
X171431000Y-83334000D01*
X171471000Y-78910000D02*
X171471000Y-80070000D01*
X171471000Y-82150000D02*
X171471000Y-83310000D01*
X171511000Y-78935000D02*
X171511000Y-80070000D01*
X171511000Y-82150000D02*
X171511000Y-83285000D01*
X171551000Y-78961000D02*
X171551000Y-80070000D01*
X171551000Y-82150000D02*
X171551000Y-83259000D01*
X171591000Y-78988000D02*
X171591000Y-80070000D01*
X171591000Y-82150000D02*
X171591000Y-83232000D01*
X171631000Y-79015000D02*
X171631000Y-80070000D01*
X171631000Y-82150000D02*
X171631000Y-83205000D01*
X171671000Y-79045000D02*
X171671000Y-80070000D01*
X171671000Y-82150000D02*
X171671000Y-83175000D01*
X171711000Y-79075000D02*
X171711000Y-80070000D01*
X171711000Y-82150000D02*
X171711000Y-83145000D01*
X171751000Y-79106000D02*
X171751000Y-80070000D01*
X171751000Y-82150000D02*
X171751000Y-83114000D01*
X171791000Y-79139000D02*
X171791000Y-80070000D01*
X171791000Y-82150000D02*
X171791000Y-83081000D01*
X171831000Y-79173000D02*
X171831000Y-80070000D01*
X171831000Y-82150000D02*
X171831000Y-83047000D01*
X171871000Y-79209000D02*
X171871000Y-80070000D01*
X171871000Y-82150000D02*
X171871000Y-83011000D01*
X171911000Y-79246000D02*
X171911000Y-80070000D01*
X171911000Y-82150000D02*
X171911000Y-82974000D01*
X171951000Y-79284000D02*
X171951000Y-80070000D01*
X171951000Y-82150000D02*
X171951000Y-82936000D01*
X171991000Y-79325000D02*
X171991000Y-80070000D01*
X171991000Y-82150000D02*
X171991000Y-82895000D01*
X172031000Y-79367000D02*
X172031000Y-80070000D01*
X172031000Y-82150000D02*
X172031000Y-82853000D01*
X172071000Y-79411000D02*
X172071000Y-80070000D01*
X172071000Y-82150000D02*
X172071000Y-82809000D01*
X172111000Y-79457000D02*
X172111000Y-80070000D01*
X172111000Y-82150000D02*
X172111000Y-82763000D01*
X172151000Y-79505000D02*
X172151000Y-80070000D01*
X172151000Y-82150000D02*
X172151000Y-82715000D01*
X172191000Y-79556000D02*
X172191000Y-80070000D01*
X172191000Y-82150000D02*
X172191000Y-82664000D01*
X172231000Y-79610000D02*
X172231000Y-80070000D01*
X172231000Y-82150000D02*
X172231000Y-82610000D01*
X172271000Y-79667000D02*
X172271000Y-80070000D01*
X172271000Y-82150000D02*
X172271000Y-82553000D01*
X172311000Y-79727000D02*
X172311000Y-80070000D01*
X172311000Y-82150000D02*
X172311000Y-82493000D01*
X172351000Y-79791000D02*
X172351000Y-80070000D01*
X172351000Y-82150000D02*
X172351000Y-82429000D01*
X172391000Y-79859000D02*
X172391000Y-80070000D01*
X172391000Y-82150000D02*
X172391000Y-82361000D01*
X172431000Y-79932000D02*
X172431000Y-82288000D01*
X172471000Y-80012000D02*
X172471000Y-82208000D01*
X172511000Y-80099000D02*
X172511000Y-82121000D01*
X172551000Y-80195000D02*
X172551000Y-82025000D01*
X172591000Y-80305000D02*
X172591000Y-81915000D01*
X172631000Y-80433000D02*
X172631000Y-81787000D01*
X172671000Y-80592000D02*
X172671000Y-81628000D01*
X172711000Y-80826000D02*
X172711000Y-81394000D01*
X172730000Y-81110000D02*
G75*
G02*
X167490000Y-81110000I-2620000J0D01*
G01*
X167490000Y-81110000D02*
G75*
G02*
X172730000Y-81110000I2620000J0D01*
G01*
G04 #@! TO.C,D3*
X164747500Y-65085000D02*
X167432500Y-65085000D01*
X167432500Y-63165000D02*
X164747500Y-63165000D01*
X167432500Y-65085000D02*
X167432500Y-63165000D01*
G04 #@! TO.C,D1*
X165605000Y-93405000D02*
X165605000Y-96495000D01*
X165605000Y-93405170D02*
G75*
G02*
X171155000Y-94950462I2560000J-1544830D01*
G01*
X171155000Y-94949538D02*
G75*
G02*
X165605000Y-96494830I-2990000J-462D01*
G01*
X170665000Y-94950000D02*
G75*
G02*
X165665000Y-94950000I-2500000J0D01*
G01*
X165665000Y-94950000D02*
G75*
G02*
X170665000Y-94950000I2500000J0D01*
G01*
G04 #@! TO.C,J6*
X160755000Y-47320000D02*
X160755000Y-45990000D01*
X162085000Y-47320000D02*
X160755000Y-47320000D01*
X163355000Y-44660000D02*
X168495000Y-44660000D01*
X163355000Y-47320000D02*
X163355000Y-44660000D01*
X163355000Y-47320000D02*
X168495000Y-47320000D01*
X168495000Y-47320000D02*
X168495000Y-44660000D01*
D11*
G04 #@! TO.C,kibuzzard-674B218C*
G36*
X191569178Y-48216484D02*
G01*
X191624658Y-48249361D01*
X191655479Y-48308265D01*
X191665753Y-48397306D01*
X191665753Y-48450731D01*
X191316438Y-48450731D01*
X191305479Y-48371279D01*
X191316267Y-48298333D01*
X191348630Y-48246621D01*
X191404281Y-48215799D01*
X191484932Y-48205525D01*
X191569178Y-48216484D01*
G37*
G36*
X192327854Y-48028813D02*
G01*
X192327854Y-49045251D01*
X192327854Y-49284977D01*
X192327854Y-49570365D01*
X192324831Y-49631906D01*
X192315790Y-49692854D01*
X192300819Y-49752622D01*
X192280061Y-49810635D01*
X192253718Y-49866334D01*
X192222041Y-49919182D01*
X192185338Y-49968672D01*
X192143960Y-50014325D01*
X192098306Y-50055703D01*
X192048817Y-50092407D01*
X191995968Y-50124083D01*
X191940269Y-50150427D01*
X191882256Y-50171184D01*
X191822488Y-50186155D01*
X191761540Y-50195196D01*
X191700000Y-50198219D01*
X191638460Y-50195196D01*
X191577512Y-50186155D01*
X191517744Y-50171184D01*
X191459731Y-50150427D01*
X191404032Y-50124083D01*
X191351183Y-50092407D01*
X191301694Y-50055703D01*
X191256040Y-50014325D01*
X191214662Y-49968672D01*
X191177959Y-49919182D01*
X191146282Y-49866334D01*
X191119939Y-49810635D01*
X191099181Y-49752622D01*
X191084210Y-49692854D01*
X191075169Y-49631906D01*
X191072146Y-49570365D01*
X191072146Y-49284977D01*
X191072146Y-49008265D01*
X191186301Y-49008265D01*
X191193912Y-49090076D01*
X191216743Y-49158341D01*
X191254795Y-49213059D01*
X191336986Y-49266998D01*
X191446575Y-49284977D01*
X191543836Y-49270765D01*
X191624658Y-49228128D01*
X191672146Y-49181020D01*
X191717808Y-49115495D01*
X191761644Y-49031553D01*
X191796918Y-48972820D01*
X191836986Y-48933607D01*
X191885616Y-48911518D01*
X191946575Y-48904155D01*
X192010445Y-48913744D01*
X192056849Y-48942511D01*
X192085103Y-48988402D01*
X192094521Y-49049361D01*
X192084627Y-49129574D01*
X192054947Y-49205830D01*
X192005479Y-49278128D01*
X192147945Y-49278128D01*
X192184475Y-49207808D01*
X192206393Y-49130183D01*
X192213699Y-49045251D01*
X192202740Y-48939224D01*
X192169863Y-48856758D01*
X192115068Y-48797854D01*
X192038356Y-48762511D01*
X191939726Y-48750731D01*
X191833904Y-48765457D01*
X191749315Y-48809635D01*
X191700457Y-48859711D01*
X191652511Y-48931400D01*
X191605479Y-49024703D01*
X191564536Y-49085586D01*
X191509285Y-49122116D01*
X191439726Y-49134292D01*
X191383562Y-49124703D01*
X191341096Y-49095936D01*
X191314384Y-49050388D01*
X191305479Y-48990457D01*
X191320205Y-48883950D01*
X191364384Y-48778128D01*
X191227397Y-48778128D01*
X191204566Y-48851796D01*
X191190868Y-48928508D01*
X191186301Y-49008265D01*
X191072146Y-49008265D01*
X191072146Y-48371279D01*
X191186301Y-48371279D01*
X191189346Y-48450122D01*
X191198478Y-48527747D01*
X191213699Y-48604155D01*
X192200000Y-48604155D01*
X192200000Y-48450731D01*
X191784932Y-48450731D01*
X191784932Y-48397306D01*
X191811644Y-48314429D01*
X191850171Y-48288231D01*
X191912329Y-48265799D01*
X192200000Y-48186347D01*
X192200000Y-48028813D01*
X191920548Y-48113744D01*
X191813014Y-48157580D01*
X191745205Y-48209635D01*
X191742466Y-48209635D01*
X191703253Y-48142511D01*
X191647260Y-48094566D01*
X191574486Y-48065799D01*
X191484932Y-48056210D01*
X191390944Y-48064658D01*
X191315373Y-48090000D01*
X191258219Y-48132237D01*
X191218265Y-48192588D01*
X191194292Y-48272268D01*
X191186301Y-48371279D01*
X191072146Y-48371279D01*
X191072146Y-47343881D01*
X191200000Y-47343881D01*
X191200000Y-47495936D01*
X192063014Y-47652100D01*
X192063014Y-47653470D01*
X191200000Y-47809635D01*
X191200000Y-47967169D01*
X192200000Y-47745251D01*
X192200000Y-47567169D01*
X191200000Y-47343881D01*
X191072146Y-47343881D01*
X191072146Y-47058493D01*
X192327854Y-46681781D01*
X192327854Y-47058493D01*
X192327854Y-47343881D01*
X192327854Y-47567169D01*
X192327854Y-48028813D01*
G37*
D12*
G04 #@! TO.C,C5*
X177170000Y-75225112D02*
X182330000Y-75225112D01*
X177170000Y-75265112D02*
X182330000Y-75265112D01*
X177171000Y-75185112D02*
X182329000Y-75185112D01*
X177172000Y-75145112D02*
X182328000Y-75145112D01*
X177174000Y-75105112D02*
X182326000Y-75105112D01*
X177177000Y-75065112D02*
X182323000Y-75065112D01*
X177181000Y-75025112D02*
X178710000Y-75025112D01*
X177185000Y-74985112D02*
X178710000Y-74985112D01*
X177189000Y-74945112D02*
X178710000Y-74945112D01*
X177194000Y-74905112D02*
X178710000Y-74905112D01*
X177200000Y-74865112D02*
X178710000Y-74865112D01*
X177207000Y-74825112D02*
X178710000Y-74825112D01*
X177214000Y-74785112D02*
X178710000Y-74785112D01*
X177222000Y-74745112D02*
X178710000Y-74745112D01*
X177230000Y-74705112D02*
X178710000Y-74705112D01*
X177239000Y-74665112D02*
X178710000Y-74665112D01*
X177249000Y-74625112D02*
X178710000Y-74625112D01*
X177259000Y-74585112D02*
X178710000Y-74585112D01*
X177270000Y-74544112D02*
X178710000Y-74544112D01*
X177282000Y-74504112D02*
X178710000Y-74504112D01*
X177295000Y-74464112D02*
X178710000Y-74464112D01*
X177308000Y-74424112D02*
X178710000Y-74424112D01*
X177322000Y-74384112D02*
X178710000Y-74384112D01*
X177336000Y-74344112D02*
X178710000Y-74344112D01*
X177352000Y-74304112D02*
X178710000Y-74304112D01*
X177368000Y-74264112D02*
X178710000Y-74264112D01*
X177385000Y-74224112D02*
X178710000Y-74224112D01*
X177402000Y-74184112D02*
X178710000Y-74184112D01*
X177421000Y-74144112D02*
X178710000Y-74144112D01*
X177440000Y-74104112D02*
X178710000Y-74104112D01*
X177460000Y-74064112D02*
X178710000Y-74064112D01*
X177482000Y-74024112D02*
X178710000Y-74024112D01*
X177503000Y-73984112D02*
X178710000Y-73984112D01*
X177526000Y-73944112D02*
X178710000Y-73944112D01*
X177550000Y-73904112D02*
X178710000Y-73904112D01*
X177575000Y-73864112D02*
X178710000Y-73864112D01*
X177601000Y-73824112D02*
X178710000Y-73824112D01*
X177628000Y-73784112D02*
X178710000Y-73784112D01*
X177655000Y-73744112D02*
X178710000Y-73744112D01*
X177685000Y-73704112D02*
X178710000Y-73704112D01*
X177715000Y-73664112D02*
X178710000Y-73664112D01*
X177746000Y-73624112D02*
X178710000Y-73624112D01*
X177779000Y-73584112D02*
X178710000Y-73584112D01*
X177813000Y-73544112D02*
X178710000Y-73544112D01*
X177849000Y-73504112D02*
X178710000Y-73504112D01*
X177886000Y-73464112D02*
X178710000Y-73464112D01*
X177924000Y-73424112D02*
X178710000Y-73424112D01*
X177965000Y-73384112D02*
X178710000Y-73384112D01*
X178007000Y-73344112D02*
X178710000Y-73344112D01*
X178025000Y-77819887D02*
X178525000Y-77819887D01*
X178051000Y-73304112D02*
X178710000Y-73304112D01*
X178097000Y-73264112D02*
X178710000Y-73264112D01*
X178145000Y-73224112D02*
X178710000Y-73224112D01*
X178196000Y-73184112D02*
X178710000Y-73184112D01*
X178250000Y-73144112D02*
X178710000Y-73144112D01*
X178275000Y-78069887D02*
X178275000Y-77569887D01*
X178307000Y-73104112D02*
X178710000Y-73104112D01*
X178367000Y-73064112D02*
X178710000Y-73064112D01*
X178431000Y-73024112D02*
X178710000Y-73024112D01*
X178499000Y-72984112D02*
X178710000Y-72984112D01*
X178572000Y-72944112D02*
X180928000Y-72944112D01*
X178652000Y-72904112D02*
X180848000Y-72904112D01*
X178739000Y-72864112D02*
X180761000Y-72864112D01*
X178835000Y-72824112D02*
X180665000Y-72824112D01*
X178945000Y-72784112D02*
X180555000Y-72784112D01*
X179073000Y-72744112D02*
X180427000Y-72744112D01*
X179232000Y-72704112D02*
X180268000Y-72704112D01*
X179466000Y-72664112D02*
X180034000Y-72664112D01*
X180790000Y-72984112D02*
X181001000Y-72984112D01*
X180790000Y-73024112D02*
X181069000Y-73024112D01*
X180790000Y-73064112D02*
X181133000Y-73064112D01*
X180790000Y-73104112D02*
X181193000Y-73104112D01*
X180790000Y-73144112D02*
X181250000Y-73144112D01*
X180790000Y-73184112D02*
X181304000Y-73184112D01*
X180790000Y-73224112D02*
X181355000Y-73224112D01*
X180790000Y-73264112D02*
X181403000Y-73264112D01*
X180790000Y-73304112D02*
X181449000Y-73304112D01*
X180790000Y-73344112D02*
X181493000Y-73344112D01*
X180790000Y-73384112D02*
X181535000Y-73384112D01*
X180790000Y-73424112D02*
X181576000Y-73424112D01*
X180790000Y-73464112D02*
X181614000Y-73464112D01*
X180790000Y-73504112D02*
X181651000Y-73504112D01*
X180790000Y-73544112D02*
X181687000Y-73544112D01*
X180790000Y-73584112D02*
X181721000Y-73584112D01*
X180790000Y-73624112D02*
X181754000Y-73624112D01*
X180790000Y-73664112D02*
X181785000Y-73664112D01*
X180790000Y-73704112D02*
X181815000Y-73704112D01*
X180790000Y-73744112D02*
X181845000Y-73744112D01*
X180790000Y-73784112D02*
X181872000Y-73784112D01*
X180790000Y-73824112D02*
X181899000Y-73824112D01*
X180790000Y-73864112D02*
X181925000Y-73864112D01*
X180790000Y-73904112D02*
X181950000Y-73904112D01*
X180790000Y-73944112D02*
X181974000Y-73944112D01*
X180790000Y-73984112D02*
X181997000Y-73984112D01*
X180790000Y-74024112D02*
X182018000Y-74024112D01*
X180790000Y-74064112D02*
X182040000Y-74064112D01*
X180790000Y-74104112D02*
X182060000Y-74104112D01*
X180790000Y-74144112D02*
X182079000Y-74144112D01*
X180790000Y-74184112D02*
X182098000Y-74184112D01*
X180790000Y-74224112D02*
X182115000Y-74224112D01*
X180790000Y-74264112D02*
X182132000Y-74264112D01*
X180790000Y-74304112D02*
X182148000Y-74304112D01*
X180790000Y-74344112D02*
X182164000Y-74344112D01*
X180790000Y-74384112D02*
X182178000Y-74384112D01*
X180790000Y-74424112D02*
X182192000Y-74424112D01*
X180790000Y-74464112D02*
X182205000Y-74464112D01*
X180790000Y-74504112D02*
X182218000Y-74504112D01*
X180790000Y-74544112D02*
X182230000Y-74544112D01*
X180790000Y-74585112D02*
X182241000Y-74585112D01*
X180790000Y-74625112D02*
X182251000Y-74625112D01*
X180790000Y-74665112D02*
X182261000Y-74665112D01*
X180790000Y-74705112D02*
X182270000Y-74705112D01*
X180790000Y-74745112D02*
X182278000Y-74745112D01*
X180790000Y-74785112D02*
X182286000Y-74785112D01*
X180790000Y-74825112D02*
X182293000Y-74825112D01*
X180790000Y-74865112D02*
X182300000Y-74865112D01*
X180790000Y-74905112D02*
X182306000Y-74905112D01*
X180790000Y-74945112D02*
X182311000Y-74945112D01*
X180790000Y-74985112D02*
X182315000Y-74985112D01*
X180790000Y-75025112D02*
X182319000Y-75025112D01*
X182370000Y-75265112D02*
G75*
G02*
X177130000Y-75265112I-2620000J0D01*
G01*
X177130000Y-75265112D02*
G75*
G02*
X182370000Y-75265112I2620000J0D01*
G01*
D11*
G04 #@! TO.C,kibuzzard-674B2007*
G36*
X195462956Y-62804281D02*
G01*
X195492641Y-62863651D01*
X195502536Y-62951292D01*
X195502536Y-62994911D01*
X195202052Y-62994911D01*
X195198013Y-62962601D01*
X195197205Y-62935137D01*
X195206494Y-62863651D01*
X195234362Y-62807512D01*
X195282019Y-62771163D01*
X195350679Y-62759047D01*
X195462956Y-62804281D01*
G37*
G36*
X195435695Y-64349515D02*
G01*
X195487189Y-64385864D01*
X195515662Y-64446042D01*
X195525153Y-64529645D01*
X195525153Y-64610420D01*
X195202052Y-64610420D01*
X195198013Y-64561147D01*
X195197205Y-64511874D01*
X195206292Y-64440590D01*
X195233554Y-64385057D01*
X195282625Y-64349313D01*
X195357141Y-64337399D01*
X195435695Y-64349515D01*
G37*
G36*
X196170280Y-63374556D02*
G01*
X196170280Y-64610420D01*
X196170280Y-64809128D01*
X196170280Y-65145692D01*
X196157977Y-65270604D01*
X196121542Y-65390717D01*
X196062373Y-65501412D01*
X195982746Y-65598438D01*
X195885721Y-65678065D01*
X195775025Y-65737234D01*
X195654912Y-65773669D01*
X195530000Y-65785972D01*
X195405088Y-65773669D01*
X195284975Y-65737234D01*
X195174279Y-65678065D01*
X195077254Y-65598438D01*
X194997627Y-65501412D01*
X194938458Y-65390717D01*
X194902023Y-65270604D01*
X194889720Y-65145692D01*
X194889720Y-64809128D01*
X194889720Y-64534491D01*
X195024346Y-64534491D01*
X195025961Y-64597496D01*
X195030000Y-64670194D01*
X195037270Y-64743700D01*
X195048578Y-64809128D01*
X196035654Y-64809128D01*
X196035654Y-64610420D01*
X195698013Y-64610420D01*
X195698013Y-64539338D01*
X195689128Y-64419880D01*
X195662472Y-64319987D01*
X195618045Y-64239661D01*
X195553694Y-64180874D01*
X195467264Y-64145602D01*
X195358756Y-64133845D01*
X195251325Y-64145512D01*
X195165972Y-64180515D01*
X195102698Y-64238853D01*
X195059169Y-64318372D01*
X195033052Y-64416918D01*
X195024346Y-64534491D01*
X194889720Y-64534491D01*
X194889720Y-63318013D01*
X195035654Y-63318013D01*
X195035654Y-63502181D01*
X195132787Y-63501777D01*
X195233554Y-63500565D01*
X195335533Y-63498950D01*
X195436300Y-63497334D01*
X195535452Y-63495719D01*
X195632585Y-63494103D01*
X195725679Y-63492892D01*
X195812714Y-63492488D01*
X195683473Y-63528837D01*
X195565541Y-63562763D01*
X195465380Y-63591034D01*
X195389451Y-63610420D01*
X195389451Y-63755816D01*
X195468611Y-63778433D01*
X195578465Y-63809935D01*
X195699628Y-63845477D01*
X195812714Y-63878594D01*
X195725679Y-63878191D01*
X195632585Y-63876979D01*
X195535250Y-63875363D01*
X195435493Y-63873748D01*
X195334321Y-63872132D01*
X195232746Y-63870517D01*
X195132585Y-63868901D01*
X195035654Y-63867286D01*
X195035654Y-64051454D01*
X195159039Y-64047819D01*
X195286866Y-64043376D01*
X195416511Y-64037924D01*
X195545347Y-64031260D01*
X195672973Y-64023384D01*
X195798982Y-64014297D01*
X195920751Y-64003796D01*
X196035654Y-63991680D01*
X196035654Y-63826898D01*
X195929435Y-63792973D01*
X195814330Y-63755816D01*
X195699225Y-63717851D01*
X195593005Y-63681502D01*
X195702254Y-63645961D01*
X195816753Y-63610420D01*
X195930040Y-63574879D01*
X196035654Y-63539338D01*
X196035654Y-63374556D01*
X195920953Y-63363853D01*
X195799790Y-63354362D01*
X195674386Y-63346082D01*
X195546963Y-63339015D01*
X195418126Y-63332956D01*
X195288481Y-63327706D01*
X195160250Y-63322859D01*
X195035654Y-63318013D01*
X194889720Y-63318013D01*
X194889720Y-62935137D01*
X195024346Y-62935137D01*
X195025961Y-62991680D01*
X195030000Y-63059531D01*
X195038078Y-63129806D01*
X195050194Y-63193619D01*
X196035654Y-63193619D01*
X196035654Y-62994911D01*
X195667318Y-62994911D01*
X195667318Y-62891519D01*
X195758796Y-62836793D01*
X195849063Y-62785703D01*
X195940541Y-62739459D01*
X196035654Y-62699273D01*
X196035654Y-62490872D01*
X195929838Y-62536914D01*
X195818368Y-62592649D01*
X195711745Y-62652423D01*
X195618853Y-62710582D01*
X195573215Y-62639903D01*
X195510614Y-62592649D01*
X195435493Y-62565994D01*
X195352294Y-62557108D01*
X195273740Y-62563772D01*
X195206090Y-62583764D01*
X195103506Y-62660501D01*
X195068368Y-62715428D01*
X195043732Y-62780048D01*
X195029192Y-62853554D01*
X195024346Y-62935137D01*
X194889720Y-62935137D01*
X194889720Y-62490872D01*
X194889720Y-62154308D01*
X194902023Y-62029396D01*
X194938458Y-61909283D01*
X194997627Y-61798588D01*
X195077254Y-61701562D01*
X195174279Y-61621935D01*
X195284975Y-61562766D01*
X195405088Y-61526331D01*
X195530000Y-61514028D01*
X195654912Y-61526331D01*
X195775025Y-61562766D01*
X195885721Y-61621935D01*
X195982746Y-61701562D01*
X196062373Y-61798588D01*
X196121542Y-61909283D01*
X196157977Y-62029396D01*
X196170280Y-62154308D01*
X196170280Y-62490872D01*
X196170280Y-63374556D01*
G37*
G04 #@! TO.C,kibuzzard-674B2203*
G36*
X191566027Y-45277489D02*
G01*
X191621507Y-45310365D01*
X191652329Y-45369269D01*
X191662603Y-45458311D01*
X191662603Y-45511735D01*
X191313288Y-45511735D01*
X191302329Y-45432283D01*
X191313116Y-45359338D01*
X191345479Y-45307626D01*
X191401130Y-45276804D01*
X191481781Y-45266530D01*
X191566027Y-45277489D01*
G37*
G36*
X192311005Y-45852831D02*
G01*
X192311005Y-46318584D01*
X192311005Y-46603973D01*
X191068995Y-46976575D01*
X191068995Y-46603973D01*
X191068995Y-46318584D01*
X191068995Y-45852831D01*
X191196849Y-45852831D01*
X191196849Y-46318584D01*
X191316027Y-46318584D01*
X191316027Y-46165160D01*
X192077671Y-46165160D01*
X192077671Y-46318584D01*
X192196849Y-46318584D01*
X192196849Y-45852831D01*
X192077671Y-45852831D01*
X192077671Y-46006256D01*
X191316027Y-46006256D01*
X191316027Y-45852831D01*
X191196849Y-45852831D01*
X191068995Y-45852831D01*
X191068995Y-45432283D01*
X191183151Y-45432283D01*
X191186195Y-45511126D01*
X191195327Y-45588752D01*
X191210548Y-45665160D01*
X192196849Y-45665160D01*
X192196849Y-45511735D01*
X191781781Y-45511735D01*
X191781781Y-45458311D01*
X191808493Y-45375434D01*
X191847021Y-45349235D01*
X191909178Y-45326804D01*
X192196849Y-45247352D01*
X192196849Y-45089817D01*
X191917397Y-45174749D01*
X191809863Y-45218584D01*
X191742055Y-45270639D01*
X191739315Y-45270639D01*
X191700103Y-45203516D01*
X191644110Y-45155571D01*
X191571336Y-45126804D01*
X191481781Y-45117215D01*
X191387793Y-45125662D01*
X191312222Y-45151005D01*
X191255068Y-45193242D01*
X191215114Y-45253592D01*
X191191142Y-45333272D01*
X191183151Y-45432283D01*
X191068995Y-45432283D01*
X191068995Y-45089817D01*
X191068995Y-44804429D01*
X191071986Y-44743560D01*
X191080928Y-44683277D01*
X191095736Y-44624161D01*
X191116267Y-44566781D01*
X191142323Y-44511690D01*
X191173654Y-44459418D01*
X191209957Y-44410468D01*
X191250883Y-44365313D01*
X191296039Y-44324386D01*
X191344988Y-44288083D01*
X191397260Y-44256752D01*
X191452352Y-44230696D01*
X191509732Y-44210165D01*
X191568848Y-44195357D01*
X191629131Y-44186415D01*
X191690000Y-44183425D01*
X191750869Y-44186415D01*
X191811152Y-44195357D01*
X191870268Y-44210165D01*
X191927648Y-44230696D01*
X191982740Y-44256752D01*
X192035012Y-44288083D01*
X192083961Y-44324386D01*
X192129117Y-44365313D01*
X192170043Y-44410468D01*
X192206346Y-44459418D01*
X192237677Y-44511690D01*
X192263733Y-44566781D01*
X192284264Y-44624161D01*
X192299072Y-44683277D01*
X192308014Y-44743560D01*
X192311005Y-44804429D01*
X192311005Y-45089817D01*
X192311005Y-45852831D01*
G37*
G04 #@! TO.C,kibuzzard-674B266F*
G36*
X170310183Y-54070548D02*
G01*
X170122511Y-54070548D01*
X170215662Y-53600685D01*
X170217032Y-53600685D01*
X170310183Y-54070548D01*
G37*
G36*
X172246179Y-53338802D02*
G01*
X172305797Y-53347646D01*
X172364262Y-53362290D01*
X172421009Y-53382595D01*
X172475493Y-53408363D01*
X172527188Y-53439349D01*
X172575598Y-53475252D01*
X172620255Y-53515727D01*
X172660730Y-53560384D01*
X172696633Y-53608794D01*
X172727618Y-53660489D01*
X172753387Y-53714973D01*
X172773692Y-53771720D01*
X172788336Y-53830184D01*
X172797180Y-53889802D01*
X172800137Y-53950000D01*
X172797180Y-54010198D01*
X172788336Y-54069816D01*
X172773692Y-54128280D01*
X172753387Y-54185027D01*
X172727618Y-54239511D01*
X172696633Y-54291206D01*
X172660730Y-54339616D01*
X172620255Y-54384273D01*
X172575598Y-54424748D01*
X172527188Y-54460651D01*
X172475493Y-54491637D01*
X172421009Y-54517405D01*
X172364262Y-54537710D01*
X172305797Y-54552354D01*
X172246179Y-54561198D01*
X172185982Y-54564155D01*
X171900594Y-54564155D01*
X171411553Y-54564155D01*
X171164977Y-54564155D01*
X169893744Y-54564155D01*
X169608356Y-54564155D01*
X169239863Y-54564155D01*
X169274110Y-54450000D01*
X169893744Y-54450000D01*
X170047169Y-54450000D01*
X170099224Y-54186986D01*
X170333470Y-54186986D01*
X170385525Y-54450000D01*
X170544429Y-54450000D01*
X170692374Y-54450000D01*
X171164977Y-54450000D01*
X171277306Y-54450000D01*
X171411553Y-54450000D01*
X171434840Y-53600685D01*
X171438950Y-53600685D01*
X171517032Y-54217123D01*
X171647169Y-54217123D01*
X171732100Y-53600685D01*
X171733470Y-53600685D01*
X171754018Y-54450000D01*
X171900594Y-54450000D01*
X171849909Y-53450000D01*
X171677306Y-53450000D01*
X171595114Y-54086986D01*
X171592374Y-54086986D01*
X171508813Y-53450000D01*
X171329361Y-53450000D01*
X171277306Y-54450000D01*
X171164977Y-54450000D01*
X171164977Y-54330822D01*
X170845799Y-54330822D01*
X170845799Y-53450000D01*
X170692374Y-53450000D01*
X170692374Y-54450000D01*
X170544429Y-54450000D01*
X170307443Y-53450000D01*
X170129361Y-53450000D01*
X169893744Y-54450000D01*
X169274110Y-54450000D01*
X169608356Y-53335845D01*
X169893744Y-53335845D01*
X171900594Y-53335845D01*
X172185982Y-53335845D01*
X172246179Y-53338802D01*
G37*
G04 #@! TO.C,kibuzzard-674B2CD4*
G36*
X195475632Y-52500122D02*
G01*
X195582938Y-52516788D01*
X195657671Y-52544566D01*
X195723425Y-52609806D01*
X195745342Y-52705525D01*
X195733014Y-52767169D01*
X194967260Y-52767169D01*
X194954932Y-52705525D01*
X194976164Y-52610662D01*
X195039863Y-52545251D01*
X195110487Y-52517093D01*
X195209117Y-52500198D01*
X195335753Y-52494566D01*
X195475632Y-52500122D01*
G37*
G36*
X195475632Y-55239848D02*
G01*
X195582938Y-55256514D01*
X195657671Y-55284292D01*
X195723425Y-55349532D01*
X195745342Y-55445251D01*
X195733014Y-55506895D01*
X194967260Y-55506895D01*
X194954932Y-55445251D01*
X194976164Y-55350388D01*
X195039863Y-55284977D01*
X195110487Y-55256819D01*
X195209117Y-55239924D01*
X195335753Y-55234292D01*
X195475632Y-55239848D01*
G37*
G36*
X196018402Y-52071279D02*
G01*
X196018402Y-52705525D01*
X196018402Y-53594566D01*
X196018402Y-53971279D01*
X196018402Y-54858950D01*
X196018402Y-55445251D01*
X196018402Y-56334292D01*
X196018402Y-56711005D01*
X196018402Y-57053470D01*
X196018402Y-57338858D01*
X196015280Y-57402413D01*
X196005943Y-57465355D01*
X195990482Y-57527080D01*
X195969045Y-57586991D01*
X195941839Y-57644513D01*
X195909126Y-57699091D01*
X195871221Y-57750200D01*
X195828489Y-57797348D01*
X195781342Y-57840080D01*
X195730233Y-57877985D01*
X195675655Y-57910698D01*
X195618133Y-57937904D01*
X195558221Y-57959340D01*
X195496497Y-57974801D01*
X195433554Y-57984138D01*
X195370000Y-57987260D01*
X195306446Y-57984138D01*
X195243503Y-57974801D01*
X195181779Y-57959340D01*
X195121867Y-57937904D01*
X195064345Y-57910698D01*
X195009767Y-57877985D01*
X194958658Y-57840080D01*
X194911511Y-57797348D01*
X194868779Y-57750200D01*
X194830874Y-57699091D01*
X194798161Y-57644513D01*
X194770955Y-57586991D01*
X194749518Y-57527080D01*
X194734057Y-57465355D01*
X194724720Y-57402413D01*
X194721598Y-57338858D01*
X194721598Y-57053470D01*
X194721598Y-56683607D01*
X194835753Y-56683607D01*
X194849300Y-56796621D01*
X194889939Y-56889087D01*
X194957671Y-56961005D01*
X195027449Y-57001458D01*
X195114863Y-57030354D01*
X195219914Y-57047691D01*
X195342603Y-57053470D01*
X195464606Y-57048119D01*
X195570342Y-57032066D01*
X195659812Y-57005311D01*
X195733014Y-56967854D01*
X195789949Y-56919695D01*
X195830616Y-56860833D01*
X195855017Y-56791270D01*
X195863151Y-56711005D01*
X195857823Y-56629117D01*
X195841842Y-56551492D01*
X195815205Y-56478128D01*
X195253562Y-56478128D01*
X195253562Y-56797306D01*
X195370000Y-56797306D01*
X195370000Y-56624703D01*
X195728904Y-56624703D01*
X195745342Y-56706895D01*
X195722055Y-56790457D01*
X195652192Y-56852100D01*
X195576393Y-56880259D01*
X195473196Y-56897154D01*
X195342603Y-56902785D01*
X195214977Y-56896849D01*
X195115205Y-56879041D01*
X195043288Y-56849361D01*
X194978048Y-56781210D01*
X194956301Y-56683607D01*
X194964521Y-56599703D01*
X194989178Y-56512374D01*
X194865890Y-56512374D01*
X194843288Y-56596279D01*
X194835753Y-56683607D01*
X194721598Y-56683607D01*
X194721598Y-55813744D01*
X194849452Y-55813744D01*
X194849452Y-55957580D01*
X195575479Y-55957580D01*
X195575479Y-55961690D01*
X194849452Y-56175388D01*
X194849452Y-56334292D01*
X195849452Y-56334292D01*
X195849452Y-56183607D01*
X195123425Y-56183607D01*
X195123425Y-56180868D01*
X195849452Y-55967169D01*
X195849452Y-55813744D01*
X194849452Y-55813744D01*
X194721598Y-55813744D01*
X194721598Y-55445251D01*
X194835753Y-55445251D01*
X194842603Y-55553128D01*
X194863151Y-55660320D01*
X195835753Y-55660320D01*
X195856301Y-55557237D01*
X195863151Y-55445251D01*
X195851336Y-55331553D01*
X195815890Y-55242511D01*
X195751336Y-55174874D01*
X195652192Y-55125388D01*
X195565282Y-55102938D01*
X195459802Y-55089467D01*
X195335753Y-55084977D01*
X195207714Y-55090243D01*
X195100308Y-55106039D01*
X195013536Y-55132366D01*
X194947397Y-55169224D01*
X194885373Y-55237336D01*
X194848158Y-55329346D01*
X194835753Y-55445251D01*
X194721598Y-55445251D01*
X194721598Y-54419224D01*
X194849452Y-54419224D01*
X194849452Y-54550731D01*
X195904247Y-54990457D01*
X195904247Y-54858950D01*
X194849452Y-54419224D01*
X194721598Y-54419224D01*
X194721598Y-53943881D01*
X194835753Y-53943881D01*
X194849300Y-54056895D01*
X194889939Y-54149361D01*
X194957671Y-54221279D01*
X195027449Y-54261732D01*
X195114863Y-54290628D01*
X195219914Y-54307965D01*
X195342603Y-54313744D01*
X195464606Y-54308393D01*
X195570342Y-54292340D01*
X195659812Y-54265585D01*
X195733014Y-54228128D01*
X195789949Y-54179969D01*
X195830616Y-54121107D01*
X195855017Y-54051544D01*
X195863151Y-53971279D01*
X195857823Y-53889391D01*
X195841842Y-53811766D01*
X195815205Y-53738402D01*
X195253562Y-53738402D01*
X195253562Y-54057580D01*
X195370000Y-54057580D01*
X195370000Y-53884977D01*
X195728904Y-53884977D01*
X195745342Y-53967169D01*
X195722055Y-54050731D01*
X195652192Y-54112374D01*
X195576393Y-54140533D01*
X195473196Y-54157428D01*
X195342603Y-54163059D01*
X195214977Y-54157123D01*
X195115205Y-54139315D01*
X195043288Y-54109635D01*
X194978048Y-54041484D01*
X194956301Y-53943881D01*
X194964521Y-53859977D01*
X194989178Y-53772648D01*
X194865890Y-53772648D01*
X194843288Y-53856553D01*
X194835753Y-53943881D01*
X194721598Y-53943881D01*
X194721598Y-53074018D01*
X194849452Y-53074018D01*
X194849452Y-53217854D01*
X195575479Y-53217854D01*
X195575479Y-53221963D01*
X194849452Y-53435662D01*
X194849452Y-53594566D01*
X195849452Y-53594566D01*
X195849452Y-53443881D01*
X195123425Y-53443881D01*
X195123425Y-53441142D01*
X195849452Y-53227443D01*
X195849452Y-53074018D01*
X194849452Y-53074018D01*
X194721598Y-53074018D01*
X194721598Y-52705525D01*
X194835753Y-52705525D01*
X194842603Y-52813402D01*
X194863151Y-52920594D01*
X195835753Y-52920594D01*
X195856301Y-52817511D01*
X195863151Y-52705525D01*
X195851336Y-52591826D01*
X195815890Y-52502785D01*
X195751336Y-52435148D01*
X195652192Y-52385662D01*
X195565282Y-52363212D01*
X195459802Y-52349741D01*
X195335753Y-52345251D01*
X195207714Y-52350517D01*
X195100308Y-52366313D01*
X195013536Y-52392640D01*
X194947397Y-52429498D01*
X194885373Y-52497610D01*
X194848158Y-52589619D01*
X194835753Y-52705525D01*
X194721598Y-52705525D01*
X194721598Y-51852100D01*
X195616575Y-51852100D01*
X195616575Y-52071279D01*
X195849452Y-52071279D01*
X195849452Y-51852100D01*
X195616575Y-51852100D01*
X194721598Y-51852100D01*
X194721598Y-51167169D01*
X195616575Y-51167169D01*
X195616575Y-51386347D01*
X195849452Y-51386347D01*
X195849452Y-51167169D01*
X195616575Y-51167169D01*
X194721598Y-51167169D01*
X194721598Y-50881781D01*
X196018402Y-50492740D01*
X196018402Y-50881781D01*
X196018402Y-51167169D01*
X196018402Y-51386347D01*
X196018402Y-52071279D01*
G37*
D12*
G04 #@! TO.C,Y1*
X173195000Y-81235000D02*
X173195000Y-87635000D01*
X178245000Y-81235000D02*
X178245000Y-87635000D01*
X173195000Y-81235000D02*
G75*
G02*
X178245000Y-81235000I2525000J0D01*
G01*
X178245000Y-87635000D02*
G75*
G02*
X173195000Y-87635000I-2525000J0D01*
G01*
G04 #@! TO.C,J5*
X196590000Y-54880000D02*
X196590000Y-44660000D01*
X199250000Y-44660000D02*
X196590000Y-44660000D01*
X199250000Y-54880000D02*
X196590000Y-54880000D01*
X199250000Y-54880000D02*
X199250000Y-44660000D01*
X199250000Y-56150000D02*
X199250000Y-57480000D01*
X199250000Y-57480000D02*
X197920000Y-57480000D01*
G04 #@! TO.C,J3*
X192880000Y-44695000D02*
X194210000Y-44695000D01*
X192880000Y-46025000D02*
X192880000Y-44695000D01*
X192880000Y-47295000D02*
X192880000Y-49895000D01*
X192880000Y-47295000D02*
X195540000Y-47295000D01*
X192880000Y-49895000D02*
X195540000Y-49895000D01*
X195540000Y-47295000D02*
X195540000Y-49895000D01*
G04 #@! TO.C,J2*
X161510000Y-53150000D02*
X161510000Y-51820000D01*
X162840000Y-53150000D02*
X161510000Y-53150000D01*
X164110000Y-50490000D02*
X171790000Y-50490000D01*
X164110000Y-53150000D02*
X164110000Y-50490000D01*
X164110000Y-53150000D02*
X171790000Y-53150000D01*
X171790000Y-53150000D02*
X171790000Y-50490000D01*
D11*
G04 #@! TO.C,kibuzzard-674B41C3*
G36*
X182260594Y-63204977D02*
G01*
X182260594Y-63358706D01*
X182030000Y-63204977D01*
X181799406Y-63358706D01*
X181799406Y-63204977D01*
X181799406Y-62919589D01*
X181799406Y-62700411D01*
X181913562Y-62700411D01*
X181913562Y-62919589D01*
X182146438Y-62919589D01*
X182146438Y-62700411D01*
X181913562Y-62700411D01*
X181799406Y-62700411D01*
X181799406Y-62415023D01*
X181799406Y-62261294D01*
X182030000Y-62415023D01*
X182260594Y-62261294D01*
X182260594Y-62415023D01*
X182260594Y-62700411D01*
X182260594Y-62919589D01*
X182260594Y-63204977D01*
G37*
G04 #@! TO.C,kibuzzard-674B2F0D*
G36*
X184528836Y-47836712D02*
G01*
X184594247Y-47900411D01*
X184622405Y-47971035D01*
X184639300Y-48069665D01*
X184644932Y-48196301D01*
X184639376Y-48336180D01*
X184622709Y-48443486D01*
X184594932Y-48518219D01*
X184529692Y-48583973D01*
X184433973Y-48605890D01*
X184372329Y-48593562D01*
X184372329Y-47827808D01*
X184433973Y-47815479D01*
X184528836Y-47836712D01*
G37*
G36*
X185456347Y-48837854D02*
G01*
X185079635Y-48837854D01*
X184794247Y-48837854D01*
X184433973Y-48837854D01*
X183544932Y-48837854D01*
X183168219Y-48837854D01*
X182825753Y-48837854D01*
X182540365Y-48837854D01*
X182349954Y-48203151D01*
X182825753Y-48203151D01*
X182831104Y-48325154D01*
X182847158Y-48430890D01*
X182873913Y-48520360D01*
X182911370Y-48593562D01*
X182959529Y-48650497D01*
X183018390Y-48691164D01*
X183087954Y-48715565D01*
X183168219Y-48723699D01*
X183250107Y-48718371D01*
X183290768Y-48710000D01*
X183544932Y-48710000D01*
X183695616Y-48710000D01*
X183695616Y-47983973D01*
X183698356Y-47983973D01*
X183912055Y-48710000D01*
X184065479Y-48710000D01*
X184065479Y-47723699D01*
X184218904Y-47723699D01*
X184218904Y-48696301D01*
X184321986Y-48716849D01*
X184433973Y-48723699D01*
X184547671Y-48711884D01*
X184636712Y-48676438D01*
X184704349Y-48611884D01*
X184753836Y-48512740D01*
X184776286Y-48425830D01*
X184789756Y-48320350D01*
X184794247Y-48196301D01*
X184788981Y-48068262D01*
X184773185Y-47960856D01*
X184746858Y-47874084D01*
X184710000Y-47807945D01*
X184641887Y-47745921D01*
X184549878Y-47708706D01*
X184433973Y-47696301D01*
X184326096Y-47703151D01*
X184218904Y-47723699D01*
X184065479Y-47723699D01*
X184065479Y-47710000D01*
X183921644Y-47710000D01*
X183921644Y-48436027D01*
X183917534Y-48436027D01*
X183703836Y-47710000D01*
X183544932Y-47710000D01*
X183544932Y-48710000D01*
X183290768Y-48710000D01*
X183327732Y-48702390D01*
X183401096Y-48675753D01*
X183401096Y-48114110D01*
X183081918Y-48114110D01*
X183081918Y-48230548D01*
X183254521Y-48230548D01*
X183254521Y-48589452D01*
X183172329Y-48605890D01*
X183088767Y-48582603D01*
X183027123Y-48512740D01*
X182998965Y-48436941D01*
X182982070Y-48333744D01*
X182976438Y-48203151D01*
X182982374Y-48075525D01*
X183000183Y-47975753D01*
X183029863Y-47903836D01*
X183098014Y-47838596D01*
X183195616Y-47816849D01*
X183279521Y-47825068D01*
X183366849Y-47849726D01*
X183366849Y-47726438D01*
X183282945Y-47703836D01*
X183195616Y-47696301D01*
X183082603Y-47709848D01*
X182990137Y-47750487D01*
X182918219Y-47818219D01*
X182877765Y-47887997D01*
X182848870Y-47975411D01*
X182831533Y-48080462D01*
X182825753Y-48203151D01*
X182349954Y-48203151D01*
X182163653Y-47582146D01*
X182540365Y-47582146D01*
X182825753Y-47582146D01*
X184794247Y-47582146D01*
X185079635Y-47582146D01*
X185456347Y-48837854D01*
G37*
D12*
G04 #@! TO.C,R7*
X161960436Y-57305000D02*
X162414564Y-57305000D01*
X161960436Y-58775000D02*
X162414564Y-58775000D01*
D11*
G04 #@! TO.C,kibuzzard-674B2F1D*
G36*
X186078288Y-47826267D02*
G01*
X186130000Y-47858630D01*
X186160822Y-47914281D01*
X186171096Y-47994932D01*
X186160137Y-48079178D01*
X186127260Y-48134658D01*
X186068356Y-48165479D01*
X185979315Y-48175753D01*
X185925890Y-48175753D01*
X185925890Y-47826438D01*
X186005342Y-47815479D01*
X186078288Y-47826267D01*
G37*
G36*
X188349635Y-48837854D02*
G01*
X187972922Y-48837854D01*
X187687534Y-48837854D01*
X187483425Y-48837854D01*
X186701233Y-48837854D01*
X186347808Y-48837854D01*
X185772466Y-48837854D01*
X185487078Y-48837854D01*
X185152831Y-47723699D01*
X185772466Y-47723699D01*
X185772466Y-48710000D01*
X185925890Y-48710000D01*
X185925890Y-48294932D01*
X185979315Y-48294932D01*
X186062192Y-48321644D01*
X186088390Y-48360171D01*
X186110822Y-48422329D01*
X186190274Y-48710000D01*
X186347808Y-48710000D01*
X186262877Y-48430548D01*
X186219041Y-48323014D01*
X186166986Y-48255205D01*
X186166986Y-48252466D01*
X186234110Y-48213253D01*
X186282055Y-48157260D01*
X186310822Y-48084486D01*
X186320411Y-47994932D01*
X186316963Y-47956575D01*
X186461507Y-47956575D01*
X186475719Y-48053836D01*
X186518356Y-48134658D01*
X186565464Y-48182146D01*
X186630989Y-48227808D01*
X186714932Y-48271644D01*
X186773664Y-48306918D01*
X186812877Y-48346986D01*
X186834966Y-48395616D01*
X186842329Y-48456575D01*
X186832740Y-48520445D01*
X186803973Y-48566849D01*
X186758082Y-48595103D01*
X186697123Y-48604521D01*
X186616910Y-48594627D01*
X186540654Y-48564947D01*
X186468356Y-48515479D01*
X186468356Y-48657945D01*
X186538676Y-48694475D01*
X186616301Y-48716393D01*
X186701233Y-48723699D01*
X186807260Y-48712740D01*
X186889726Y-48679863D01*
X186948630Y-48625068D01*
X186983973Y-48548356D01*
X186995753Y-48449726D01*
X186981027Y-48343904D01*
X186936849Y-48259315D01*
X186886773Y-48210457D01*
X186815084Y-48162511D01*
X186721781Y-48115479D01*
X186660898Y-48074536D01*
X186624368Y-48019285D01*
X186612192Y-47949726D01*
X186621781Y-47893562D01*
X186650548Y-47851096D01*
X186696096Y-47824384D01*
X186756027Y-47815479D01*
X186862534Y-47830205D01*
X186968356Y-47874384D01*
X186968356Y-47829178D01*
X187125890Y-47829178D01*
X187330000Y-47829178D01*
X187330000Y-48710000D01*
X187483425Y-48710000D01*
X187483425Y-47829178D01*
X187687534Y-47829178D01*
X187687534Y-47710000D01*
X187125890Y-47710000D01*
X187125890Y-47829178D01*
X186968356Y-47829178D01*
X186968356Y-47737397D01*
X186894688Y-47714566D01*
X186817976Y-47700868D01*
X186738219Y-47696301D01*
X186656408Y-47703912D01*
X186588143Y-47726743D01*
X186533425Y-47764795D01*
X186479486Y-47846986D01*
X186461507Y-47956575D01*
X186316963Y-47956575D01*
X186311963Y-47900944D01*
X186286621Y-47825373D01*
X186244384Y-47768219D01*
X186184033Y-47728265D01*
X186104353Y-47704292D01*
X186005342Y-47696301D01*
X185926499Y-47699346D01*
X185848874Y-47708478D01*
X185772466Y-47723699D01*
X185152831Y-47723699D01*
X185110365Y-47582146D01*
X185487078Y-47582146D01*
X185772466Y-47582146D01*
X187687534Y-47582146D01*
X187972922Y-47582146D01*
X188349635Y-48837854D01*
G37*
D12*
G04 #@! TO.C,R2*
X173590000Y-93930000D02*
X173590000Y-94260000D01*
X173590000Y-96670000D02*
X173590000Y-96340000D01*
X180130000Y-93930000D02*
X173590000Y-93930000D01*
X180130000Y-94260000D02*
X180130000Y-93930000D01*
X180130000Y-96340000D02*
X180130000Y-96670000D01*
X180130000Y-96670000D02*
X173590000Y-96670000D01*
D11*
G04 #@! TO.C,kibuzzard-674B20CA*
G36*
X167298288Y-53573116D02*
G01*
X167350000Y-53605479D01*
X167380822Y-53661130D01*
X167391096Y-53741781D01*
X167380137Y-53826027D01*
X167347260Y-53881507D01*
X167288356Y-53912329D01*
X167199315Y-53922603D01*
X167145890Y-53922603D01*
X167145890Y-53573288D01*
X167225342Y-53562329D01*
X167298288Y-53573116D01*
G37*
G36*
X169192922Y-54571005D02*
G01*
X168907534Y-54571005D01*
X168703425Y-54571005D01*
X168184247Y-54571005D01*
X167567808Y-54571005D01*
X166992466Y-54571005D01*
X166707078Y-54571005D01*
X166334475Y-54571005D01*
X166664612Y-53470548D01*
X166992466Y-53470548D01*
X166992466Y-54456849D01*
X167145890Y-54456849D01*
X167145890Y-54041781D01*
X167199315Y-54041781D01*
X167282192Y-54068493D01*
X167308390Y-54107021D01*
X167330822Y-54169178D01*
X167410274Y-54456849D01*
X167567808Y-54456849D01*
X167704795Y-54456849D01*
X168184247Y-54456849D01*
X168184247Y-54337671D01*
X167858219Y-54337671D01*
X167858219Y-53977397D01*
X168170548Y-53977397D01*
X168170548Y-53860959D01*
X167858219Y-53860959D01*
X167858219Y-53576027D01*
X168184247Y-53576027D01*
X168345890Y-53576027D01*
X168550000Y-53576027D01*
X168550000Y-54456849D01*
X168703425Y-54456849D01*
X168703425Y-53576027D01*
X168907534Y-53576027D01*
X168907534Y-53456849D01*
X168345890Y-53456849D01*
X168345890Y-53576027D01*
X168184247Y-53576027D01*
X168184247Y-53456849D01*
X167704795Y-53456849D01*
X167704795Y-54456849D01*
X167567808Y-54456849D01*
X167482877Y-54177397D01*
X167439041Y-54069863D01*
X167386986Y-54002055D01*
X167386986Y-53999315D01*
X167454110Y-53960103D01*
X167502055Y-53904110D01*
X167530822Y-53831336D01*
X167540411Y-53741781D01*
X167531963Y-53647793D01*
X167506621Y-53572222D01*
X167464384Y-53515068D01*
X167404033Y-53475114D01*
X167324353Y-53451142D01*
X167225342Y-53443151D01*
X167146499Y-53446195D01*
X167068874Y-53455327D01*
X166992466Y-53470548D01*
X166664612Y-53470548D01*
X166707078Y-53328995D01*
X166992466Y-53328995D01*
X168907534Y-53328995D01*
X169192922Y-53328995D01*
X169565525Y-53328995D01*
X169192922Y-54571005D01*
G37*
G04 #@! TO.C,kibuzzard-674B2E7C*
G36*
X171988721Y-48320548D02*
G01*
X171801050Y-48320548D01*
X171894201Y-47850685D01*
X171895571Y-47850685D01*
X171988721Y-48320548D01*
G37*
G36*
X171252078Y-47826712D02*
G01*
X171317489Y-47890411D01*
X171345647Y-47961035D01*
X171362542Y-48059665D01*
X171368174Y-48186301D01*
X171362618Y-48326180D01*
X171345951Y-48433486D01*
X171318174Y-48508219D01*
X171252934Y-48573973D01*
X171157215Y-48595890D01*
X171095571Y-48583562D01*
X171095571Y-47817808D01*
X171157215Y-47805479D01*
X171252078Y-47826712D01*
G37*
G36*
X172885068Y-48827854D02*
G01*
X172508356Y-48827854D01*
X172222968Y-48827854D01*
X171572283Y-48827854D01*
X171157215Y-48827854D01*
X170507900Y-48827854D01*
X170268174Y-48827854D01*
X169982785Y-48827854D01*
X169921245Y-48824831D01*
X169860297Y-48815790D01*
X169800529Y-48800819D01*
X169742516Y-48780061D01*
X169686817Y-48753718D01*
X169633968Y-48722041D01*
X169584479Y-48685338D01*
X169538826Y-48643960D01*
X169497448Y-48598306D01*
X169460744Y-48548817D01*
X169429068Y-48495968D01*
X169402724Y-48440269D01*
X169381967Y-48382256D01*
X169366996Y-48322488D01*
X169357955Y-48261540D01*
X169354932Y-48200000D01*
X169357955Y-48138460D01*
X169366996Y-48077512D01*
X169381967Y-48017744D01*
X169402724Y-47959731D01*
X169408946Y-47946575D01*
X170268174Y-47946575D01*
X170282386Y-48043836D01*
X170325023Y-48124658D01*
X170372131Y-48172146D01*
X170437656Y-48217808D01*
X170521598Y-48261644D01*
X170580331Y-48296918D01*
X170619543Y-48336986D01*
X170641632Y-48385616D01*
X170648995Y-48446575D01*
X170639406Y-48510445D01*
X170610639Y-48556849D01*
X170564749Y-48585103D01*
X170503790Y-48594521D01*
X170423577Y-48584627D01*
X170347321Y-48554947D01*
X170275023Y-48505479D01*
X170275023Y-48647945D01*
X170345342Y-48684475D01*
X170422968Y-48706393D01*
X170507900Y-48713699D01*
X170613927Y-48702740D01*
X170696393Y-48669863D01*
X170755297Y-48615068D01*
X170790639Y-48538356D01*
X170802420Y-48439726D01*
X170787694Y-48333904D01*
X170743516Y-48249315D01*
X170693440Y-48200457D01*
X170621750Y-48152511D01*
X170528447Y-48105479D01*
X170467565Y-48064536D01*
X170431035Y-48009285D01*
X170418858Y-47939726D01*
X170428447Y-47883562D01*
X170457215Y-47841096D01*
X170502763Y-47814384D01*
X170562694Y-47805479D01*
X170669201Y-47820205D01*
X170775023Y-47864384D01*
X170775023Y-47727397D01*
X170730824Y-47713699D01*
X170942146Y-47713699D01*
X170942146Y-48686301D01*
X171045228Y-48706849D01*
X171157215Y-48713699D01*
X171270913Y-48701884D01*
X171275646Y-48700000D01*
X171572283Y-48700000D01*
X171725708Y-48700000D01*
X171777763Y-48436986D01*
X172012009Y-48436986D01*
X172064064Y-48700000D01*
X172222968Y-48700000D01*
X171985982Y-47700000D01*
X171807900Y-47700000D01*
X171572283Y-48700000D01*
X171275646Y-48700000D01*
X171359954Y-48666438D01*
X171427591Y-48601884D01*
X171477078Y-48502740D01*
X171499528Y-48415830D01*
X171512998Y-48310350D01*
X171517489Y-48186301D01*
X171512223Y-48058262D01*
X171496427Y-47950856D01*
X171470100Y-47864084D01*
X171433242Y-47797945D01*
X171365129Y-47735921D01*
X171273120Y-47698706D01*
X171157215Y-47686301D01*
X171049338Y-47693151D01*
X170942146Y-47713699D01*
X170730824Y-47713699D01*
X170701355Y-47704566D01*
X170624642Y-47690868D01*
X170544886Y-47686301D01*
X170463075Y-47693912D01*
X170394810Y-47716743D01*
X170340091Y-47754795D01*
X170286153Y-47836986D01*
X170268174Y-47946575D01*
X169408946Y-47946575D01*
X169429068Y-47904032D01*
X169460744Y-47851183D01*
X169497448Y-47801694D01*
X169538826Y-47756040D01*
X169584479Y-47714662D01*
X169633968Y-47677959D01*
X169686817Y-47646282D01*
X169742516Y-47619939D01*
X169800529Y-47599181D01*
X169860297Y-47584210D01*
X169921245Y-47575169D01*
X169982785Y-47572146D01*
X170268174Y-47572146D01*
X172222968Y-47572146D01*
X172508356Y-47572146D01*
X172885068Y-48827854D01*
G37*
D12*
G04 #@! TO.C,R1*
X173600000Y-90770000D02*
X173600000Y-91100000D01*
X173600000Y-93510000D02*
X173600000Y-93180000D01*
X180140000Y-90770000D02*
X173600000Y-90770000D01*
X180140000Y-91100000D02*
X180140000Y-90770000D01*
X180140000Y-93180000D02*
X180140000Y-93510000D01*
X180140000Y-93510000D02*
X173600000Y-93510000D01*
D11*
G04 #@! TO.C,kibuzzard-674B267A*
G36*
X163427397Y-54574155D02*
G01*
X163142009Y-54574155D01*
X162907763Y-54574155D01*
X162388584Y-54574155D01*
X161357078Y-54574155D01*
X161203653Y-54574155D01*
X160918265Y-54574155D01*
X160858067Y-54571198D01*
X160798449Y-54562354D01*
X160739985Y-54547710D01*
X160683238Y-54527405D01*
X160628754Y-54501637D01*
X160577058Y-54470651D01*
X160562697Y-54460000D01*
X161203653Y-54460000D01*
X161357078Y-54460000D01*
X161357078Y-53980548D01*
X161359817Y-53980548D01*
X161599543Y-54460000D01*
X161765297Y-54460000D01*
X161909132Y-54460000D01*
X162388584Y-54460000D01*
X162388584Y-54340822D01*
X162062557Y-54340822D01*
X162062557Y-53980548D01*
X162374886Y-53980548D01*
X162374886Y-53864110D01*
X162062557Y-53864110D01*
X162062557Y-53579178D01*
X162388584Y-53579178D01*
X162388584Y-53460000D01*
X162518721Y-53460000D01*
X162752968Y-54073699D01*
X162752968Y-54460000D01*
X162907763Y-54460000D01*
X162907763Y-54073699D01*
X163142009Y-53460000D01*
X162981735Y-53460000D01*
X162833790Y-53925753D01*
X162831050Y-53925753D01*
X162684475Y-53460000D01*
X162518721Y-53460000D01*
X162388584Y-53460000D01*
X161909132Y-53460000D01*
X161909132Y-54460000D01*
X161765297Y-54460000D01*
X161496804Y-53936712D01*
X161758447Y-53460000D01*
X161594064Y-53460000D01*
X161359817Y-53898356D01*
X161357078Y-53898356D01*
X161357078Y-53460000D01*
X161203653Y-53460000D01*
X161203653Y-54460000D01*
X160562697Y-54460000D01*
X160528649Y-54434748D01*
X160483991Y-54394273D01*
X160443516Y-54349616D01*
X160407613Y-54301206D01*
X160376628Y-54249511D01*
X160350859Y-54195027D01*
X160330555Y-54138280D01*
X160315910Y-54079816D01*
X160307067Y-54020198D01*
X160304110Y-53960000D01*
X160307067Y-53899802D01*
X160315910Y-53840184D01*
X160330555Y-53781720D01*
X160350859Y-53724973D01*
X160376628Y-53670489D01*
X160407613Y-53618794D01*
X160443516Y-53570384D01*
X160483991Y-53525727D01*
X160528649Y-53485252D01*
X160577058Y-53449349D01*
X160628754Y-53418363D01*
X160683238Y-53392595D01*
X160739985Y-53372290D01*
X160798449Y-53357646D01*
X160858067Y-53348802D01*
X160918265Y-53345845D01*
X161203653Y-53345845D01*
X163142009Y-53345845D01*
X163427397Y-53345845D01*
X163795890Y-53345845D01*
X163427397Y-54574155D01*
G37*
D12*
G04 #@! TO.C,BZ1*
X194500000Y-56830000D02*
G75*
G02*
X187700000Y-56830000I-3400000J0D01*
G01*
X187700000Y-56830000D02*
G75*
G02*
X194500000Y-56830000I3400000J0D01*
G01*
G04 #@! TO.C,R3*
X179340000Y-81230000D02*
X179340000Y-87770000D01*
X179340000Y-87770000D02*
X179670000Y-87770000D01*
X179670000Y-81230000D02*
X179340000Y-81230000D01*
X181750000Y-81230000D02*
X182080000Y-81230000D01*
X182080000Y-81230000D02*
X182080000Y-87770000D01*
X182080000Y-87770000D02*
X181750000Y-87770000D01*
G04 #@! TO.C,C1*
X194260000Y-79320000D02*
X199420000Y-79320000D01*
X194260000Y-79360000D02*
X199420000Y-79360000D01*
X194261000Y-79280000D02*
X199419000Y-79280000D01*
X194262000Y-79240000D02*
X199418000Y-79240000D01*
X194264000Y-79200000D02*
X199416000Y-79200000D01*
X194267000Y-79160000D02*
X199413000Y-79160000D01*
X194271000Y-79120000D02*
X195800000Y-79120000D01*
X194275000Y-79080000D02*
X195800000Y-79080000D01*
X194279000Y-79040000D02*
X195800000Y-79040000D01*
X194284000Y-79000000D02*
X195800000Y-79000000D01*
X194290000Y-78960000D02*
X195800000Y-78960000D01*
X194297000Y-78920000D02*
X195800000Y-78920000D01*
X194304000Y-78880000D02*
X195800000Y-78880000D01*
X194312000Y-78840000D02*
X195800000Y-78840000D01*
X194320000Y-78800000D02*
X195800000Y-78800000D01*
X194329000Y-78760000D02*
X195800000Y-78760000D01*
X194339000Y-78720000D02*
X195800000Y-78720000D01*
X194349000Y-78680000D02*
X195800000Y-78680000D01*
X194360000Y-78639000D02*
X195800000Y-78639000D01*
X194372000Y-78599000D02*
X195800000Y-78599000D01*
X194385000Y-78559000D02*
X195800000Y-78559000D01*
X194398000Y-78519000D02*
X195800000Y-78519000D01*
X194412000Y-78479000D02*
X195800000Y-78479000D01*
X194426000Y-78439000D02*
X195800000Y-78439000D01*
X194442000Y-78399000D02*
X195800000Y-78399000D01*
X194458000Y-78359000D02*
X195800000Y-78359000D01*
X194475000Y-78319000D02*
X195800000Y-78319000D01*
X194492000Y-78279000D02*
X195800000Y-78279000D01*
X194511000Y-78239000D02*
X195800000Y-78239000D01*
X194530000Y-78199000D02*
X195800000Y-78199000D01*
X194550000Y-78159000D02*
X195800000Y-78159000D01*
X194572000Y-78119000D02*
X195800000Y-78119000D01*
X194593000Y-78079000D02*
X195800000Y-78079000D01*
X194616000Y-78039000D02*
X195800000Y-78039000D01*
X194640000Y-77999000D02*
X195800000Y-77999000D01*
X194665000Y-77959000D02*
X195800000Y-77959000D01*
X194691000Y-77919000D02*
X195800000Y-77919000D01*
X194718000Y-77879000D02*
X195800000Y-77879000D01*
X194745000Y-77839000D02*
X195800000Y-77839000D01*
X194775000Y-77799000D02*
X195800000Y-77799000D01*
X194805000Y-77759000D02*
X195800000Y-77759000D01*
X194836000Y-77719000D02*
X195800000Y-77719000D01*
X194869000Y-77679000D02*
X195800000Y-77679000D01*
X194903000Y-77639000D02*
X195800000Y-77639000D01*
X194939000Y-77599000D02*
X195800000Y-77599000D01*
X194976000Y-77559000D02*
X195800000Y-77559000D01*
X195014000Y-77519000D02*
X195800000Y-77519000D01*
X195055000Y-77479000D02*
X195800000Y-77479000D01*
X195097000Y-77439000D02*
X195800000Y-77439000D01*
X195115000Y-81914775D02*
X195615000Y-81914775D01*
X195141000Y-77399000D02*
X195800000Y-77399000D01*
X195187000Y-77359000D02*
X195800000Y-77359000D01*
X195235000Y-77319000D02*
X195800000Y-77319000D01*
X195286000Y-77279000D02*
X195800000Y-77279000D01*
X195340000Y-77239000D02*
X195800000Y-77239000D01*
X195365000Y-82164775D02*
X195365000Y-81664775D01*
X195397000Y-77199000D02*
X195800000Y-77199000D01*
X195457000Y-77159000D02*
X195800000Y-77159000D01*
X195521000Y-77119000D02*
X195800000Y-77119000D01*
X195589000Y-77079000D02*
X195800000Y-77079000D01*
X195662000Y-77039000D02*
X198018000Y-77039000D01*
X195742000Y-76999000D02*
X197938000Y-76999000D01*
X195829000Y-76959000D02*
X197851000Y-76959000D01*
X195925000Y-76919000D02*
X197755000Y-76919000D01*
X196035000Y-76879000D02*
X197645000Y-76879000D01*
X196163000Y-76839000D02*
X197517000Y-76839000D01*
X196322000Y-76799000D02*
X197358000Y-76799000D01*
X196556000Y-76759000D02*
X197124000Y-76759000D01*
X197880000Y-77079000D02*
X198091000Y-77079000D01*
X197880000Y-77119000D02*
X198159000Y-77119000D01*
X197880000Y-77159000D02*
X198223000Y-77159000D01*
X197880000Y-77199000D02*
X198283000Y-77199000D01*
X197880000Y-77239000D02*
X198340000Y-77239000D01*
X197880000Y-77279000D02*
X198394000Y-77279000D01*
X197880000Y-77319000D02*
X198445000Y-77319000D01*
X197880000Y-77359000D02*
X198493000Y-77359000D01*
X197880000Y-77399000D02*
X198539000Y-77399000D01*
X197880000Y-77439000D02*
X198583000Y-77439000D01*
X197880000Y-77479000D02*
X198625000Y-77479000D01*
X197880000Y-77519000D02*
X198666000Y-77519000D01*
X197880000Y-77559000D02*
X198704000Y-77559000D01*
X197880000Y-77599000D02*
X198741000Y-77599000D01*
X197880000Y-77639000D02*
X198777000Y-77639000D01*
X197880000Y-77679000D02*
X198811000Y-77679000D01*
X197880000Y-77719000D02*
X198844000Y-77719000D01*
X197880000Y-77759000D02*
X198875000Y-77759000D01*
X197880000Y-77799000D02*
X198905000Y-77799000D01*
X197880000Y-77839000D02*
X198935000Y-77839000D01*
X197880000Y-77879000D02*
X198962000Y-77879000D01*
X197880000Y-77919000D02*
X198989000Y-77919000D01*
X197880000Y-77959000D02*
X199015000Y-77959000D01*
X197880000Y-77999000D02*
X199040000Y-77999000D01*
X197880000Y-78039000D02*
X199064000Y-78039000D01*
X197880000Y-78079000D02*
X199087000Y-78079000D01*
X197880000Y-78119000D02*
X199108000Y-78119000D01*
X197880000Y-78159000D02*
X199130000Y-78159000D01*
X197880000Y-78199000D02*
X199150000Y-78199000D01*
X197880000Y-78239000D02*
X199169000Y-78239000D01*
X197880000Y-78279000D02*
X199188000Y-78279000D01*
X197880000Y-78319000D02*
X199205000Y-78319000D01*
X197880000Y-78359000D02*
X199222000Y-78359000D01*
X197880000Y-78399000D02*
X199238000Y-78399000D01*
X197880000Y-78439000D02*
X199254000Y-78439000D01*
X197880000Y-78479000D02*
X199268000Y-78479000D01*
X197880000Y-78519000D02*
X199282000Y-78519000D01*
X197880000Y-78559000D02*
X199295000Y-78559000D01*
X197880000Y-78599000D02*
X199308000Y-78599000D01*
X197880000Y-78639000D02*
X199320000Y-78639000D01*
X197880000Y-78680000D02*
X199331000Y-78680000D01*
X197880000Y-78720000D02*
X199341000Y-78720000D01*
X197880000Y-78760000D02*
X199351000Y-78760000D01*
X197880000Y-78800000D02*
X199360000Y-78800000D01*
X197880000Y-78840000D02*
X199368000Y-78840000D01*
X197880000Y-78880000D02*
X199376000Y-78880000D01*
X197880000Y-78920000D02*
X199383000Y-78920000D01*
X197880000Y-78960000D02*
X199390000Y-78960000D01*
X197880000Y-79000000D02*
X199396000Y-79000000D01*
X197880000Y-79040000D02*
X199401000Y-79040000D01*
X197880000Y-79080000D02*
X199405000Y-79080000D01*
X197880000Y-79120000D02*
X199409000Y-79120000D01*
X199460000Y-79360000D02*
G75*
G02*
X194220000Y-79360000I-2620000J0D01*
G01*
X194220000Y-79360000D02*
G75*
G02*
X199460000Y-79360000I2620000J0D01*
G01*
D11*
G04 #@! TO.C,kibuzzard-674B2EE4*
G36*
X177200068Y-47836541D02*
G01*
X177248356Y-47899726D01*
X177268904Y-47971644D01*
X177281233Y-48075068D01*
X177285342Y-48210000D01*
X177281233Y-48344932D01*
X177268904Y-48448356D01*
X177248356Y-48520274D01*
X177200068Y-48583459D01*
X177129178Y-48604521D01*
X177058288Y-48583459D01*
X177010000Y-48520274D01*
X176989452Y-48448356D01*
X176977123Y-48344932D01*
X176973014Y-48210000D01*
X176977123Y-48075068D01*
X176989452Y-47971644D01*
X177010000Y-47899726D01*
X177058288Y-47836541D01*
X177129178Y-47815479D01*
X177200068Y-47836541D01*
G37*
G36*
X178750183Y-48837854D02*
G01*
X178373470Y-48837854D01*
X178088082Y-48837854D01*
X177793562Y-48837854D01*
X177129178Y-48837854D01*
X176266164Y-48837854D01*
X176131918Y-48837854D01*
X175846530Y-48837854D01*
X175808174Y-48710000D01*
X176131918Y-48710000D01*
X176266164Y-48710000D01*
X176289452Y-47860685D01*
X176293562Y-47860685D01*
X176371644Y-48477123D01*
X176501781Y-48477123D01*
X176586712Y-47860685D01*
X176588082Y-47860685D01*
X176608630Y-48710000D01*
X176755205Y-48710000D01*
X176729863Y-48210000D01*
X176827808Y-48210000D01*
X176831537Y-48329939D01*
X176842725Y-48432222D01*
X176861370Y-48516849D01*
X176902637Y-48613767D01*
X176959315Y-48677123D01*
X177033973Y-48712055D01*
X177129178Y-48723699D01*
X177224384Y-48712055D01*
X177299041Y-48677123D01*
X177355719Y-48613767D01*
X177396986Y-48516849D01*
X177415632Y-48432222D01*
X177426819Y-48329939D01*
X177430548Y-48210000D01*
X177426819Y-48090061D01*
X177415632Y-47987778D01*
X177408757Y-47956575D01*
X177553836Y-47956575D01*
X177568048Y-48053836D01*
X177610685Y-48134658D01*
X177657793Y-48182146D01*
X177723318Y-48227808D01*
X177807260Y-48271644D01*
X177865993Y-48306918D01*
X177905205Y-48346986D01*
X177927295Y-48395616D01*
X177934658Y-48456575D01*
X177925068Y-48520445D01*
X177896301Y-48566849D01*
X177850411Y-48595103D01*
X177789452Y-48604521D01*
X177709239Y-48594627D01*
X177632983Y-48564947D01*
X177560685Y-48515479D01*
X177560685Y-48657945D01*
X177631005Y-48694475D01*
X177708630Y-48716393D01*
X177793562Y-48723699D01*
X177899589Y-48712740D01*
X177982055Y-48679863D01*
X178040959Y-48625068D01*
X178076301Y-48548356D01*
X178088082Y-48449726D01*
X178073356Y-48343904D01*
X178029178Y-48259315D01*
X177979102Y-48210457D01*
X177907412Y-48162511D01*
X177814110Y-48115479D01*
X177753227Y-48074536D01*
X177716697Y-48019285D01*
X177704521Y-47949726D01*
X177714110Y-47893562D01*
X177742877Y-47851096D01*
X177788425Y-47824384D01*
X177848356Y-47815479D01*
X177954863Y-47830205D01*
X178060685Y-47874384D01*
X178060685Y-47737397D01*
X177987017Y-47714566D01*
X177910304Y-47700868D01*
X177830548Y-47696301D01*
X177748737Y-47703912D01*
X177680472Y-47726743D01*
X177625753Y-47764795D01*
X177571815Y-47846986D01*
X177553836Y-47956575D01*
X177408757Y-47956575D01*
X177396986Y-47903151D01*
X177355719Y-47806233D01*
X177299041Y-47742877D01*
X177224384Y-47707945D01*
X177129178Y-47696301D01*
X177033973Y-47707945D01*
X176959315Y-47742877D01*
X176902637Y-47806233D01*
X176861370Y-47903151D01*
X176842725Y-47987778D01*
X176831537Y-48090061D01*
X176827808Y-48210000D01*
X176729863Y-48210000D01*
X176704521Y-47710000D01*
X176531918Y-47710000D01*
X176449726Y-48346986D01*
X176446986Y-48346986D01*
X176363425Y-47710000D01*
X176183973Y-47710000D01*
X176131918Y-48710000D01*
X175808174Y-48710000D01*
X175469817Y-47582146D01*
X175846530Y-47582146D01*
X176131918Y-47582146D01*
X178088082Y-47582146D01*
X178373470Y-47582146D01*
X178750183Y-48837854D01*
G37*
D12*
G04 #@! TO.C,D4*
X164747500Y-62045000D02*
X167432500Y-62045000D01*
X167432500Y-60125000D02*
X164747500Y-60125000D01*
X167432500Y-62045000D02*
X167432500Y-60125000D01*
G04 #@! TO.C,U1*
X182730000Y-61445000D02*
X182730000Y-97245000D01*
X182730000Y-97245000D02*
X193230000Y-97245000D01*
X185730000Y-61505000D02*
X185730000Y-97185000D01*
X185730000Y-97185000D02*
X190230000Y-97185000D01*
X186980000Y-61505000D02*
X185730000Y-61505000D01*
X190230000Y-61505000D02*
X188980000Y-61505000D01*
X190230000Y-97185000D02*
X190230000Y-61505000D01*
X193230000Y-61445000D02*
X182730000Y-61445000D01*
X193230000Y-97245000D02*
X193230000Y-61445000D01*
X188980000Y-61505000D02*
G75*
G02*
X186980000Y-61505000I-1000000J0D01*
G01*
G04 #@! TO.C,D2*
X180805000Y-66610000D02*
X177715000Y-66610000D01*
X179260462Y-72160000D02*
G75*
G02*
X177715170Y-66610000I-462J2990000D01*
G01*
X180804830Y-66610000D02*
G75*
G02*
X179259538Y-72160000I-1544830J-2560000D01*
G01*
X181760000Y-69170000D02*
G75*
G02*
X176760000Y-69170000I-2500000J0D01*
G01*
X176760000Y-69170000D02*
G75*
G02*
X181760000Y-69170000I2500000J0D01*
G01*
G04 #@! TO.C,R6*
X161970436Y-60345000D02*
X162424564Y-60345000D01*
X161970436Y-61815000D02*
X162424564Y-61815000D01*
G04 #@! TO.C,J1*
X170060000Y-44450000D02*
X171390000Y-44450000D01*
X170060000Y-45780000D02*
X170060000Y-44450000D01*
X172660000Y-44450000D02*
X190500000Y-44450000D01*
X172660000Y-47110000D02*
X172660000Y-44450000D01*
X172660000Y-47110000D02*
X190500000Y-47110000D01*
X190500000Y-47110000D02*
X190500000Y-44450000D01*
D11*
G04 #@! TO.C,kibuzzard-674B2E9A*
G36*
X175819224Y-48837854D02*
G01*
X175442511Y-48837854D01*
X175157123Y-48837854D01*
X174748904Y-48837854D01*
X174233836Y-48837854D01*
X173462603Y-48837854D01*
X173222877Y-48837854D01*
X172937489Y-48837854D01*
X172673105Y-47956575D01*
X173222877Y-47956575D01*
X173237089Y-48053836D01*
X173279726Y-48134658D01*
X173326834Y-48182146D01*
X173392359Y-48227808D01*
X173476301Y-48271644D01*
X173535034Y-48306918D01*
X173574247Y-48346986D01*
X173596336Y-48395616D01*
X173603699Y-48456575D01*
X173594110Y-48520445D01*
X173565342Y-48566849D01*
X173519452Y-48595103D01*
X173458493Y-48604521D01*
X173378280Y-48594627D01*
X173302024Y-48564947D01*
X173229726Y-48515479D01*
X173229726Y-48657945D01*
X173300046Y-48694475D01*
X173377671Y-48716393D01*
X173462603Y-48723699D01*
X173568630Y-48712740D01*
X173651096Y-48679863D01*
X173710000Y-48625068D01*
X173745342Y-48548356D01*
X173757123Y-48449726D01*
X173742397Y-48343904D01*
X173698219Y-48259315D01*
X173648143Y-48210457D01*
X173626977Y-48196301D01*
X173887260Y-48196301D01*
X173892676Y-48319910D01*
X173908921Y-48427038D01*
X173935997Y-48517684D01*
X173973904Y-48591849D01*
X174022641Y-48649533D01*
X174082209Y-48690736D01*
X174152607Y-48715458D01*
X174233836Y-48723699D01*
X174325274Y-48715137D01*
X174341781Y-48710000D01*
X174595479Y-48710000D01*
X174748904Y-48710000D01*
X174748904Y-48230548D01*
X174751644Y-48230548D01*
X174991370Y-48710000D01*
X175157123Y-48710000D01*
X174888630Y-48186712D01*
X175150274Y-47710000D01*
X174985890Y-47710000D01*
X174751644Y-48148356D01*
X174748904Y-48148356D01*
X174748904Y-47710000D01*
X174595479Y-47710000D01*
X174595479Y-48710000D01*
X174341781Y-48710000D01*
X174407808Y-48689452D01*
X174407808Y-48563425D01*
X174329726Y-48595274D01*
X174257123Y-48605890D01*
X174190152Y-48594513D01*
X174135358Y-48560381D01*
X174092740Y-48503493D01*
X174062298Y-48423851D01*
X174044033Y-48321454D01*
X174037945Y-48196301D01*
X174043463Y-48080358D01*
X174060015Y-47985495D01*
X174087603Y-47911712D01*
X174126225Y-47859011D01*
X174175883Y-47827390D01*
X174236575Y-47816849D01*
X174268082Y-47822329D01*
X174268082Y-48036027D01*
X174414658Y-48036027D01*
X174414658Y-47726438D01*
X174327329Y-47703836D01*
X174229726Y-47696301D01*
X174149461Y-47704114D01*
X174079897Y-47727551D01*
X174021036Y-47766614D01*
X173972877Y-47821301D01*
X173935420Y-47891614D01*
X173908664Y-47977551D01*
X173892611Y-48079114D01*
X173887260Y-48196301D01*
X173626977Y-48196301D01*
X173576454Y-48162511D01*
X173483151Y-48115479D01*
X173422268Y-48074536D01*
X173385738Y-48019285D01*
X173373562Y-47949726D01*
X173383151Y-47893562D01*
X173411918Y-47851096D01*
X173457466Y-47824384D01*
X173517397Y-47815479D01*
X173623904Y-47830205D01*
X173729726Y-47874384D01*
X173729726Y-47737397D01*
X173656058Y-47714566D01*
X173579346Y-47700868D01*
X173499589Y-47696301D01*
X173417778Y-47703912D01*
X173349513Y-47726743D01*
X173294795Y-47764795D01*
X173240856Y-47846986D01*
X173222877Y-47956575D01*
X172673105Y-47956575D01*
X172560776Y-47582146D01*
X172937489Y-47582146D01*
X173222877Y-47582146D01*
X175157123Y-47582146D01*
X175442511Y-47582146D01*
X175819224Y-48837854D01*
G37*
G04 #@! TO.C,kibuzzard-674B2C7F*
G36*
X167559504Y-47591537D02*
G01*
X167621782Y-47600775D01*
X167682854Y-47616073D01*
X167742133Y-47637283D01*
X167799047Y-47664201D01*
X167853048Y-47696569D01*
X167903618Y-47734073D01*
X167950267Y-47776354D01*
X167992548Y-47823003D01*
X168030052Y-47873573D01*
X168062420Y-47927574D01*
X168089338Y-47984489D01*
X168110548Y-48043767D01*
X168125846Y-48104839D01*
X168135084Y-48167117D01*
X168138173Y-48230000D01*
X168135084Y-48292883D01*
X168125846Y-48355161D01*
X168110548Y-48416233D01*
X168089338Y-48475511D01*
X168062420Y-48532426D01*
X168030052Y-48586427D01*
X167992548Y-48636997D01*
X167950267Y-48683646D01*
X167903618Y-48725927D01*
X167853048Y-48763431D01*
X167799047Y-48795799D01*
X167742133Y-48822717D01*
X167682854Y-48843927D01*
X167621782Y-48859225D01*
X167559504Y-48868463D01*
X167496621Y-48871553D01*
X167211233Y-48871553D01*
X166987945Y-48871553D01*
X166174247Y-48871553D01*
X165375616Y-48871553D01*
X164933151Y-48871553D01*
X164119452Y-48871553D01*
X163320822Y-48871553D01*
X162878356Y-48871553D01*
X162064658Y-48871553D01*
X161868767Y-48871553D01*
X161583379Y-48871553D01*
X161520496Y-48868463D01*
X161458218Y-48859225D01*
X161397146Y-48843927D01*
X161337868Y-48822717D01*
X161280953Y-48795799D01*
X161226952Y-48763431D01*
X161218816Y-48757397D01*
X163189315Y-48757397D01*
X163320822Y-48757397D01*
X165244110Y-48757397D01*
X165375616Y-48757397D01*
X165464133Y-48545068D01*
X165978356Y-48545068D01*
X165978356Y-48675205D01*
X166072534Y-48706027D01*
X166174247Y-48716301D01*
X166268158Y-48707778D01*
X166343501Y-48682207D01*
X166400274Y-48639589D01*
X166439848Y-48577184D01*
X166463592Y-48492253D01*
X166471507Y-48384795D01*
X166462740Y-48268904D01*
X166436438Y-48178767D01*
X166392603Y-48114384D01*
X166331233Y-48075753D01*
X166252329Y-48062877D01*
X166187260Y-48071438D01*
X166131781Y-48097123D01*
X166129041Y-48097123D01*
X166138630Y-47820411D01*
X166444110Y-47820411D01*
X166444110Y-47702603D01*
X166587945Y-47702603D01*
X166809863Y-48702603D01*
X166987945Y-48702603D01*
X167211233Y-47702603D01*
X167059178Y-47702603D01*
X166903014Y-48565616D01*
X166901644Y-48565616D01*
X166745479Y-47702603D01*
X166587945Y-47702603D01*
X166444110Y-47702603D01*
X165998904Y-47702603D01*
X165985206Y-48234110D01*
X166111233Y-48234110D01*
X166158836Y-48193014D01*
X166211233Y-48179315D01*
X166292055Y-48226575D01*
X166311575Y-48289760D01*
X166318082Y-48384795D01*
X166308836Y-48484966D01*
X166281096Y-48549863D01*
X166233151Y-48585308D01*
X166163288Y-48597123D01*
X166071849Y-48584110D01*
X165978356Y-48545068D01*
X165464133Y-48545068D01*
X165815343Y-47702603D01*
X165683836Y-47702603D01*
X165244110Y-48757397D01*
X163320822Y-48757397D01*
X163409338Y-48545068D01*
X163923562Y-48545068D01*
X163923562Y-48675205D01*
X164017740Y-48706027D01*
X164119452Y-48716301D01*
X164213364Y-48707778D01*
X164288706Y-48682207D01*
X164345479Y-48639589D01*
X164385053Y-48577184D01*
X164408798Y-48492253D01*
X164416712Y-48384795D01*
X164407945Y-48268904D01*
X164381644Y-48178767D01*
X164337808Y-48114384D01*
X164276438Y-48075753D01*
X164197534Y-48062877D01*
X164132466Y-48071438D01*
X164076986Y-48097123D01*
X164074247Y-48097123D01*
X164083836Y-47820411D01*
X164389315Y-47820411D01*
X164389315Y-47702603D01*
X164533151Y-47702603D01*
X164755069Y-48702603D01*
X164933151Y-48702603D01*
X165156438Y-47702603D01*
X165004384Y-47702603D01*
X164848219Y-48565616D01*
X164846849Y-48565616D01*
X164690685Y-47702603D01*
X164533151Y-47702603D01*
X164389315Y-47702603D01*
X163944110Y-47702603D01*
X163930411Y-48234110D01*
X164056438Y-48234110D01*
X164104041Y-48193014D01*
X164156438Y-48179315D01*
X164237260Y-48226575D01*
X164256781Y-48289760D01*
X164263288Y-48384795D01*
X164254041Y-48484966D01*
X164226301Y-48549863D01*
X164178356Y-48585308D01*
X164108493Y-48597123D01*
X164017055Y-48584110D01*
X163923562Y-48545068D01*
X163409338Y-48545068D01*
X163760548Y-47702603D01*
X163629041Y-47702603D01*
X163189315Y-48757397D01*
X161218816Y-48757397D01*
X161176382Y-48725927D01*
X161129733Y-48683646D01*
X161087452Y-48636997D01*
X161049948Y-48586427D01*
X161025158Y-48545068D01*
X161868767Y-48545068D01*
X161868767Y-48675205D01*
X161962945Y-48706027D01*
X162064658Y-48716301D01*
X162158569Y-48707778D01*
X162233912Y-48682207D01*
X162290685Y-48639589D01*
X162330259Y-48577184D01*
X162354003Y-48492253D01*
X162361918Y-48384795D01*
X162353151Y-48268904D01*
X162326849Y-48178767D01*
X162283014Y-48114384D01*
X162221644Y-48075753D01*
X162142740Y-48062877D01*
X162077671Y-48071438D01*
X162022192Y-48097123D01*
X162019452Y-48097123D01*
X162029041Y-47820411D01*
X162334521Y-47820411D01*
X162334521Y-47702603D01*
X162478356Y-47702603D01*
X162700274Y-48702603D01*
X162878356Y-48702603D01*
X163101644Y-47702603D01*
X162949589Y-47702603D01*
X162793425Y-48565616D01*
X162792055Y-48565616D01*
X162635890Y-47702603D01*
X162478356Y-47702603D01*
X162334521Y-47702603D01*
X161889315Y-47702603D01*
X161875616Y-48234110D01*
X162001644Y-48234110D01*
X162049247Y-48193014D01*
X162101644Y-48179315D01*
X162182466Y-48226575D01*
X162201986Y-48289760D01*
X162208493Y-48384795D01*
X162199247Y-48484966D01*
X162171507Y-48549863D01*
X162123562Y-48585308D01*
X162053699Y-48597123D01*
X161962260Y-48584110D01*
X161868767Y-48545068D01*
X161025158Y-48545068D01*
X161017580Y-48532426D01*
X160990662Y-48475512D01*
X160969452Y-48416233D01*
X160954154Y-48355161D01*
X160944916Y-48292883D01*
X160941827Y-48230000D01*
X160944916Y-48167117D01*
X160954154Y-48104839D01*
X160969452Y-48043767D01*
X160990662Y-47984488D01*
X161017580Y-47927574D01*
X161049948Y-47873573D01*
X161087452Y-47823003D01*
X161129733Y-47776354D01*
X161176382Y-47734073D01*
X161226952Y-47696569D01*
X161280953Y-47664201D01*
X161337868Y-47637283D01*
X161397146Y-47616073D01*
X161458218Y-47600775D01*
X161520496Y-47591537D01*
X161583379Y-47588447D01*
X161868767Y-47588447D01*
X167211233Y-47588447D01*
X167496621Y-47588447D01*
X167559504Y-47591537D01*
G37*
D12*
G04 #@! TO.C,R4*
X193560000Y-68250000D02*
X193560000Y-74790000D01*
X193560000Y-74790000D02*
X193890000Y-74790000D01*
X193890000Y-68250000D02*
X193560000Y-68250000D01*
X195970000Y-68250000D02*
X196300000Y-68250000D01*
X196300000Y-68250000D02*
X196300000Y-74790000D01*
X196300000Y-74790000D02*
X195970000Y-74790000D01*
G04 #@! TO.C,J7*
X196410000Y-60910000D02*
X197740000Y-60910000D01*
X196410000Y-62240000D02*
X196410000Y-60910000D01*
X196410000Y-63510000D02*
X196410000Y-66110000D01*
X196410000Y-63510000D02*
X199070000Y-63510000D01*
X196410000Y-66110000D02*
X199070000Y-66110000D01*
X199070000Y-63510000D02*
X199070000Y-66110000D01*
D11*
G04 #@! TO.C,kibuzzard-674B2EF3*
G36*
X181680183Y-48837854D02*
G01*
X181303470Y-48837854D01*
X181018082Y-48837854D01*
X180723562Y-48837854D01*
X180292055Y-48837854D01*
X179196164Y-48837854D01*
X179061918Y-48837854D01*
X178776530Y-48837854D01*
X178738174Y-48710000D01*
X179061918Y-48710000D01*
X179196164Y-48710000D01*
X179219452Y-47860685D01*
X179223562Y-47860685D01*
X179301644Y-48477123D01*
X179431781Y-48477123D01*
X179516712Y-47860685D01*
X179518082Y-47860685D01*
X179538630Y-48710000D01*
X179685205Y-48710000D01*
X179640561Y-47829178D01*
X179826301Y-47829178D01*
X179979726Y-47829178D01*
X179979726Y-48590822D01*
X179826301Y-48590822D01*
X179826301Y-48710000D01*
X180292055Y-48710000D01*
X180292055Y-48590822D01*
X180138630Y-48590822D01*
X180138630Y-47956575D01*
X180483836Y-47956575D01*
X180498048Y-48053836D01*
X180540685Y-48134658D01*
X180587793Y-48182146D01*
X180653318Y-48227808D01*
X180737260Y-48271644D01*
X180795993Y-48306918D01*
X180835205Y-48346986D01*
X180857295Y-48395616D01*
X180864658Y-48456575D01*
X180855068Y-48520445D01*
X180826301Y-48566849D01*
X180780411Y-48595103D01*
X180719452Y-48604521D01*
X180639239Y-48594627D01*
X180562983Y-48564947D01*
X180490685Y-48515479D01*
X180490685Y-48657945D01*
X180561005Y-48694475D01*
X180638630Y-48716393D01*
X180723562Y-48723699D01*
X180829589Y-48712740D01*
X180912055Y-48679863D01*
X180970959Y-48625068D01*
X181006301Y-48548356D01*
X181018082Y-48449726D01*
X181003356Y-48343904D01*
X180959178Y-48259315D01*
X180909102Y-48210457D01*
X180837412Y-48162511D01*
X180744110Y-48115479D01*
X180683227Y-48074536D01*
X180646697Y-48019285D01*
X180634521Y-47949726D01*
X180644110Y-47893562D01*
X180672877Y-47851096D01*
X180718425Y-47824384D01*
X180778356Y-47815479D01*
X180884863Y-47830205D01*
X180990685Y-47874384D01*
X180990685Y-47737397D01*
X180917017Y-47714566D01*
X180840304Y-47700868D01*
X180760548Y-47696301D01*
X180678737Y-47703912D01*
X180610472Y-47726743D01*
X180555753Y-47764795D01*
X180501815Y-47846986D01*
X180483836Y-47956575D01*
X180138630Y-47956575D01*
X180138630Y-47829178D01*
X180292055Y-47829178D01*
X180292055Y-47710000D01*
X179826301Y-47710000D01*
X179826301Y-47829178D01*
X179640561Y-47829178D01*
X179634521Y-47710000D01*
X179461918Y-47710000D01*
X179379726Y-48346986D01*
X179376986Y-48346986D01*
X179293425Y-47710000D01*
X179113973Y-47710000D01*
X179061918Y-48710000D01*
X178738174Y-48710000D01*
X178399817Y-47582146D01*
X178776530Y-47582146D01*
X179061918Y-47582146D01*
X181018082Y-47582146D01*
X181303470Y-47582146D01*
X181680183Y-48837854D01*
G37*
D12*
G04 #@! TO.C,SW1*
X196790000Y-70430000D02*
X197090000Y-70430000D01*
X196790000Y-73730000D02*
X196790000Y-70430000D01*
X197090000Y-73730000D02*
X196790000Y-73730000D01*
X199290000Y-73730000D02*
X199590000Y-73730000D01*
X199590000Y-70430000D02*
X199290000Y-70430000D01*
X199590000Y-73730000D02*
X199590000Y-70430000D01*
G04 #@! TO.C,C2*
X195780000Y-85160000D02*
X194251000Y-85160000D01*
X195780000Y-85200000D02*
X194255000Y-85200000D01*
X195780000Y-85240000D02*
X194259000Y-85240000D01*
X195780000Y-85280000D02*
X194264000Y-85280000D01*
X195780000Y-85320000D02*
X194270000Y-85320000D01*
X195780000Y-85360000D02*
X194277000Y-85360000D01*
X195780000Y-85400000D02*
X194284000Y-85400000D01*
X195780000Y-85440000D02*
X194292000Y-85440000D01*
X195780000Y-85480000D02*
X194300000Y-85480000D01*
X195780000Y-85520000D02*
X194309000Y-85520000D01*
X195780000Y-85560000D02*
X194319000Y-85560000D01*
X195780000Y-85600000D02*
X194329000Y-85600000D01*
X195780000Y-85641000D02*
X194340000Y-85641000D01*
X195780000Y-85681000D02*
X194352000Y-85681000D01*
X195780000Y-85721000D02*
X194365000Y-85721000D01*
X195780000Y-85761000D02*
X194378000Y-85761000D01*
X195780000Y-85801000D02*
X194392000Y-85801000D01*
X195780000Y-85841000D02*
X194406000Y-85841000D01*
X195780000Y-85881000D02*
X194422000Y-85881000D01*
X195780000Y-85921000D02*
X194438000Y-85921000D01*
X195780000Y-85961000D02*
X194455000Y-85961000D01*
X195780000Y-86001000D02*
X194472000Y-86001000D01*
X195780000Y-86041000D02*
X194491000Y-86041000D01*
X195780000Y-86081000D02*
X194510000Y-86081000D01*
X195780000Y-86121000D02*
X194530000Y-86121000D01*
X195780000Y-86161000D02*
X194552000Y-86161000D01*
X195780000Y-86201000D02*
X194573000Y-86201000D01*
X195780000Y-86241000D02*
X194596000Y-86241000D01*
X195780000Y-86281000D02*
X194620000Y-86281000D01*
X195780000Y-86321000D02*
X194645000Y-86321000D01*
X195780000Y-86361000D02*
X194671000Y-86361000D01*
X195780000Y-86401000D02*
X194698000Y-86401000D01*
X195780000Y-86441000D02*
X194725000Y-86441000D01*
X195780000Y-86481000D02*
X194755000Y-86481000D01*
X195780000Y-86521000D02*
X194785000Y-86521000D01*
X195780000Y-86561000D02*
X194816000Y-86561000D01*
X195780000Y-86601000D02*
X194849000Y-86601000D01*
X195780000Y-86641000D02*
X194883000Y-86641000D01*
X195780000Y-86681000D02*
X194919000Y-86681000D01*
X195780000Y-86721000D02*
X194956000Y-86721000D01*
X195780000Y-86761000D02*
X194994000Y-86761000D01*
X195780000Y-86801000D02*
X195035000Y-86801000D01*
X195780000Y-86841000D02*
X195077000Y-86841000D01*
X195780000Y-86881000D02*
X195121000Y-86881000D01*
X195780000Y-86921000D02*
X195167000Y-86921000D01*
X195780000Y-86961000D02*
X195215000Y-86961000D01*
X195780000Y-87001000D02*
X195266000Y-87001000D01*
X195780000Y-87041000D02*
X195320000Y-87041000D01*
X195780000Y-87081000D02*
X195377000Y-87081000D01*
X195780000Y-87121000D02*
X195437000Y-87121000D01*
X195780000Y-87161000D02*
X195501000Y-87161000D01*
X195780000Y-87201000D02*
X195569000Y-87201000D01*
X197104000Y-87521000D02*
X196536000Y-87521000D01*
X197338000Y-87481000D02*
X196302000Y-87481000D01*
X197497000Y-87441000D02*
X196143000Y-87441000D01*
X197625000Y-87401000D02*
X196015000Y-87401000D01*
X197735000Y-87361000D02*
X195905000Y-87361000D01*
X197831000Y-87321000D02*
X195809000Y-87321000D01*
X197918000Y-87281000D02*
X195722000Y-87281000D01*
X197998000Y-87241000D02*
X195642000Y-87241000D01*
X198071000Y-87201000D02*
X197860000Y-87201000D01*
X198139000Y-87161000D02*
X197860000Y-87161000D01*
X198203000Y-87121000D02*
X197860000Y-87121000D01*
X198263000Y-87081000D02*
X197860000Y-87081000D01*
X198295000Y-82115225D02*
X198295000Y-82615225D01*
X198320000Y-87041000D02*
X197860000Y-87041000D01*
X198374000Y-87001000D02*
X197860000Y-87001000D01*
X198425000Y-86961000D02*
X197860000Y-86961000D01*
X198473000Y-86921000D02*
X197860000Y-86921000D01*
X198519000Y-86881000D02*
X197860000Y-86881000D01*
X198545000Y-82365225D02*
X198045000Y-82365225D01*
X198563000Y-86841000D02*
X197860000Y-86841000D01*
X198605000Y-86801000D02*
X197860000Y-86801000D01*
X198646000Y-86761000D02*
X197860000Y-86761000D01*
X198684000Y-86721000D02*
X197860000Y-86721000D01*
X198721000Y-86681000D02*
X197860000Y-86681000D01*
X198757000Y-86641000D02*
X197860000Y-86641000D01*
X198791000Y-86601000D02*
X197860000Y-86601000D01*
X198824000Y-86561000D02*
X197860000Y-86561000D01*
X198855000Y-86521000D02*
X197860000Y-86521000D01*
X198885000Y-86481000D02*
X197860000Y-86481000D01*
X198915000Y-86441000D02*
X197860000Y-86441000D01*
X198942000Y-86401000D02*
X197860000Y-86401000D01*
X198969000Y-86361000D02*
X197860000Y-86361000D01*
X198995000Y-86321000D02*
X197860000Y-86321000D01*
X199020000Y-86281000D02*
X197860000Y-86281000D01*
X199044000Y-86241000D02*
X197860000Y-86241000D01*
X199067000Y-86201000D02*
X197860000Y-86201000D01*
X199088000Y-86161000D02*
X197860000Y-86161000D01*
X199110000Y-86121000D02*
X197860000Y-86121000D01*
X199130000Y-86081000D02*
X197860000Y-86081000D01*
X199149000Y-86041000D02*
X197860000Y-86041000D01*
X199168000Y-86001000D02*
X197860000Y-86001000D01*
X199185000Y-85961000D02*
X197860000Y-85961000D01*
X199202000Y-85921000D02*
X197860000Y-85921000D01*
X199218000Y-85881000D02*
X197860000Y-85881000D01*
X199234000Y-85841000D02*
X197860000Y-85841000D01*
X199248000Y-85801000D02*
X197860000Y-85801000D01*
X199262000Y-85761000D02*
X197860000Y-85761000D01*
X199275000Y-85721000D02*
X197860000Y-85721000D01*
X199288000Y-85681000D02*
X197860000Y-85681000D01*
X199300000Y-85641000D02*
X197860000Y-85641000D01*
X199311000Y-85600000D02*
X197860000Y-85600000D01*
X199321000Y-85560000D02*
X197860000Y-85560000D01*
X199331000Y-85520000D02*
X197860000Y-85520000D01*
X199340000Y-85480000D02*
X197860000Y-85480000D01*
X199348000Y-85440000D02*
X197860000Y-85440000D01*
X199356000Y-85400000D02*
X197860000Y-85400000D01*
X199363000Y-85360000D02*
X197860000Y-85360000D01*
X199370000Y-85320000D02*
X197860000Y-85320000D01*
X199376000Y-85280000D02*
X197860000Y-85280000D01*
X199381000Y-85240000D02*
X197860000Y-85240000D01*
X199385000Y-85200000D02*
X197860000Y-85200000D01*
X199389000Y-85160000D02*
X197860000Y-85160000D01*
X199393000Y-85120000D02*
X194247000Y-85120000D01*
X199396000Y-85080000D02*
X194244000Y-85080000D01*
X199398000Y-85040000D02*
X194242000Y-85040000D01*
X199399000Y-85000000D02*
X194241000Y-85000000D01*
X199400000Y-84920000D02*
X194240000Y-84920000D01*
X199400000Y-84960000D02*
X194240000Y-84960000D01*
X199440000Y-84920000D02*
G75*
G02*
X194200000Y-84920000I-2620000J0D01*
G01*
X194200000Y-84920000D02*
G75*
G02*
X199440000Y-84920000I2620000J0D01*
G01*
D11*
G04 #@! TO.C,kibuzzard-674B2F69*
G36*
X190238495Y-47591986D02*
G01*
X190298778Y-47600928D01*
X190357894Y-47615736D01*
X190415274Y-47636267D01*
X190470365Y-47662323D01*
X190522637Y-47693654D01*
X190571587Y-47729957D01*
X190616742Y-47770883D01*
X190657669Y-47816039D01*
X190693972Y-47864988D01*
X190725303Y-47917260D01*
X190751359Y-47972352D01*
X190771890Y-48029732D01*
X190786698Y-48088848D01*
X190795640Y-48149131D01*
X190798630Y-48210000D01*
X190795640Y-48270869D01*
X190786698Y-48331152D01*
X190771890Y-48390268D01*
X190751359Y-48447648D01*
X190725303Y-48502740D01*
X190693972Y-48555012D01*
X190657669Y-48603961D01*
X190616742Y-48649117D01*
X190571587Y-48690043D01*
X190522637Y-48726346D01*
X190470365Y-48757677D01*
X190415274Y-48783733D01*
X190357894Y-48804264D01*
X190298778Y-48819072D01*
X190238495Y-48828014D01*
X190177626Y-48831005D01*
X189892237Y-48831005D01*
X189668950Y-48831005D01*
X188855251Y-48831005D01*
X188659361Y-48831005D01*
X188373973Y-48831005D01*
X188288356Y-48545616D01*
X188659361Y-48545616D01*
X188659361Y-48675753D01*
X188753539Y-48706575D01*
X188855251Y-48716849D01*
X188949163Y-48708326D01*
X189024505Y-48682755D01*
X189081279Y-48640137D01*
X189120852Y-48577732D01*
X189144597Y-48492801D01*
X189152511Y-48385342D01*
X189143744Y-48269452D01*
X189117443Y-48179315D01*
X189073607Y-48114932D01*
X189012237Y-48076301D01*
X188933333Y-48063425D01*
X188868265Y-48071986D01*
X188812785Y-48097671D01*
X188810046Y-48097671D01*
X188819635Y-47820959D01*
X189125114Y-47820959D01*
X189125114Y-47703151D01*
X189268950Y-47703151D01*
X189490868Y-48703151D01*
X189668950Y-48703151D01*
X189892237Y-47703151D01*
X189740183Y-47703151D01*
X189584018Y-48566164D01*
X189582648Y-48566164D01*
X189426484Y-47703151D01*
X189268950Y-47703151D01*
X189125114Y-47703151D01*
X188679909Y-47703151D01*
X188666210Y-48234658D01*
X188792237Y-48234658D01*
X188839840Y-48193562D01*
X188892237Y-48179863D01*
X188973059Y-48227123D01*
X188992580Y-48290308D01*
X188999087Y-48385342D01*
X188989840Y-48485514D01*
X188962100Y-48550411D01*
X188914155Y-48585856D01*
X188844292Y-48597671D01*
X188752854Y-48584658D01*
X188659361Y-48545616D01*
X188288356Y-48545616D01*
X188001370Y-47588995D01*
X188373973Y-47588995D01*
X188659361Y-47588995D01*
X189892237Y-47588995D01*
X190177626Y-47588995D01*
X190238495Y-47591986D01*
G37*
G04 #@! TD*
%LPC*%
D13*
G04 #@! TO.C,R5*
X163132500Y-64110000D03*
X161307500Y-64110000D03*
G04 #@! TD*
D14*
G04 #@! TO.C,C4*
X171280000Y-87740000D03*
D15*
X168780000Y-87740000D03*
G04 #@! TD*
D16*
G04 #@! TO.C,D5*
X166685000Y-58045000D03*
X164810000Y-58045000D03*
G04 #@! TD*
D14*
G04 #@! TO.C,C3*
X168860000Y-81110000D03*
D15*
X171360000Y-81110000D03*
G04 #@! TD*
D16*
G04 #@! TO.C,D3*
X166685000Y-64125000D03*
X164810000Y-64125000D03*
G04 #@! TD*
D17*
G04 #@! TO.C,D1*
X166895000Y-94950000D03*
D18*
X169435000Y-94950000D03*
G04 #@! TD*
D19*
G04 #@! TO.C,J6*
X162085000Y-45990000D03*
D20*
X164625000Y-45990000D03*
X167165000Y-45990000D03*
G04 #@! TD*
D14*
G04 #@! TO.C,C5*
X179750000Y-76515112D03*
D15*
X179750000Y-74015112D03*
G04 #@! TD*
D21*
G04 #@! TO.C,Y1*
X175720000Y-81995000D03*
X175720000Y-86875000D03*
G04 #@! TD*
D19*
G04 #@! TO.C,J5*
X197920000Y-56150000D03*
D20*
X197920000Y-53610000D03*
X197920000Y-51070000D03*
X197920000Y-48530000D03*
X197920000Y-45990000D03*
G04 #@! TD*
D19*
G04 #@! TO.C,J3*
X194210000Y-46025000D03*
D20*
X194210000Y-48565000D03*
G04 #@! TD*
D19*
G04 #@! TO.C,J2*
X162840000Y-51820000D03*
D20*
X165380000Y-51820000D03*
X167920000Y-51820000D03*
X170460000Y-51820000D03*
G04 #@! TD*
D22*
G04 #@! TO.C,R7*
X161275000Y-58040000D03*
X163100000Y-58040000D03*
G04 #@! TD*
D15*
G04 #@! TO.C,R2*
X180670000Y-95300000D03*
D23*
X173050000Y-95300000D03*
G04 #@! TD*
D15*
G04 #@! TO.C,R1*
X180680000Y-92140000D03*
D23*
X173060000Y-92140000D03*
G04 #@! TD*
D14*
G04 #@! TO.C,BZ1*
X191100000Y-58430000D03*
D15*
X191100000Y-55230000D03*
G04 #@! TD*
G04 #@! TO.C,R3*
X180710000Y-80690000D03*
D23*
X180710000Y-88310000D03*
G04 #@! TD*
D14*
G04 #@! TO.C,C1*
X196840000Y-80610000D03*
D15*
X196840000Y-78110000D03*
G04 #@! TD*
D16*
G04 #@! TO.C,D4*
X166685000Y-61085000D03*
X164810000Y-61085000D03*
G04 #@! TD*
D24*
G04 #@! TO.C,U1*
X184170000Y-62835000D03*
D25*
X184170000Y-65375000D03*
X184170000Y-67915000D03*
X184170000Y-70455000D03*
X184170000Y-72995000D03*
X184170000Y-75535000D03*
X184170000Y-78075000D03*
X184170000Y-80615000D03*
X184170000Y-83155000D03*
X184170000Y-85695000D03*
X184170000Y-88235000D03*
X184170000Y-90775000D03*
X184170000Y-93315000D03*
X184170000Y-95855000D03*
X191790000Y-95855000D03*
X191790000Y-93315000D03*
X191790000Y-90775000D03*
X191790000Y-88235000D03*
X191790000Y-85695000D03*
X191790000Y-83155000D03*
X191790000Y-80615000D03*
X191790000Y-78075000D03*
X191790000Y-75535000D03*
X191790000Y-72995000D03*
X191790000Y-70455000D03*
X191790000Y-67915000D03*
X191790000Y-65375000D03*
X191790000Y-62835000D03*
G04 #@! TD*
D17*
G04 #@! TO.C,D2*
X179260000Y-67900000D03*
D18*
X179260000Y-70440000D03*
G04 #@! TD*
D22*
G04 #@! TO.C,R6*
X161285000Y-61080000D03*
X163110000Y-61080000D03*
G04 #@! TD*
D19*
G04 #@! TO.C,J1*
X171390000Y-45780000D03*
D20*
X173930000Y-45780000D03*
X176470000Y-45780000D03*
X179010000Y-45780000D03*
X181550000Y-45780000D03*
X184090000Y-45780000D03*
X186630000Y-45780000D03*
X189170000Y-45780000D03*
G04 #@! TD*
D15*
G04 #@! TO.C,R4*
X194930000Y-67710000D03*
D23*
X194930000Y-75330000D03*
G04 #@! TD*
D19*
G04 #@! TO.C,J7*
X197740000Y-62240000D03*
D20*
X197740000Y-64780000D03*
G04 #@! TD*
D26*
G04 #@! TO.C,SW1*
X198190000Y-72080000D03*
D27*
X198190000Y-73780000D03*
X198190000Y-70380000D03*
G04 #@! TD*
D14*
G04 #@! TO.C,C2*
X196820000Y-83670000D03*
D15*
X196820000Y-86170000D03*
G04 #@! TD*
%LPD*%
M02*
