M48
; DRILL file {KiCad 8.0.4} date 2024-12-03T14:34:08+0100
; FORMAT={-:-/ absolute / metric / decimal}
; #@! TF.CreationDate,2024-12-03T14:34:08+01:00
; #@! TF.GenerationSoftware,Kicad,Pcbnew,8.0.4
; #@! TF.FileFunction,Plated,1,2,PTH
FMAT,2
METRIC
; #@! TA.AperFunction,Plated,PTH,ViaDrill
T1C0.300
; #@! TA.AperFunction,Plated,PTH,ComponentDrill
T2C0.800
; #@! TA.AperFunction,Plated,PTH,ComponentDrill
T3C0.900
; #@! TA.AperFunction,Plated,PTH,ComponentDrill
T4C1.000
%
G90
G05
T1
X166.7Y-56.57
X168.78Y-90.66
X169.76Y-71.18
X171.02Y-72.57
X172.551Y-69.449
X173.7Y-67.02
X176.22Y-66.56
X181.96Y-79.23
X184.08Y-47.71
X184.88Y-58.65
X184.98Y-53.25
X186.44Y-77.59
X186.77Y-74.01
X187.94Y-70.56
X189.85Y-65.64
X198.19Y-69.34
T2
X168.78Y-87.74
X168.86Y-81.11
X171.28Y-87.74
X171.36Y-81.11
X173.05Y-95.3
X173.06Y-92.14
X175.72Y-81.995
X175.72Y-86.875
X179.75Y-74.015
X179.75Y-76.515
X180.67Y-95.3
X180.68Y-92.14
X180.71Y-80.69
X180.71Y-88.31
X184.17Y-62.835
X184.17Y-65.375
X184.17Y-67.915
X184.17Y-70.455
X184.17Y-72.995
X184.17Y-75.535
X184.17Y-78.075
X184.17Y-80.615
X184.17Y-83.155
X184.17Y-85.695
X184.17Y-88.235
X184.17Y-90.775
X184.17Y-93.315
X184.17Y-95.855
X191.79Y-62.835
X191.79Y-65.375
X191.79Y-67.915
X191.79Y-70.455
X191.79Y-72.995
X191.79Y-75.535
X191.79Y-78.075
X191.79Y-80.615
X191.79Y-83.155
X191.79Y-85.695
X191.79Y-88.235
X191.79Y-90.775
X191.79Y-93.315
X191.79Y-95.855
X194.93Y-67.71
X194.93Y-75.33
X196.82Y-83.67
X196.82Y-86.17
X196.84Y-78.11
X196.84Y-80.61
T3
X166.895Y-94.95
X169.435Y-94.95
X179.26Y-67.9
X179.26Y-70.44
T4
X162.085Y-45.99
X162.84Y-51.82
X164.625Y-45.99
X165.38Y-51.82
X167.165Y-45.99
X167.92Y-51.82
X170.46Y-51.82
X171.39Y-45.78
X173.93Y-45.78
X176.47Y-45.78
X179.01Y-45.78
X181.55Y-45.78
X184.09Y-45.78
X186.63Y-45.78
X189.17Y-45.78
X191.1Y-55.23
X191.1Y-58.43
X194.21Y-46.025
X194.21Y-48.565
X197.74Y-62.24
X197.74Y-64.78
X197.92Y-45.99
X197.92Y-48.53
X197.92Y-51.07
X197.92Y-53.61
X197.92Y-56.15
M30
